M48
;DRILL file {KiCad 4.0.7} date 01/05/18 16:36:37
;FORMAT={3:3/ absolute / metric / suppress leading zeros}
FMAT,2
METRIC,TZ
T1C0.300
T2C0.400
T3C0.900
T4C1.000
T5C1.200
T6C1.300
T7C3.000
T8C3.200
%
G90
G05
M71
T1
X91000Y-86000
X91500Y-109000
X91500Y-110000
X91500Y-111000
X91500Y-112000
X91500Y-113000
X91500Y-114000
X91500Y-115000
X91500Y-116000
X91500Y-117000
X91500Y-118000
X91500Y-119000
X91500Y-120000
X91500Y-121000
X91500Y-122000
X91500Y-123000
X91500Y-124000
X91500Y-125000
X91500Y-126000
X91500Y-127000
X91500Y-128000
X91500Y-129000
X91500Y-130000
X91500Y-131000
X91500Y-132000
X91500Y-133000
X91500Y-134000
X92000Y-86000
X92500Y-111000
X92500Y-112000
X92500Y-113000
X92500Y-114000
X92500Y-115000
X92500Y-116000
X92500Y-117000
X92500Y-118000
X92500Y-119000
X92500Y-120000
X92500Y-121000
X92500Y-122000
X92500Y-123000
X92500Y-124000
X92500Y-125000
X92500Y-126000
X92500Y-134000
X93000Y-86000
X93500Y-111000
X93500Y-112000
X93500Y-113000
X93500Y-114000
X93500Y-115000
X93500Y-116000
X93500Y-117000
X93500Y-118000
X93500Y-119000
X93500Y-120000
X93500Y-121000
X93500Y-122000
X93500Y-123000
X93500Y-124000
X93500Y-125000
X93500Y-126000
X93500Y-134000
X94000Y-86000
X94500Y-111000
X94500Y-112000
X94500Y-113000
X94500Y-114000
X94500Y-115000
X94500Y-116000
X94500Y-117000
X94500Y-118000
X94500Y-119000
X94500Y-120000
X94500Y-121000
X94500Y-122000
X94500Y-123000
X94500Y-124000
X94500Y-125000
X94500Y-126000
X94500Y-134000
X95000Y-86000
X95500Y-111000
X95500Y-112000
X95500Y-113000
X95500Y-114000
X95500Y-115000
X95500Y-116000
X95500Y-117000
X95500Y-118000
X95500Y-119000
X95500Y-120000
X95500Y-121000
X95500Y-122000
X95500Y-123000
X95500Y-124000
X95500Y-125000
X95500Y-126000
X95500Y-134000
X96000Y-86000
X96500Y-111000
X96500Y-112000
X96500Y-113000
X96500Y-114000
X96500Y-115000
X96500Y-116000
X96500Y-117000
X96500Y-118000
X96500Y-119000
X96500Y-120000
X96500Y-121000
X96500Y-122000
X96500Y-123000
X96500Y-124000
X96500Y-125000
X96500Y-126000
X96500Y-134000
X97000Y-86000
X97500Y-111000
X97500Y-112000
X97500Y-113000
X97500Y-114000
X97500Y-115000
X97500Y-116000
X97500Y-117000
X97500Y-118000
X97500Y-119000
X97500Y-120000
X97500Y-121000
X97500Y-122000
X97500Y-123000
X97500Y-124000
X97500Y-125000
X97500Y-126000
X97500Y-134000
X98000Y-86000
X98500Y-111000
X98500Y-112000
X98500Y-113000
X98500Y-114000
X98500Y-115000
X98500Y-116000
X98500Y-117000
X98500Y-118000
X98500Y-119000
X98500Y-120000
X98500Y-121000
X98500Y-122000
X98500Y-123000
X98500Y-124000
X98500Y-125000
X98500Y-126000
X98500Y-134000
X99000Y-86000
X99500Y-111000
X99500Y-112000
X99500Y-113000
X99500Y-114000
X99500Y-115000
X99500Y-116000
X99500Y-117000
X99500Y-118000
X99500Y-119000
X99500Y-120000
X99500Y-121000
X99500Y-122000
X99500Y-123000
X99500Y-124000
X99500Y-125000
X99500Y-126000
X99500Y-134000
X100000Y-86000
X100500Y-111000
X100500Y-112000
X100500Y-113000
X100500Y-114000
X100500Y-115000
X100500Y-116000
X100500Y-117000
X100500Y-118000
X100500Y-119000
X100500Y-120000
X100500Y-121000
X100500Y-122000
X100500Y-123000
X100500Y-124000
X100500Y-125000
X100500Y-126000
X100500Y-134000
X101000Y-86000
X101500Y-111000
X101500Y-112000
X101500Y-113000
X101500Y-114000
X101500Y-115000
X101500Y-116000
X101500Y-117000
X101500Y-118000
X101500Y-119000
X101500Y-120000
X101500Y-121000
X101500Y-122000
X101500Y-123000
X101500Y-124000
X101500Y-125000
X101500Y-126000
X101500Y-134000
X102000Y-86000
X102500Y-134000
X103000Y-86000
X103500Y-134000
X104000Y-86000
X104500Y-134000
X105000Y-86000
X106000Y-86000
X107000Y-86000
X108000Y-86000
X109000Y-86000
X110000Y-86000
X111000Y-86000
X112000Y-86000
X113000Y-86000
X114000Y-86000
X115000Y-86000
X116000Y-86000
X117000Y-86000
X118000Y-86000
X119000Y-86000
X120000Y-86000
X121000Y-86000
X122000Y-86000
X123000Y-86000
X124000Y-86000
X125000Y-86000
X126000Y-86000
X127000Y-86000
X128000Y-86000
X129000Y-86000
X130000Y-86000
X131000Y-86000
X132000Y-86000
X133000Y-86000
X134000Y-86000
X135000Y-86000
X136000Y-86000
X137000Y-86000
X138000Y-86000
X139000Y-86000
X140000Y-86000
X141000Y-86000
X141500Y-134000
X142000Y-86000
X142500Y-134000
X143000Y-86000
X143500Y-134000
X144000Y-86000
X144500Y-134000
X145000Y-86000
X145500Y-134000
X146000Y-86000
X146500Y-134000
X147000Y-86000
X147500Y-134000
X148000Y-86000
X148500Y-134000
X149000Y-86000
X149500Y-134000
X150000Y-86000
X150500Y-134000
X151000Y-86000
X151500Y-134000
X152000Y-86000
X152500Y-134000
X153000Y-86000
X153500Y-134000
X154000Y-86000
X154500Y-134000
X155000Y-86000
X155500Y-134000
X156000Y-86000
X156500Y-134000
X157000Y-86000
X157500Y-134000
X158000Y-86000
X158500Y-134000
X159000Y-86000
X159500Y-134000
X160000Y-86000
X160500Y-134000
X161000Y-86000
X161500Y-134000
X162000Y-86000
X162500Y-134000
X163000Y-86000
X163500Y-134000
X164000Y-86000
X164500Y-134000
X165000Y-86000
X165500Y-134000
X166000Y-86000
X166500Y-134000
X167000Y-86000
X167500Y-134000
X168000Y-86000
X168500Y-134000
X169000Y-86000
X170000Y-86000
X171000Y-86000
X172000Y-86000
X173000Y-86000
X174000Y-86000
X175000Y-86000
X176000Y-86000
X176500Y-134000
X177000Y-86000
X177500Y-134000
X178000Y-86000
X178000Y-111000
X178000Y-112000
X178000Y-113000
X178000Y-114000
X178000Y-115000
X178000Y-116000
X178000Y-117000
X178000Y-118000
X178000Y-119000
X178000Y-120000
X178000Y-121000
X178000Y-122000
X178000Y-123000
X178000Y-124000
X178000Y-125000
X178000Y-126000
X178500Y-134000
X179000Y-86000
X179000Y-111000
X179000Y-112000
X179000Y-113000
X179000Y-114000
X179000Y-115000
X179000Y-116000
X179000Y-117000
X179000Y-118000
X179000Y-119000
X179000Y-120000
X179000Y-121000
X179000Y-122000
X179000Y-123000
X179000Y-124000
X179000Y-125000
X179000Y-126000
X179500Y-134000
X180000Y-86000
X180000Y-111000
X180000Y-112000
X180000Y-113000
X180000Y-114000
X180000Y-115000
X180000Y-116000
X180000Y-117000
X180000Y-118000
X180000Y-119000
X180000Y-120000
X180000Y-121000
X180000Y-122000
X180000Y-123000
X180000Y-124000
X180000Y-125000
X180000Y-126000
X180500Y-134000
X181000Y-86000
X181000Y-111000
X181000Y-112000
X181000Y-113000
X181000Y-114000
X181000Y-115000
X181000Y-116000
X181000Y-117000
X181000Y-118000
X181000Y-119000
X181000Y-120000
X181000Y-121000
X181000Y-122000
X181000Y-123000
X181000Y-124000
X181000Y-125000
X181000Y-126000
X181500Y-134000
X182000Y-86000
X182000Y-111000
X182000Y-112000
X182000Y-113000
X182000Y-114000
X182000Y-115000
X182000Y-116000
X182000Y-117000
X182000Y-118000
X182000Y-119000
X182000Y-120000
X182000Y-121000
X182000Y-122000
X182000Y-123000
X182000Y-124000
X182000Y-125000
X182000Y-126000
X182500Y-134000
X183000Y-86000
X183000Y-111000
X183000Y-112000
X183000Y-113000
X183000Y-114000
X183000Y-115000
X183000Y-116000
X183000Y-117000
X183000Y-118000
X183000Y-119000
X183000Y-120000
X183000Y-121000
X183000Y-122000
X183000Y-123000
X183000Y-124000
X183000Y-125000
X183000Y-126000
X183500Y-134000
X184000Y-86000
X184000Y-111000
X184000Y-112000
X184000Y-113000
X184000Y-114000
X184000Y-115000
X184000Y-116000
X184000Y-117000
X184000Y-118000
X184000Y-119000
X184000Y-120000
X184000Y-121000
X184000Y-122000
X184000Y-123000
X184000Y-124000
X184000Y-125000
X184000Y-126000
X184500Y-134000
X185000Y-86000
X185000Y-111000
X185000Y-112000
X185000Y-113000
X185000Y-114000
X185000Y-115000
X185000Y-116000
X185000Y-117000
X185000Y-118000
X185000Y-119000
X185000Y-120000
X185000Y-121000
X185000Y-122000
X185000Y-123000
X185000Y-124000
X185000Y-125000
X185000Y-126000
X185500Y-134000
X186000Y-86000
X186000Y-111000
X186000Y-112000
X186000Y-113000
X186000Y-114000
X186000Y-115000
X186000Y-116000
X186000Y-117000
X186000Y-118000
X186000Y-119000
X186000Y-120000
X186000Y-121000
X186000Y-122000
X186000Y-123000
X186000Y-124000
X186000Y-125000
X186000Y-126000
X186500Y-134000
X187000Y-86000
X187000Y-111000
X187000Y-112000
X187000Y-113000
X187000Y-114000
X187000Y-115000
X187000Y-116000
X187000Y-117000
X187000Y-118000
X187000Y-119000
X187000Y-120000
X187000Y-121000
X187000Y-122000
X187000Y-123000
X187000Y-124000
X187000Y-125000
X187000Y-126000
X187500Y-134000
X188000Y-86000
X188500Y-134000
X189000Y-86000
X189000Y-87000
X189000Y-88000
X189000Y-89000
X189000Y-90000
X189000Y-91000
X189000Y-92000
X189000Y-93000
X189000Y-94000
X189000Y-95000
X189000Y-96000
X189000Y-97000
X189000Y-98000
X189000Y-99000
X189000Y-100000
X189000Y-101000
X189000Y-110000
X189000Y-111000
X189000Y-112000
X189000Y-113000
X189000Y-114000
X189000Y-115000
X189000Y-116000
X189000Y-117000
X189000Y-118000
X189000Y-119000
X189000Y-120000
X189000Y-121000
X189000Y-122000
X189000Y-123000
X189000Y-124000
X189000Y-125000
X189000Y-126000
X189000Y-127000
X189000Y-128000
X189000Y-129000
X189000Y-130000
X189000Y-131000
X189000Y-132000
X189000Y-133000
T2
X93000Y-100000
X94000Y-110000
X95000Y-100000
X95000Y-110000
X96000Y-100000
X96000Y-110000
X97000Y-100000
X97000Y-110000
X98000Y-100000
X98000Y-110000
X99000Y-100000
X99000Y-110000
X100000Y-100000
X100000Y-110000
X101000Y-100000
X101000Y-110000
X102000Y-100000
X102000Y-110000
X103000Y-100000
X103000Y-110000
X104000Y-99000
X104000Y-110000
X105000Y-98000
X105000Y-110000
X105000Y-123000
X105000Y-124000
X105000Y-125000
X106000Y-97000
X106000Y-110000
X106000Y-122000
X107000Y-96000
X107000Y-110000
X107000Y-121000
X108000Y-95000
X108000Y-109000
X108000Y-120000
X109000Y-95000
X109000Y-108000
X109000Y-119000
X109000Y-125000
X109000Y-126000
X110000Y-95000
X110000Y-107000
X110000Y-119000
X110000Y-124000
X111000Y-95000
X111000Y-106000
X111000Y-119000
X111000Y-123000
X112000Y-92000
X112000Y-93000
X112000Y-94000
X112000Y-95000
X112000Y-105000
X112000Y-119000
X112000Y-122000
X112000Y-134000
X113000Y-92000
X113000Y-105000
X113000Y-119000
X113000Y-122000
X113000Y-123000
X113000Y-124000
X113000Y-125000
X114000Y-92000
X114000Y-105000
X115000Y-92000
X115000Y-105000
X116000Y-92000
X116000Y-105000
X116000Y-125000
X117000Y-92000
X117000Y-105000
X117000Y-125000
X117000Y-134000
X118000Y-93000
X118000Y-94000
X118000Y-95000
X118000Y-105000
X118000Y-125000
X119000Y-95000
X119000Y-105000
X119000Y-125000
X120000Y-95000
X120000Y-105000
X120000Y-116000
X120000Y-125000
X121000Y-95000
X121000Y-105000
X121000Y-116000
X122000Y-95000
X122000Y-105000
X122000Y-116000
X123000Y-95000
X123000Y-105000
X123000Y-116000
X124000Y-95000
X124000Y-105000
X124000Y-116000
X125000Y-94000
X125000Y-105000
X125000Y-116000
X126000Y-93000
X126000Y-105000
X126000Y-116000
X127000Y-92000
X127000Y-105000
X127000Y-116000
X127000Y-117000
X127000Y-118000
X127000Y-119000
X127000Y-122000
X127000Y-123000
X127000Y-124000
X127000Y-125000
X127000Y-126000
X127000Y-127000
X127000Y-134000
X128000Y-91000
X128000Y-104000
X128000Y-119000
X128000Y-122000
X129000Y-90000
X129000Y-103000
X129000Y-119000
X129000Y-122000
X130000Y-90000
X130000Y-102000
X130000Y-119000
X130000Y-122000
X131000Y-90000
X131000Y-101000
X131000Y-119000
X131000Y-122000
X132000Y-90000
X132000Y-100000
X132000Y-119000
X132000Y-122000
X132000Y-134000
X133000Y-90000
X133000Y-100000
X133000Y-119000
X133000Y-123000
X134000Y-90000
X134000Y-100000
X134000Y-119000
X134000Y-124000
X135000Y-90000
X135000Y-100000
X135000Y-120000
X135000Y-125000
X136000Y-90000
X136000Y-100000
X136000Y-121000
X137000Y-90000
X137000Y-100000
X137000Y-122000
X138000Y-90000
X138000Y-100000
X138000Y-123000
X139000Y-90000
X139000Y-100000
X139000Y-125000
X140000Y-90000
X140000Y-100000
X141000Y-90000
X141000Y-100000
X142000Y-90000
X142000Y-100000
X143000Y-100000
X144000Y-100000
X145000Y-100000
X146000Y-90000
X146000Y-100000
X146000Y-102000
X146000Y-103000
X146000Y-104000
X146000Y-105000
X146000Y-106000
X146000Y-107000
X146000Y-108000
X147000Y-90000
X147000Y-100000
X147000Y-102000
X147000Y-109000
X148000Y-90000
X148000Y-100000
X148000Y-102000
X148000Y-109000
X149000Y-90000
X149000Y-100000
X149000Y-102000
X149000Y-109000
X150000Y-90000
X150000Y-100000
X150000Y-102000
X150000Y-109000
X151000Y-90000
X151000Y-100000
X151000Y-102000
X151000Y-109000
X152000Y-90000
X152000Y-100000
X152000Y-102000
X152000Y-109000
X153000Y-90000
X153000Y-100000
X153000Y-103000
X153000Y-109000
X154000Y-90000
X154000Y-100000
X154000Y-103000
X154000Y-109000
X155000Y-90000
X155000Y-100000
X155000Y-103000
X155000Y-109000
X155500Y-119000
X155500Y-121000
X155500Y-122500
X156000Y-90000
X156000Y-100000
X156000Y-103000
X156000Y-109000
X157000Y-90000
X157000Y-100000
X157000Y-103000
X157000Y-109000
X158000Y-90000
X158000Y-100000
X158000Y-103000
X158000Y-109000
X158000Y-119500
X158000Y-121500
X158000Y-123500
X158000Y-125500
X159000Y-90000
X159000Y-100000
X159000Y-103000
X159000Y-109000
X160000Y-90000
X160000Y-100000
X160000Y-103000
X161000Y-90000
X161000Y-100000
X161000Y-103000
X162000Y-90000
X162000Y-100000
X162000Y-103000
X163000Y-90000
X163000Y-100000
X163000Y-103000
X164000Y-90000
X164000Y-100000
X164000Y-103000
X164000Y-109000
X165000Y-90000
X165000Y-100000
X165000Y-103000
X165000Y-109000
X166000Y-90000
X166000Y-100000
X166000Y-103000
X166000Y-109000
X167000Y-90000
X167000Y-100000
X167000Y-103000
X167000Y-109000
X168000Y-90000
X168000Y-100000
X168000Y-104000
X168000Y-109000
X169000Y-90000
X169000Y-100000
X169000Y-105000
X169000Y-110000
X170000Y-90000
X170000Y-100000
X170000Y-106000
X170000Y-111000
X171000Y-90000
X171000Y-100000
X171000Y-107000
X171000Y-112000
X171000Y-113000
X171000Y-114000
X171000Y-115000
X171000Y-116000
X171000Y-117000
X171000Y-118000
X171000Y-119000
X171000Y-120000
X171000Y-121000
X171000Y-122000
X171000Y-123000
X171000Y-124000
X171000Y-125000
X172000Y-90000
X172000Y-100000
X172000Y-101000
X172000Y-102000
X172000Y-103000
X172000Y-104000
X172000Y-108000
X173000Y-90000
X173000Y-105000
X173000Y-109000
X174000Y-90000
X174000Y-106000
X174000Y-110000
X174000Y-111000
X174000Y-112000
X174000Y-113000
X174000Y-114000
X174000Y-115000
X174000Y-119000
X174000Y-120000
X174000Y-121000
X174000Y-122000
X174000Y-123000
X175000Y-90000
X175000Y-107000
X176000Y-90000
X176000Y-108000
X177000Y-90000
X177000Y-109000
X178000Y-90000
X178000Y-110000
X179000Y-90000
X179000Y-110000
X180000Y-90000
X180000Y-110000
X181000Y-90000
X181000Y-91000
X181000Y-92000
X181000Y-93000
X181000Y-94000
X181000Y-95000
X181000Y-96000
X181000Y-97000
X181000Y-98000
X181000Y-99000
X181000Y-100000
X181000Y-110000
X182000Y-100000
X182000Y-110000
X183000Y-100000
X183000Y-110000
X184000Y-100000
X184000Y-101000
X184000Y-110000
X185000Y-101000
X185000Y-110000
X186000Y-101000
X186000Y-110000
X187000Y-110000
X188000Y-110000
T3
X114500Y-117960
X114500Y-123040
X119580Y-117960
X119580Y-123040
X122100Y-123040
X122120Y-117960
X124660Y-117960
X124660Y-123040
T4
X139405Y-88570
X177000Y-88500
T5
X149840Y-130000
X152380Y-130000
X154920Y-130000
X157460Y-130000
X160000Y-130000
T6
X92460Y-102460
X92460Y-107540
X95000Y-105000
X97540Y-102460
X97540Y-107540
X104460Y-127460
X104460Y-132540
X107000Y-130000
X109540Y-127460
X109540Y-132540
X119460Y-127460
X119460Y-132540
X122000Y-130000
X124540Y-127460
X124540Y-132540
X134460Y-127460
X134460Y-132540
X137000Y-130000
X139540Y-127460
X139540Y-132540
X169960Y-127460
X169960Y-132540
X172500Y-130000
X175040Y-127460
X175040Y-132540
X182460Y-102460
X182460Y-107540
X185000Y-105000
X187540Y-102460
X187540Y-107540
T7
X130000Y-107000
T8
X95000Y-90000
X95000Y-130000
X144000Y-91000
X185000Y-90000
X185000Y-130000
T0
M30
