G04 #@! TF.GenerationSoftware,KiCad,Pcbnew,(5.0.2)-1*
G04 #@! TF.CreationDate,2019-03-14T16:57:05+01:00*
G04 #@! TF.ProjectId,Themis,5468656d-6973-42e6-9b69-6361645f7063,rev?*
G04 #@! TF.SameCoordinates,Original*
G04 #@! TF.FileFunction,Soldermask,Bot*
G04 #@! TF.FilePolarity,Negative*
%FSLAX46Y46*%
G04 Gerber Fmt 4.6, Leading zero omitted, Abs format (unit mm)*
G04 Created by KiCad (PCBNEW (5.0.2)-1) date 14/03/2019 16:57:05*
%MOMM*%
%LPD*%
G01*
G04 APERTURE LIST*
%ADD10C,0.150000*%
%ADD11C,0.100000*%
G04 APERTURE END LIST*
D10*
X90000000Y-135000000D02*
X90000000Y-85000000D01*
X190000000Y-135000000D02*
X90000000Y-135000000D01*
X190000000Y-85000000D02*
X190000000Y-135000000D01*
X90000000Y-85000000D02*
X190000000Y-85000000D01*
D11*
G36*
X190000000Y-135000000D02*
X90000000Y-135000000D01*
X90000000Y-93125000D01*
X95000000Y-93125000D01*
X95000000Y-103825266D01*
X95002402Y-103849652D01*
X95009515Y-103873101D01*
X95021066Y-103894712D01*
X95036612Y-103913654D01*
X95055554Y-103929200D01*
X95060077Y-103931617D01*
X95264633Y-104068297D01*
X95431703Y-104235367D01*
X95562974Y-104431828D01*
X95653395Y-104650124D01*
X95699490Y-104881859D01*
X95699490Y-105118141D01*
X95653395Y-105349876D01*
X95562974Y-105568172D01*
X95431703Y-105764633D01*
X95264633Y-105931703D01*
X95060084Y-106068378D01*
X95055563Y-106070794D01*
X95036619Y-106086338D01*
X95021072Y-106105279D01*
X95009519Y-106126889D01*
X95002404Y-106150337D01*
X95000000Y-106174734D01*
X95000000Y-126875000D01*
X95002402Y-126899386D01*
X95009515Y-126922835D01*
X95021066Y-126944446D01*
X95036612Y-126963388D01*
X95055554Y-126978934D01*
X95077165Y-126990485D01*
X95100614Y-126997598D01*
X95125000Y-127000000D01*
X95295476Y-127000000D01*
X95681870Y-127076859D01*
X95875068Y-127115288D01*
X96421033Y-127341434D01*
X96882834Y-127650000D01*
X96912392Y-127669750D01*
X97330250Y-128087608D01*
X97330252Y-128087611D01*
X97658566Y-128578967D01*
X97884712Y-129124932D01*
X97923141Y-129318130D01*
X98000000Y-129704524D01*
X98000000Y-129875000D01*
X98002402Y-129899386D01*
X98009515Y-129922835D01*
X98021066Y-129944446D01*
X98036612Y-129963388D01*
X98055554Y-129978934D01*
X98077165Y-129990485D01*
X98100614Y-129997598D01*
X98125000Y-130000000D01*
X131593967Y-130000000D01*
X131618353Y-129997598D01*
X131641802Y-129990485D01*
X131663413Y-129978934D01*
X131682355Y-129963388D01*
X131697901Y-129944446D01*
X131709452Y-129922835D01*
X131713581Y-129911297D01*
X131765981Y-129738558D01*
X131765982Y-129738554D01*
X131877408Y-129530090D01*
X132027367Y-129347366D01*
X132210091Y-129197408D01*
X132418554Y-129085983D01*
X132418557Y-129085982D01*
X132418559Y-129085981D01*
X132644760Y-129017363D01*
X132880000Y-128994194D01*
X133115241Y-129017363D01*
X133341442Y-129085981D01*
X133341444Y-129085982D01*
X133341447Y-129085983D01*
X133549910Y-129197408D01*
X133732634Y-129347366D01*
X133882592Y-129530090D01*
X133994018Y-129738554D01*
X134030382Y-129858431D01*
X134039760Y-129881071D01*
X134053374Y-129901445D01*
X134070701Y-129918772D01*
X134091075Y-129932386D01*
X134113714Y-129941764D01*
X134137748Y-129946544D01*
X134162252Y-129946544D01*
X134186285Y-129941764D01*
X134208925Y-129932386D01*
X134229299Y-129918772D01*
X134246626Y-129901445D01*
X134260240Y-129881071D01*
X134269618Y-129858431D01*
X134305982Y-129738554D01*
X134417408Y-129530090D01*
X134567367Y-129347366D01*
X134750091Y-129197408D01*
X134958554Y-129085983D01*
X134958557Y-129085982D01*
X134958559Y-129085981D01*
X135184760Y-129017363D01*
X135420000Y-128994194D01*
X135655241Y-129017363D01*
X135881442Y-129085981D01*
X135881444Y-129085982D01*
X135881447Y-129085983D01*
X136089910Y-129197408D01*
X136272634Y-129347366D01*
X136422592Y-129530090D01*
X136534018Y-129738554D01*
X136570382Y-129858431D01*
X136579760Y-129881071D01*
X136593374Y-129901445D01*
X136610701Y-129918772D01*
X136631075Y-129932386D01*
X136653714Y-129941764D01*
X136677748Y-129946544D01*
X136702252Y-129946544D01*
X136726285Y-129941764D01*
X136748925Y-129932386D01*
X136769299Y-129918772D01*
X136786626Y-129901445D01*
X136800240Y-129881071D01*
X136809618Y-129858431D01*
X136845982Y-129738554D01*
X136957408Y-129530090D01*
X137107367Y-129347366D01*
X137290091Y-129197408D01*
X137498554Y-129085983D01*
X137498557Y-129085982D01*
X137498559Y-129085981D01*
X137724760Y-129017363D01*
X137960000Y-128994194D01*
X138195241Y-129017363D01*
X138421442Y-129085981D01*
X138421444Y-129085982D01*
X138421447Y-129085983D01*
X138629910Y-129197408D01*
X138812634Y-129347366D01*
X138962592Y-129530090D01*
X139074018Y-129738554D01*
X139110382Y-129858431D01*
X139119760Y-129881071D01*
X139133374Y-129901445D01*
X139150701Y-129918772D01*
X139171075Y-129932386D01*
X139193714Y-129941764D01*
X139217748Y-129946544D01*
X139242252Y-129946544D01*
X139266285Y-129941764D01*
X139288925Y-129932386D01*
X139309299Y-129918772D01*
X139326626Y-129901445D01*
X139340240Y-129881071D01*
X139349618Y-129858431D01*
X139385982Y-129738554D01*
X139497408Y-129530090D01*
X139647367Y-129347366D01*
X139830091Y-129197408D01*
X140038554Y-129085983D01*
X140038557Y-129085982D01*
X140038559Y-129085981D01*
X140264760Y-129017363D01*
X140500000Y-128994194D01*
X140735241Y-129017363D01*
X140961442Y-129085981D01*
X140961444Y-129085982D01*
X140961447Y-129085983D01*
X141169910Y-129197408D01*
X141352634Y-129347366D01*
X141502592Y-129530090D01*
X141604760Y-129721234D01*
X141618374Y-129741609D01*
X141635701Y-129758936D01*
X141656075Y-129772550D01*
X141678714Y-129781927D01*
X141702748Y-129786708D01*
X141727252Y-129786708D01*
X141751285Y-129781928D01*
X141773924Y-129772550D01*
X141794299Y-129758936D01*
X141811626Y-129741609D01*
X141825240Y-129721235D01*
X141834617Y-129698596D01*
X141839398Y-129674562D01*
X141840000Y-129662310D01*
X141840000Y-129000000D01*
X144240000Y-129000000D01*
X144240000Y-129875000D01*
X144242402Y-129899386D01*
X144249515Y-129922835D01*
X144261066Y-129944446D01*
X144276612Y-129963388D01*
X144295554Y-129978934D01*
X144317165Y-129990485D01*
X144340614Y-129997598D01*
X144365000Y-130000000D01*
X154300000Y-130000000D01*
X154324386Y-129997598D01*
X154347835Y-129990485D01*
X154369446Y-129978934D01*
X154388388Y-129963388D01*
X154403934Y-129944446D01*
X154415485Y-129922835D01*
X154422598Y-129899386D01*
X154425000Y-129875000D01*
X154425000Y-129300000D01*
X156075000Y-129300000D01*
X156075000Y-129875000D01*
X156077402Y-129899386D01*
X156084515Y-129922835D01*
X156096066Y-129944446D01*
X156111612Y-129963388D01*
X156130554Y-129978934D01*
X156152165Y-129990485D01*
X156175614Y-129997598D01*
X156200000Y-130000000D01*
X158525000Y-130000000D01*
X158549386Y-129997598D01*
X158572835Y-129990485D01*
X158594446Y-129978934D01*
X158613388Y-129963388D01*
X158628934Y-129944446D01*
X158640485Y-129922835D01*
X158647598Y-129899386D01*
X158650000Y-129875000D01*
X158650000Y-129200000D01*
X160350000Y-129200000D01*
X160350000Y-129875000D01*
X160352402Y-129899386D01*
X160359515Y-129922835D01*
X160371066Y-129944446D01*
X160386612Y-129963388D01*
X160405554Y-129978934D01*
X160427165Y-129990485D01*
X160450614Y-129997598D01*
X160475000Y-130000000D01*
X165825266Y-130000000D01*
X165849652Y-129997598D01*
X165873101Y-129990485D01*
X165894712Y-129978934D01*
X165913654Y-129963388D01*
X165929200Y-129944446D01*
X165931617Y-129939923D01*
X166068297Y-129735367D01*
X166235367Y-129568297D01*
X166431828Y-129437026D01*
X166650124Y-129346605D01*
X166881859Y-129300510D01*
X167118141Y-129300510D01*
X167349876Y-129346605D01*
X167568172Y-129437026D01*
X167764633Y-129568297D01*
X167931703Y-129735367D01*
X167931705Y-129735370D01*
X168049248Y-129911285D01*
X168068378Y-129939916D01*
X168070794Y-129944437D01*
X168086338Y-129963381D01*
X168105279Y-129978928D01*
X168126889Y-129990481D01*
X168150337Y-129997596D01*
X168174734Y-130000000D01*
X181875000Y-130000000D01*
X181899386Y-129997598D01*
X181922835Y-129990485D01*
X181944446Y-129978934D01*
X181963388Y-129963388D01*
X181978934Y-129944446D01*
X181990485Y-129922835D01*
X181997598Y-129899386D01*
X182000000Y-129875000D01*
X182000000Y-129704524D01*
X182076859Y-129318130D01*
X182115288Y-129124932D01*
X182341434Y-128578967D01*
X182669748Y-128087611D01*
X182669750Y-128087608D01*
X183087608Y-127669750D01*
X183117166Y-127650000D01*
X183578967Y-127341434D01*
X184124932Y-127115288D01*
X184318130Y-127076859D01*
X184704524Y-127000000D01*
X184875000Y-127000000D01*
X184899386Y-126997598D01*
X184922835Y-126990485D01*
X184944446Y-126978934D01*
X184963388Y-126963388D01*
X184978934Y-126944446D01*
X184990485Y-126922835D01*
X184997598Y-126899386D01*
X185000000Y-126875000D01*
X185000000Y-106174734D01*
X184997598Y-106150348D01*
X184990485Y-106126899D01*
X184978934Y-106105288D01*
X184963388Y-106086346D01*
X184944446Y-106070800D01*
X184939923Y-106068383D01*
X184735367Y-105931703D01*
X184568297Y-105764633D01*
X184437026Y-105568172D01*
X184346605Y-105349876D01*
X184300510Y-105118141D01*
X184300510Y-104881859D01*
X184346605Y-104650124D01*
X184437026Y-104431828D01*
X184568297Y-104235367D01*
X184735367Y-104068297D01*
X184939916Y-103931622D01*
X184944437Y-103929206D01*
X184963381Y-103913662D01*
X184978928Y-103894721D01*
X184990481Y-103873111D01*
X184997596Y-103849663D01*
X185000000Y-103825266D01*
X185000000Y-93125000D01*
X184997598Y-93100614D01*
X184990485Y-93077165D01*
X184978934Y-93055554D01*
X184963388Y-93036612D01*
X184944446Y-93021066D01*
X184922835Y-93009515D01*
X184899386Y-93002402D01*
X184875000Y-93000000D01*
X184704524Y-93000000D01*
X184318130Y-92923141D01*
X184124932Y-92884712D01*
X183578967Y-92658566D01*
X183087611Y-92330252D01*
X183087608Y-92330250D01*
X182669750Y-91912392D01*
X182593063Y-91797622D01*
X182341434Y-91421033D01*
X182115288Y-90875068D01*
X182000000Y-90295474D01*
X182000000Y-90125000D01*
X181997598Y-90100614D01*
X181990485Y-90077165D01*
X181978934Y-90055554D01*
X181963388Y-90036612D01*
X181944446Y-90021066D01*
X181922835Y-90009515D01*
X181899386Y-90002402D01*
X181875000Y-90000000D01*
X98125000Y-90000000D01*
X98100614Y-90002402D01*
X98077165Y-90009515D01*
X98055554Y-90021066D01*
X98036612Y-90036612D01*
X98021066Y-90055554D01*
X98009515Y-90077165D01*
X98002402Y-90100614D01*
X98000000Y-90125000D01*
X98000000Y-90295474D01*
X97884712Y-90875068D01*
X97658566Y-91421033D01*
X97406937Y-91797622D01*
X97330250Y-91912392D01*
X96912392Y-92330250D01*
X96912389Y-92330252D01*
X96421033Y-92658566D01*
X95875068Y-92884712D01*
X95681870Y-92923141D01*
X95295476Y-93000000D01*
X95125000Y-93000000D01*
X95100614Y-93002402D01*
X95077165Y-93009515D01*
X95055554Y-93021066D01*
X95036612Y-93036612D01*
X95021066Y-93055554D01*
X95009515Y-93077165D01*
X95002402Y-93100614D01*
X95000000Y-93125000D01*
X90000000Y-93125000D01*
X90000000Y-85000000D01*
X190000000Y-85000000D01*
X190000000Y-135000000D01*
X190000000Y-135000000D01*
G37*
G36*
X169962855Y-126566030D02*
X170226680Y-126675310D01*
X170464120Y-126833962D01*
X170666038Y-127035880D01*
X170824690Y-127273320D01*
X170933970Y-127537145D01*
X170989680Y-127817218D01*
X170989680Y-128102782D01*
X170933970Y-128382855D01*
X170824690Y-128646680D01*
X170666038Y-128884120D01*
X170464120Y-129086038D01*
X170226680Y-129244690D01*
X169962855Y-129353970D01*
X169682782Y-129409680D01*
X169397218Y-129409680D01*
X169117145Y-129353970D01*
X168853320Y-129244690D01*
X168615880Y-129086038D01*
X168413962Y-128884120D01*
X168255310Y-128646680D01*
X168146030Y-128382855D01*
X168090320Y-128102782D01*
X168090320Y-127817218D01*
X168146030Y-127537145D01*
X168255310Y-127273320D01*
X168413962Y-127035880D01*
X168615880Y-126833962D01*
X168853320Y-126675310D01*
X169117145Y-126566030D01*
X169397218Y-126510320D01*
X169682782Y-126510320D01*
X169962855Y-126566030D01*
X169962855Y-126566030D01*
G37*
G36*
X164882855Y-126566030D02*
X165146680Y-126675310D01*
X165384120Y-126833962D01*
X165586038Y-127035880D01*
X165744690Y-127273320D01*
X165853970Y-127537145D01*
X165909680Y-127817218D01*
X165909680Y-128102782D01*
X165853970Y-128382855D01*
X165744690Y-128646680D01*
X165586038Y-128884120D01*
X165384120Y-129086038D01*
X165146680Y-129244690D01*
X164882855Y-129353970D01*
X164602782Y-129409680D01*
X164317218Y-129409680D01*
X164037145Y-129353970D01*
X163773320Y-129244690D01*
X163535880Y-129086038D01*
X163333962Y-128884120D01*
X163175310Y-128646680D01*
X163066030Y-128382855D01*
X163010320Y-128102782D01*
X163010320Y-127817218D01*
X163066030Y-127537145D01*
X163175310Y-127273320D01*
X163333962Y-127035880D01*
X163535880Y-126833962D01*
X163773320Y-126675310D01*
X164037145Y-126566030D01*
X164317218Y-126510320D01*
X164602782Y-126510320D01*
X164882855Y-126566030D01*
X164882855Y-126566030D01*
G37*
G36*
X159600000Y-127850000D02*
X157700000Y-127850000D01*
X157700000Y-126150000D01*
X159600000Y-126150000D01*
X159600000Y-127850000D01*
X159600000Y-127850000D01*
G37*
G36*
X162300000Y-127850000D02*
X160400000Y-127850000D01*
X160400000Y-126150000D01*
X162300000Y-126150000D01*
X162300000Y-127850000D01*
X162300000Y-127850000D01*
G37*
G36*
X151800000Y-127850000D02*
X149900000Y-127850000D01*
X149900000Y-126150000D01*
X151800000Y-126150000D01*
X151800000Y-127850000D01*
X151800000Y-127850000D01*
G37*
G36*
X149100000Y-127850000D02*
X147200000Y-127850000D01*
X147200000Y-126150000D01*
X149100000Y-126150000D01*
X149100000Y-127850000D01*
X149100000Y-127850000D01*
G37*
G36*
X155600000Y-127650000D02*
X154400000Y-127650000D01*
X154400000Y-126350000D01*
X155600000Y-126350000D01*
X155600000Y-127650000D01*
X155600000Y-127650000D01*
G37*
G36*
X156550000Y-125650000D02*
X155350000Y-125650000D01*
X155350000Y-124350000D01*
X156550000Y-124350000D01*
X156550000Y-125650000D01*
X156550000Y-125650000D01*
G37*
G36*
X154650000Y-125650000D02*
X153450000Y-125650000D01*
X153450000Y-124350000D01*
X154650000Y-124350000D01*
X154650000Y-125650000D01*
X154650000Y-125650000D01*
G37*
G36*
X163850000Y-125300000D02*
X162150000Y-125300000D01*
X162150000Y-123400000D01*
X163850000Y-123400000D01*
X163850000Y-125300000D01*
X163850000Y-125300000D01*
G37*
G36*
X161325000Y-125200000D02*
X159675000Y-125200000D01*
X159675000Y-123300000D01*
X161325000Y-123300000D01*
X161325000Y-125200000D01*
X161325000Y-125200000D01*
G37*
G36*
X152405000Y-125175000D02*
X151405000Y-125175000D01*
X151405000Y-123225000D01*
X152405000Y-123225000D01*
X152405000Y-125175000D01*
X152405000Y-125175000D01*
G37*
G36*
X148595000Y-125175000D02*
X147595000Y-125175000D01*
X147595000Y-123225000D01*
X148595000Y-123225000D01*
X148595000Y-125175000D01*
X148595000Y-125175000D01*
G37*
G36*
X149865000Y-125175000D02*
X148865000Y-125175000D01*
X148865000Y-123225000D01*
X149865000Y-123225000D01*
X149865000Y-125175000D01*
X149865000Y-125175000D01*
G37*
G36*
X151135000Y-125175000D02*
X150135000Y-125175000D01*
X150135000Y-123225000D01*
X151135000Y-123225000D01*
X151135000Y-125175000D01*
X151135000Y-125175000D01*
G37*
G36*
X142850000Y-124800000D02*
X141150000Y-124800000D01*
X141150000Y-122900000D01*
X142850000Y-122900000D01*
X142850000Y-124800000D01*
X142850000Y-124800000D01*
G37*
G36*
X146850000Y-124800000D02*
X145150000Y-124800000D01*
X145150000Y-122900000D01*
X146850000Y-122900000D01*
X146850000Y-124800000D01*
X146850000Y-124800000D01*
G37*
G36*
X144825000Y-124700000D02*
X143175000Y-124700000D01*
X143175000Y-122800000D01*
X144825000Y-122800000D01*
X144825000Y-124700000D01*
X144825000Y-124700000D01*
G37*
G36*
X173300000Y-122850000D02*
X171400000Y-122850000D01*
X171400000Y-121150000D01*
X173300000Y-121150000D01*
X173300000Y-122850000D01*
X173300000Y-122850000D01*
G37*
G36*
X170600000Y-122850000D02*
X168700000Y-122850000D01*
X168700000Y-121150000D01*
X170600000Y-121150000D01*
X170600000Y-122850000D01*
X170600000Y-122850000D01*
G37*
G36*
X161325000Y-122700000D02*
X159675000Y-122700000D01*
X159675000Y-120800000D01*
X161325000Y-120800000D01*
X161325000Y-122700000D01*
X161325000Y-122700000D01*
G37*
G36*
X163850000Y-122600000D02*
X162150000Y-122600000D01*
X162150000Y-120700000D01*
X163850000Y-120700000D01*
X163850000Y-122600000D01*
X163850000Y-122600000D01*
G37*
G36*
X167850000Y-122300000D02*
X166150000Y-122300000D01*
X166150000Y-120400000D01*
X167850000Y-120400000D01*
X167850000Y-122300000D01*
X167850000Y-122300000D01*
G37*
G36*
X144825000Y-122200000D02*
X143175000Y-122200000D01*
X143175000Y-120300000D01*
X144825000Y-120300000D01*
X144825000Y-122200000D01*
X144825000Y-122200000D01*
G37*
G36*
X146850000Y-122100000D02*
X145150000Y-122100000D01*
X145150000Y-120200000D01*
X146850000Y-120200000D01*
X146850000Y-122100000D01*
X146850000Y-122100000D01*
G37*
G36*
X142850000Y-122100000D02*
X141150000Y-122100000D01*
X141150000Y-120200000D01*
X142850000Y-120200000D01*
X142850000Y-122100000D01*
X142850000Y-122100000D01*
G37*
G36*
X134850000Y-115875000D02*
X134852402Y-115899386D01*
X134859515Y-115922835D01*
X134871066Y-115944446D01*
X134886612Y-115963388D01*
X134905554Y-115978934D01*
X134927165Y-115990485D01*
X134950614Y-115997598D01*
X134975000Y-116000000D01*
X135725000Y-116000000D01*
X135749386Y-115997598D01*
X135772835Y-115990485D01*
X135794446Y-115978934D01*
X135813388Y-115963388D01*
X135824376Y-115950000D01*
X137150000Y-115950000D01*
X137150000Y-117150000D01*
X136625000Y-117150000D01*
X136600614Y-117152402D01*
X136577165Y-117159515D01*
X136555554Y-117171066D01*
X136536612Y-117186612D01*
X136521066Y-117205554D01*
X136509515Y-117227165D01*
X136502402Y-117250614D01*
X136500000Y-117275000D01*
X136500000Y-117725000D01*
X136502402Y-117749386D01*
X136509515Y-117772835D01*
X136521066Y-117794446D01*
X136536612Y-117813388D01*
X136555554Y-117828934D01*
X136577165Y-117840485D01*
X136600614Y-117847598D01*
X136625000Y-117850000D01*
X137150000Y-117850000D01*
X137150000Y-119050000D01*
X136625000Y-119050000D01*
X136600614Y-119052402D01*
X136577165Y-119059515D01*
X136555554Y-119071066D01*
X136536612Y-119086612D01*
X136521066Y-119105554D01*
X136509515Y-119127165D01*
X136502402Y-119150614D01*
X136500000Y-119175000D01*
X136500000Y-121000000D01*
X131500000Y-121000000D01*
X131500000Y-119475000D01*
X131497598Y-119450614D01*
X131490485Y-119427165D01*
X131478934Y-119405554D01*
X131463388Y-119386612D01*
X131444446Y-119371066D01*
X131422835Y-119359515D01*
X131399386Y-119352402D01*
X131375000Y-119350000D01*
X130900000Y-119350000D01*
X130900000Y-117650000D01*
X131375000Y-117650000D01*
X131399386Y-117647598D01*
X131422835Y-117640485D01*
X131444446Y-117628934D01*
X131463388Y-117613388D01*
X131478934Y-117594446D01*
X131490485Y-117572835D01*
X131497598Y-117549386D01*
X131500000Y-117525000D01*
X131500000Y-116000000D01*
X133025000Y-116000000D01*
X133049386Y-115997598D01*
X133072835Y-115990485D01*
X133094446Y-115978934D01*
X133113388Y-115963388D01*
X133128934Y-115944446D01*
X133140485Y-115922835D01*
X133147598Y-115899386D01*
X133150000Y-115875000D01*
X133150000Y-115400000D01*
X134850000Y-115400000D01*
X134850000Y-115875000D01*
X134850000Y-115875000D01*
G37*
G36*
X156550000Y-120650000D02*
X155350000Y-120650000D01*
X155350000Y-119350000D01*
X156550000Y-119350000D01*
X156550000Y-120650000D01*
X156550000Y-120650000D01*
G37*
G36*
X154650000Y-120650000D02*
X153450000Y-120650000D01*
X153450000Y-119350000D01*
X154650000Y-119350000D01*
X154650000Y-120650000D01*
X154650000Y-120650000D01*
G37*
G36*
X159350000Y-120300000D02*
X157650000Y-120300000D01*
X157650000Y-118400000D01*
X159350000Y-118400000D01*
X159350000Y-120300000D01*
X159350000Y-120300000D01*
G37*
G36*
X151135000Y-119775000D02*
X150135000Y-119775000D01*
X150135000Y-117825000D01*
X151135000Y-117825000D01*
X151135000Y-119775000D01*
X151135000Y-119775000D01*
G37*
G36*
X149865000Y-119775000D02*
X148865000Y-119775000D01*
X148865000Y-117825000D01*
X149865000Y-117825000D01*
X149865000Y-119775000D01*
X149865000Y-119775000D01*
G37*
G36*
X152405000Y-119775000D02*
X151405000Y-119775000D01*
X151405000Y-117825000D01*
X152405000Y-117825000D01*
X152405000Y-119775000D01*
X152405000Y-119775000D01*
G37*
G36*
X148595000Y-119775000D02*
X147595000Y-119775000D01*
X147595000Y-117825000D01*
X148595000Y-117825000D01*
X148595000Y-119775000D01*
X148595000Y-119775000D01*
G37*
G36*
X167850000Y-119600000D02*
X166150000Y-119600000D01*
X166150000Y-117700000D01*
X167850000Y-117700000D01*
X167850000Y-119600000D01*
X167850000Y-119600000D01*
G37*
G36*
X163150000Y-119550000D02*
X161850000Y-119550000D01*
X161850000Y-118350000D01*
X163150000Y-118350000D01*
X163150000Y-119550000D01*
X163150000Y-119550000D01*
G37*
G36*
X130100000Y-119350000D02*
X128200000Y-119350000D01*
X128200000Y-117650000D01*
X130100000Y-117650000D01*
X130100000Y-119350000D01*
X130100000Y-119350000D01*
G37*
G36*
X173300000Y-118850000D02*
X171400000Y-118850000D01*
X171400000Y-117150000D01*
X173300000Y-117150000D01*
X173300000Y-118850000D01*
X173300000Y-118850000D01*
G37*
G36*
X170600000Y-118850000D02*
X168700000Y-118850000D01*
X168700000Y-117150000D01*
X170600000Y-117150000D01*
X170600000Y-118850000D01*
X170600000Y-118850000D01*
G37*
G36*
X155600000Y-118650000D02*
X154400000Y-118650000D01*
X154400000Y-117350000D01*
X155600000Y-117350000D01*
X155600000Y-118650000D01*
X155600000Y-118650000D01*
G37*
G36*
X161150000Y-118600000D02*
X159850000Y-118600000D01*
X159850000Y-117400000D01*
X161150000Y-117400000D01*
X161150000Y-118600000D01*
X161150000Y-118600000D01*
G37*
G36*
X139350000Y-116800000D02*
X139275000Y-116800000D01*
X139250614Y-116802402D01*
X139227165Y-116809515D01*
X139205554Y-116821066D01*
X139186612Y-116836612D01*
X139171066Y-116855554D01*
X139159515Y-116877165D01*
X139152402Y-116900614D01*
X139150000Y-116925000D01*
X139150000Y-118100000D01*
X137850000Y-118100000D01*
X137850000Y-116925000D01*
X137847598Y-116900614D01*
X137840485Y-116877165D01*
X137828934Y-116855554D01*
X137813388Y-116836612D01*
X137794446Y-116821066D01*
X137772835Y-116809515D01*
X137749386Y-116802402D01*
X137725000Y-116800000D01*
X137650000Y-116800000D01*
X137650000Y-114900000D01*
X139350000Y-114900000D01*
X139350000Y-116800000D01*
X139350000Y-116800000D01*
G37*
G36*
X164500000Y-116500000D02*
X163275000Y-116500000D01*
X163250614Y-116502402D01*
X163227165Y-116509515D01*
X163205554Y-116521066D01*
X163186612Y-116536612D01*
X163171066Y-116555554D01*
X163159515Y-116577165D01*
X163152402Y-116600614D01*
X163150000Y-116625000D01*
X163150000Y-117650000D01*
X161850000Y-117650000D01*
X161850000Y-116625000D01*
X161847598Y-116600614D01*
X161840485Y-116577165D01*
X161828934Y-116555554D01*
X161813388Y-116536612D01*
X161794446Y-116521066D01*
X161772835Y-116509515D01*
X161749386Y-116502402D01*
X161725000Y-116500000D01*
X159475000Y-116500000D01*
X159450614Y-116502402D01*
X159427165Y-116509515D01*
X159405554Y-116521066D01*
X159386612Y-116536612D01*
X159371066Y-116555554D01*
X159359515Y-116577165D01*
X159352402Y-116600614D01*
X159350000Y-116625000D01*
X159350000Y-117600000D01*
X157650000Y-117600000D01*
X157650000Y-115700000D01*
X159375000Y-115700000D01*
X159399386Y-115697598D01*
X159422835Y-115690485D01*
X159444446Y-115678934D01*
X159463388Y-115663388D01*
X159478934Y-115644446D01*
X159490485Y-115622835D01*
X159497598Y-115599386D01*
X159500000Y-115575000D01*
X159500000Y-111500000D01*
X164500000Y-111500000D01*
X164500000Y-116500000D01*
X164500000Y-116500000D01*
G37*
G36*
X141325000Y-116700000D02*
X139675000Y-116700000D01*
X139675000Y-114800000D01*
X141325000Y-114800000D01*
X141325000Y-116700000D01*
X141325000Y-116700000D01*
G37*
G36*
X149500000Y-116500000D02*
X144500000Y-116500000D01*
X144500000Y-111500000D01*
X149500000Y-111500000D01*
X149500000Y-116500000D01*
X149500000Y-116500000D01*
G37*
G36*
X134850000Y-114600000D02*
X133150000Y-114600000D01*
X133150000Y-112700000D01*
X134850000Y-112700000D01*
X134850000Y-114600000D01*
X134850000Y-114600000D01*
G37*
G36*
X141325000Y-114200000D02*
X139675000Y-114200000D01*
X139675000Y-112300000D01*
X141325000Y-112300000D01*
X141325000Y-114200000D01*
X141325000Y-114200000D01*
G37*
G36*
X139350000Y-114100000D02*
X137650000Y-114100000D01*
X137650000Y-112200000D01*
X139350000Y-112200000D01*
X139350000Y-114100000D01*
X139350000Y-114100000D01*
G37*
G36*
X127039622Y-110221094D02*
X127039624Y-110221095D01*
X127039625Y-110221095D01*
X127163993Y-110272610D01*
X127376304Y-110360552D01*
X127679309Y-110563013D01*
X127936987Y-110820691D01*
X128139448Y-111123696D01*
X128278906Y-111460378D01*
X128350000Y-111817789D01*
X128350000Y-112182211D01*
X128278906Y-112539622D01*
X128139448Y-112876304D01*
X127936987Y-113179309D01*
X127679309Y-113436987D01*
X127376304Y-113639448D01*
X127163993Y-113727390D01*
X127039625Y-113778905D01*
X127039624Y-113778905D01*
X127039622Y-113778906D01*
X126682211Y-113850000D01*
X126317789Y-113850000D01*
X125960378Y-113778906D01*
X125960376Y-113778905D01*
X125960375Y-113778905D01*
X125836007Y-113727390D01*
X125623696Y-113639448D01*
X125320691Y-113436987D01*
X125063013Y-113179309D01*
X124860552Y-112876304D01*
X124721094Y-112539622D01*
X124650000Y-112182211D01*
X124650000Y-111817789D01*
X124721094Y-111460378D01*
X124860552Y-111123696D01*
X125063013Y-110820691D01*
X125320691Y-110563013D01*
X125623696Y-110360552D01*
X125836007Y-110272610D01*
X125960375Y-110221095D01*
X125960376Y-110221095D01*
X125960378Y-110221094D01*
X126317789Y-110150000D01*
X126682211Y-110150000D01*
X127039622Y-110221094D01*
X127039622Y-110221094D01*
G37*
G36*
X97462855Y-106146030D02*
X97726680Y-106255310D01*
X97964120Y-106413962D01*
X98166038Y-106615880D01*
X98324690Y-106853320D01*
X98433970Y-107117145D01*
X98489680Y-107397218D01*
X98489680Y-107682782D01*
X98433970Y-107962855D01*
X98324690Y-108226680D01*
X98166038Y-108464120D01*
X97964120Y-108666038D01*
X97726680Y-108824690D01*
X97462855Y-108933970D01*
X97182782Y-108989680D01*
X96897218Y-108989680D01*
X96617145Y-108933970D01*
X96353320Y-108824690D01*
X96115880Y-108666038D01*
X95913962Y-108464120D01*
X95755310Y-108226680D01*
X95646030Y-107962855D01*
X95590320Y-107682782D01*
X95590320Y-107397218D01*
X95646030Y-107117145D01*
X95755310Y-106853320D01*
X95913962Y-106615880D01*
X96115880Y-106413962D01*
X96353320Y-106255310D01*
X96617145Y-106146030D01*
X96897218Y-106090320D01*
X97182782Y-106090320D01*
X97462855Y-106146030D01*
X97462855Y-106146030D01*
G37*
G36*
X183382855Y-106146030D02*
X183646680Y-106255310D01*
X183884120Y-106413962D01*
X184086038Y-106615880D01*
X184244690Y-106853320D01*
X184353970Y-107117145D01*
X184409680Y-107397218D01*
X184409680Y-107682782D01*
X184353970Y-107962855D01*
X184244690Y-108226680D01*
X184086038Y-108464120D01*
X183884120Y-108666038D01*
X183646680Y-108824690D01*
X183382855Y-108933970D01*
X183102782Y-108989680D01*
X182817218Y-108989680D01*
X182537145Y-108933970D01*
X182273320Y-108824690D01*
X182035880Y-108666038D01*
X181833962Y-108464120D01*
X181675310Y-108226680D01*
X181566030Y-107962855D01*
X181510320Y-107682782D01*
X181510320Y-107397218D01*
X181566030Y-107117145D01*
X181675310Y-106853320D01*
X181833962Y-106615880D01*
X182035880Y-106413962D01*
X182273320Y-106255310D01*
X182537145Y-106146030D01*
X182817218Y-106090320D01*
X183102782Y-106090320D01*
X183382855Y-106146030D01*
X183382855Y-106146030D01*
G37*
G36*
X169539622Y-103221094D02*
X169539624Y-103221095D01*
X169539625Y-103221095D01*
X169663993Y-103272610D01*
X169876304Y-103360552D01*
X170179309Y-103563013D01*
X170436987Y-103820691D01*
X170639448Y-104123696D01*
X170778906Y-104460378D01*
X170850000Y-104817789D01*
X170850000Y-105182211D01*
X170778906Y-105539622D01*
X170639448Y-105876304D01*
X170436987Y-106179309D01*
X170179309Y-106436987D01*
X169876304Y-106639448D01*
X169663993Y-106727390D01*
X169539625Y-106778905D01*
X169539624Y-106778905D01*
X169539622Y-106778906D01*
X169182211Y-106850000D01*
X168817789Y-106850000D01*
X168460378Y-106778906D01*
X168460376Y-106778905D01*
X168460375Y-106778905D01*
X168336007Y-106727390D01*
X168123696Y-106639448D01*
X167820691Y-106436987D01*
X167563013Y-106179309D01*
X167360552Y-105876304D01*
X167221094Y-105539622D01*
X167150000Y-105182211D01*
X167150000Y-104817789D01*
X167221094Y-104460378D01*
X167360552Y-104123696D01*
X167563013Y-103820691D01*
X167820691Y-103563013D01*
X168123696Y-103360552D01*
X168336007Y-103272610D01*
X168460375Y-103221095D01*
X168460376Y-103221095D01*
X168460378Y-103221094D01*
X168817789Y-103150000D01*
X169182211Y-103150000D01*
X169539622Y-103221094D01*
X169539622Y-103221094D01*
G37*
G36*
X97462855Y-101066030D02*
X97726680Y-101175310D01*
X97964120Y-101333962D01*
X98166038Y-101535880D01*
X98324690Y-101773320D01*
X98433970Y-102037145D01*
X98489680Y-102317218D01*
X98489680Y-102602782D01*
X98433970Y-102882855D01*
X98324690Y-103146680D01*
X98166038Y-103384120D01*
X97964120Y-103586038D01*
X97726680Y-103744690D01*
X97462855Y-103853970D01*
X97182782Y-103909680D01*
X96897218Y-103909680D01*
X96617145Y-103853970D01*
X96353320Y-103744690D01*
X96115880Y-103586038D01*
X95913962Y-103384120D01*
X95755310Y-103146680D01*
X95646030Y-102882855D01*
X95590320Y-102602782D01*
X95590320Y-102317218D01*
X95646030Y-102037145D01*
X95755310Y-101773320D01*
X95913962Y-101535880D01*
X96115880Y-101333962D01*
X96353320Y-101175310D01*
X96617145Y-101066030D01*
X96897218Y-101010320D01*
X97182782Y-101010320D01*
X97462855Y-101066030D01*
X97462855Y-101066030D01*
G37*
G36*
X183382855Y-101066030D02*
X183646680Y-101175310D01*
X183884120Y-101333962D01*
X184086038Y-101535880D01*
X184244690Y-101773320D01*
X184353970Y-102037145D01*
X184409680Y-102317218D01*
X184409680Y-102602782D01*
X184353970Y-102882855D01*
X184244690Y-103146680D01*
X184086038Y-103384120D01*
X183884120Y-103586038D01*
X183646680Y-103744690D01*
X183382855Y-103853970D01*
X183102782Y-103909680D01*
X182817218Y-103909680D01*
X182537145Y-103853970D01*
X182273320Y-103744690D01*
X182035880Y-103586038D01*
X181833962Y-103384120D01*
X181675310Y-103146680D01*
X181566030Y-102882855D01*
X181510320Y-102602782D01*
X181510320Y-102317218D01*
X181566030Y-102037145D01*
X181675310Y-101773320D01*
X181833962Y-101535880D01*
X182035880Y-101333962D01*
X182273320Y-101175310D01*
X182537145Y-101066030D01*
X182817218Y-101010320D01*
X183102782Y-101010320D01*
X183382855Y-101066030D01*
X183382855Y-101066030D01*
G37*
G36*
X177583378Y-96576859D02*
X177947354Y-96727622D01*
X178274929Y-96946501D01*
X178553499Y-97225071D01*
X178772378Y-97552646D01*
X178923141Y-97916622D01*
X179000000Y-98303016D01*
X179000000Y-98696984D01*
X178923141Y-99083378D01*
X178772378Y-99447354D01*
X178553499Y-99774929D01*
X178274929Y-100053499D01*
X177947354Y-100272378D01*
X177583378Y-100423141D01*
X177196984Y-100500000D01*
X176803016Y-100500000D01*
X176416622Y-100423141D01*
X176052646Y-100272378D01*
X175725071Y-100053499D01*
X175446501Y-99774929D01*
X175227622Y-99447354D01*
X175076859Y-99083378D01*
X175000000Y-98696984D01*
X175000000Y-98303016D01*
X175076859Y-97916622D01*
X175227622Y-97552646D01*
X175446501Y-97225071D01*
X175725071Y-96946501D01*
X176052646Y-96727622D01*
X176416622Y-96576859D01*
X176803016Y-96500000D01*
X177196984Y-96500000D01*
X177583378Y-96576859D01*
X177583378Y-96576859D01*
G37*
G36*
X141039622Y-94221094D02*
X141039624Y-94221095D01*
X141039625Y-94221095D01*
X141163993Y-94272610D01*
X141376304Y-94360552D01*
X141679309Y-94563013D01*
X141936987Y-94820691D01*
X142139448Y-95123696D01*
X142278906Y-95460378D01*
X142350000Y-95817789D01*
X142350000Y-96182211D01*
X142278906Y-96539622D01*
X142139448Y-96876304D01*
X141936987Y-97179309D01*
X141679309Y-97436987D01*
X141376304Y-97639448D01*
X141163993Y-97727390D01*
X141039625Y-97778905D01*
X141039624Y-97778905D01*
X141039622Y-97778906D01*
X140682211Y-97850000D01*
X140317789Y-97850000D01*
X139960378Y-97778906D01*
X139960376Y-97778905D01*
X139960375Y-97778905D01*
X139836007Y-97727390D01*
X139623696Y-97639448D01*
X139320691Y-97436987D01*
X139063013Y-97179309D01*
X138860552Y-96876304D01*
X138721094Y-96539622D01*
X138650000Y-96182211D01*
X138650000Y-95817789D01*
X138721094Y-95460378D01*
X138860552Y-95123696D01*
X139063013Y-94820691D01*
X139320691Y-94563013D01*
X139623696Y-94360552D01*
X139836007Y-94272610D01*
X139960375Y-94221095D01*
X139960376Y-94221095D01*
X139960378Y-94221094D01*
X140317789Y-94150000D01*
X140682211Y-94150000D01*
X141039622Y-94221094D01*
X141039622Y-94221094D01*
G37*
G36*
X136488378Y-91646859D02*
X136852354Y-91797622D01*
X137179929Y-92016501D01*
X137458499Y-92295071D01*
X137677378Y-92622646D01*
X137828141Y-92986622D01*
X137905000Y-93373016D01*
X137905000Y-93766984D01*
X137828141Y-94153378D01*
X137677378Y-94517354D01*
X137458499Y-94844929D01*
X137179929Y-95123499D01*
X136852354Y-95342378D01*
X136488378Y-95493141D01*
X136101984Y-95570000D01*
X135708016Y-95570000D01*
X135321622Y-95493141D01*
X134957646Y-95342378D01*
X134630071Y-95123499D01*
X134351501Y-94844929D01*
X134132622Y-94517354D01*
X133981859Y-94153378D01*
X133905000Y-93766984D01*
X133905000Y-93373016D01*
X133981859Y-92986622D01*
X134132622Y-92622646D01*
X134351501Y-92295071D01*
X134630071Y-92016501D01*
X134957646Y-91797622D01*
X135321622Y-91646859D01*
X135708016Y-91570000D01*
X136101984Y-91570000D01*
X136488378Y-91646859D01*
X136488378Y-91646859D01*
G37*
M02*
