G04 #@! TF.FileFunction,Soldermask,Top*
%FSLAX46Y46*%
G04 Gerber Fmt 4.6, Leading zero omitted, Abs format (unit mm)*
G04 Created by KiCad (PCBNEW 4.0.7) date 01/06/18 22:06:09*
%MOMM*%
%LPD*%
G01*
G04 APERTURE LIST*
%ADD10C,0.100000*%
%ADD11R,7.000000X7.000000*%
%ADD12C,6.000000*%
%ADD13R,5.400000X4.400000*%
%ADD14R,4.400000X5.400000*%
%ADD15C,3.400000*%
%ADD16R,4.400000X4.400000*%
%ADD17C,2.200000*%
%ADD18C,2.398980*%
%ADD19C,2.899360*%
%ADD20R,3.900000X2.400000*%
%ADD21R,1.900000X1.650000*%
%ADD22R,1.650000X1.900000*%
%ADD23R,1.800000X4.400000*%
%ADD24R,1.900000X4.400000*%
%ADD25R,2.400000X3.000000*%
%ADD26O,2.400000X3.000000*%
%ADD27R,4.400000X1.800000*%
%ADD28R,4.400000X1.900000*%
%ADD29R,1.900000X1.700000*%
%ADD30R,1.700000X1.900000*%
%ADD31R,1.950000X1.000000*%
%ADD32C,3.700000*%
%ADD33R,1.200000X1.300000*%
%ADD34R,1.300000X1.200000*%
%ADD35C,0.254000*%
G04 APERTURE END LIST*
D10*
D11*
X125000000Y-100000000D03*
D12*
X139405000Y-88570000D03*
D11*
X137500000Y-113500000D03*
X149565000Y-105715000D03*
D13*
X162380000Y-95000000D03*
D14*
X176985000Y-95000000D03*
D15*
X177000000Y-88500000D03*
D16*
X163500000Y-106000000D03*
D17*
X114500000Y-123040000D03*
X114500000Y-117960000D03*
X124660000Y-123040000D03*
X119580000Y-123040000D03*
X122100000Y-123040000D03*
X124660000Y-117960000D03*
X119580000Y-117960000D03*
X122120000Y-117960000D03*
D18*
X95000000Y-105000000D03*
D19*
X97540000Y-102460000D03*
X97540000Y-107540000D03*
X92460000Y-107540000D03*
X92460000Y-102460000D03*
D20*
X115000000Y-93500000D03*
X115000000Y-97500000D03*
D21*
X163750000Y-124500000D03*
X161250000Y-124500000D03*
X163750000Y-111500000D03*
X166250000Y-111500000D03*
D22*
X144500000Y-115750000D03*
X144500000Y-118250000D03*
D21*
X149250000Y-124500000D03*
X151750000Y-124500000D03*
D23*
X107000000Y-133000000D03*
D24*
X109540000Y-133000000D03*
X104460000Y-133000000D03*
D18*
X107000000Y-130000000D03*
D19*
X109540000Y-127460000D03*
X109540000Y-132540000D03*
X104460000Y-132540000D03*
X104460000Y-127460000D03*
D23*
X122000000Y-133000000D03*
D24*
X124540000Y-133000000D03*
X119460000Y-133000000D03*
D18*
X122000000Y-130000000D03*
D19*
X124540000Y-127460000D03*
X124540000Y-132540000D03*
X119460000Y-132540000D03*
X119460000Y-127460000D03*
D25*
X160000000Y-130000000D03*
D26*
X157460000Y-130000000D03*
X154920000Y-130000000D03*
X152380000Y-130000000D03*
X149840000Y-130000000D03*
D27*
X92000000Y-105000000D03*
D28*
X92000000Y-107540000D03*
X92000000Y-102460000D03*
D27*
X188000000Y-105000000D03*
D28*
X188000000Y-102460000D03*
X188000000Y-107540000D03*
D18*
X185000000Y-105000000D03*
D19*
X187540000Y-102460000D03*
X187540000Y-107540000D03*
X182460000Y-107540000D03*
X182460000Y-102460000D03*
D29*
X173650000Y-124500000D03*
X176350000Y-124500000D03*
D30*
X172500000Y-119150000D03*
X172500000Y-121850000D03*
D29*
X173650000Y-116500000D03*
X176350000Y-116500000D03*
X161150000Y-120500000D03*
X163850000Y-120500000D03*
X161150000Y-122500000D03*
X163850000Y-122500000D03*
D30*
X166500000Y-115650000D03*
X166500000Y-118350000D03*
D29*
X163650000Y-113500000D03*
X166350000Y-113500000D03*
D30*
X144500000Y-111350000D03*
X144500000Y-108650000D03*
X138500000Y-116150000D03*
X138500000Y-118850000D03*
X138500000Y-110350000D03*
X138500000Y-107650000D03*
X146500000Y-115650000D03*
X146500000Y-118350000D03*
D29*
X151850000Y-122500000D03*
X149150000Y-122500000D03*
X151850000Y-120500000D03*
X149150000Y-120500000D03*
D31*
X158700000Y-116905000D03*
X158700000Y-115635000D03*
X158700000Y-114365000D03*
X158700000Y-113095000D03*
X153300000Y-113095000D03*
X153300000Y-114365000D03*
X153300000Y-115635000D03*
X153300000Y-116905000D03*
D12*
X95000000Y-130000000D03*
X185000000Y-130000000D03*
X95000000Y-90000000D03*
X185000000Y-90000000D03*
D23*
X137000000Y-133000000D03*
D24*
X139540000Y-133000000D03*
X134460000Y-133000000D03*
D18*
X137000000Y-130000000D03*
D19*
X139540000Y-127460000D03*
X139540000Y-132540000D03*
X134460000Y-132540000D03*
X134460000Y-127460000D03*
D18*
X172500000Y-130000000D03*
D19*
X175040000Y-127460000D03*
X175040000Y-132540000D03*
X169960000Y-132540000D03*
X169960000Y-127460000D03*
D23*
X172500000Y-133000000D03*
D24*
X175040000Y-133000000D03*
X169960000Y-133000000D03*
D22*
X114500000Y-128750000D03*
X114500000Y-126250000D03*
D32*
X144000000Y-91000000D03*
X130000000Y-107000000D03*
D33*
X162450000Y-109000000D03*
X160550000Y-109000000D03*
X161500000Y-111000000D03*
D34*
X163600000Y-117950000D03*
X163600000Y-116050000D03*
X161600000Y-117000000D03*
X140000000Y-113050000D03*
X140000000Y-114950000D03*
X142000000Y-114000000D03*
X150400000Y-116550000D03*
X150400000Y-114650000D03*
X148400000Y-115600000D03*
D35*
G36*
X189873000Y-101873000D02*
X188127000Y-101873000D01*
X188127000Y-87000000D01*
X188116994Y-86950590D01*
X188088553Y-86908965D01*
X188046159Y-86881685D01*
X188000000Y-86873000D01*
X157000000Y-86873000D01*
X156950590Y-86883006D01*
X156908965Y-86911447D01*
X156881685Y-86953841D01*
X156873000Y-87000000D01*
X156873000Y-91000000D01*
X156883006Y-91049410D01*
X156911447Y-91091035D01*
X156953841Y-91118315D01*
X157000000Y-91127000D01*
X179873000Y-91127000D01*
X179873000Y-100000000D01*
X179883006Y-100049410D01*
X179910197Y-100089803D01*
X181910197Y-102089803D01*
X181952211Y-102117666D01*
X182000000Y-102127000D01*
X187873000Y-102127000D01*
X187873000Y-108873000D01*
X178052606Y-108873000D01*
X173127000Y-103947394D01*
X173127000Y-99000000D01*
X173116994Y-98950590D01*
X173088553Y-98908965D01*
X173046159Y-98881685D01*
X173000000Y-98873000D01*
X157000000Y-98873000D01*
X156950590Y-98883006D01*
X156908965Y-98911447D01*
X156881685Y-98953841D01*
X156873000Y-99000000D01*
X156873000Y-102873000D01*
X155127000Y-102873000D01*
X155127000Y-99000000D01*
X155116994Y-98950590D01*
X155088553Y-98908965D01*
X155046159Y-98881685D01*
X155000000Y-98873000D01*
X132000000Y-98873000D01*
X131950590Y-98883006D01*
X131910197Y-98910197D01*
X126947394Y-103873000D01*
X112000000Y-103873000D01*
X111950590Y-103883006D01*
X111910197Y-103910197D01*
X106947394Y-108873000D01*
X92040000Y-108873000D01*
X91990590Y-108883006D01*
X91948965Y-108911447D01*
X91921685Y-108953841D01*
X91913000Y-108999788D01*
X91873000Y-132999788D01*
X91882924Y-133049215D01*
X91911295Y-133090887D01*
X91953644Y-133118237D01*
X92000000Y-133127000D01*
X188000000Y-133127000D01*
X188049410Y-133116994D01*
X188091035Y-133088553D01*
X188118315Y-133046159D01*
X188127000Y-133000000D01*
X188127000Y-109127000D01*
X189873000Y-109127000D01*
X189873000Y-134873000D01*
X90127000Y-134873000D01*
X90127000Y-87000000D01*
X91873000Y-87000000D01*
X91873000Y-101000000D01*
X91883006Y-101049410D01*
X91911447Y-101091035D01*
X91953841Y-101118315D01*
X92000000Y-101127000D01*
X103000000Y-101127000D01*
X103049410Y-101116994D01*
X103089803Y-101089803D01*
X108052606Y-96127000D01*
X124000000Y-96127000D01*
X124049410Y-96116994D01*
X124089803Y-96089803D01*
X129052606Y-91127000D01*
X155000000Y-91127000D01*
X155049410Y-91116994D01*
X155091035Y-91088553D01*
X155118315Y-91046159D01*
X155127000Y-91000000D01*
X155127000Y-87000000D01*
X155116994Y-86950590D01*
X155088553Y-86908965D01*
X155046159Y-86881685D01*
X155000000Y-86873000D01*
X92000000Y-86873000D01*
X91950590Y-86883006D01*
X91908965Y-86911447D01*
X91881685Y-86953841D01*
X91873000Y-87000000D01*
X90127000Y-87000000D01*
X90127000Y-85127000D01*
X189873000Y-85127000D01*
X189873000Y-101873000D01*
X189873000Y-101873000D01*
G37*
X189873000Y-101873000D02*
X188127000Y-101873000D01*
X188127000Y-87000000D01*
X188116994Y-86950590D01*
X188088553Y-86908965D01*
X188046159Y-86881685D01*
X188000000Y-86873000D01*
X157000000Y-86873000D01*
X156950590Y-86883006D01*
X156908965Y-86911447D01*
X156881685Y-86953841D01*
X156873000Y-87000000D01*
X156873000Y-91000000D01*
X156883006Y-91049410D01*
X156911447Y-91091035D01*
X156953841Y-91118315D01*
X157000000Y-91127000D01*
X179873000Y-91127000D01*
X179873000Y-100000000D01*
X179883006Y-100049410D01*
X179910197Y-100089803D01*
X181910197Y-102089803D01*
X181952211Y-102117666D01*
X182000000Y-102127000D01*
X187873000Y-102127000D01*
X187873000Y-108873000D01*
X178052606Y-108873000D01*
X173127000Y-103947394D01*
X173127000Y-99000000D01*
X173116994Y-98950590D01*
X173088553Y-98908965D01*
X173046159Y-98881685D01*
X173000000Y-98873000D01*
X157000000Y-98873000D01*
X156950590Y-98883006D01*
X156908965Y-98911447D01*
X156881685Y-98953841D01*
X156873000Y-99000000D01*
X156873000Y-102873000D01*
X155127000Y-102873000D01*
X155127000Y-99000000D01*
X155116994Y-98950590D01*
X155088553Y-98908965D01*
X155046159Y-98881685D01*
X155000000Y-98873000D01*
X132000000Y-98873000D01*
X131950590Y-98883006D01*
X131910197Y-98910197D01*
X126947394Y-103873000D01*
X112000000Y-103873000D01*
X111950590Y-103883006D01*
X111910197Y-103910197D01*
X106947394Y-108873000D01*
X92040000Y-108873000D01*
X91990590Y-108883006D01*
X91948965Y-108911447D01*
X91921685Y-108953841D01*
X91913000Y-108999788D01*
X91873000Y-132999788D01*
X91882924Y-133049215D01*
X91911295Y-133090887D01*
X91953644Y-133118237D01*
X92000000Y-133127000D01*
X188000000Y-133127000D01*
X188049410Y-133116994D01*
X188091035Y-133088553D01*
X188118315Y-133046159D01*
X188127000Y-133000000D01*
X188127000Y-109127000D01*
X189873000Y-109127000D01*
X189873000Y-134873000D01*
X90127000Y-134873000D01*
X90127000Y-87000000D01*
X91873000Y-87000000D01*
X91873000Y-101000000D01*
X91883006Y-101049410D01*
X91911447Y-101091035D01*
X91953841Y-101118315D01*
X92000000Y-101127000D01*
X103000000Y-101127000D01*
X103049410Y-101116994D01*
X103089803Y-101089803D01*
X108052606Y-96127000D01*
X124000000Y-96127000D01*
X124049410Y-96116994D01*
X124089803Y-96089803D01*
X129052606Y-91127000D01*
X155000000Y-91127000D01*
X155049410Y-91116994D01*
X155091035Y-91088553D01*
X155118315Y-91046159D01*
X155127000Y-91000000D01*
X155127000Y-87000000D01*
X155116994Y-86950590D01*
X155088553Y-86908965D01*
X155046159Y-86881685D01*
X155000000Y-86873000D01*
X92000000Y-86873000D01*
X91950590Y-86883006D01*
X91908965Y-86911447D01*
X91881685Y-86953841D01*
X91873000Y-87000000D01*
X90127000Y-87000000D01*
X90127000Y-85127000D01*
X189873000Y-85127000D01*
X189873000Y-101873000D01*
G36*
X156873000Y-111873000D02*
X146127000Y-111873000D01*
X146127000Y-110127000D01*
X155000000Y-110127000D01*
X155049410Y-110116994D01*
X155091035Y-110088553D01*
X155118315Y-110046159D01*
X155127000Y-110000000D01*
X155127000Y-109127000D01*
X156873000Y-109127000D01*
X156873000Y-111873000D01*
X156873000Y-111873000D01*
G37*
X156873000Y-111873000D02*
X146127000Y-111873000D01*
X146127000Y-110127000D01*
X155000000Y-110127000D01*
X155049410Y-110116994D01*
X155091035Y-110088553D01*
X155118315Y-110046159D01*
X155127000Y-110000000D01*
X155127000Y-109127000D01*
X156873000Y-109127000D01*
X156873000Y-111873000D01*
G36*
X134873000Y-111873000D02*
X108127000Y-111873000D01*
X108127000Y-110127000D01*
X134873000Y-110127000D01*
X134873000Y-111873000D01*
X134873000Y-111873000D01*
G37*
X134873000Y-111873000D02*
X108127000Y-111873000D01*
X108127000Y-110127000D01*
X134873000Y-110127000D01*
X134873000Y-111873000D01*
G36*
X142873000Y-111873000D02*
X140127000Y-111873000D01*
X140127000Y-110127000D01*
X142873000Y-110127000D01*
X142873000Y-111873000D01*
X142873000Y-111873000D01*
G37*
X142873000Y-111873000D02*
X140127000Y-111873000D01*
X140127000Y-110127000D01*
X142873000Y-110127000D01*
X142873000Y-111873000D01*
M02*
