G04 #@! TF.GenerationSoftware,KiCad,Pcbnew,(5.0.2)-1*
G04 #@! TF.CreationDate,2019-03-14T16:57:05+01:00*
G04 #@! TF.ProjectId,Themis,5468656d-6973-42e6-9b69-6361645f7063,rev?*
G04 #@! TF.SameCoordinates,Original*
G04 #@! TF.FileFunction,Copper,L1,Top*
G04 #@! TF.FilePolarity,Positive*
%FSLAX46Y46*%
G04 Gerber Fmt 4.6, Leading zero omitted, Abs format (unit mm)*
G04 Created by KiCad (PCBNEW (5.0.2)-1) date 14/03/2019 16:57:05*
%MOMM*%
%LPD*%
G01*
G04 APERTURE LIST*
G04 #@! TA.AperFunction,NonConductor*
%ADD10C,0.150000*%
G04 #@! TD*
G04 #@! TA.AperFunction,ComponentPad*
%ADD11C,3.300000*%
G04 #@! TD*
G04 #@! TA.AperFunction,SMDPad,CuDef*
%ADD12R,3.000000X3.000000*%
G04 #@! TD*
G04 #@! TA.AperFunction,ComponentPad*
%ADD13C,2.000000*%
G04 #@! TD*
G04 #@! TA.AperFunction,ComponentPad*
%ADD14R,3.000000X3.000000*%
G04 #@! TD*
G04 #@! TA.AperFunction,SMDPad,CuDef*
%ADD15R,4.000000X3.000000*%
G04 #@! TD*
G04 #@! TA.AperFunction,SMDPad,CuDef*
%ADD16R,3.000000X4.000000*%
G04 #@! TD*
G04 #@! TA.AperFunction,ComponentPad*
%ADD17C,1.998980*%
G04 #@! TD*
G04 #@! TA.AperFunction,ComponentPad*
%ADD18C,2.499360*%
G04 #@! TD*
G04 #@! TA.AperFunction,SMDPad,CuDef*
%ADD19R,3.500000X2.000000*%
G04 #@! TD*
G04 #@! TA.AperFunction,ComponentPad*
%ADD20R,2.000000X2.600000*%
G04 #@! TD*
G04 #@! TA.AperFunction,ComponentPad*
%ADD21O,2.000000X2.600000*%
G04 #@! TD*
G04 #@! TA.AperFunction,ComponentPad*
%ADD22C,5.600000*%
G04 #@! TD*
G04 #@! TA.AperFunction,ViaPad*
%ADD23C,0.600000*%
G04 #@! TD*
G04 #@! TA.AperFunction,Conductor*
%ADD24C,0.250000*%
G04 #@! TD*
G04 #@! TA.AperFunction,Conductor*
%ADD25C,1.000000*%
G04 #@! TD*
G04 #@! TA.AperFunction,Conductor*
%ADD26C,1.600000*%
G04 #@! TD*
G04 #@! TA.AperFunction,Conductor*
%ADD27C,3.000000*%
G04 #@! TD*
G04 #@! TA.AperFunction,Conductor*
%ADD28C,0.254000*%
G04 #@! TD*
G04 APERTURE END LIST*
D10*
X90000000Y-135000000D02*
X90000000Y-85000000D01*
X190000000Y-135000000D02*
X90000000Y-135000000D01*
X190000000Y-85000000D02*
X190000000Y-135000000D01*
X90000000Y-85000000D02*
X190000000Y-85000000D01*
D11*
G04 #@! TO.P,J18,1*
G04 #@! TO.N,N/C*
X169000000Y-105000000D03*
G04 #@! TD*
D12*
G04 #@! TO.P,T2,1*
G04 #@! TO.N,Net-(C1-Pad2)*
X121500000Y-105000000D03*
D13*
G04 #@! TO.P,T2,2*
G04 #@! TO.N,GND*
X135905000Y-93570000D03*
D14*
G04 #@! TO.P,T2,4*
G04 #@! TO.N,Net-(D3-Pad2)*
X134000000Y-118500000D03*
G04 #@! TO.P,T2,3*
G04 #@! TO.N,Net-(D1-Pad2)*
X147000000Y-114000000D03*
G04 #@! TD*
D15*
G04 #@! TO.P,T1,1*
G04 #@! TO.N,Net-(C1-Pad2)*
X162380000Y-105000000D03*
D16*
G04 #@! TO.P,T1,2*
G04 #@! TO.N,Net-(J8-Pad1)*
X176985000Y-105000000D03*
D13*
G04 #@! TO.P,T1,4*
G04 #@! TO.N,GND*
X177000000Y-98500000D03*
D14*
G04 #@! TO.P,T1,3*
G04 #@! TO.N,Net-(D1-Pad2)*
X162000000Y-114000000D03*
G04 #@! TD*
D17*
G04 #@! TO.P,J7,1*
G04 #@! TO.N,Net-(C1-Pad2)*
X94500000Y-105000000D03*
D18*
G04 #@! TO.P,J7,2*
G04 #@! TO.N,GND*
X97040000Y-102460000D03*
X97040000Y-107540000D03*
X91960000Y-107540000D03*
X91960000Y-102460000D03*
G04 #@! TD*
D19*
G04 #@! TO.P,C1,1*
G04 #@! TO.N,GND*
X112000000Y-99000000D03*
G04 #@! TO.P,C1,2*
G04 #@! TO.N,Net-(C1-Pad2)*
X112000000Y-103000000D03*
G04 #@! TD*
D20*
G04 #@! TO.P,J5,1*
G04 #@! TO.N,Net-(C2-Pad2)*
X143040000Y-130500000D03*
D21*
G04 #@! TO.P,J5,2*
G04 #@! TO.N,Net-(C5-Pad2)*
X140500000Y-130500000D03*
G04 #@! TO.P,J5,3*
G04 #@! TO.N,GND*
X137960000Y-130500000D03*
G04 #@! TO.P,J5,4*
G04 #@! TO.N,+12V*
X135420000Y-130500000D03*
G04 #@! TO.P,J5,5*
G04 #@! TO.N,N/C*
X132880000Y-130500000D03*
G04 #@! TD*
D22*
G04 #@! TO.P,J10,1*
G04 #@! TO.N,GND*
X95000000Y-130000000D03*
G04 #@! TD*
G04 #@! TO.P,J11,1*
G04 #@! TO.N,GND*
X185000000Y-130000000D03*
G04 #@! TD*
G04 #@! TO.P,J12,1*
G04 #@! TO.N,GND*
X95000000Y-90000000D03*
G04 #@! TD*
G04 #@! TO.P,J13,1*
G04 #@! TO.N,GND*
X185000000Y-90000000D03*
G04 #@! TD*
D11*
G04 #@! TO.P,J18,1*
G04 #@! TO.N,GND*
X140500000Y-96000000D03*
G04 #@! TD*
G04 #@! TO.P,J20,1*
G04 #@! TO.N,GND*
X126500000Y-112000000D03*
G04 #@! TD*
D17*
G04 #@! TO.P,J8,1*
G04 #@! TO.N,Net-(J8-Pad1)*
X185500000Y-105000000D03*
D18*
G04 #@! TO.P,J8,2*
G04 #@! TO.N,GND*
X188040000Y-102460000D03*
X188040000Y-107540000D03*
X182960000Y-107540000D03*
X182960000Y-102460000D03*
G04 #@! TD*
D17*
G04 #@! TO.P,J17,1*
G04 #@! TO.N,Net-(J17-Pad1)*
X167000000Y-130500000D03*
D18*
G04 #@! TO.P,J17,2*
G04 #@! TO.N,GND*
X169540000Y-133040000D03*
X164460000Y-133040000D03*
X164460000Y-127960000D03*
X169540000Y-127960000D03*
G04 #@! TD*
D23*
G04 #@! TO.N,GND*
X176000000Y-91500000D03*
X146000000Y-91500000D03*
X105000000Y-91500000D03*
X111000000Y-91500000D03*
X113000000Y-91500000D03*
X121000000Y-91500000D03*
X127000000Y-91500000D03*
X103000000Y-91500000D03*
X109000000Y-91500000D03*
X129000000Y-91500000D03*
X119000000Y-91500000D03*
X101000000Y-91500000D03*
X131000000Y-91500000D03*
X125000000Y-91500000D03*
X117000000Y-91500000D03*
X99000000Y-91500000D03*
X107000000Y-91500000D03*
X123000000Y-91500000D03*
X115000000Y-91500000D03*
X91000000Y-112000000D03*
X93000000Y-112000000D03*
X95000000Y-112000000D03*
X97000000Y-112000000D03*
X99000000Y-112000000D03*
X101000000Y-112000000D03*
X103000000Y-112000000D03*
X105000000Y-112000000D03*
X107000000Y-112000000D03*
X109000000Y-112000000D03*
X111000000Y-112000000D03*
X113000000Y-112000000D03*
X115000000Y-112000000D03*
X117000000Y-112000000D03*
X119000000Y-112000000D03*
X121000000Y-112000000D03*
X123000000Y-112000000D03*
X91000000Y-114000000D03*
X93000000Y-114000000D03*
X95000000Y-114000000D03*
X97000000Y-114000000D03*
X99000000Y-114000000D03*
X101000000Y-114000000D03*
X103000000Y-114000000D03*
X105000000Y-114000000D03*
X107000000Y-114000000D03*
X109000000Y-114000000D03*
X111000000Y-114000000D03*
X113000000Y-114000000D03*
X115000000Y-114000000D03*
X117000000Y-114000000D03*
X119000000Y-114000000D03*
X121000000Y-114000000D03*
X123000000Y-114000000D03*
X91000000Y-116000000D03*
X93000000Y-116000000D03*
X95000000Y-116000000D03*
X97000000Y-116000000D03*
X99000000Y-116000000D03*
X101000000Y-116000000D03*
X103000000Y-116000000D03*
X105000000Y-116000000D03*
X107000000Y-116000000D03*
X109000000Y-116000000D03*
X111000000Y-116000000D03*
X113000000Y-116000000D03*
X115000000Y-116000000D03*
X117000000Y-116000000D03*
X119000000Y-116000000D03*
X121000000Y-116000000D03*
X123000000Y-116000000D03*
X91000000Y-118000000D03*
X93000000Y-118000000D03*
X95000000Y-118000000D03*
X97000000Y-118000000D03*
X99000000Y-118000000D03*
X101000000Y-118000000D03*
X103000000Y-118000000D03*
X105000000Y-118000000D03*
X107000000Y-118000000D03*
X109000000Y-118000000D03*
X111000000Y-118000000D03*
X113000000Y-118000000D03*
X115000000Y-118000000D03*
X117000000Y-118000000D03*
X119000000Y-118000000D03*
X121000000Y-118000000D03*
X123000000Y-118000000D03*
X91000000Y-120000000D03*
X93000000Y-120000000D03*
X95000000Y-120000000D03*
X97000000Y-120000000D03*
X99000000Y-120000000D03*
X101000000Y-120000000D03*
X103000000Y-120000000D03*
X105000000Y-120000000D03*
X107000000Y-120000000D03*
X109000000Y-120000000D03*
X111000000Y-120000000D03*
X113000000Y-120000000D03*
X115000000Y-120000000D03*
X117000000Y-120000000D03*
X119000000Y-120000000D03*
X121000000Y-120000000D03*
X123000000Y-120000000D03*
X91000000Y-122000000D03*
X93000000Y-122000000D03*
X95000000Y-122000000D03*
X97000000Y-122000000D03*
X99000000Y-122000000D03*
X101000000Y-122000000D03*
X103000000Y-122000000D03*
X105000000Y-122000000D03*
X107000000Y-122000000D03*
X109000000Y-122000000D03*
X111000000Y-122000000D03*
X113000000Y-122000000D03*
X115000000Y-122000000D03*
X117000000Y-122000000D03*
X119000000Y-122000000D03*
X121000000Y-122000000D03*
X123000000Y-122000000D03*
X91000000Y-124000000D03*
X93000000Y-124000000D03*
X95000000Y-124000000D03*
X97000000Y-124000000D03*
X99000000Y-124000000D03*
X101000000Y-124000000D03*
X103000000Y-124000000D03*
X105000000Y-124000000D03*
X107000000Y-124000000D03*
X109000000Y-124000000D03*
X111000000Y-124000000D03*
X113000000Y-124000000D03*
X115000000Y-124000000D03*
X117000000Y-124000000D03*
X119000000Y-124000000D03*
X121000000Y-124000000D03*
X123000000Y-124000000D03*
X91000000Y-126000000D03*
X93000000Y-126000000D03*
X95000000Y-126000000D03*
X97000000Y-126000000D03*
X99000000Y-126000000D03*
X101000000Y-126000000D03*
X103000000Y-126000000D03*
X105000000Y-126000000D03*
X107000000Y-126000000D03*
X109000000Y-126000000D03*
X111000000Y-126000000D03*
X113000000Y-126000000D03*
X115000000Y-126000000D03*
X117000000Y-126000000D03*
X119000000Y-126000000D03*
X121000000Y-126000000D03*
X123000000Y-126000000D03*
X99000000Y-128000000D03*
X121000000Y-128000000D03*
X111000000Y-128000000D03*
X115000000Y-128000000D03*
X119000000Y-128000000D03*
X101000000Y-128000000D03*
X123000000Y-128000000D03*
X107000000Y-128000000D03*
X103000000Y-128000000D03*
X117000000Y-128000000D03*
X113000000Y-128000000D03*
X105000000Y-128000000D03*
X109000000Y-128000000D03*
X91000000Y-93500000D03*
X154000000Y-116500000D03*
X155000000Y-116500000D03*
X156000000Y-116500000D03*
X157000000Y-116500000D03*
X99000000Y-109000000D03*
X100000000Y-109000000D03*
X101000000Y-109000000D03*
X102000000Y-109000000D03*
X103000000Y-109000000D03*
X104000000Y-109000000D03*
X105000000Y-109000000D03*
X106000000Y-109000000D03*
X107000000Y-109000000D03*
X108000000Y-109000000D03*
X109000000Y-109000000D03*
X110000000Y-109000000D03*
X111000000Y-109000000D03*
X112000000Y-109000000D03*
X113000000Y-109000000D03*
X114000000Y-109000000D03*
X115000000Y-109000000D03*
X116000000Y-109000000D03*
X117000000Y-109000000D03*
X118000000Y-109000000D03*
X119000000Y-109000000D03*
X120000000Y-109000000D03*
X121000000Y-109000000D03*
X122000000Y-109000000D03*
X123000000Y-109000000D03*
X124000000Y-109000000D03*
X136000000Y-109000000D03*
X141000000Y-109000000D03*
X142000000Y-109000000D03*
X143000000Y-109000000D03*
X144000000Y-109000000D03*
X145000000Y-109000000D03*
X146000000Y-109000000D03*
X147000000Y-109000000D03*
X148000000Y-109000000D03*
X149000000Y-109000000D03*
X150000000Y-109000000D03*
X151000000Y-109000000D03*
X152000000Y-109000000D03*
X153000000Y-109000000D03*
X154000000Y-109000000D03*
X155000000Y-109000000D03*
X156000000Y-109000000D03*
X157000000Y-109000000D03*
X158000000Y-109000000D03*
X159000000Y-109000000D03*
X160000000Y-109000000D03*
X161000000Y-109000000D03*
X162000000Y-109000000D03*
X163000000Y-109000000D03*
X164000000Y-109000000D03*
X165000000Y-109000000D03*
X166000000Y-109000000D03*
X167000000Y-109000000D03*
X168000000Y-109000000D03*
X169000000Y-109000000D03*
X170000000Y-109000000D03*
X171000000Y-109000000D03*
X172000000Y-109000000D03*
X173000000Y-109000000D03*
X174000000Y-109000000D03*
X175000000Y-109000000D03*
X176000000Y-109000000D03*
X177000000Y-109000000D03*
X178000000Y-109000000D03*
X179000000Y-109000000D03*
X180000000Y-109000000D03*
X181000000Y-109000000D03*
X136999996Y-109000000D03*
X138000010Y-109000000D03*
X139000006Y-109000000D03*
X128000000Y-109000000D03*
X129000000Y-109000000D03*
X130000000Y-109000000D03*
X131000000Y-109000000D03*
X132000000Y-109000000D03*
X133000000Y-109000000D03*
X134000000Y-109000000D03*
X135000000Y-109000000D03*
X99000000Y-101000000D03*
X100000000Y-101000000D03*
X101000000Y-101000000D03*
X102000000Y-101000000D03*
X103000000Y-101000000D03*
X104000000Y-101000000D03*
X105000000Y-101000000D03*
X106000000Y-101000000D03*
X107000000Y-101000000D03*
X108000000Y-101000000D03*
X109000000Y-101000000D03*
X115000000Y-101000000D03*
X116000000Y-101000000D03*
X117000000Y-101000000D03*
X118000000Y-101000000D03*
X119000000Y-101000000D03*
X120000000Y-101000000D03*
X121000000Y-101000000D03*
X122000000Y-101000000D03*
X123000000Y-101000000D03*
X124000000Y-101000000D03*
X125000000Y-101000000D03*
X126000000Y-101000000D03*
X127000000Y-101000000D03*
X128000000Y-101000000D03*
X129000000Y-101000000D03*
X130000000Y-101000000D03*
X131000000Y-101000000D03*
X132000000Y-101000000D03*
X133000000Y-101000000D03*
X134000000Y-101000000D03*
X135000000Y-101000000D03*
X136000000Y-101000000D03*
X137000000Y-101000000D03*
X138000000Y-101000000D03*
X139000000Y-101000000D03*
X140000000Y-101000000D03*
X141000000Y-101000000D03*
X142000000Y-101000000D03*
X143000000Y-101000000D03*
X144000000Y-101000000D03*
X145000000Y-101000000D03*
X146000000Y-101000000D03*
X147000000Y-101000000D03*
X148000000Y-101000000D03*
X149000000Y-101000000D03*
X150000000Y-101000000D03*
X151000000Y-101000000D03*
X152000000Y-101000000D03*
X153000000Y-101000000D03*
X154000000Y-101000000D03*
X155000000Y-101000000D03*
X156000000Y-101000000D03*
X157000000Y-101000000D03*
X158000000Y-101000000D03*
X159000000Y-101000000D03*
X160000000Y-101000000D03*
X161000000Y-101000000D03*
X162000000Y-101000000D03*
X163000000Y-101000000D03*
X164000000Y-101000000D03*
X165000000Y-101000000D03*
X166000000Y-101000000D03*
X167000000Y-101000000D03*
X168000000Y-101000000D03*
X169000000Y-101000000D03*
X170000000Y-101000000D03*
X171000000Y-101000000D03*
X172000000Y-101000000D03*
X173000000Y-101000000D03*
X174000000Y-101000000D03*
X175000000Y-101000000D03*
X176000000Y-101000000D03*
X177000000Y-101000000D03*
X178000000Y-101000000D03*
X179000000Y-101000000D03*
X180000000Y-101000000D03*
X181000000Y-101000000D03*
X148000000Y-117000000D03*
X147000000Y-117000000D03*
X146000000Y-117000000D03*
X145000000Y-117000000D03*
X144000000Y-112000000D03*
X144000000Y-113000000D03*
X144000000Y-114000000D03*
X144000000Y-115000000D03*
X144000000Y-116000000D03*
X144000000Y-117000000D03*
X142000000Y-117000000D03*
X143000000Y-117000000D03*
X165000000Y-117000000D03*
X165000000Y-118000000D03*
X165000000Y-119000000D03*
X165000000Y-120000000D03*
X165000000Y-121000000D03*
X165000000Y-122000000D03*
X165000000Y-123000000D03*
X165000000Y-124000000D03*
X165000000Y-125000000D03*
X165000000Y-126000000D03*
X169000000Y-126000000D03*
X169000000Y-125000000D03*
X169000000Y-124000000D03*
X170000000Y-124000000D03*
X171000000Y-124000000D03*
X172000000Y-124000000D03*
X173000000Y-124000000D03*
X174000000Y-124000000D03*
X174000000Y-123000000D03*
X174000000Y-122000000D03*
X174000000Y-121000000D03*
X169000000Y-120000000D03*
X170000000Y-120000000D03*
X171000000Y-120000000D03*
X143000000Y-111000000D03*
X144000000Y-111000000D03*
X145000000Y-111000000D03*
X146000000Y-111000000D03*
X147000000Y-111000000D03*
X148000000Y-111000000D03*
X149000000Y-111000000D03*
X150000000Y-111000000D03*
X151000000Y-111000000D03*
X152000000Y-111000000D03*
X153000000Y-111000000D03*
X154000000Y-111000000D03*
X155000000Y-111000000D03*
X156000000Y-111000000D03*
X157000000Y-111000000D03*
X158000000Y-111000000D03*
X159000000Y-111000000D03*
X160000000Y-111000000D03*
X161000000Y-111000000D03*
X162000000Y-111000000D03*
X163000000Y-111000000D03*
X164000000Y-111000000D03*
X165000000Y-112000000D03*
X166500000Y-113000000D03*
X168000000Y-114000000D03*
X169000000Y-115000000D03*
X169000000Y-116000000D03*
X170000000Y-116000000D03*
X172000000Y-116000000D03*
X173000000Y-116000000D03*
X174000000Y-116000000D03*
X174000000Y-117000000D03*
X174000000Y-118000000D03*
X174000000Y-119000000D03*
X174000000Y-120000000D03*
X173000000Y-120000000D03*
X172000000Y-120000000D03*
X127000000Y-116000000D03*
X127000000Y-117000000D03*
X127000000Y-118000000D03*
X127000000Y-119000000D03*
X127000000Y-120000000D03*
X127000000Y-121000000D03*
X127000000Y-122000000D03*
X128000000Y-122000000D03*
X129000000Y-122000000D03*
X130000000Y-122000000D03*
X131000000Y-122000000D03*
X132000000Y-122000000D03*
X133000000Y-122000000D03*
X134000000Y-122000000D03*
X135000000Y-122000000D03*
X136000000Y-122000000D03*
X137000000Y-122000000D03*
X138000000Y-122000000D03*
X139000000Y-122000000D03*
X142000000Y-126000000D03*
X143000000Y-126000000D03*
X144000000Y-126000000D03*
X145000000Y-126000000D03*
X146000000Y-126000000D03*
X100000000Y-87500000D03*
X102000000Y-87500000D03*
X104000000Y-87500000D03*
X106000000Y-87500000D03*
X108000000Y-87500000D03*
X110000000Y-87500000D03*
X112000000Y-87500000D03*
X114000000Y-87500000D03*
X116000000Y-87500000D03*
X118000000Y-87500000D03*
X120000000Y-87500000D03*
X122000000Y-87500000D03*
X124000000Y-87500000D03*
X126000000Y-87500000D03*
X128000000Y-87500000D03*
X130000000Y-87500000D03*
X132000000Y-87500000D03*
X134000000Y-87500000D03*
X136000000Y-87500000D03*
X138000000Y-87500000D03*
X140000000Y-87500000D03*
X142000000Y-87500000D03*
X144000000Y-87500000D03*
X146000000Y-87500000D03*
X148000000Y-87500000D03*
X150000000Y-87500000D03*
X152000000Y-87500000D03*
X154000000Y-87500000D03*
X156000000Y-87500000D03*
X158000000Y-87500000D03*
X160000000Y-87500000D03*
X162000000Y-87500000D03*
X164000000Y-87500000D03*
X166000000Y-87500000D03*
X168000000Y-87500000D03*
X170000000Y-87500000D03*
X172000000Y-87500000D03*
X174000000Y-87500000D03*
X176000000Y-87500000D03*
X178000000Y-87500000D03*
X100000000Y-89500000D03*
X102000000Y-89500000D03*
X104000000Y-89500000D03*
X106000000Y-89500000D03*
X108000000Y-89500000D03*
X110000000Y-89500000D03*
X112000000Y-89500000D03*
X114000000Y-89500000D03*
X116000000Y-89500000D03*
X118000000Y-89500000D03*
X120000000Y-89500000D03*
X122000000Y-89500000D03*
X124000000Y-89500000D03*
X126000000Y-89500000D03*
X128000000Y-89500000D03*
X130000000Y-89500000D03*
X132000000Y-89500000D03*
X134000000Y-89500000D03*
X136000000Y-89500000D03*
X138000000Y-89500000D03*
X140000000Y-89500000D03*
X142000000Y-89500000D03*
X144000000Y-89500000D03*
X146000000Y-89500000D03*
X148000000Y-89500000D03*
X150000000Y-89500000D03*
X152000000Y-89500000D03*
X154000000Y-89500000D03*
X156000000Y-89500000D03*
X158000000Y-89500000D03*
X160000000Y-89500000D03*
X162000000Y-89500000D03*
X164000000Y-89500000D03*
X166000000Y-89500000D03*
X168000000Y-89500000D03*
X170000000Y-89500000D03*
X172000000Y-89500000D03*
X174000000Y-89500000D03*
X176000000Y-89500000D03*
X178000000Y-89500000D03*
X100000000Y-130000000D03*
X102000000Y-130000000D03*
X104000000Y-130000000D03*
X106000000Y-130000000D03*
X108000000Y-130000000D03*
X110000000Y-130000000D03*
X112000000Y-130000000D03*
X114000000Y-130000000D03*
X116000000Y-130000000D03*
X118000000Y-130000000D03*
X120000000Y-130000000D03*
X122000000Y-130000000D03*
X124000000Y-130000000D03*
X126000000Y-130000000D03*
X128000000Y-130000000D03*
X130000000Y-130000000D03*
X100000000Y-132000000D03*
X102000000Y-132000000D03*
X104000000Y-132000000D03*
X106000000Y-132000000D03*
X108000000Y-132000000D03*
X110000000Y-132000000D03*
X112000000Y-132000000D03*
X114000000Y-132000000D03*
X116000000Y-132000000D03*
X118000000Y-132000000D03*
X120000000Y-132000000D03*
X122000000Y-132000000D03*
X124000000Y-132000000D03*
X126000000Y-132000000D03*
X128000000Y-132000000D03*
X130000000Y-132000000D03*
X93000000Y-93500000D03*
X95000000Y-93500000D03*
X97000000Y-93500000D03*
X99000000Y-93500000D03*
X101000000Y-93500000D03*
X103000000Y-93500000D03*
X105000000Y-93500000D03*
X107000000Y-93500000D03*
X109000000Y-93500000D03*
X111000000Y-93500000D03*
X113000000Y-93500000D03*
X115000000Y-93500000D03*
X117000000Y-93500000D03*
X119000000Y-93500000D03*
X121000000Y-93500000D03*
X123000000Y-93500000D03*
X125000000Y-93500000D03*
X127000000Y-93500000D03*
X129000000Y-93500000D03*
X131000000Y-93500000D03*
X91000000Y-95500000D03*
X93000000Y-95500000D03*
X95000000Y-95500000D03*
X97000000Y-95500000D03*
X99000000Y-95500000D03*
X101000000Y-95500000D03*
X103000000Y-95500000D03*
X105000000Y-95500000D03*
X107000000Y-95500000D03*
X109000000Y-95500000D03*
X111000000Y-95500000D03*
X113000000Y-95500000D03*
X115000000Y-95500000D03*
X117000000Y-95500000D03*
X119000000Y-95500000D03*
X121000000Y-95500000D03*
X123000000Y-95500000D03*
X125000000Y-95500000D03*
X127000000Y-95500000D03*
X129000000Y-95500000D03*
X131000000Y-95500000D03*
X91000000Y-97500000D03*
X93000000Y-97500000D03*
X95000000Y-97500000D03*
X97000000Y-97500000D03*
X99000000Y-97500000D03*
X101000000Y-97500000D03*
X103000000Y-97500000D03*
X105000000Y-97500000D03*
X107000000Y-97500000D03*
X109000000Y-97500000D03*
X111000000Y-97500000D03*
X113000000Y-97500000D03*
X115000000Y-97500000D03*
X117000000Y-97500000D03*
X119000000Y-97500000D03*
X121000000Y-97500000D03*
X123000000Y-97500000D03*
X125000000Y-97500000D03*
X127000000Y-97500000D03*
X129000000Y-97500000D03*
X131000000Y-97500000D03*
X91000000Y-99500000D03*
X93000000Y-99500000D03*
X95000000Y-99500000D03*
X97000000Y-99500000D03*
X99000000Y-99500000D03*
X101000000Y-99500000D03*
X103000000Y-99500000D03*
X105000000Y-99500000D03*
X107000000Y-99500000D03*
X109000000Y-99500000D03*
X111000000Y-99500000D03*
X113000000Y-99500000D03*
X115000000Y-99500000D03*
X117000000Y-99500000D03*
X119000000Y-99500000D03*
X121000000Y-99500000D03*
X123000000Y-99500000D03*
X125000000Y-99500000D03*
X127000000Y-99500000D03*
X129000000Y-99500000D03*
X131000000Y-99500000D03*
X148000000Y-91500000D03*
X150000000Y-91500000D03*
X152000000Y-91500000D03*
X154000000Y-91500000D03*
X156000000Y-91500000D03*
X158000000Y-91500000D03*
X160000000Y-91500000D03*
X162000000Y-91500000D03*
X164000000Y-91500000D03*
X166000000Y-91500000D03*
X168000000Y-91500000D03*
X170000000Y-91500000D03*
X172000000Y-91500000D03*
X174000000Y-91500000D03*
X146000000Y-93500000D03*
X148000000Y-93500000D03*
X150000000Y-93500000D03*
X152000000Y-93500000D03*
X154000000Y-93500000D03*
X156000000Y-93500000D03*
X158000000Y-93500000D03*
X160000000Y-93500000D03*
X162000000Y-93500000D03*
X164000000Y-93500000D03*
X166000000Y-93500000D03*
X168000000Y-93500000D03*
X170000000Y-93500000D03*
X172000000Y-93500000D03*
X174000000Y-93500000D03*
X146000000Y-95500000D03*
X148000000Y-95500000D03*
X150000000Y-95500000D03*
X152000000Y-95500000D03*
X154000000Y-95500000D03*
X156000000Y-95500000D03*
X158000000Y-95500000D03*
X160000000Y-95500000D03*
X162000000Y-95500000D03*
X164000000Y-95500000D03*
X166000000Y-95500000D03*
X168000000Y-95500000D03*
X170000000Y-95500000D03*
X172000000Y-95500000D03*
X174000000Y-95500000D03*
X146000000Y-97500000D03*
X148000000Y-97500000D03*
X150000000Y-97500000D03*
X152000000Y-97500000D03*
X154000000Y-97500000D03*
X156000000Y-97500000D03*
X158000000Y-97500000D03*
X160000000Y-97500000D03*
X162000000Y-97500000D03*
X164000000Y-97500000D03*
X166000000Y-97500000D03*
X168000000Y-97500000D03*
X170000000Y-97500000D03*
X172000000Y-97500000D03*
X174000000Y-97500000D03*
X146000000Y-99500000D03*
X148000000Y-99500000D03*
X150000000Y-99500000D03*
X152000000Y-99500000D03*
X154000000Y-99500000D03*
X156000000Y-99500000D03*
X158000000Y-99500000D03*
X160000000Y-99500000D03*
X162000000Y-99500000D03*
X164000000Y-99500000D03*
X166000000Y-99500000D03*
X168000000Y-99500000D03*
X170000000Y-99500000D03*
X172000000Y-99500000D03*
X174000000Y-99500000D03*
X176000000Y-110500000D03*
X178000000Y-110500000D03*
X180000000Y-110500000D03*
X182000000Y-110500000D03*
X184000000Y-110500000D03*
X186000000Y-110500000D03*
X188000000Y-110500000D03*
X176000000Y-112500000D03*
X178000000Y-112500000D03*
X180000000Y-112500000D03*
X182000000Y-112500000D03*
X184000000Y-112500000D03*
X186000000Y-112500000D03*
X188000000Y-112500000D03*
X176000000Y-114500000D03*
X178000000Y-114500000D03*
X180000000Y-114500000D03*
X182000000Y-114500000D03*
X184000000Y-114500000D03*
X186000000Y-114500000D03*
X188000000Y-114500000D03*
X176000000Y-116500000D03*
X178000000Y-116500000D03*
X180000000Y-116500000D03*
X182000000Y-116500000D03*
X184000000Y-116500000D03*
X186000000Y-116500000D03*
X188000000Y-116500000D03*
X176000000Y-118500000D03*
X178000000Y-118500000D03*
X180000000Y-118500000D03*
X182000000Y-118500000D03*
X184000000Y-118500000D03*
X186000000Y-118500000D03*
X188000000Y-118500000D03*
X176000000Y-120500000D03*
X178000000Y-120500000D03*
X180000000Y-120500000D03*
X182000000Y-120500000D03*
X184000000Y-120500000D03*
X186000000Y-120500000D03*
X188000000Y-120500000D03*
X176000000Y-122500000D03*
X178000000Y-122500000D03*
X180000000Y-122500000D03*
X182000000Y-122500000D03*
X184000000Y-122500000D03*
X186000000Y-122500000D03*
X188000000Y-122500000D03*
X176000000Y-124500000D03*
X178000000Y-124500000D03*
X180000000Y-124500000D03*
X182000000Y-124500000D03*
X184000000Y-124500000D03*
X186000000Y-124500000D03*
X188000000Y-124500000D03*
X176000000Y-126500000D03*
X178000000Y-126500000D03*
X180000000Y-126500000D03*
X182000000Y-126500000D03*
X184000000Y-126500000D03*
X186000000Y-126500000D03*
X188000000Y-126500000D03*
X172000000Y-126500000D03*
X174000000Y-126500000D03*
X172000000Y-129500000D03*
X174000000Y-129500000D03*
X176000000Y-129500000D03*
X178000000Y-129500000D03*
X180000000Y-129500000D03*
X172000000Y-131500000D03*
X174000000Y-131500000D03*
X176000000Y-131500000D03*
X178000000Y-131500000D03*
X180000000Y-131500000D03*
X172000000Y-133500000D03*
X174000000Y-133500000D03*
X176000000Y-133500000D03*
X178000000Y-133500000D03*
X180000000Y-133500000D03*
X182000000Y-133500000D03*
X125000000Y-122000000D03*
X125000000Y-120000000D03*
X125000000Y-124000000D03*
X125000000Y-118000000D03*
X125000000Y-126000000D03*
X125000000Y-128000000D03*
X127000000Y-124000000D03*
X129000000Y-124000000D03*
X131000000Y-124000000D03*
X133000000Y-124000000D03*
X135000000Y-124000000D03*
X137000000Y-124000000D03*
X127000000Y-126000000D03*
X129000000Y-126000000D03*
X129000000Y-128000000D03*
X127000000Y-128000000D03*
X131000000Y-126000000D03*
X133000000Y-126000000D03*
X135000000Y-126000000D03*
X131000000Y-128000000D03*
X146000000Y-132000000D03*
X147500000Y-132000000D03*
X149000000Y-132000000D03*
X150500000Y-132000000D03*
X152000000Y-132000000D03*
X153500000Y-132000000D03*
X157500000Y-132000000D03*
X178000000Y-91500000D03*
X180000000Y-91500000D03*
X176000000Y-93500000D03*
X178000000Y-93500000D03*
X180000000Y-93500000D03*
X182000000Y-93500000D03*
X184000000Y-93500000D03*
X176000000Y-95500000D03*
X178000000Y-95500000D03*
X180000000Y-95500000D03*
X182000000Y-95500000D03*
X184000000Y-95500000D03*
X180000000Y-97500000D03*
X182000000Y-97500000D03*
X184000000Y-97500000D03*
X186000000Y-97500000D03*
X188000000Y-97500000D03*
X180000000Y-99500000D03*
X182000000Y-99500000D03*
X184000000Y-99500000D03*
X186000000Y-99500000D03*
X188000000Y-99500000D03*
X180000000Y-87500000D03*
X186000000Y-93500000D03*
X188000000Y-93500000D03*
X180000000Y-89500000D03*
X186000000Y-95500000D03*
X188000000Y-95500000D03*
G04 #@! TO.N,+12V*
X152800000Y-120500000D03*
X151100000Y-120500000D03*
X152000000Y-120500000D03*
G04 #@! TD*
D24*
G04 #@! TO.N,GND*
X155000000Y-116500000D02*
X154000000Y-116500000D01*
X157000000Y-116500000D02*
X156000000Y-116500000D01*
X126500000Y-112000000D02*
X126500000Y-111500000D01*
X126500000Y-111500000D02*
X124000000Y-109000000D01*
X99000000Y-109000000D02*
X97540000Y-107540000D01*
X101000000Y-109000000D02*
X100000000Y-109000000D01*
X103000000Y-109000000D02*
X102000000Y-109000000D01*
X105000000Y-109000000D02*
X104000000Y-109000000D01*
X107000000Y-109000000D02*
X106000000Y-109000000D01*
X109000000Y-109000000D02*
X108000000Y-109000000D01*
X111000000Y-109000000D02*
X110000000Y-109000000D01*
X113000000Y-109000000D02*
X112000000Y-109000000D01*
X115000000Y-109000000D02*
X114000000Y-109000000D01*
X117000000Y-109000000D02*
X116000000Y-109000000D01*
X119000000Y-109000000D02*
X118000000Y-109000000D01*
X121000000Y-109000000D02*
X120000000Y-109000000D01*
X123000000Y-109000000D02*
X122000000Y-109000000D01*
X97540000Y-107540000D02*
X97040000Y-107540000D01*
X136000000Y-109000000D02*
X135000000Y-109000000D01*
X143000000Y-109000000D02*
X142000000Y-109000000D01*
X145000000Y-109000000D02*
X144000000Y-109000000D01*
X147000000Y-109000000D02*
X146000000Y-109000000D01*
X149000000Y-109000000D02*
X148000000Y-109000000D01*
X151000000Y-109000000D02*
X150000000Y-109000000D01*
X153000000Y-109000000D02*
X152000000Y-109000000D01*
X155000000Y-109000000D02*
X154000000Y-109000000D01*
X157000000Y-109000000D02*
X156000000Y-109000000D01*
X159000000Y-109000000D02*
X158000000Y-109000000D01*
X161000000Y-109000000D02*
X160000000Y-109000000D01*
X163000000Y-109000000D02*
X162000000Y-109000000D01*
X165000000Y-109000000D02*
X164000000Y-109000000D01*
X167000000Y-109000000D02*
X166000000Y-109000000D01*
X169000000Y-109000000D02*
X168000000Y-109000000D01*
X171000000Y-109000000D02*
X170000000Y-109000000D01*
X173000000Y-109000000D02*
X172000000Y-109000000D01*
X175000000Y-109000000D02*
X174000000Y-109000000D01*
X177000000Y-109000000D02*
X176000000Y-109000000D01*
X179000000Y-109000000D02*
X178000000Y-109000000D01*
X181000000Y-109000000D02*
X180000000Y-109000000D01*
X136999996Y-109000000D02*
X138000010Y-109000000D01*
X141000000Y-109000000D02*
X139000006Y-109000000D01*
X128000000Y-109000000D02*
X126500000Y-110500000D01*
X130000000Y-109000000D02*
X129000000Y-109000000D01*
X132000000Y-109000000D02*
X131000000Y-109000000D01*
X134000000Y-109000000D02*
X133000000Y-109000000D01*
X126500000Y-110500000D02*
X126500000Y-112000000D01*
X112000000Y-99000000D02*
X111000000Y-99000000D01*
X111000000Y-99000000D02*
X109000000Y-101000000D01*
X100000000Y-101000000D02*
X99000000Y-101000000D01*
X102000000Y-101000000D02*
X101000000Y-101000000D01*
X104000000Y-101000000D02*
X103000000Y-101000000D01*
X106000000Y-101000000D02*
X105000000Y-101000000D01*
X108000000Y-101000000D02*
X107000000Y-101000000D01*
X115000000Y-101000000D02*
X114000000Y-101000000D01*
X117000000Y-101000000D02*
X116000000Y-101000000D01*
X119000000Y-101000000D02*
X118000000Y-101000000D01*
X121000000Y-101000000D02*
X120000000Y-101000000D01*
X123000000Y-101000000D02*
X122000000Y-101000000D01*
X125000000Y-101000000D02*
X124000000Y-101000000D01*
X127000000Y-101000000D02*
X126000000Y-101000000D01*
X129000000Y-101000000D02*
X128000000Y-101000000D01*
X131000000Y-101000000D02*
X130000000Y-101000000D01*
X133000000Y-101000000D02*
X132000000Y-101000000D01*
X135000000Y-101000000D02*
X134000000Y-101000000D01*
X137000000Y-101000000D02*
X136000000Y-101000000D01*
X139000000Y-101000000D02*
X138000000Y-101000000D01*
X141000000Y-101000000D02*
X140000000Y-101000000D01*
X143000000Y-101000000D02*
X142000000Y-101000000D01*
X145000000Y-101000000D02*
X144000000Y-101000000D01*
X147000000Y-101000000D02*
X146000000Y-101000000D01*
X149000000Y-101000000D02*
X148000000Y-101000000D01*
X151000000Y-101000000D02*
X150000000Y-101000000D01*
X153000000Y-101000000D02*
X152000000Y-101000000D01*
X155000000Y-101000000D02*
X154000000Y-101000000D01*
X157000000Y-101000000D02*
X156000000Y-101000000D01*
X159000000Y-101000000D02*
X158000000Y-101000000D01*
X161000000Y-101000000D02*
X160000000Y-101000000D01*
X163000000Y-101000000D02*
X162000000Y-101000000D01*
X165000000Y-101000000D02*
X164000000Y-101000000D01*
X167000000Y-101000000D02*
X166000000Y-101000000D01*
X169000000Y-101000000D02*
X168000000Y-101000000D01*
X171000000Y-101000000D02*
X170000000Y-101000000D01*
X173000000Y-101000000D02*
X172000000Y-101000000D01*
X175000000Y-101000000D02*
X174000000Y-101000000D01*
X177000000Y-101000000D02*
X176000000Y-101000000D01*
X179000000Y-101000000D02*
X178000000Y-101000000D01*
X181000000Y-101000000D02*
X180000000Y-101000000D01*
X114000000Y-101000000D02*
X112000000Y-99000000D01*
X144000000Y-117000000D02*
X145000000Y-117000000D01*
X146000000Y-117000000D02*
X147000000Y-117000000D01*
X144000000Y-117000000D02*
X143000000Y-117000000D01*
X144000000Y-113000000D02*
X144000000Y-114000000D01*
X144000000Y-115000000D02*
X144000000Y-116000000D01*
X144000000Y-111000000D02*
X144000000Y-112000000D01*
X164460000Y-127960000D02*
X164460000Y-126540000D01*
X165000000Y-119000000D02*
X165000000Y-118000000D01*
X165000000Y-121000000D02*
X165000000Y-120000000D01*
X165000000Y-123000000D02*
X165000000Y-122000000D01*
X165000000Y-125000000D02*
X165000000Y-124000000D01*
X164460000Y-126540000D02*
X165000000Y-126000000D01*
X169540000Y-126540000D02*
X169540000Y-127960000D01*
X169000000Y-126000000D02*
X169540000Y-126540000D01*
X169000000Y-124000000D02*
X169000000Y-125000000D01*
X171000000Y-124000000D02*
X170000000Y-124000000D01*
X173000000Y-124000000D02*
X172000000Y-124000000D01*
X174000000Y-123000000D02*
X174000000Y-124000000D01*
X174000000Y-121000000D02*
X174000000Y-122000000D01*
X172000000Y-120000000D02*
X171000000Y-120000000D01*
X170000000Y-120000000D02*
X169000000Y-120000000D01*
X143000000Y-111000000D02*
X144000000Y-111000000D01*
X145000000Y-111000000D02*
X146000000Y-111000000D01*
X147000000Y-111000000D02*
X148000000Y-111000000D01*
X149000000Y-111000000D02*
X150000000Y-111000000D01*
X151000000Y-111000000D02*
X152000000Y-111000000D01*
X153000000Y-111000000D02*
X154000000Y-111000000D01*
X155000000Y-111000000D02*
X156000000Y-111000000D01*
X157000000Y-111000000D02*
X158000000Y-111000000D01*
X159000000Y-111000000D02*
X160000000Y-111000000D01*
X161000000Y-111000000D02*
X162000000Y-111000000D01*
X163000000Y-111000000D02*
X164000000Y-111000000D01*
X165000000Y-112000000D02*
X166000000Y-113000000D01*
X166000000Y-113000000D02*
X166500000Y-113000000D01*
X168000000Y-114000000D02*
X169000000Y-115000000D01*
X169000000Y-116000000D02*
X170000000Y-116000000D01*
X172000000Y-116000000D02*
X173000000Y-116000000D01*
X174000000Y-116000000D02*
X174000000Y-117000000D01*
X174000000Y-118000000D02*
X174000000Y-119000000D01*
X174000000Y-120000000D02*
X173000000Y-120000000D01*
X172000000Y-120000000D02*
X172350000Y-119650000D01*
X172350000Y-119650000D02*
X172350000Y-118000000D01*
X127000000Y-118000000D02*
X127000000Y-117000000D01*
X127000000Y-120000000D02*
X127000000Y-119000000D01*
X127000000Y-122000000D02*
X127000000Y-121000000D01*
X129000000Y-122000000D02*
X128000000Y-122000000D01*
X131000000Y-122000000D02*
X130000000Y-122000000D01*
X133000000Y-122000000D02*
X132000000Y-122000000D01*
X135000000Y-122000000D02*
X134000000Y-122000000D01*
X137000000Y-122000000D02*
X136000000Y-122000000D01*
X139000000Y-122000000D02*
X138000000Y-122000000D01*
X137960000Y-130500000D02*
X137960000Y-130040000D01*
X137960000Y-130040000D02*
X142000000Y-126000000D01*
X143000000Y-126000000D02*
X144000000Y-126000000D01*
X145000000Y-126000000D02*
X146000000Y-126000000D01*
D25*
G04 #@! TO.N,Net-(C1-Pad2)*
X121500000Y-105000000D02*
X114000000Y-105000000D01*
X114000000Y-105000000D02*
X112000000Y-103000000D01*
X112000000Y-103000000D02*
X112000000Y-105000000D01*
X112000000Y-105000000D02*
X112000000Y-105500000D01*
X112000000Y-105500000D02*
X112000000Y-105000000D01*
D26*
X94500000Y-105000000D02*
X100000000Y-105000000D01*
D27*
X100000000Y-105000000D02*
X112000000Y-105000000D01*
X112000000Y-105000000D02*
X162380000Y-105000000D01*
D25*
G04 #@! TO.N,+12V*
X152000000Y-120500000D02*
X152800000Y-120500000D01*
X143120000Y-120500000D02*
X152000000Y-120500000D01*
X135420000Y-130500000D02*
X135420000Y-128200000D01*
X135420000Y-128200000D02*
X143120000Y-120500000D01*
D26*
G04 #@! TO.N,Net-(J8-Pad1)*
X185500000Y-105000000D02*
X180500000Y-105000000D01*
D27*
X180500000Y-105000000D02*
X176985000Y-105000000D01*
G04 #@! TD*
D28*
G04 #@! TO.N,GND*
G36*
X188233748Y-107525858D02*
X188219605Y-107540000D01*
X188233748Y-107554143D01*
X188054142Y-107733748D01*
X188040000Y-107719605D01*
X186886517Y-108873089D01*
X187015725Y-109165859D01*
X187715883Y-109434071D01*
X188465384Y-109413928D01*
X189064275Y-109165859D01*
X189193482Y-108873090D01*
X189290000Y-108969608D01*
X189290001Y-134290000D01*
X170969608Y-134290000D01*
X170873090Y-134193482D01*
X171165859Y-134064275D01*
X171434071Y-133364117D01*
X171413928Y-132614616D01*
X171346712Y-132452340D01*
X182727265Y-132452340D01*
X183045501Y-132906203D01*
X184306434Y-133432936D01*
X185672956Y-133437035D01*
X186937027Y-132917878D01*
X186954499Y-132906203D01*
X187272735Y-132452340D01*
X185000000Y-130179605D01*
X182727265Y-132452340D01*
X171346712Y-132452340D01*
X171165859Y-132015725D01*
X170873089Y-131886517D01*
X169719605Y-133040000D01*
X169733748Y-133054142D01*
X169554142Y-133233748D01*
X169540000Y-133219605D01*
X169525858Y-133233748D01*
X169346252Y-133054142D01*
X169360395Y-133040000D01*
X168206911Y-131886517D01*
X167914141Y-132015725D01*
X167645929Y-132715883D01*
X167666072Y-133465384D01*
X167914141Y-134064275D01*
X168206910Y-134193482D01*
X168110392Y-134290000D01*
X165889608Y-134290000D01*
X165793090Y-134193482D01*
X166085859Y-134064275D01*
X166354071Y-133364117D01*
X166333928Y-132614616D01*
X166085859Y-132015725D01*
X165793089Y-131886517D01*
X164639605Y-133040000D01*
X164653748Y-133054142D01*
X164474142Y-133233748D01*
X164460000Y-133219605D01*
X164445858Y-133233748D01*
X164266252Y-133054142D01*
X164280395Y-133040000D01*
X163126911Y-131886517D01*
X162834141Y-132015725D01*
X162565929Y-132715883D01*
X162586072Y-133465384D01*
X162834141Y-134064275D01*
X163126910Y-134193482D01*
X163030392Y-134290000D01*
X90710000Y-134290000D01*
X90710000Y-132452340D01*
X92727265Y-132452340D01*
X93045501Y-132906203D01*
X94306434Y-133432936D01*
X95672956Y-133437035D01*
X96937027Y-132917878D01*
X96954499Y-132906203D01*
X97272735Y-132452340D01*
X95000000Y-130179605D01*
X92727265Y-132452340D01*
X90710000Y-132452340D01*
X90710000Y-130672956D01*
X91562965Y-130672956D01*
X92082122Y-131937027D01*
X92093797Y-131954499D01*
X92547660Y-132272735D01*
X94820395Y-130000000D01*
X95179605Y-130000000D01*
X97452340Y-132272735D01*
X97906203Y-131954499D01*
X98432936Y-130693566D01*
X98434899Y-130038969D01*
X131245000Y-130038969D01*
X131245000Y-130961030D01*
X131339864Y-131437944D01*
X131701231Y-131978769D01*
X132242055Y-132340136D01*
X132880000Y-132467031D01*
X133517944Y-132340136D01*
X134058769Y-131978769D01*
X134150000Y-131842232D01*
X134241231Y-131978769D01*
X134782055Y-132340136D01*
X135420000Y-132467031D01*
X136057944Y-132340136D01*
X136598769Y-131978769D01*
X136709952Y-131812371D01*
X136893683Y-132045922D01*
X137451645Y-132359144D01*
X137579566Y-132390124D01*
X137833000Y-132270777D01*
X137833000Y-130627000D01*
X137813000Y-130627000D01*
X137813000Y-130373000D01*
X137833000Y-130373000D01*
X137833000Y-128729223D01*
X138087000Y-128729223D01*
X138087000Y-130373000D01*
X138107000Y-130373000D01*
X138107000Y-130627000D01*
X138087000Y-130627000D01*
X138087000Y-132270777D01*
X138340434Y-132390124D01*
X138468355Y-132359144D01*
X139026317Y-132045922D01*
X139210048Y-131812371D01*
X139321231Y-131978769D01*
X139862055Y-132340136D01*
X140500000Y-132467031D01*
X141137944Y-132340136D01*
X141483100Y-132109510D01*
X141582191Y-132257809D01*
X141792235Y-132398157D01*
X142040000Y-132447440D01*
X144040000Y-132447440D01*
X144287765Y-132398157D01*
X144497809Y-132257809D01*
X144638157Y-132047765D01*
X144687440Y-131800000D01*
X144687440Y-131706911D01*
X163306517Y-131706911D01*
X164460000Y-132860395D01*
X165613483Y-131706911D01*
X165484275Y-131414141D01*
X164784117Y-131145929D01*
X164034616Y-131166072D01*
X163435725Y-131414141D01*
X163306517Y-131706911D01*
X144687440Y-131706911D01*
X144687440Y-130174880D01*
X165365510Y-130174880D01*
X165365510Y-130825120D01*
X165614346Y-131425864D01*
X166074136Y-131885654D01*
X166674880Y-132134490D01*
X167325120Y-132134490D01*
X167925864Y-131885654D01*
X168104607Y-131706911D01*
X168386517Y-131706911D01*
X169540000Y-132860395D01*
X170693483Y-131706911D01*
X170564275Y-131414141D01*
X169864117Y-131145929D01*
X169114616Y-131166072D01*
X168515725Y-131414141D01*
X168386517Y-131706911D01*
X168104607Y-131706911D01*
X168385654Y-131425864D01*
X168634490Y-130825120D01*
X168634490Y-130672956D01*
X181562965Y-130672956D01*
X182082122Y-131937027D01*
X182093797Y-131954499D01*
X182547660Y-132272735D01*
X184820395Y-130000000D01*
X185179605Y-130000000D01*
X187452340Y-132272735D01*
X187906203Y-131954499D01*
X188432936Y-130693566D01*
X188437035Y-129327044D01*
X187917878Y-128062973D01*
X187906203Y-128045501D01*
X187452340Y-127727265D01*
X185179605Y-130000000D01*
X184820395Y-130000000D01*
X182547660Y-127727265D01*
X182093797Y-128045501D01*
X181567064Y-129306434D01*
X181562965Y-130672956D01*
X168634490Y-130672956D01*
X168634490Y-130174880D01*
X168385654Y-129574136D01*
X168104607Y-129293089D01*
X168386517Y-129293089D01*
X168515725Y-129585859D01*
X169215883Y-129854071D01*
X169965384Y-129833928D01*
X170564275Y-129585859D01*
X170693483Y-129293089D01*
X169540000Y-128139605D01*
X168386517Y-129293089D01*
X168104607Y-129293089D01*
X167925864Y-129114346D01*
X167325120Y-128865510D01*
X166674880Y-128865510D01*
X166074136Y-129114346D01*
X165614346Y-129574136D01*
X165365510Y-130174880D01*
X144687440Y-130174880D01*
X144687440Y-129293089D01*
X163306517Y-129293089D01*
X163435725Y-129585859D01*
X164135883Y-129854071D01*
X164885384Y-129833928D01*
X165484275Y-129585859D01*
X165613483Y-129293089D01*
X164460000Y-128139605D01*
X163306517Y-129293089D01*
X144687440Y-129293089D01*
X144687440Y-129200000D01*
X144638157Y-128952235D01*
X144497809Y-128742191D01*
X144287765Y-128601843D01*
X144040000Y-128552560D01*
X142040000Y-128552560D01*
X141792235Y-128601843D01*
X141582191Y-128742191D01*
X141483100Y-128890489D01*
X141137945Y-128659864D01*
X140500000Y-128532969D01*
X139862056Y-128659864D01*
X139321231Y-129021231D01*
X139210048Y-129187629D01*
X139026317Y-128954078D01*
X138468355Y-128640856D01*
X138340434Y-128609876D01*
X138087000Y-128729223D01*
X137833000Y-128729223D01*
X137579566Y-128609876D01*
X137451645Y-128640856D01*
X136893683Y-128954078D01*
X136709952Y-129187629D01*
X136598769Y-129021231D01*
X136555000Y-128991985D01*
X136555000Y-128670131D01*
X137589248Y-127635883D01*
X162565929Y-127635883D01*
X162586072Y-128385384D01*
X162834141Y-128984275D01*
X163126911Y-129113483D01*
X164280395Y-127960000D01*
X164639605Y-127960000D01*
X165793089Y-129113483D01*
X166085859Y-128984275D01*
X166354071Y-128284117D01*
X166336650Y-127635883D01*
X167645929Y-127635883D01*
X167666072Y-128385384D01*
X167914141Y-128984275D01*
X168206911Y-129113483D01*
X169360395Y-127960000D01*
X169719605Y-127960000D01*
X170873089Y-129113483D01*
X171165859Y-128984275D01*
X171434071Y-128284117D01*
X171414279Y-127547660D01*
X182727265Y-127547660D01*
X185000000Y-129820395D01*
X187272735Y-127547660D01*
X186954499Y-127093797D01*
X185693566Y-126567064D01*
X184327044Y-126562965D01*
X183062973Y-127082122D01*
X183045501Y-127093797D01*
X182727265Y-127547660D01*
X171414279Y-127547660D01*
X171413928Y-127534616D01*
X171165859Y-126935725D01*
X170873089Y-126806517D01*
X169719605Y-127960000D01*
X169360395Y-127960000D01*
X168206911Y-126806517D01*
X167914141Y-126935725D01*
X167645929Y-127635883D01*
X166336650Y-127635883D01*
X166333928Y-127534616D01*
X166085859Y-126935725D01*
X165793089Y-126806517D01*
X164639605Y-127960000D01*
X164280395Y-127960000D01*
X163126911Y-126806517D01*
X162834141Y-126935725D01*
X162565929Y-127635883D01*
X137589248Y-127635883D01*
X138598220Y-126626911D01*
X163306517Y-126626911D01*
X164460000Y-127780395D01*
X165613483Y-126626911D01*
X168386517Y-126626911D01*
X169540000Y-127780395D01*
X170693483Y-126626911D01*
X170564275Y-126334141D01*
X169864117Y-126065929D01*
X169114616Y-126086072D01*
X168515725Y-126334141D01*
X168386517Y-126626911D01*
X165613483Y-126626911D01*
X165484275Y-126334141D01*
X164784117Y-126065929D01*
X164034616Y-126086072D01*
X163435725Y-126334141D01*
X163306517Y-126626911D01*
X138598220Y-126626911D01*
X143590132Y-121635000D01*
X152911783Y-121635000D01*
X153242855Y-121569146D01*
X153618289Y-121318289D01*
X153869146Y-120942855D01*
X153957235Y-120500000D01*
X153869146Y-120057145D01*
X153618289Y-119681711D01*
X153242855Y-119430854D01*
X152911783Y-119365000D01*
X143231781Y-119365000D01*
X143119999Y-119342765D01*
X143008217Y-119365000D01*
X142677145Y-119430854D01*
X142301711Y-119681711D01*
X142238389Y-119776479D01*
X134696480Y-127318389D01*
X134601712Y-127381711D01*
X134431880Y-127635883D01*
X134350854Y-127757146D01*
X134262765Y-128200000D01*
X134285001Y-128311788D01*
X134285001Y-128991985D01*
X134241231Y-129021231D01*
X134150000Y-129157768D01*
X134058769Y-129021231D01*
X133517945Y-128659864D01*
X132880000Y-128532969D01*
X132242056Y-128659864D01*
X131701231Y-129021231D01*
X131339864Y-129562055D01*
X131245000Y-130038969D01*
X98434899Y-130038969D01*
X98437035Y-129327044D01*
X97917878Y-128062973D01*
X97906203Y-128045501D01*
X97452340Y-127727265D01*
X95179605Y-130000000D01*
X94820395Y-130000000D01*
X92547660Y-127727265D01*
X92093797Y-128045501D01*
X91567064Y-129306434D01*
X91562965Y-130672956D01*
X90710000Y-130672956D01*
X90710000Y-127547660D01*
X92727265Y-127547660D01*
X95000000Y-129820395D01*
X97272735Y-127547660D01*
X96954499Y-127093797D01*
X95693566Y-126567064D01*
X94327044Y-126562965D01*
X93062973Y-127082122D01*
X93045501Y-127093797D01*
X92727265Y-127547660D01*
X90710000Y-127547660D01*
X90710000Y-117000000D01*
X131656799Y-117000000D01*
X131656799Y-120000000D01*
X131720984Y-120322679D01*
X131903767Y-120596233D01*
X132177321Y-120779016D01*
X132500000Y-120843201D01*
X135500000Y-120843201D01*
X135822679Y-120779016D01*
X136096233Y-120596233D01*
X136279016Y-120322679D01*
X136343201Y-120000000D01*
X136343201Y-117000000D01*
X136279016Y-116677321D01*
X136096233Y-116403767D01*
X135822679Y-116220984D01*
X135500000Y-116156799D01*
X132500000Y-116156799D01*
X132177321Y-116220984D01*
X131903767Y-116403767D01*
X131720984Y-116677321D01*
X131656799Y-117000000D01*
X90710000Y-117000000D01*
X90710000Y-113622314D01*
X125057291Y-113622314D01*
X125235379Y-113956666D01*
X126080426Y-114291673D01*
X126989350Y-114277794D01*
X127764621Y-113956666D01*
X127942709Y-113622314D01*
X126500000Y-112179605D01*
X125057291Y-113622314D01*
X90710000Y-113622314D01*
X90710000Y-111580426D01*
X124208327Y-111580426D01*
X124222206Y-112489350D01*
X124543334Y-113264621D01*
X124877686Y-113442709D01*
X126320395Y-112000000D01*
X126679605Y-112000000D01*
X128122314Y-113442709D01*
X128456666Y-113264621D01*
X128759789Y-112500000D01*
X144656799Y-112500000D01*
X144656799Y-115500000D01*
X144720984Y-115822679D01*
X144903767Y-116096233D01*
X145177321Y-116279016D01*
X145500000Y-116343201D01*
X148500000Y-116343201D01*
X148822679Y-116279016D01*
X149096233Y-116096233D01*
X149279016Y-115822679D01*
X149343201Y-115500000D01*
X149343201Y-112500000D01*
X159656799Y-112500000D01*
X159656799Y-115500000D01*
X159720984Y-115822679D01*
X159903767Y-116096233D01*
X160177321Y-116279016D01*
X160500000Y-116343201D01*
X163500000Y-116343201D01*
X163822679Y-116279016D01*
X164096233Y-116096233D01*
X164279016Y-115822679D01*
X164343201Y-115500000D01*
X164343201Y-112500000D01*
X164279016Y-112177321D01*
X164096233Y-111903767D01*
X163822679Y-111720984D01*
X163500000Y-111656799D01*
X160500000Y-111656799D01*
X160177321Y-111720984D01*
X159903767Y-111903767D01*
X159720984Y-112177321D01*
X159656799Y-112500000D01*
X149343201Y-112500000D01*
X149279016Y-112177321D01*
X149096233Y-111903767D01*
X148822679Y-111720984D01*
X148500000Y-111656799D01*
X145500000Y-111656799D01*
X145177321Y-111720984D01*
X144903767Y-111903767D01*
X144720984Y-112177321D01*
X144656799Y-112500000D01*
X128759789Y-112500000D01*
X128791673Y-112419574D01*
X128777794Y-111510650D01*
X128456666Y-110735379D01*
X128122314Y-110557291D01*
X126679605Y-112000000D01*
X126320395Y-112000000D01*
X124877686Y-110557291D01*
X124543334Y-110735379D01*
X124208327Y-111580426D01*
X90710000Y-111580426D01*
X90710000Y-110377686D01*
X125057291Y-110377686D01*
X126500000Y-111820395D01*
X127942709Y-110377686D01*
X127764621Y-110043334D01*
X126919574Y-109708327D01*
X126010650Y-109722206D01*
X125235379Y-110043334D01*
X125057291Y-110377686D01*
X90710000Y-110377686D01*
X90710000Y-108969608D01*
X90806518Y-108873090D01*
X90935725Y-109165859D01*
X91635883Y-109434071D01*
X92385384Y-109413928D01*
X92984275Y-109165859D01*
X93113483Y-108873089D01*
X95886517Y-108873089D01*
X96015725Y-109165859D01*
X96715883Y-109434071D01*
X97465384Y-109413928D01*
X98064275Y-109165859D01*
X98193483Y-108873089D01*
X97040000Y-107719605D01*
X95886517Y-108873089D01*
X93113483Y-108873089D01*
X91960000Y-107719605D01*
X91945858Y-107733748D01*
X91766252Y-107554142D01*
X91780395Y-107540000D01*
X91766252Y-107525858D01*
X91873000Y-107419110D01*
X91873000Y-107500000D01*
X91882667Y-107548601D01*
X91910197Y-107589803D01*
X91951399Y-107617333D01*
X92000000Y-107627000D01*
X92226605Y-107627000D01*
X93293089Y-108693483D01*
X93585859Y-108564275D01*
X93854071Y-107864117D01*
X93847698Y-107627000D01*
X95156978Y-107627000D01*
X95166072Y-107965384D01*
X95414141Y-108564275D01*
X95706911Y-108693483D01*
X96773395Y-107627000D01*
X96957667Y-107627000D01*
X98353424Y-108673818D01*
X98373089Y-108693483D01*
X98377216Y-108691662D01*
X98923800Y-109101600D01*
X98968481Y-109123027D01*
X99000000Y-109127000D01*
X181500000Y-109127000D01*
X181548601Y-109117333D01*
X181589803Y-109089803D01*
X181692784Y-108986822D01*
X181692785Y-108986823D01*
X181806518Y-108873090D01*
X181935725Y-109165859D01*
X182635883Y-109434071D01*
X183385384Y-109413928D01*
X183984275Y-109165859D01*
X184113483Y-108873089D01*
X182960000Y-107719606D01*
X183052606Y-107627000D01*
X183226605Y-107627000D01*
X184293089Y-108693483D01*
X184585859Y-108564275D01*
X184854071Y-107864117D01*
X184847698Y-107627000D01*
X186156978Y-107627000D01*
X186166072Y-107965384D01*
X186414141Y-108564275D01*
X186706911Y-108693483D01*
X187773395Y-107627000D01*
X188000000Y-107627000D01*
X188048601Y-107617333D01*
X188089803Y-107589803D01*
X188117333Y-107548601D01*
X188127000Y-107500000D01*
X188127000Y-107419110D01*
X188233748Y-107525858D01*
X188233748Y-107525858D01*
G37*
X188233748Y-107525858D02*
X188219605Y-107540000D01*
X188233748Y-107554143D01*
X188054142Y-107733748D01*
X188040000Y-107719605D01*
X186886517Y-108873089D01*
X187015725Y-109165859D01*
X187715883Y-109434071D01*
X188465384Y-109413928D01*
X189064275Y-109165859D01*
X189193482Y-108873090D01*
X189290000Y-108969608D01*
X189290001Y-134290000D01*
X170969608Y-134290000D01*
X170873090Y-134193482D01*
X171165859Y-134064275D01*
X171434071Y-133364117D01*
X171413928Y-132614616D01*
X171346712Y-132452340D01*
X182727265Y-132452340D01*
X183045501Y-132906203D01*
X184306434Y-133432936D01*
X185672956Y-133437035D01*
X186937027Y-132917878D01*
X186954499Y-132906203D01*
X187272735Y-132452340D01*
X185000000Y-130179605D01*
X182727265Y-132452340D01*
X171346712Y-132452340D01*
X171165859Y-132015725D01*
X170873089Y-131886517D01*
X169719605Y-133040000D01*
X169733748Y-133054142D01*
X169554142Y-133233748D01*
X169540000Y-133219605D01*
X169525858Y-133233748D01*
X169346252Y-133054142D01*
X169360395Y-133040000D01*
X168206911Y-131886517D01*
X167914141Y-132015725D01*
X167645929Y-132715883D01*
X167666072Y-133465384D01*
X167914141Y-134064275D01*
X168206910Y-134193482D01*
X168110392Y-134290000D01*
X165889608Y-134290000D01*
X165793090Y-134193482D01*
X166085859Y-134064275D01*
X166354071Y-133364117D01*
X166333928Y-132614616D01*
X166085859Y-132015725D01*
X165793089Y-131886517D01*
X164639605Y-133040000D01*
X164653748Y-133054142D01*
X164474142Y-133233748D01*
X164460000Y-133219605D01*
X164445858Y-133233748D01*
X164266252Y-133054142D01*
X164280395Y-133040000D01*
X163126911Y-131886517D01*
X162834141Y-132015725D01*
X162565929Y-132715883D01*
X162586072Y-133465384D01*
X162834141Y-134064275D01*
X163126910Y-134193482D01*
X163030392Y-134290000D01*
X90710000Y-134290000D01*
X90710000Y-132452340D01*
X92727265Y-132452340D01*
X93045501Y-132906203D01*
X94306434Y-133432936D01*
X95672956Y-133437035D01*
X96937027Y-132917878D01*
X96954499Y-132906203D01*
X97272735Y-132452340D01*
X95000000Y-130179605D01*
X92727265Y-132452340D01*
X90710000Y-132452340D01*
X90710000Y-130672956D01*
X91562965Y-130672956D01*
X92082122Y-131937027D01*
X92093797Y-131954499D01*
X92547660Y-132272735D01*
X94820395Y-130000000D01*
X95179605Y-130000000D01*
X97452340Y-132272735D01*
X97906203Y-131954499D01*
X98432936Y-130693566D01*
X98434899Y-130038969D01*
X131245000Y-130038969D01*
X131245000Y-130961030D01*
X131339864Y-131437944D01*
X131701231Y-131978769D01*
X132242055Y-132340136D01*
X132880000Y-132467031D01*
X133517944Y-132340136D01*
X134058769Y-131978769D01*
X134150000Y-131842232D01*
X134241231Y-131978769D01*
X134782055Y-132340136D01*
X135420000Y-132467031D01*
X136057944Y-132340136D01*
X136598769Y-131978769D01*
X136709952Y-131812371D01*
X136893683Y-132045922D01*
X137451645Y-132359144D01*
X137579566Y-132390124D01*
X137833000Y-132270777D01*
X137833000Y-130627000D01*
X137813000Y-130627000D01*
X137813000Y-130373000D01*
X137833000Y-130373000D01*
X137833000Y-128729223D01*
X138087000Y-128729223D01*
X138087000Y-130373000D01*
X138107000Y-130373000D01*
X138107000Y-130627000D01*
X138087000Y-130627000D01*
X138087000Y-132270777D01*
X138340434Y-132390124D01*
X138468355Y-132359144D01*
X139026317Y-132045922D01*
X139210048Y-131812371D01*
X139321231Y-131978769D01*
X139862055Y-132340136D01*
X140500000Y-132467031D01*
X141137944Y-132340136D01*
X141483100Y-132109510D01*
X141582191Y-132257809D01*
X141792235Y-132398157D01*
X142040000Y-132447440D01*
X144040000Y-132447440D01*
X144287765Y-132398157D01*
X144497809Y-132257809D01*
X144638157Y-132047765D01*
X144687440Y-131800000D01*
X144687440Y-131706911D01*
X163306517Y-131706911D01*
X164460000Y-132860395D01*
X165613483Y-131706911D01*
X165484275Y-131414141D01*
X164784117Y-131145929D01*
X164034616Y-131166072D01*
X163435725Y-131414141D01*
X163306517Y-131706911D01*
X144687440Y-131706911D01*
X144687440Y-130174880D01*
X165365510Y-130174880D01*
X165365510Y-130825120D01*
X165614346Y-131425864D01*
X166074136Y-131885654D01*
X166674880Y-132134490D01*
X167325120Y-132134490D01*
X167925864Y-131885654D01*
X168104607Y-131706911D01*
X168386517Y-131706911D01*
X169540000Y-132860395D01*
X170693483Y-131706911D01*
X170564275Y-131414141D01*
X169864117Y-131145929D01*
X169114616Y-131166072D01*
X168515725Y-131414141D01*
X168386517Y-131706911D01*
X168104607Y-131706911D01*
X168385654Y-131425864D01*
X168634490Y-130825120D01*
X168634490Y-130672956D01*
X181562965Y-130672956D01*
X182082122Y-131937027D01*
X182093797Y-131954499D01*
X182547660Y-132272735D01*
X184820395Y-130000000D01*
X185179605Y-130000000D01*
X187452340Y-132272735D01*
X187906203Y-131954499D01*
X188432936Y-130693566D01*
X188437035Y-129327044D01*
X187917878Y-128062973D01*
X187906203Y-128045501D01*
X187452340Y-127727265D01*
X185179605Y-130000000D01*
X184820395Y-130000000D01*
X182547660Y-127727265D01*
X182093797Y-128045501D01*
X181567064Y-129306434D01*
X181562965Y-130672956D01*
X168634490Y-130672956D01*
X168634490Y-130174880D01*
X168385654Y-129574136D01*
X168104607Y-129293089D01*
X168386517Y-129293089D01*
X168515725Y-129585859D01*
X169215883Y-129854071D01*
X169965384Y-129833928D01*
X170564275Y-129585859D01*
X170693483Y-129293089D01*
X169540000Y-128139605D01*
X168386517Y-129293089D01*
X168104607Y-129293089D01*
X167925864Y-129114346D01*
X167325120Y-128865510D01*
X166674880Y-128865510D01*
X166074136Y-129114346D01*
X165614346Y-129574136D01*
X165365510Y-130174880D01*
X144687440Y-130174880D01*
X144687440Y-129293089D01*
X163306517Y-129293089D01*
X163435725Y-129585859D01*
X164135883Y-129854071D01*
X164885384Y-129833928D01*
X165484275Y-129585859D01*
X165613483Y-129293089D01*
X164460000Y-128139605D01*
X163306517Y-129293089D01*
X144687440Y-129293089D01*
X144687440Y-129200000D01*
X144638157Y-128952235D01*
X144497809Y-128742191D01*
X144287765Y-128601843D01*
X144040000Y-128552560D01*
X142040000Y-128552560D01*
X141792235Y-128601843D01*
X141582191Y-128742191D01*
X141483100Y-128890489D01*
X141137945Y-128659864D01*
X140500000Y-128532969D01*
X139862056Y-128659864D01*
X139321231Y-129021231D01*
X139210048Y-129187629D01*
X139026317Y-128954078D01*
X138468355Y-128640856D01*
X138340434Y-128609876D01*
X138087000Y-128729223D01*
X137833000Y-128729223D01*
X137579566Y-128609876D01*
X137451645Y-128640856D01*
X136893683Y-128954078D01*
X136709952Y-129187629D01*
X136598769Y-129021231D01*
X136555000Y-128991985D01*
X136555000Y-128670131D01*
X137589248Y-127635883D01*
X162565929Y-127635883D01*
X162586072Y-128385384D01*
X162834141Y-128984275D01*
X163126911Y-129113483D01*
X164280395Y-127960000D01*
X164639605Y-127960000D01*
X165793089Y-129113483D01*
X166085859Y-128984275D01*
X166354071Y-128284117D01*
X166336650Y-127635883D01*
X167645929Y-127635883D01*
X167666072Y-128385384D01*
X167914141Y-128984275D01*
X168206911Y-129113483D01*
X169360395Y-127960000D01*
X169719605Y-127960000D01*
X170873089Y-129113483D01*
X171165859Y-128984275D01*
X171434071Y-128284117D01*
X171414279Y-127547660D01*
X182727265Y-127547660D01*
X185000000Y-129820395D01*
X187272735Y-127547660D01*
X186954499Y-127093797D01*
X185693566Y-126567064D01*
X184327044Y-126562965D01*
X183062973Y-127082122D01*
X183045501Y-127093797D01*
X182727265Y-127547660D01*
X171414279Y-127547660D01*
X171413928Y-127534616D01*
X171165859Y-126935725D01*
X170873089Y-126806517D01*
X169719605Y-127960000D01*
X169360395Y-127960000D01*
X168206911Y-126806517D01*
X167914141Y-126935725D01*
X167645929Y-127635883D01*
X166336650Y-127635883D01*
X166333928Y-127534616D01*
X166085859Y-126935725D01*
X165793089Y-126806517D01*
X164639605Y-127960000D01*
X164280395Y-127960000D01*
X163126911Y-126806517D01*
X162834141Y-126935725D01*
X162565929Y-127635883D01*
X137589248Y-127635883D01*
X138598220Y-126626911D01*
X163306517Y-126626911D01*
X164460000Y-127780395D01*
X165613483Y-126626911D01*
X168386517Y-126626911D01*
X169540000Y-127780395D01*
X170693483Y-126626911D01*
X170564275Y-126334141D01*
X169864117Y-126065929D01*
X169114616Y-126086072D01*
X168515725Y-126334141D01*
X168386517Y-126626911D01*
X165613483Y-126626911D01*
X165484275Y-126334141D01*
X164784117Y-126065929D01*
X164034616Y-126086072D01*
X163435725Y-126334141D01*
X163306517Y-126626911D01*
X138598220Y-126626911D01*
X143590132Y-121635000D01*
X152911783Y-121635000D01*
X153242855Y-121569146D01*
X153618289Y-121318289D01*
X153869146Y-120942855D01*
X153957235Y-120500000D01*
X153869146Y-120057145D01*
X153618289Y-119681711D01*
X153242855Y-119430854D01*
X152911783Y-119365000D01*
X143231781Y-119365000D01*
X143119999Y-119342765D01*
X143008217Y-119365000D01*
X142677145Y-119430854D01*
X142301711Y-119681711D01*
X142238389Y-119776479D01*
X134696480Y-127318389D01*
X134601712Y-127381711D01*
X134431880Y-127635883D01*
X134350854Y-127757146D01*
X134262765Y-128200000D01*
X134285001Y-128311788D01*
X134285001Y-128991985D01*
X134241231Y-129021231D01*
X134150000Y-129157768D01*
X134058769Y-129021231D01*
X133517945Y-128659864D01*
X132880000Y-128532969D01*
X132242056Y-128659864D01*
X131701231Y-129021231D01*
X131339864Y-129562055D01*
X131245000Y-130038969D01*
X98434899Y-130038969D01*
X98437035Y-129327044D01*
X97917878Y-128062973D01*
X97906203Y-128045501D01*
X97452340Y-127727265D01*
X95179605Y-130000000D01*
X94820395Y-130000000D01*
X92547660Y-127727265D01*
X92093797Y-128045501D01*
X91567064Y-129306434D01*
X91562965Y-130672956D01*
X90710000Y-130672956D01*
X90710000Y-127547660D01*
X92727265Y-127547660D01*
X95000000Y-129820395D01*
X97272735Y-127547660D01*
X96954499Y-127093797D01*
X95693566Y-126567064D01*
X94327044Y-126562965D01*
X93062973Y-127082122D01*
X93045501Y-127093797D01*
X92727265Y-127547660D01*
X90710000Y-127547660D01*
X90710000Y-117000000D01*
X131656799Y-117000000D01*
X131656799Y-120000000D01*
X131720984Y-120322679D01*
X131903767Y-120596233D01*
X132177321Y-120779016D01*
X132500000Y-120843201D01*
X135500000Y-120843201D01*
X135822679Y-120779016D01*
X136096233Y-120596233D01*
X136279016Y-120322679D01*
X136343201Y-120000000D01*
X136343201Y-117000000D01*
X136279016Y-116677321D01*
X136096233Y-116403767D01*
X135822679Y-116220984D01*
X135500000Y-116156799D01*
X132500000Y-116156799D01*
X132177321Y-116220984D01*
X131903767Y-116403767D01*
X131720984Y-116677321D01*
X131656799Y-117000000D01*
X90710000Y-117000000D01*
X90710000Y-113622314D01*
X125057291Y-113622314D01*
X125235379Y-113956666D01*
X126080426Y-114291673D01*
X126989350Y-114277794D01*
X127764621Y-113956666D01*
X127942709Y-113622314D01*
X126500000Y-112179605D01*
X125057291Y-113622314D01*
X90710000Y-113622314D01*
X90710000Y-111580426D01*
X124208327Y-111580426D01*
X124222206Y-112489350D01*
X124543334Y-113264621D01*
X124877686Y-113442709D01*
X126320395Y-112000000D01*
X126679605Y-112000000D01*
X128122314Y-113442709D01*
X128456666Y-113264621D01*
X128759789Y-112500000D01*
X144656799Y-112500000D01*
X144656799Y-115500000D01*
X144720984Y-115822679D01*
X144903767Y-116096233D01*
X145177321Y-116279016D01*
X145500000Y-116343201D01*
X148500000Y-116343201D01*
X148822679Y-116279016D01*
X149096233Y-116096233D01*
X149279016Y-115822679D01*
X149343201Y-115500000D01*
X149343201Y-112500000D01*
X159656799Y-112500000D01*
X159656799Y-115500000D01*
X159720984Y-115822679D01*
X159903767Y-116096233D01*
X160177321Y-116279016D01*
X160500000Y-116343201D01*
X163500000Y-116343201D01*
X163822679Y-116279016D01*
X164096233Y-116096233D01*
X164279016Y-115822679D01*
X164343201Y-115500000D01*
X164343201Y-112500000D01*
X164279016Y-112177321D01*
X164096233Y-111903767D01*
X163822679Y-111720984D01*
X163500000Y-111656799D01*
X160500000Y-111656799D01*
X160177321Y-111720984D01*
X159903767Y-111903767D01*
X159720984Y-112177321D01*
X159656799Y-112500000D01*
X149343201Y-112500000D01*
X149279016Y-112177321D01*
X149096233Y-111903767D01*
X148822679Y-111720984D01*
X148500000Y-111656799D01*
X145500000Y-111656799D01*
X145177321Y-111720984D01*
X144903767Y-111903767D01*
X144720984Y-112177321D01*
X144656799Y-112500000D01*
X128759789Y-112500000D01*
X128791673Y-112419574D01*
X128777794Y-111510650D01*
X128456666Y-110735379D01*
X128122314Y-110557291D01*
X126679605Y-112000000D01*
X126320395Y-112000000D01*
X124877686Y-110557291D01*
X124543334Y-110735379D01*
X124208327Y-111580426D01*
X90710000Y-111580426D01*
X90710000Y-110377686D01*
X125057291Y-110377686D01*
X126500000Y-111820395D01*
X127942709Y-110377686D01*
X127764621Y-110043334D01*
X126919574Y-109708327D01*
X126010650Y-109722206D01*
X125235379Y-110043334D01*
X125057291Y-110377686D01*
X90710000Y-110377686D01*
X90710000Y-108969608D01*
X90806518Y-108873090D01*
X90935725Y-109165859D01*
X91635883Y-109434071D01*
X92385384Y-109413928D01*
X92984275Y-109165859D01*
X93113483Y-108873089D01*
X95886517Y-108873089D01*
X96015725Y-109165859D01*
X96715883Y-109434071D01*
X97465384Y-109413928D01*
X98064275Y-109165859D01*
X98193483Y-108873089D01*
X97040000Y-107719605D01*
X95886517Y-108873089D01*
X93113483Y-108873089D01*
X91960000Y-107719605D01*
X91945858Y-107733748D01*
X91766252Y-107554142D01*
X91780395Y-107540000D01*
X91766252Y-107525858D01*
X91873000Y-107419110D01*
X91873000Y-107500000D01*
X91882667Y-107548601D01*
X91910197Y-107589803D01*
X91951399Y-107617333D01*
X92000000Y-107627000D01*
X92226605Y-107627000D01*
X93293089Y-108693483D01*
X93585859Y-108564275D01*
X93854071Y-107864117D01*
X93847698Y-107627000D01*
X95156978Y-107627000D01*
X95166072Y-107965384D01*
X95414141Y-108564275D01*
X95706911Y-108693483D01*
X96773395Y-107627000D01*
X96957667Y-107627000D01*
X98353424Y-108673818D01*
X98373089Y-108693483D01*
X98377216Y-108691662D01*
X98923800Y-109101600D01*
X98968481Y-109123027D01*
X99000000Y-109127000D01*
X181500000Y-109127000D01*
X181548601Y-109117333D01*
X181589803Y-109089803D01*
X181692784Y-108986822D01*
X181692785Y-108986823D01*
X181806518Y-108873090D01*
X181935725Y-109165859D01*
X182635883Y-109434071D01*
X183385384Y-109413928D01*
X183984275Y-109165859D01*
X184113483Y-108873089D01*
X182960000Y-107719606D01*
X183052606Y-107627000D01*
X183226605Y-107627000D01*
X184293089Y-108693483D01*
X184585859Y-108564275D01*
X184854071Y-107864117D01*
X184847698Y-107627000D01*
X186156978Y-107627000D01*
X186166072Y-107965384D01*
X186414141Y-108564275D01*
X186706911Y-108693483D01*
X187773395Y-107627000D01*
X188000000Y-107627000D01*
X188048601Y-107617333D01*
X188089803Y-107589803D01*
X188117333Y-107548601D01*
X188127000Y-107500000D01*
X188127000Y-107419110D01*
X188233748Y-107525858D01*
G36*
X189290000Y-101030392D02*
X189193482Y-101126910D01*
X189064275Y-100834141D01*
X188364117Y-100565929D01*
X187614616Y-100586072D01*
X187015725Y-100834141D01*
X186886517Y-101126911D01*
X188040000Y-102280395D01*
X188054142Y-102266252D01*
X188233748Y-102445858D01*
X188219605Y-102460000D01*
X188233748Y-102474142D01*
X188127000Y-102580890D01*
X188127000Y-102500000D01*
X188117333Y-102451399D01*
X188089803Y-102410197D01*
X188048601Y-102382667D01*
X188000000Y-102373000D01*
X187773395Y-102373000D01*
X186706911Y-101306517D01*
X186414141Y-101435725D01*
X186145929Y-102135883D01*
X186152302Y-102373000D01*
X184843022Y-102373000D01*
X184833928Y-102034616D01*
X184585859Y-101435725D01*
X184293089Y-101306517D01*
X183226605Y-102373000D01*
X183042333Y-102373000D01*
X181646576Y-101326182D01*
X181626911Y-101306517D01*
X181622784Y-101308338D01*
X181380882Y-101126911D01*
X181806517Y-101126911D01*
X182960000Y-102280395D01*
X184113483Y-101126911D01*
X183984275Y-100834141D01*
X183284117Y-100565929D01*
X182534616Y-100586072D01*
X181935725Y-100834141D01*
X181806517Y-101126911D01*
X181380882Y-101126911D01*
X181076200Y-100898400D01*
X181031519Y-100876973D01*
X181000000Y-100873000D01*
X99000000Y-100873000D01*
X98951399Y-100882667D01*
X98923800Y-100898400D01*
X98377216Y-101308338D01*
X98373089Y-101306517D01*
X98353424Y-101326182D01*
X96957667Y-102373000D01*
X96773395Y-102373000D01*
X95706911Y-101306517D01*
X95414141Y-101435725D01*
X95145929Y-102135883D01*
X95152302Y-102373000D01*
X93843022Y-102373000D01*
X93833928Y-102034616D01*
X93585859Y-101435725D01*
X93293089Y-101306517D01*
X92226605Y-102373000D01*
X92000000Y-102373000D01*
X91951399Y-102382667D01*
X91910197Y-102410197D01*
X91882667Y-102451399D01*
X91873000Y-102500000D01*
X91873000Y-102580890D01*
X91766252Y-102474142D01*
X91780395Y-102460000D01*
X91766252Y-102445858D01*
X91945858Y-102266252D01*
X91960000Y-102280395D01*
X93113483Y-101126911D01*
X95886517Y-101126911D01*
X97040000Y-102280395D01*
X98193483Y-101126911D01*
X98064275Y-100834141D01*
X97364117Y-100565929D01*
X96614616Y-100586072D01*
X96015725Y-100834141D01*
X95886517Y-101126911D01*
X93113483Y-101126911D01*
X92984275Y-100834141D01*
X92284117Y-100565929D01*
X91534616Y-100586072D01*
X90935725Y-100834141D01*
X90806518Y-101126910D01*
X90710000Y-101030392D01*
X90710000Y-99285750D01*
X109615000Y-99285750D01*
X109615000Y-100126309D01*
X109711673Y-100359698D01*
X109890301Y-100538327D01*
X110123690Y-100635000D01*
X111714250Y-100635000D01*
X111873000Y-100476250D01*
X111873000Y-99127000D01*
X112127000Y-99127000D01*
X112127000Y-100476250D01*
X112285750Y-100635000D01*
X113876310Y-100635000D01*
X114109699Y-100538327D01*
X114288327Y-100359698D01*
X114385000Y-100126309D01*
X114385000Y-99652532D01*
X176027073Y-99652532D01*
X176125736Y-99919387D01*
X176735461Y-100145908D01*
X177385460Y-100121856D01*
X177874264Y-99919387D01*
X177972927Y-99652532D01*
X177000000Y-98679605D01*
X176027073Y-99652532D01*
X114385000Y-99652532D01*
X114385000Y-99285750D01*
X114226250Y-99127000D01*
X112127000Y-99127000D01*
X111873000Y-99127000D01*
X109773750Y-99127000D01*
X109615000Y-99285750D01*
X90710000Y-99285750D01*
X90710000Y-97873691D01*
X109615000Y-97873691D01*
X109615000Y-98714250D01*
X109773750Y-98873000D01*
X111873000Y-98873000D01*
X111873000Y-97523750D01*
X112127000Y-97523750D01*
X112127000Y-98873000D01*
X114226250Y-98873000D01*
X114385000Y-98714250D01*
X114385000Y-97873691D01*
X114288327Y-97640302D01*
X114270340Y-97622314D01*
X139057291Y-97622314D01*
X139235379Y-97956666D01*
X140080426Y-98291673D01*
X140989350Y-98277794D01*
X141091550Y-98235461D01*
X175354092Y-98235461D01*
X175378144Y-98885460D01*
X175580613Y-99374264D01*
X175847468Y-99472927D01*
X176820395Y-98500000D01*
X177179605Y-98500000D01*
X178152532Y-99472927D01*
X178419387Y-99374264D01*
X178645908Y-98764539D01*
X178621856Y-98114540D01*
X178419387Y-97625736D01*
X178152532Y-97527073D01*
X177179605Y-98500000D01*
X176820395Y-98500000D01*
X175847468Y-97527073D01*
X175580613Y-97625736D01*
X175354092Y-98235461D01*
X141091550Y-98235461D01*
X141764621Y-97956666D01*
X141942709Y-97622314D01*
X140500000Y-96179605D01*
X139057291Y-97622314D01*
X114270340Y-97622314D01*
X114109699Y-97461673D01*
X113876310Y-97365000D01*
X112285750Y-97365000D01*
X112127000Y-97523750D01*
X111873000Y-97523750D01*
X111714250Y-97365000D01*
X110123690Y-97365000D01*
X109890301Y-97461673D01*
X109711673Y-97640302D01*
X109615000Y-97873691D01*
X90710000Y-97873691D01*
X90710000Y-95580426D01*
X138208327Y-95580426D01*
X138222206Y-96489350D01*
X138543334Y-97264621D01*
X138877686Y-97442709D01*
X140320395Y-96000000D01*
X140679605Y-96000000D01*
X142122314Y-97442709D01*
X142301124Y-97347468D01*
X176027073Y-97347468D01*
X177000000Y-98320395D01*
X177972927Y-97347468D01*
X177874264Y-97080613D01*
X177264539Y-96854092D01*
X176614540Y-96878144D01*
X176125736Y-97080613D01*
X176027073Y-97347468D01*
X142301124Y-97347468D01*
X142456666Y-97264621D01*
X142791673Y-96419574D01*
X142777794Y-95510650D01*
X142456666Y-94735379D01*
X142122314Y-94557291D01*
X140679605Y-96000000D01*
X140320395Y-96000000D01*
X138877686Y-94557291D01*
X138543334Y-94735379D01*
X138208327Y-95580426D01*
X90710000Y-95580426D01*
X90710000Y-94722532D01*
X134932073Y-94722532D01*
X135030736Y-94989387D01*
X135640461Y-95215908D01*
X136290460Y-95191856D01*
X136779264Y-94989387D01*
X136877927Y-94722532D01*
X135905000Y-93749605D01*
X134932073Y-94722532D01*
X90710000Y-94722532D01*
X90710000Y-92452340D01*
X92727265Y-92452340D01*
X93045501Y-92906203D01*
X94306434Y-93432936D01*
X95672956Y-93437035D01*
X95993319Y-93305461D01*
X134259092Y-93305461D01*
X134283144Y-93955460D01*
X134485613Y-94444264D01*
X134752468Y-94542927D01*
X135725395Y-93570000D01*
X136084605Y-93570000D01*
X137057532Y-94542927D01*
X137324387Y-94444264D01*
X137349121Y-94377686D01*
X139057291Y-94377686D01*
X140500000Y-95820395D01*
X141942709Y-94377686D01*
X141764621Y-94043334D01*
X140919574Y-93708327D01*
X140010650Y-93722206D01*
X139235379Y-94043334D01*
X139057291Y-94377686D01*
X137349121Y-94377686D01*
X137550908Y-93834539D01*
X137526856Y-93184540D01*
X137324387Y-92695736D01*
X137057532Y-92597073D01*
X136084605Y-93570000D01*
X135725395Y-93570000D01*
X134752468Y-92597073D01*
X134485613Y-92695736D01*
X134259092Y-93305461D01*
X95993319Y-93305461D01*
X96937027Y-92917878D01*
X96954499Y-92906203D01*
X97272735Y-92452340D01*
X97237863Y-92417468D01*
X134932073Y-92417468D01*
X135905000Y-93390395D01*
X136843055Y-92452340D01*
X182727265Y-92452340D01*
X183045501Y-92906203D01*
X184306434Y-93432936D01*
X185672956Y-93437035D01*
X186937027Y-92917878D01*
X186954499Y-92906203D01*
X187272735Y-92452340D01*
X185000000Y-90179605D01*
X182727265Y-92452340D01*
X136843055Y-92452340D01*
X136877927Y-92417468D01*
X136779264Y-92150613D01*
X136169539Y-91924092D01*
X135519540Y-91948144D01*
X135030736Y-92150613D01*
X134932073Y-92417468D01*
X97237863Y-92417468D01*
X95000000Y-90179605D01*
X92727265Y-92452340D01*
X90710000Y-92452340D01*
X90710000Y-90672956D01*
X91562965Y-90672956D01*
X92082122Y-91937027D01*
X92093797Y-91954499D01*
X92547660Y-92272735D01*
X94820395Y-90000000D01*
X95179605Y-90000000D01*
X97452340Y-92272735D01*
X97906203Y-91954499D01*
X98432936Y-90693566D01*
X98432997Y-90672956D01*
X181562965Y-90672956D01*
X182082122Y-91937027D01*
X182093797Y-91954499D01*
X182547660Y-92272735D01*
X184820395Y-90000000D01*
X185179605Y-90000000D01*
X187452340Y-92272735D01*
X187906203Y-91954499D01*
X188432936Y-90693566D01*
X188437035Y-89327044D01*
X187917878Y-88062973D01*
X187906203Y-88045501D01*
X187452340Y-87727265D01*
X185179605Y-90000000D01*
X184820395Y-90000000D01*
X182547660Y-87727265D01*
X182093797Y-88045501D01*
X181567064Y-89306434D01*
X181562965Y-90672956D01*
X98432997Y-90672956D01*
X98437035Y-89327044D01*
X97917878Y-88062973D01*
X97906203Y-88045501D01*
X97452340Y-87727265D01*
X95179605Y-90000000D01*
X94820395Y-90000000D01*
X92547660Y-87727265D01*
X92093797Y-88045501D01*
X91567064Y-89306434D01*
X91562965Y-90672956D01*
X90710000Y-90672956D01*
X90710000Y-87547660D01*
X92727265Y-87547660D01*
X95000000Y-89820395D01*
X97272735Y-87547660D01*
X182727265Y-87547660D01*
X185000000Y-89820395D01*
X187272735Y-87547660D01*
X186954499Y-87093797D01*
X185693566Y-86567064D01*
X184327044Y-86562965D01*
X183062973Y-87082122D01*
X183045501Y-87093797D01*
X182727265Y-87547660D01*
X97272735Y-87547660D01*
X96954499Y-87093797D01*
X95693566Y-86567064D01*
X94327044Y-86562965D01*
X93062973Y-87082122D01*
X93045501Y-87093797D01*
X92727265Y-87547660D01*
X90710000Y-87547660D01*
X90710000Y-85710000D01*
X189290000Y-85710000D01*
X189290000Y-101030392D01*
X189290000Y-101030392D01*
G37*
X189290000Y-101030392D02*
X189193482Y-101126910D01*
X189064275Y-100834141D01*
X188364117Y-100565929D01*
X187614616Y-100586072D01*
X187015725Y-100834141D01*
X186886517Y-101126911D01*
X188040000Y-102280395D01*
X188054142Y-102266252D01*
X188233748Y-102445858D01*
X188219605Y-102460000D01*
X188233748Y-102474142D01*
X188127000Y-102580890D01*
X188127000Y-102500000D01*
X188117333Y-102451399D01*
X188089803Y-102410197D01*
X188048601Y-102382667D01*
X188000000Y-102373000D01*
X187773395Y-102373000D01*
X186706911Y-101306517D01*
X186414141Y-101435725D01*
X186145929Y-102135883D01*
X186152302Y-102373000D01*
X184843022Y-102373000D01*
X184833928Y-102034616D01*
X184585859Y-101435725D01*
X184293089Y-101306517D01*
X183226605Y-102373000D01*
X183042333Y-102373000D01*
X181646576Y-101326182D01*
X181626911Y-101306517D01*
X181622784Y-101308338D01*
X181380882Y-101126911D01*
X181806517Y-101126911D01*
X182960000Y-102280395D01*
X184113483Y-101126911D01*
X183984275Y-100834141D01*
X183284117Y-100565929D01*
X182534616Y-100586072D01*
X181935725Y-100834141D01*
X181806517Y-101126911D01*
X181380882Y-101126911D01*
X181076200Y-100898400D01*
X181031519Y-100876973D01*
X181000000Y-100873000D01*
X99000000Y-100873000D01*
X98951399Y-100882667D01*
X98923800Y-100898400D01*
X98377216Y-101308338D01*
X98373089Y-101306517D01*
X98353424Y-101326182D01*
X96957667Y-102373000D01*
X96773395Y-102373000D01*
X95706911Y-101306517D01*
X95414141Y-101435725D01*
X95145929Y-102135883D01*
X95152302Y-102373000D01*
X93843022Y-102373000D01*
X93833928Y-102034616D01*
X93585859Y-101435725D01*
X93293089Y-101306517D01*
X92226605Y-102373000D01*
X92000000Y-102373000D01*
X91951399Y-102382667D01*
X91910197Y-102410197D01*
X91882667Y-102451399D01*
X91873000Y-102500000D01*
X91873000Y-102580890D01*
X91766252Y-102474142D01*
X91780395Y-102460000D01*
X91766252Y-102445858D01*
X91945858Y-102266252D01*
X91960000Y-102280395D01*
X93113483Y-101126911D01*
X95886517Y-101126911D01*
X97040000Y-102280395D01*
X98193483Y-101126911D01*
X98064275Y-100834141D01*
X97364117Y-100565929D01*
X96614616Y-100586072D01*
X96015725Y-100834141D01*
X95886517Y-101126911D01*
X93113483Y-101126911D01*
X92984275Y-100834141D01*
X92284117Y-100565929D01*
X91534616Y-100586072D01*
X90935725Y-100834141D01*
X90806518Y-101126910D01*
X90710000Y-101030392D01*
X90710000Y-99285750D01*
X109615000Y-99285750D01*
X109615000Y-100126309D01*
X109711673Y-100359698D01*
X109890301Y-100538327D01*
X110123690Y-100635000D01*
X111714250Y-100635000D01*
X111873000Y-100476250D01*
X111873000Y-99127000D01*
X112127000Y-99127000D01*
X112127000Y-100476250D01*
X112285750Y-100635000D01*
X113876310Y-100635000D01*
X114109699Y-100538327D01*
X114288327Y-100359698D01*
X114385000Y-100126309D01*
X114385000Y-99652532D01*
X176027073Y-99652532D01*
X176125736Y-99919387D01*
X176735461Y-100145908D01*
X177385460Y-100121856D01*
X177874264Y-99919387D01*
X177972927Y-99652532D01*
X177000000Y-98679605D01*
X176027073Y-99652532D01*
X114385000Y-99652532D01*
X114385000Y-99285750D01*
X114226250Y-99127000D01*
X112127000Y-99127000D01*
X111873000Y-99127000D01*
X109773750Y-99127000D01*
X109615000Y-99285750D01*
X90710000Y-99285750D01*
X90710000Y-97873691D01*
X109615000Y-97873691D01*
X109615000Y-98714250D01*
X109773750Y-98873000D01*
X111873000Y-98873000D01*
X111873000Y-97523750D01*
X112127000Y-97523750D01*
X112127000Y-98873000D01*
X114226250Y-98873000D01*
X114385000Y-98714250D01*
X114385000Y-97873691D01*
X114288327Y-97640302D01*
X114270340Y-97622314D01*
X139057291Y-97622314D01*
X139235379Y-97956666D01*
X140080426Y-98291673D01*
X140989350Y-98277794D01*
X141091550Y-98235461D01*
X175354092Y-98235461D01*
X175378144Y-98885460D01*
X175580613Y-99374264D01*
X175847468Y-99472927D01*
X176820395Y-98500000D01*
X177179605Y-98500000D01*
X178152532Y-99472927D01*
X178419387Y-99374264D01*
X178645908Y-98764539D01*
X178621856Y-98114540D01*
X178419387Y-97625736D01*
X178152532Y-97527073D01*
X177179605Y-98500000D01*
X176820395Y-98500000D01*
X175847468Y-97527073D01*
X175580613Y-97625736D01*
X175354092Y-98235461D01*
X141091550Y-98235461D01*
X141764621Y-97956666D01*
X141942709Y-97622314D01*
X140500000Y-96179605D01*
X139057291Y-97622314D01*
X114270340Y-97622314D01*
X114109699Y-97461673D01*
X113876310Y-97365000D01*
X112285750Y-97365000D01*
X112127000Y-97523750D01*
X111873000Y-97523750D01*
X111714250Y-97365000D01*
X110123690Y-97365000D01*
X109890301Y-97461673D01*
X109711673Y-97640302D01*
X109615000Y-97873691D01*
X90710000Y-97873691D01*
X90710000Y-95580426D01*
X138208327Y-95580426D01*
X138222206Y-96489350D01*
X138543334Y-97264621D01*
X138877686Y-97442709D01*
X140320395Y-96000000D01*
X140679605Y-96000000D01*
X142122314Y-97442709D01*
X142301124Y-97347468D01*
X176027073Y-97347468D01*
X177000000Y-98320395D01*
X177972927Y-97347468D01*
X177874264Y-97080613D01*
X177264539Y-96854092D01*
X176614540Y-96878144D01*
X176125736Y-97080613D01*
X176027073Y-97347468D01*
X142301124Y-97347468D01*
X142456666Y-97264621D01*
X142791673Y-96419574D01*
X142777794Y-95510650D01*
X142456666Y-94735379D01*
X142122314Y-94557291D01*
X140679605Y-96000000D01*
X140320395Y-96000000D01*
X138877686Y-94557291D01*
X138543334Y-94735379D01*
X138208327Y-95580426D01*
X90710000Y-95580426D01*
X90710000Y-94722532D01*
X134932073Y-94722532D01*
X135030736Y-94989387D01*
X135640461Y-95215908D01*
X136290460Y-95191856D01*
X136779264Y-94989387D01*
X136877927Y-94722532D01*
X135905000Y-93749605D01*
X134932073Y-94722532D01*
X90710000Y-94722532D01*
X90710000Y-92452340D01*
X92727265Y-92452340D01*
X93045501Y-92906203D01*
X94306434Y-93432936D01*
X95672956Y-93437035D01*
X95993319Y-93305461D01*
X134259092Y-93305461D01*
X134283144Y-93955460D01*
X134485613Y-94444264D01*
X134752468Y-94542927D01*
X135725395Y-93570000D01*
X136084605Y-93570000D01*
X137057532Y-94542927D01*
X137324387Y-94444264D01*
X137349121Y-94377686D01*
X139057291Y-94377686D01*
X140500000Y-95820395D01*
X141942709Y-94377686D01*
X141764621Y-94043334D01*
X140919574Y-93708327D01*
X140010650Y-93722206D01*
X139235379Y-94043334D01*
X139057291Y-94377686D01*
X137349121Y-94377686D01*
X137550908Y-93834539D01*
X137526856Y-93184540D01*
X137324387Y-92695736D01*
X137057532Y-92597073D01*
X136084605Y-93570000D01*
X135725395Y-93570000D01*
X134752468Y-92597073D01*
X134485613Y-92695736D01*
X134259092Y-93305461D01*
X95993319Y-93305461D01*
X96937027Y-92917878D01*
X96954499Y-92906203D01*
X97272735Y-92452340D01*
X97237863Y-92417468D01*
X134932073Y-92417468D01*
X135905000Y-93390395D01*
X136843055Y-92452340D01*
X182727265Y-92452340D01*
X183045501Y-92906203D01*
X184306434Y-93432936D01*
X185672956Y-93437035D01*
X186937027Y-92917878D01*
X186954499Y-92906203D01*
X187272735Y-92452340D01*
X185000000Y-90179605D01*
X182727265Y-92452340D01*
X136843055Y-92452340D01*
X136877927Y-92417468D01*
X136779264Y-92150613D01*
X136169539Y-91924092D01*
X135519540Y-91948144D01*
X135030736Y-92150613D01*
X134932073Y-92417468D01*
X97237863Y-92417468D01*
X95000000Y-90179605D01*
X92727265Y-92452340D01*
X90710000Y-92452340D01*
X90710000Y-90672956D01*
X91562965Y-90672956D01*
X92082122Y-91937027D01*
X92093797Y-91954499D01*
X92547660Y-92272735D01*
X94820395Y-90000000D01*
X95179605Y-90000000D01*
X97452340Y-92272735D01*
X97906203Y-91954499D01*
X98432936Y-90693566D01*
X98432997Y-90672956D01*
X181562965Y-90672956D01*
X182082122Y-91937027D01*
X182093797Y-91954499D01*
X182547660Y-92272735D01*
X184820395Y-90000000D01*
X185179605Y-90000000D01*
X187452340Y-92272735D01*
X187906203Y-91954499D01*
X188432936Y-90693566D01*
X188437035Y-89327044D01*
X187917878Y-88062973D01*
X187906203Y-88045501D01*
X187452340Y-87727265D01*
X185179605Y-90000000D01*
X184820395Y-90000000D01*
X182547660Y-87727265D01*
X182093797Y-88045501D01*
X181567064Y-89306434D01*
X181562965Y-90672956D01*
X98432997Y-90672956D01*
X98437035Y-89327044D01*
X97917878Y-88062973D01*
X97906203Y-88045501D01*
X97452340Y-87727265D01*
X95179605Y-90000000D01*
X94820395Y-90000000D01*
X92547660Y-87727265D01*
X92093797Y-88045501D01*
X91567064Y-89306434D01*
X91562965Y-90672956D01*
X90710000Y-90672956D01*
X90710000Y-87547660D01*
X92727265Y-87547660D01*
X95000000Y-89820395D01*
X97272735Y-87547660D01*
X182727265Y-87547660D01*
X185000000Y-89820395D01*
X187272735Y-87547660D01*
X186954499Y-87093797D01*
X185693566Y-86567064D01*
X184327044Y-86562965D01*
X183062973Y-87082122D01*
X183045501Y-87093797D01*
X182727265Y-87547660D01*
X97272735Y-87547660D01*
X96954499Y-87093797D01*
X95693566Y-86567064D01*
X94327044Y-86562965D01*
X93062973Y-87082122D01*
X93045501Y-87093797D01*
X92727265Y-87547660D01*
X90710000Y-87547660D01*
X90710000Y-85710000D01*
X189290000Y-85710000D01*
X189290000Y-101030392D01*
G04 #@! TD*
M02*
