G04 #@! TF.FileFunction,Copper,L2,Bot,Signal*
%FSLAX46Y46*%
G04 Gerber Fmt 4.6, Leading zero omitted, Abs format (unit mm)*
G04 Created by KiCad (PCBNEW 4.0.7) date 01/06/18 22:06:09*
%MOMM*%
%LPD*%
G01*
G04 APERTURE LIST*
%ADD10C,0.100000*%
%ADD11C,0.600000*%
%ADD12C,2.000000*%
%ADD13C,1.800000*%
%ADD14C,1.998980*%
%ADD15C,2.499360*%
%ADD16R,1.500000X4.000000*%
%ADD17R,2.000000X2.600000*%
%ADD18O,2.000000X2.600000*%
%ADD19R,4.000000X1.500000*%
%ADD20C,5.600000*%
%ADD21R,1.300000X1.500000*%
%ADD22C,3.300000*%
%ADD23C,0.250000*%
%ADD24C,1.600000*%
%ADD25C,1.000000*%
%ADD26C,0.254000*%
G04 APERTURE END LIST*
D10*
D11*
X186000000Y-94000000D03*
X187000000Y-94000000D03*
X186000000Y-95000000D03*
X187000000Y-95000000D03*
X186000000Y-96000000D03*
X187000000Y-96000000D03*
X186000000Y-97000000D03*
X187000000Y-97000000D03*
X186000000Y-98000000D03*
X187000000Y-98000000D03*
X186000000Y-99000000D03*
X187000000Y-99000000D03*
X186000000Y-100000000D03*
X187000000Y-100000000D03*
X188000000Y-94000000D03*
X188000000Y-95000000D03*
X188000000Y-96000000D03*
X188000000Y-97000000D03*
X188000000Y-98000000D03*
X188000000Y-99000000D03*
X188000000Y-100000000D03*
X93000000Y-94000000D03*
X94000000Y-94000000D03*
X95000000Y-94000000D03*
X93000000Y-95000000D03*
X94000000Y-95000000D03*
X95000000Y-95000000D03*
X93000000Y-96000000D03*
X94000000Y-96000000D03*
X95000000Y-96000000D03*
X93000000Y-97000000D03*
X94000000Y-97000000D03*
X95000000Y-97000000D03*
X93000000Y-98000000D03*
X94000000Y-98000000D03*
X95000000Y-98000000D03*
X93000000Y-99000000D03*
X94000000Y-99000000D03*
X95000000Y-99000000D03*
X92000000Y-94000000D03*
X92000000Y-95000000D03*
X92000000Y-96000000D03*
X92000000Y-97000000D03*
X92000000Y-98000000D03*
X92000000Y-99000000D03*
X188000000Y-128000000D03*
X188000000Y-127000000D03*
X188000000Y-126000000D03*
X188000000Y-125000000D03*
X188000000Y-124000000D03*
X188000000Y-123000000D03*
X188000000Y-122000000D03*
X188000000Y-121000000D03*
X188000000Y-120000000D03*
X188000000Y-119000000D03*
X188000000Y-118000000D03*
X188000000Y-117000000D03*
X188000000Y-116000000D03*
X188000000Y-115000000D03*
X188000000Y-114000000D03*
X188000000Y-113000000D03*
X188000000Y-112000000D03*
X188000000Y-111000000D03*
X127000000Y-91000000D03*
X126000000Y-91000000D03*
X125000000Y-91000000D03*
X124000000Y-91000000D03*
X123000000Y-91000000D03*
X122000000Y-91000000D03*
X121000000Y-91000000D03*
X120000000Y-91000000D03*
X119000000Y-91000000D03*
X118000000Y-91000000D03*
X117000000Y-91000000D03*
X116000000Y-91000000D03*
X115000000Y-91000000D03*
X114000000Y-91000000D03*
X113000000Y-91000000D03*
X112000000Y-91000000D03*
X111000000Y-91000000D03*
X110000000Y-91000000D03*
X109000000Y-91000000D03*
X108000000Y-91000000D03*
X107000000Y-91000000D03*
X106000000Y-91000000D03*
X105000000Y-91000000D03*
X104000000Y-91000000D03*
X103000000Y-91000000D03*
X102000000Y-91000000D03*
X101000000Y-91000000D03*
X100000000Y-91000000D03*
X99000000Y-91000000D03*
X127000000Y-90000000D03*
X126000000Y-90000000D03*
X125000000Y-90000000D03*
X124000000Y-90000000D03*
X123000000Y-90000000D03*
X122000000Y-90000000D03*
X121000000Y-90000000D03*
X120000000Y-90000000D03*
X119000000Y-90000000D03*
X118000000Y-90000000D03*
X117000000Y-90000000D03*
X116000000Y-90000000D03*
X115000000Y-90000000D03*
X114000000Y-90000000D03*
X113000000Y-90000000D03*
X112000000Y-90000000D03*
X111000000Y-90000000D03*
X110000000Y-90000000D03*
X109000000Y-90000000D03*
X108000000Y-90000000D03*
X107000000Y-90000000D03*
X106000000Y-90000000D03*
X105000000Y-90000000D03*
X104000000Y-90000000D03*
X103000000Y-90000000D03*
X102000000Y-90000000D03*
X101000000Y-90000000D03*
X100000000Y-90000000D03*
X99000000Y-90000000D03*
X127000000Y-89000000D03*
X126000000Y-89000000D03*
X125000000Y-89000000D03*
X124000000Y-89000000D03*
X123000000Y-89000000D03*
X122000000Y-89000000D03*
X121000000Y-89000000D03*
X120000000Y-89000000D03*
X119000000Y-89000000D03*
X118000000Y-89000000D03*
X117000000Y-89000000D03*
X116000000Y-89000000D03*
X115000000Y-89000000D03*
X114000000Y-89000000D03*
X113000000Y-89000000D03*
X112000000Y-89000000D03*
X111000000Y-89000000D03*
X110000000Y-89000000D03*
X109000000Y-89000000D03*
X108000000Y-89000000D03*
X107000000Y-89000000D03*
X106000000Y-89000000D03*
X105000000Y-89000000D03*
X104000000Y-89000000D03*
X103000000Y-89000000D03*
X102000000Y-89000000D03*
X101000000Y-89000000D03*
X100000000Y-89000000D03*
X99000000Y-89000000D03*
X127000000Y-88000000D03*
X126000000Y-88000000D03*
X125000000Y-88000000D03*
X124000000Y-88000000D03*
X123000000Y-88000000D03*
X122000000Y-88000000D03*
X121000000Y-88000000D03*
X120000000Y-88000000D03*
X119000000Y-88000000D03*
X118000000Y-88000000D03*
X117000000Y-88000000D03*
X116000000Y-88000000D03*
X115000000Y-88000000D03*
X114000000Y-88000000D03*
X113000000Y-88000000D03*
X112000000Y-88000000D03*
X111000000Y-88000000D03*
X110000000Y-88000000D03*
X109000000Y-88000000D03*
X108000000Y-88000000D03*
X107000000Y-88000000D03*
X106000000Y-88000000D03*
X105000000Y-88000000D03*
X104000000Y-88000000D03*
X103000000Y-88000000D03*
X102000000Y-88000000D03*
X101000000Y-88000000D03*
X100000000Y-88000000D03*
X99000000Y-88000000D03*
X127000000Y-87000000D03*
X126000000Y-87000000D03*
X125000000Y-87000000D03*
X124000000Y-87000000D03*
X123000000Y-87000000D03*
X122000000Y-87000000D03*
X121000000Y-87000000D03*
X120000000Y-87000000D03*
X119000000Y-87000000D03*
X118000000Y-87000000D03*
X117000000Y-87000000D03*
X116000000Y-87000000D03*
X115000000Y-87000000D03*
X114000000Y-87000000D03*
X113000000Y-87000000D03*
X112000000Y-87000000D03*
X111000000Y-87000000D03*
X110000000Y-87000000D03*
X109000000Y-87000000D03*
X108000000Y-87000000D03*
X107000000Y-87000000D03*
X106000000Y-87000000D03*
X105000000Y-87000000D03*
X104000000Y-87000000D03*
X103000000Y-87000000D03*
X102000000Y-87000000D03*
X101000000Y-87000000D03*
X100000000Y-87000000D03*
X99000000Y-87000000D03*
X91000000Y-101000000D03*
X91000000Y-100000000D03*
X91000000Y-99000000D03*
X91000000Y-98000000D03*
X91000000Y-97000000D03*
X91000000Y-96000000D03*
X91000000Y-95000000D03*
X91000000Y-94000000D03*
X91000000Y-93000000D03*
X91000000Y-92000000D03*
X91000000Y-91000000D03*
X91000000Y-90000000D03*
X91000000Y-89000000D03*
X91000000Y-88000000D03*
X91000000Y-87000000D03*
X189000000Y-101000000D03*
X189000000Y-100000000D03*
X189000000Y-99000000D03*
X189000000Y-98000000D03*
X189000000Y-97000000D03*
X189000000Y-96000000D03*
X189000000Y-95000000D03*
X189000000Y-94000000D03*
X189000000Y-93000000D03*
X189000000Y-92000000D03*
X189000000Y-91000000D03*
X189000000Y-90000000D03*
X189000000Y-89000000D03*
X189000000Y-88000000D03*
X189000000Y-87000000D03*
X189000000Y-133000000D03*
X189000000Y-132000000D03*
X189000000Y-131000000D03*
X189000000Y-130000000D03*
X189000000Y-129000000D03*
X189000000Y-128000000D03*
X189000000Y-127000000D03*
X189000000Y-126000000D03*
X189000000Y-125000000D03*
X189000000Y-124000000D03*
X189000000Y-123000000D03*
X189000000Y-122000000D03*
X189000000Y-121000000D03*
X189000000Y-120000000D03*
X189000000Y-119000000D03*
X189000000Y-118000000D03*
X189000000Y-117000000D03*
X189000000Y-116000000D03*
X189000000Y-115000000D03*
X189000000Y-114000000D03*
X189000000Y-113000000D03*
X189000000Y-112000000D03*
X189000000Y-111000000D03*
X189000000Y-110000000D03*
X188500000Y-134000000D03*
X187500000Y-134000000D03*
X186500000Y-134000000D03*
X185500000Y-134000000D03*
X184500000Y-134000000D03*
X183500000Y-134000000D03*
X182500000Y-134000000D03*
X181500000Y-134000000D03*
X180500000Y-134000000D03*
X179500000Y-134000000D03*
X178500000Y-134000000D03*
X177500000Y-134000000D03*
X176500000Y-134000000D03*
X168500000Y-134000000D03*
X167500000Y-134000000D03*
X166500000Y-134000000D03*
X165500000Y-134000000D03*
X164500000Y-134000000D03*
X163500000Y-134000000D03*
X162500000Y-134000000D03*
X161500000Y-134000000D03*
X160500000Y-134000000D03*
X159500000Y-134000000D03*
X158500000Y-134000000D03*
X157500000Y-134000000D03*
X156500000Y-134000000D03*
X155500000Y-134000000D03*
X154500000Y-134000000D03*
X153500000Y-134000000D03*
X152500000Y-134000000D03*
X151500000Y-134000000D03*
X150500000Y-134000000D03*
X149500000Y-134000000D03*
X148500000Y-134000000D03*
X147500000Y-134000000D03*
X146500000Y-134000000D03*
X145500000Y-134000000D03*
X144500000Y-134000000D03*
X143500000Y-134000000D03*
X142500000Y-134000000D03*
X141500000Y-134000000D03*
X104500000Y-134000000D03*
X103500000Y-134000000D03*
X102500000Y-134000000D03*
X101500000Y-134000000D03*
X100500000Y-134000000D03*
X99500000Y-134000000D03*
X98500000Y-134000000D03*
X97500000Y-134000000D03*
X96500000Y-134000000D03*
X95500000Y-134000000D03*
X94500000Y-134000000D03*
X93500000Y-134000000D03*
X92500000Y-134000000D03*
X91500000Y-134000000D03*
X91500000Y-133000000D03*
X91500000Y-132000000D03*
X91500000Y-131000000D03*
X91500000Y-130000000D03*
X91500000Y-129000000D03*
X91500000Y-128000000D03*
X91500000Y-127000000D03*
X91500000Y-126000000D03*
X91500000Y-125000000D03*
X91500000Y-124000000D03*
X91500000Y-123000000D03*
X91500000Y-122000000D03*
X91500000Y-121000000D03*
X91500000Y-120000000D03*
X91500000Y-119000000D03*
X91500000Y-118000000D03*
X91500000Y-117000000D03*
X91500000Y-116000000D03*
X91500000Y-115000000D03*
X91500000Y-114000000D03*
X91500000Y-113000000D03*
X91500000Y-112000000D03*
X91500000Y-111000000D03*
X91500000Y-110000000D03*
X91500000Y-109000000D03*
X189000000Y-86000000D03*
X188000000Y-86000000D03*
X187000000Y-86000000D03*
X186000000Y-86000000D03*
X185000000Y-86000000D03*
X184000000Y-86000000D03*
X183000000Y-86000000D03*
X182000000Y-86000000D03*
X181000000Y-86000000D03*
X180000000Y-86000000D03*
X179000000Y-86000000D03*
X178000000Y-86000000D03*
X177000000Y-86000000D03*
X176000000Y-86000000D03*
X175000000Y-86000000D03*
X174000000Y-86000000D03*
X173000000Y-86000000D03*
X172000000Y-86000000D03*
X171000000Y-86000000D03*
X170000000Y-86000000D03*
X169000000Y-86000000D03*
X168000000Y-86000000D03*
X167000000Y-86000000D03*
X166000000Y-86000000D03*
X165000000Y-86000000D03*
X164000000Y-86000000D03*
X163000000Y-86000000D03*
X162000000Y-86000000D03*
X161000000Y-86000000D03*
X160000000Y-86000000D03*
X159000000Y-86000000D03*
X158000000Y-86000000D03*
X157000000Y-86000000D03*
X156000000Y-86000000D03*
X155000000Y-86000000D03*
X154000000Y-86000000D03*
X153000000Y-86000000D03*
X152000000Y-86000000D03*
X151000000Y-86000000D03*
X150000000Y-86000000D03*
X149000000Y-86000000D03*
X148000000Y-86000000D03*
X147000000Y-86000000D03*
X146000000Y-86000000D03*
X145000000Y-86000000D03*
X144000000Y-86000000D03*
X143000000Y-86000000D03*
X142000000Y-86000000D03*
X141000000Y-86000000D03*
X140000000Y-86000000D03*
X139000000Y-86000000D03*
X138000000Y-86000000D03*
X137000000Y-86000000D03*
X136000000Y-86000000D03*
X135000000Y-86000000D03*
X134000000Y-86000000D03*
X133000000Y-86000000D03*
X132000000Y-86000000D03*
X131000000Y-86000000D03*
X130000000Y-86000000D03*
X129000000Y-86000000D03*
X128000000Y-86000000D03*
X127000000Y-86000000D03*
X126000000Y-86000000D03*
X125000000Y-86000000D03*
X124000000Y-86000000D03*
X123000000Y-86000000D03*
X122000000Y-86000000D03*
X121000000Y-86000000D03*
X120000000Y-86000000D03*
X119000000Y-86000000D03*
X118000000Y-86000000D03*
X117000000Y-86000000D03*
X116000000Y-86000000D03*
X115000000Y-86000000D03*
X114000000Y-86000000D03*
X113000000Y-86000000D03*
X112000000Y-86000000D03*
X111000000Y-86000000D03*
X110000000Y-86000000D03*
X109000000Y-86000000D03*
X108000000Y-86000000D03*
X107000000Y-86000000D03*
X106000000Y-86000000D03*
X105000000Y-86000000D03*
X104000000Y-86000000D03*
X103000000Y-86000000D03*
X102000000Y-86000000D03*
X101000000Y-86000000D03*
X100000000Y-86000000D03*
X99000000Y-86000000D03*
X98000000Y-86000000D03*
X97000000Y-86000000D03*
X96000000Y-86000000D03*
X95000000Y-86000000D03*
X94000000Y-86000000D03*
X93000000Y-86000000D03*
X92000000Y-86000000D03*
X94500000Y-126000000D03*
X93500000Y-126000000D03*
X92500000Y-126000000D03*
X94500000Y-125000000D03*
X93500000Y-125000000D03*
X92500000Y-125000000D03*
X94500000Y-124000000D03*
X93500000Y-124000000D03*
X92500000Y-124000000D03*
X94500000Y-123000000D03*
X93500000Y-123000000D03*
X92500000Y-123000000D03*
X94500000Y-122000000D03*
X93500000Y-122000000D03*
X92500000Y-122000000D03*
X94500000Y-121000000D03*
X93500000Y-121000000D03*
X92500000Y-121000000D03*
X94500000Y-120000000D03*
X93500000Y-120000000D03*
X92500000Y-120000000D03*
X94500000Y-119000000D03*
X93500000Y-119000000D03*
X92500000Y-119000000D03*
X94500000Y-118000000D03*
X93500000Y-118000000D03*
X92500000Y-118000000D03*
X94500000Y-117000000D03*
X93500000Y-117000000D03*
X92500000Y-117000000D03*
X94500000Y-116000000D03*
X93500000Y-116000000D03*
X92500000Y-116000000D03*
X94500000Y-115000000D03*
X93500000Y-115000000D03*
X92500000Y-115000000D03*
X94500000Y-114000000D03*
X93500000Y-114000000D03*
X92500000Y-114000000D03*
X94500000Y-113000000D03*
X93500000Y-113000000D03*
X92500000Y-113000000D03*
X94500000Y-112000000D03*
X93500000Y-112000000D03*
X92500000Y-112000000D03*
X94500000Y-111000000D03*
X93500000Y-111000000D03*
X187000000Y-126000000D03*
X186000000Y-126000000D03*
X187000000Y-125000000D03*
X186000000Y-125000000D03*
X187000000Y-124000000D03*
X186000000Y-124000000D03*
X187000000Y-123000000D03*
X186000000Y-123000000D03*
X187000000Y-122000000D03*
X186000000Y-122000000D03*
X187000000Y-121000000D03*
X186000000Y-121000000D03*
X187000000Y-120000000D03*
X186000000Y-120000000D03*
X187000000Y-119000000D03*
X186000000Y-119000000D03*
X187000000Y-118000000D03*
X186000000Y-118000000D03*
X187000000Y-117000000D03*
X186000000Y-117000000D03*
X187000000Y-116000000D03*
X186000000Y-116000000D03*
X187000000Y-115000000D03*
X186000000Y-115000000D03*
X187000000Y-114000000D03*
X186000000Y-114000000D03*
X187000000Y-113000000D03*
X186000000Y-113000000D03*
X187000000Y-112000000D03*
X186000000Y-112000000D03*
X187000000Y-111000000D03*
X186000000Y-111000000D03*
D12*
X139405000Y-88570000D03*
X177000000Y-88500000D03*
D13*
X114500000Y-123040000D03*
X114500000Y-117960000D03*
X124660000Y-123040000D03*
X119580000Y-123040000D03*
X122100000Y-123040000D03*
X124660000Y-117960000D03*
X119580000Y-117960000D03*
X122120000Y-117960000D03*
D14*
X95000000Y-105000000D03*
D15*
X97540000Y-102460000D03*
X97540000Y-107540000D03*
X92460000Y-107540000D03*
X92460000Y-102460000D03*
D16*
X109540000Y-133000000D03*
X104460000Y-133000000D03*
D14*
X107000000Y-130000000D03*
D15*
X109540000Y-127460000D03*
X109540000Y-132540000D03*
X104460000Y-132540000D03*
X104460000Y-127460000D03*
D16*
X124540000Y-133000000D03*
X119460000Y-133000000D03*
D14*
X122000000Y-130000000D03*
D15*
X124540000Y-127460000D03*
X124540000Y-132540000D03*
X119460000Y-132540000D03*
X119460000Y-127460000D03*
D17*
X160000000Y-130000000D03*
D18*
X157460000Y-130000000D03*
X154920000Y-130000000D03*
X152380000Y-130000000D03*
X149840000Y-130000000D03*
D19*
X92000000Y-107540000D03*
X92000000Y-102460000D03*
X188000000Y-102460000D03*
X188000000Y-107540000D03*
D14*
X185000000Y-105000000D03*
D15*
X187540000Y-102460000D03*
X187540000Y-107540000D03*
X182460000Y-107540000D03*
X182460000Y-102460000D03*
D20*
X95000000Y-130000000D03*
X185000000Y-130000000D03*
X95000000Y-90000000D03*
X185000000Y-90000000D03*
D16*
X139540000Y-133000000D03*
X134460000Y-133000000D03*
D14*
X137000000Y-130000000D03*
D15*
X139540000Y-127460000D03*
X139540000Y-132540000D03*
X134460000Y-132540000D03*
X134460000Y-127460000D03*
D14*
X172500000Y-130000000D03*
D15*
X175040000Y-127460000D03*
X175040000Y-132540000D03*
X169960000Y-132540000D03*
X169960000Y-127460000D03*
D16*
X175040000Y-133000000D03*
X169960000Y-133000000D03*
D21*
X117000000Y-121350000D03*
X117000000Y-118650000D03*
D22*
X144000000Y-91000000D03*
X130000000Y-107000000D03*
D11*
X92500000Y-111000000D03*
X91000000Y-86000000D03*
X131000000Y-134000000D03*
X130000000Y-134000000D03*
X129000000Y-134000000D03*
X128000000Y-134000000D03*
X116000000Y-134000000D03*
X115000000Y-134000000D03*
X114000000Y-134000000D03*
X113000000Y-134000000D03*
X144000000Y-120000000D03*
X145000000Y-120000000D03*
X146000000Y-120000000D03*
X147000000Y-120000000D03*
X147000000Y-121000000D03*
X147000000Y-122000000D03*
X147000000Y-123000000D03*
X167000000Y-103000000D03*
X168000000Y-104000000D03*
X169000000Y-105000000D03*
X170000000Y-106000000D03*
X171000000Y-107000000D03*
X172000000Y-108000000D03*
X173000000Y-109000000D03*
X174000000Y-110000000D03*
X174000000Y-111000000D03*
X174000000Y-112000000D03*
X174000000Y-113000000D03*
X174000000Y-114000000D03*
X174000000Y-115000000D03*
X174000000Y-119000000D03*
X174000000Y-120000000D03*
X174000000Y-121000000D03*
X174000000Y-122000000D03*
X174000000Y-123000000D03*
X159000000Y-109000000D03*
X158000000Y-109000000D03*
X157000000Y-109000000D03*
X156000000Y-109000000D03*
X155000000Y-109000000D03*
X154000000Y-109000000D03*
X153000000Y-109000000D03*
X152000000Y-109000000D03*
X151000000Y-109000000D03*
X150000000Y-109000000D03*
X149000000Y-109000000D03*
X148000000Y-109000000D03*
X147000000Y-109000000D03*
X146000000Y-107000000D03*
X146000000Y-106000000D03*
X146000000Y-105000000D03*
X146000000Y-104000000D03*
X146000000Y-103000000D03*
X148000000Y-102000000D03*
X149000000Y-102000000D03*
X150000000Y-102000000D03*
X151000000Y-102000000D03*
X152000000Y-102000000D03*
X153000000Y-103000000D03*
X154000000Y-103000000D03*
X155000000Y-103000000D03*
X156000000Y-103000000D03*
X157000000Y-103000000D03*
X146000000Y-102000000D03*
X147000000Y-102000000D03*
X146000000Y-108000000D03*
X166000000Y-103000000D03*
X165000000Y-103000000D03*
X164000000Y-103000000D03*
X163000000Y-103000000D03*
X162000000Y-103000000D03*
X161000000Y-103000000D03*
X160000000Y-103000000D03*
X159000000Y-103000000D03*
X158000000Y-103000000D03*
X171000000Y-112000000D03*
X171000000Y-113000000D03*
X171000000Y-114000000D03*
X171000000Y-115000000D03*
X171000000Y-116000000D03*
X171000000Y-117000000D03*
X171000000Y-118000000D03*
X171000000Y-119000000D03*
X171000000Y-120000000D03*
X171000000Y-121000000D03*
X171000000Y-122000000D03*
X171000000Y-123000000D03*
X171000000Y-124000000D03*
X171000000Y-125000000D03*
X170000000Y-111000000D03*
X169000000Y-110000000D03*
X168000000Y-109000000D03*
X167000000Y-109000000D03*
X166000000Y-109000000D03*
X165000000Y-109000000D03*
X164000000Y-109000000D03*
X127000000Y-118000000D03*
X133000000Y-119000000D03*
X132000000Y-119000000D03*
X131000000Y-119000000D03*
X130000000Y-119000000D03*
X129000000Y-119000000D03*
X128000000Y-119000000D03*
X127000000Y-119000000D03*
X186000000Y-101000000D03*
X185000000Y-101000000D03*
X184000000Y-101000000D03*
X184000000Y-100000000D03*
X98000000Y-110000000D03*
X182000000Y-110000000D03*
X128000000Y-104000000D03*
X129000000Y-103000000D03*
X130000000Y-102000000D03*
X131000000Y-101000000D03*
X132000000Y-100000000D03*
X133000000Y-100000000D03*
X134000000Y-100000000D03*
X135000000Y-100000000D03*
X136000000Y-100000000D03*
X137000000Y-100000000D03*
X138000000Y-100000000D03*
X139000000Y-100000000D03*
X140000000Y-100000000D03*
X141000000Y-100000000D03*
X142000000Y-100000000D03*
X143000000Y-100000000D03*
X144000000Y-100000000D03*
X145000000Y-100000000D03*
X146000000Y-100000000D03*
X147000000Y-100000000D03*
X148000000Y-100000000D03*
X149000000Y-100000000D03*
X150000000Y-100000000D03*
X151000000Y-100000000D03*
X152000000Y-100000000D03*
X153000000Y-100000000D03*
X154000000Y-100000000D03*
X155000000Y-100000000D03*
X156000000Y-100000000D03*
X157000000Y-100000000D03*
X158000000Y-100000000D03*
X159000000Y-100000000D03*
X160000000Y-100000000D03*
X161000000Y-100000000D03*
X162000000Y-100000000D03*
X163000000Y-100000000D03*
X164000000Y-100000000D03*
X165000000Y-100000000D03*
X166000000Y-100000000D03*
X167000000Y-100000000D03*
X168000000Y-100000000D03*
X169000000Y-100000000D03*
X170000000Y-100000000D03*
X171000000Y-100000000D03*
X172000000Y-100000000D03*
X127000000Y-105000000D03*
X126000000Y-105000000D03*
X125000000Y-105000000D03*
X124000000Y-105000000D03*
X123000000Y-105000000D03*
X122000000Y-105000000D03*
X121000000Y-105000000D03*
X120000000Y-105000000D03*
X119000000Y-105000000D03*
X118000000Y-105000000D03*
X117000000Y-105000000D03*
X116000000Y-105000000D03*
X115000000Y-105000000D03*
X114000000Y-105000000D03*
X113000000Y-105000000D03*
X112000000Y-105000000D03*
X111000000Y-106000000D03*
X110000000Y-107000000D03*
X109000000Y-108000000D03*
X108000000Y-109000000D03*
X107000000Y-110000000D03*
X106000000Y-110000000D03*
X105000000Y-110000000D03*
X104000000Y-110000000D03*
X103000000Y-110000000D03*
X102000000Y-110000000D03*
X101000000Y-110000000D03*
X100000000Y-110000000D03*
X99000000Y-110000000D03*
X97000000Y-110000000D03*
X96000000Y-110000000D03*
X95000000Y-110000000D03*
X94000000Y-110000000D03*
X172000000Y-104000000D03*
X172000000Y-103000000D03*
X172000000Y-102000000D03*
X172000000Y-101000000D03*
X173000000Y-105000000D03*
X174000000Y-106000000D03*
X175000000Y-107000000D03*
X176000000Y-108000000D03*
X177000000Y-109000000D03*
X178000000Y-110000000D03*
X179000000Y-110000000D03*
X180000000Y-110000000D03*
X181000000Y-110000000D03*
X183000000Y-110000000D03*
X184000000Y-110000000D03*
X185000000Y-110000000D03*
X186000000Y-110000000D03*
X187000000Y-110000000D03*
X188000000Y-110000000D03*
X113000000Y-119000000D03*
X105000000Y-125000000D03*
X105000000Y-124000000D03*
X105000000Y-123000000D03*
X106000000Y-122000000D03*
X107000000Y-121000000D03*
X108000000Y-120000000D03*
X109000000Y-119000000D03*
X110000000Y-119000000D03*
X111000000Y-119000000D03*
X112000000Y-119000000D03*
X113000000Y-125000000D03*
X113000000Y-124000000D03*
X113000000Y-123000000D03*
X113000000Y-122000000D03*
X112000000Y-122000000D03*
X111000000Y-123000000D03*
X110000000Y-124000000D03*
X109000000Y-125000000D03*
X109000000Y-126000000D03*
X116000000Y-125000000D03*
X117000000Y-125000000D03*
X118000000Y-125000000D03*
X119000000Y-125000000D03*
X120000000Y-125000000D03*
X135000000Y-125000000D03*
X134000000Y-124000000D03*
X133000000Y-123000000D03*
X132000000Y-122000000D03*
X131000000Y-122000000D03*
X130000000Y-122000000D03*
X129000000Y-122000000D03*
X128000000Y-122000000D03*
X127000000Y-122000000D03*
X127000000Y-123000000D03*
X127000000Y-124000000D03*
X127000000Y-125000000D03*
X127000000Y-126000000D03*
X127000000Y-127000000D03*
X139000000Y-125000000D03*
X138000000Y-123000000D03*
X137000000Y-122000000D03*
X136000000Y-121000000D03*
X135000000Y-120000000D03*
X134000000Y-119000000D03*
X120000000Y-116000000D03*
X121000000Y-116000000D03*
X122000000Y-116000000D03*
X123000000Y-116000000D03*
X124000000Y-116000000D03*
X125000000Y-116000000D03*
X126000000Y-116000000D03*
X127000000Y-116000000D03*
X127000000Y-117000000D03*
X158000000Y-119500000D03*
X158000000Y-121500000D03*
X158000000Y-123500000D03*
X158000000Y-125500000D03*
X132000000Y-134000000D03*
X127000000Y-134000000D03*
X117000000Y-134000000D03*
X112000000Y-134000000D03*
X182000000Y-100000000D03*
X183000000Y-100000000D03*
X181000000Y-100000000D03*
X181000000Y-99000000D03*
X181000000Y-98000000D03*
X181000000Y-97000000D03*
X181000000Y-96000000D03*
X181000000Y-95000000D03*
X181000000Y-94000000D03*
X181000000Y-93000000D03*
X181000000Y-92000000D03*
X181000000Y-91000000D03*
X181000000Y-90000000D03*
X180000000Y-90000000D03*
X179000000Y-90000000D03*
X178000000Y-90000000D03*
X177000000Y-90000000D03*
X176000000Y-90000000D03*
X175000000Y-90000000D03*
X174000000Y-90000000D03*
X173000000Y-90000000D03*
X172000000Y-90000000D03*
X171000000Y-90000000D03*
X170000000Y-90000000D03*
X169000000Y-90000000D03*
X168000000Y-90000000D03*
X167000000Y-90000000D03*
X166000000Y-90000000D03*
X165000000Y-90000000D03*
X164000000Y-90000000D03*
X163000000Y-90000000D03*
X162000000Y-90000000D03*
X161000000Y-90000000D03*
X160000000Y-90000000D03*
X159000000Y-90000000D03*
X158000000Y-90000000D03*
X157000000Y-90000000D03*
X156000000Y-90000000D03*
X155000000Y-90000000D03*
X154000000Y-90000000D03*
X153000000Y-90000000D03*
X152000000Y-90000000D03*
X151000000Y-90000000D03*
X150000000Y-90000000D03*
X149000000Y-90000000D03*
X148000000Y-90000000D03*
X147000000Y-90000000D03*
X146000000Y-90000000D03*
X142000000Y-90000000D03*
X141000000Y-90000000D03*
X140000000Y-90000000D03*
X139000000Y-90000000D03*
X138000000Y-90000000D03*
X137000000Y-90000000D03*
X136000000Y-90000000D03*
X135000000Y-90000000D03*
X134000000Y-90000000D03*
X133000000Y-90000000D03*
X132000000Y-90000000D03*
X131000000Y-90000000D03*
X130000000Y-90000000D03*
X129000000Y-90000000D03*
X128000000Y-91000000D03*
X127000000Y-92000000D03*
X126000000Y-93000000D03*
X125000000Y-94000000D03*
X124000000Y-95000000D03*
X123000000Y-95000000D03*
X122000000Y-95000000D03*
X121000000Y-95000000D03*
X120000000Y-95000000D03*
X119000000Y-95000000D03*
X118000000Y-95000000D03*
X118000000Y-94000000D03*
X118000000Y-93000000D03*
X117000000Y-92000000D03*
X116000000Y-92000000D03*
X115000000Y-92000000D03*
X114000000Y-92000000D03*
X113000000Y-92000000D03*
X112000000Y-92000000D03*
X112000000Y-93000000D03*
X112000000Y-94000000D03*
X112000000Y-95000000D03*
X111000000Y-95000000D03*
X110000000Y-95000000D03*
X109000000Y-95000000D03*
X108000000Y-95000000D03*
X107000000Y-96000000D03*
X106000000Y-97000000D03*
X105000000Y-98000000D03*
X104000000Y-99000000D03*
X103000000Y-100000000D03*
X102000000Y-100000000D03*
X101000000Y-100000000D03*
X100000000Y-100000000D03*
X99000000Y-100000000D03*
X98000000Y-100000000D03*
X97000000Y-100000000D03*
X96000000Y-100000000D03*
X95000000Y-100000000D03*
X93000000Y-100000000D03*
X155500000Y-119000000D03*
X155500000Y-121000000D03*
X155500000Y-122500000D03*
D23*
X146000000Y-120000000D02*
X145000000Y-120000000D01*
X147000000Y-121000000D02*
X147000000Y-120000000D01*
X147000000Y-123000000D02*
X147000000Y-122000000D01*
X176000000Y-116000000D02*
X176000000Y-115000000D01*
X168000000Y-104000000D02*
X167000000Y-103000000D01*
X170000000Y-106000000D02*
X169000000Y-105000000D01*
X172000000Y-108000000D02*
X171000000Y-107000000D01*
X174000000Y-110000000D02*
X173000000Y-109000000D01*
X174000000Y-112000000D02*
X174000000Y-111000000D01*
X174000000Y-114000000D02*
X174000000Y-113000000D01*
X176000000Y-115000000D02*
X174000000Y-115000000D01*
X174000000Y-121000000D02*
X174000000Y-120000000D01*
X174000000Y-123000000D02*
X174000000Y-122000000D01*
X157000000Y-103000000D02*
X158000000Y-103000000D01*
X159000000Y-109000000D02*
X158000000Y-109000000D01*
X157000000Y-109000000D02*
X156000000Y-109000000D01*
X155000000Y-109000000D02*
X154000000Y-109000000D01*
X153000000Y-109000000D02*
X152000000Y-109000000D01*
X151000000Y-109000000D02*
X150000000Y-109000000D01*
X149000000Y-109000000D02*
X148000000Y-109000000D01*
X146000000Y-107000000D02*
X146000000Y-106000000D01*
X146000000Y-105000000D02*
X146000000Y-104000000D01*
X148000000Y-102000000D02*
X149000000Y-102000000D01*
X150000000Y-102000000D02*
X151000000Y-102000000D01*
X152000000Y-102000000D02*
X153000000Y-103000000D01*
X154000000Y-103000000D02*
X155000000Y-103000000D01*
X156000000Y-103000000D02*
X157000000Y-103000000D01*
X146000000Y-103000000D02*
X146000000Y-102000000D01*
X147000000Y-109000000D02*
X146000000Y-108000000D01*
X165000000Y-103000000D02*
X166000000Y-103000000D01*
X163000000Y-103000000D02*
X164000000Y-103000000D01*
X161000000Y-103000000D02*
X162000000Y-103000000D01*
X159000000Y-103000000D02*
X160000000Y-103000000D01*
X169960000Y-127460000D02*
X169960000Y-126040000D01*
X171000000Y-112000000D02*
X170000000Y-111000000D01*
X171000000Y-114000000D02*
X171000000Y-113000000D01*
X171000000Y-116000000D02*
X171000000Y-115000000D01*
X171000000Y-118000000D02*
X171000000Y-117000000D01*
X171000000Y-120000000D02*
X171000000Y-119000000D01*
X171000000Y-122000000D02*
X171000000Y-121000000D01*
X171000000Y-124000000D02*
X171000000Y-123000000D01*
X169960000Y-126040000D02*
X171000000Y-125000000D01*
X170000000Y-111000000D02*
X169000000Y-110000000D01*
X169000000Y-110000000D02*
X170000000Y-111000000D01*
X169000000Y-110000000D02*
X168000000Y-109000000D01*
X167000000Y-109000000D02*
X166000000Y-109000000D01*
X165000000Y-109000000D02*
X164000000Y-109000000D01*
X127000000Y-118000000D02*
X127000000Y-119000000D01*
X127000000Y-117000000D02*
X127000000Y-118000000D01*
X132000000Y-119000000D02*
X133000000Y-119000000D01*
X130000000Y-119000000D02*
X131000000Y-119000000D01*
X128000000Y-119000000D02*
X129000000Y-119000000D01*
X92460000Y-102460000D02*
X92460000Y-100540000D01*
X185000000Y-101000000D02*
X186000000Y-101000000D01*
X184000000Y-100000000D02*
X184000000Y-101000000D01*
X92460000Y-100540000D02*
X93000000Y-100000000D01*
X99000000Y-110000000D02*
X98000000Y-110000000D01*
X183000000Y-110000000D02*
X182000000Y-110000000D01*
X172000000Y-100000000D02*
X172000000Y-101000000D01*
X128000000Y-104000000D02*
X129000000Y-103000000D01*
X130000000Y-102000000D02*
X131000000Y-101000000D01*
X132000000Y-100000000D02*
X133000000Y-100000000D01*
X134000000Y-100000000D02*
X135000000Y-100000000D01*
X136000000Y-100000000D02*
X137000000Y-100000000D01*
X138000000Y-100000000D02*
X139000000Y-100000000D01*
X140000000Y-100000000D02*
X141000000Y-100000000D01*
X142000000Y-100000000D02*
X143000000Y-100000000D01*
X144000000Y-100000000D02*
X145000000Y-100000000D01*
X146000000Y-100000000D02*
X147000000Y-100000000D01*
X148000000Y-100000000D02*
X149000000Y-100000000D01*
X150000000Y-100000000D02*
X151000000Y-100000000D01*
X152000000Y-100000000D02*
X153000000Y-100000000D01*
X154000000Y-100000000D02*
X155000000Y-100000000D01*
X156000000Y-100000000D02*
X157000000Y-100000000D01*
X158000000Y-100000000D02*
X159000000Y-100000000D01*
X160000000Y-100000000D02*
X161000000Y-100000000D01*
X162000000Y-100000000D02*
X163000000Y-100000000D01*
X164000000Y-100000000D02*
X165000000Y-100000000D01*
X166000000Y-100000000D02*
X167000000Y-100000000D01*
X168000000Y-100000000D02*
X169000000Y-100000000D01*
X170000000Y-100000000D02*
X171000000Y-100000000D01*
X126000000Y-105000000D02*
X127000000Y-105000000D01*
X124000000Y-105000000D02*
X125000000Y-105000000D01*
X122000000Y-105000000D02*
X123000000Y-105000000D01*
X120000000Y-105000000D02*
X121000000Y-105000000D01*
X118000000Y-105000000D02*
X119000000Y-105000000D01*
X116000000Y-105000000D02*
X117000000Y-105000000D01*
X114000000Y-105000000D02*
X115000000Y-105000000D01*
X112000000Y-105000000D02*
X113000000Y-105000000D01*
X110000000Y-107000000D02*
X111000000Y-106000000D01*
X108000000Y-109000000D02*
X109000000Y-108000000D01*
X106000000Y-110000000D02*
X107000000Y-110000000D01*
X104000000Y-110000000D02*
X105000000Y-110000000D01*
X102000000Y-110000000D02*
X103000000Y-110000000D01*
X100000000Y-110000000D02*
X101000000Y-110000000D01*
X96000000Y-110000000D02*
X97000000Y-110000000D01*
X94000000Y-110000000D02*
X95000000Y-110000000D01*
X172000000Y-104000000D02*
X173000000Y-105000000D01*
X172000000Y-102000000D02*
X172000000Y-103000000D01*
X173000000Y-105000000D02*
X174000000Y-106000000D01*
X174000000Y-106000000D02*
X173000000Y-105000000D01*
X174000000Y-106000000D02*
X175000000Y-107000000D01*
X176000000Y-108000000D02*
X177000000Y-109000000D01*
X178000000Y-110000000D02*
X179000000Y-110000000D01*
X180000000Y-110000000D02*
X181000000Y-110000000D01*
X184000000Y-110000000D02*
X185000000Y-110000000D01*
X186000000Y-110000000D02*
X187000000Y-110000000D01*
X188000000Y-110000000D02*
X188000000Y-107540000D01*
X104460000Y-125540000D02*
X105000000Y-125000000D01*
X105000000Y-124000000D02*
X105000000Y-123000000D01*
X106000000Y-122000000D02*
X107000000Y-121000000D01*
X108000000Y-120000000D02*
X109000000Y-119000000D01*
X110000000Y-119000000D02*
X111000000Y-119000000D01*
X113000000Y-119000000D02*
X112000000Y-119000000D01*
X104460000Y-125540000D02*
X104460000Y-127460000D01*
X113000000Y-123000000D02*
X113000000Y-124000000D01*
X112000000Y-122000000D02*
X113000000Y-122000000D01*
X110000000Y-124000000D02*
X111000000Y-123000000D01*
X109000000Y-126000000D02*
X109000000Y-125000000D01*
X119460000Y-127460000D02*
X119460000Y-125540000D01*
X117000000Y-125000000D02*
X116000000Y-125000000D01*
X119000000Y-125000000D02*
X118000000Y-125000000D01*
X119460000Y-125540000D02*
X120000000Y-125000000D01*
X124540000Y-127460000D02*
X126540000Y-127460000D01*
X134460000Y-125540000D02*
X134460000Y-127460000D01*
X135000000Y-125000000D02*
X134460000Y-125540000D01*
X133000000Y-123000000D02*
X134000000Y-124000000D01*
X131000000Y-122000000D02*
X132000000Y-122000000D01*
X129000000Y-122000000D02*
X130000000Y-122000000D01*
X127000000Y-122000000D02*
X128000000Y-122000000D01*
X127000000Y-124000000D02*
X127000000Y-123000000D01*
X127000000Y-126000000D02*
X127000000Y-125000000D01*
X126540000Y-127460000D02*
X127000000Y-127000000D01*
X139000000Y-125000000D02*
X138000000Y-124000000D01*
X138000000Y-124000000D02*
X138000000Y-123000000D01*
X137000000Y-122000000D02*
X136000000Y-121000000D01*
X135000000Y-120000000D02*
X134000000Y-119000000D01*
X121000000Y-116000000D02*
X120000000Y-116000000D01*
X123000000Y-116000000D02*
X122000000Y-116000000D01*
X125000000Y-116000000D02*
X124000000Y-116000000D01*
X127000000Y-116000000D02*
X126000000Y-116000000D01*
X154920000Y-130000000D02*
X154920000Y-128580000D01*
X158000000Y-123500000D02*
X158000000Y-121500000D01*
X154920000Y-128580000D02*
X158000000Y-125500000D01*
X175000000Y-127420000D02*
X175040000Y-127460000D01*
X188000000Y-102000000D02*
X188000000Y-102460000D01*
X182460000Y-101460000D02*
X182460000Y-102460000D01*
X175040000Y-132540000D02*
X175540000Y-132540000D01*
X124540000Y-133000000D02*
X126000000Y-133000000D01*
X133000000Y-133000000D02*
X134460000Y-133000000D01*
X132000000Y-134000000D02*
X133000000Y-133000000D01*
X126000000Y-133000000D02*
X127000000Y-134000000D01*
X109540000Y-133000000D02*
X111000000Y-133000000D01*
X118000000Y-133000000D02*
X119460000Y-133000000D01*
X117000000Y-134000000D02*
X118000000Y-133000000D01*
X111000000Y-133000000D02*
X112000000Y-134000000D01*
D24*
X104460000Y-127460000D02*
X104460000Y-133000000D01*
X109540000Y-127460000D02*
X109540000Y-133000000D01*
X119460000Y-127460000D02*
X119460000Y-133000000D01*
X124540000Y-127460000D02*
X124540000Y-133000000D01*
X134460000Y-127460000D02*
X134460000Y-133000000D01*
X139540000Y-127460000D02*
X139540000Y-133000000D01*
X92460000Y-102460000D02*
X97540000Y-102460000D01*
X92460000Y-107540000D02*
X97540000Y-107540000D01*
X188000000Y-107540000D02*
X182460000Y-107540000D01*
X188000000Y-102460000D02*
X182460000Y-102460000D01*
D23*
X183000000Y-100000000D02*
X182000000Y-100000000D01*
X181000000Y-99000000D02*
X181000000Y-100000000D01*
X181000000Y-97000000D02*
X181000000Y-98000000D01*
X181000000Y-95000000D02*
X181000000Y-96000000D01*
X181000000Y-93000000D02*
X181000000Y-94000000D01*
X181000000Y-91000000D02*
X181000000Y-92000000D01*
X180000000Y-90000000D02*
X181000000Y-90000000D01*
X178000000Y-90000000D02*
X179000000Y-90000000D01*
X176000000Y-90000000D02*
X177000000Y-90000000D01*
X174000000Y-90000000D02*
X175000000Y-90000000D01*
X172000000Y-90000000D02*
X173000000Y-90000000D01*
X170000000Y-90000000D02*
X171000000Y-90000000D01*
X168000000Y-90000000D02*
X169000000Y-90000000D01*
X166000000Y-90000000D02*
X167000000Y-90000000D01*
X164000000Y-90000000D02*
X165000000Y-90000000D01*
X162000000Y-90000000D02*
X163000000Y-90000000D01*
X160000000Y-90000000D02*
X161000000Y-90000000D01*
X158000000Y-90000000D02*
X159000000Y-90000000D01*
X156000000Y-90000000D02*
X157000000Y-90000000D01*
X154000000Y-90000000D02*
X155000000Y-90000000D01*
X152000000Y-90000000D02*
X153000000Y-90000000D01*
X150000000Y-90000000D02*
X151000000Y-90000000D01*
X148000000Y-90000000D02*
X149000000Y-90000000D01*
X146000000Y-90000000D02*
X147000000Y-90000000D01*
X144000000Y-90000000D02*
X145000000Y-90000000D01*
X140000000Y-90000000D02*
X141000000Y-90000000D01*
X138000000Y-90000000D02*
X139000000Y-90000000D01*
X136000000Y-90000000D02*
X137000000Y-90000000D01*
X134000000Y-90000000D02*
X135000000Y-90000000D01*
X132000000Y-90000000D02*
X133000000Y-90000000D01*
X130000000Y-90000000D02*
X131000000Y-90000000D01*
X128000000Y-91000000D02*
X129000000Y-90000000D01*
X126000000Y-93000000D02*
X127000000Y-92000000D01*
X124000000Y-95000000D02*
X125000000Y-94000000D01*
X122000000Y-95000000D02*
X123000000Y-95000000D01*
X120000000Y-95000000D02*
X121000000Y-95000000D01*
X118000000Y-95000000D02*
X119000000Y-95000000D01*
X118000000Y-93000000D02*
X118000000Y-94000000D01*
X116000000Y-92000000D02*
X117000000Y-92000000D01*
X114000000Y-92000000D02*
X115000000Y-92000000D01*
X112000000Y-92000000D02*
X113000000Y-92000000D01*
X112000000Y-94000000D02*
X112000000Y-93000000D01*
X111000000Y-95000000D02*
X112000000Y-95000000D01*
X109000000Y-95000000D02*
X110000000Y-95000000D01*
X107000000Y-96000000D02*
X108000000Y-95000000D01*
X105000000Y-98000000D02*
X106000000Y-97000000D01*
X103000000Y-100000000D02*
X104000000Y-99000000D01*
X101000000Y-100000000D02*
X102000000Y-100000000D01*
X99000000Y-100000000D02*
X100000000Y-100000000D01*
X97000000Y-100000000D02*
X98000000Y-100000000D01*
X95000000Y-100000000D02*
X96000000Y-100000000D01*
D25*
X152380000Y-130000000D02*
X152380000Y-128620000D01*
X152380000Y-128620000D02*
X155500000Y-125500000D01*
X155500000Y-125500000D02*
X155500000Y-122500000D01*
X152380000Y-130000000D02*
X152380000Y-132300000D01*
X152380000Y-132300000D02*
X152180000Y-132500000D01*
X152180000Y-132500000D02*
X148500000Y-132500000D01*
X148500000Y-132500000D02*
X146500000Y-130500000D01*
X146500000Y-130500000D02*
X146500000Y-129000000D01*
X146500000Y-129000000D02*
X130500000Y-113000000D01*
X130500000Y-113000000D02*
X120500000Y-113000000D01*
X120500000Y-113000000D02*
X117000000Y-116500000D01*
X117000000Y-116500000D02*
X117000000Y-118650000D01*
X155500000Y-121000000D02*
X155500000Y-119000000D01*
X155500000Y-122500000D02*
X155500000Y-121000000D01*
X149840000Y-130000000D02*
X149840000Y-129840000D01*
X131000000Y-111000000D02*
X120000000Y-111000000D01*
X149840000Y-129840000D02*
X131000000Y-111000000D01*
X120000000Y-111000000D02*
X114500000Y-116500000D01*
X114500000Y-116500000D02*
X114500000Y-117960000D01*
X114500000Y-123040000D02*
X115310000Y-123040000D01*
X115310000Y-123040000D02*
X117000000Y-121350000D01*
D26*
G36*
X189290000Y-101075000D02*
X188869038Y-101075000D01*
X188807215Y-101013177D01*
X188745392Y-101075000D01*
X188670573Y-101075000D01*
X188564275Y-100834141D01*
X187864117Y-100565929D01*
X187114616Y-100586072D01*
X186515725Y-100834141D01*
X186409427Y-101075000D01*
X186334608Y-101075000D01*
X186272785Y-101013177D01*
X186210962Y-101075000D01*
X185873691Y-101075000D01*
X185640302Y-101171673D01*
X185461673Y-101350301D01*
X185365000Y-101583690D01*
X185365000Y-102174250D01*
X185523750Y-102333000D01*
X185651227Y-102333000D01*
X185658053Y-102587000D01*
X185523750Y-102587000D01*
X185365000Y-102745750D01*
X185365000Y-103336310D01*
X185387737Y-103391202D01*
X185326547Y-103365794D01*
X184676306Y-103365226D01*
X184075345Y-103613538D01*
X183615154Y-104072927D01*
X183365794Y-104673453D01*
X183365226Y-105323694D01*
X183613538Y-105924655D01*
X184072927Y-106384846D01*
X184673453Y-106634206D01*
X185323694Y-106634774D01*
X185387980Y-106608212D01*
X185365000Y-106663690D01*
X185365000Y-107254250D01*
X185523750Y-107413000D01*
X185651227Y-107413000D01*
X185658053Y-107667000D01*
X185523750Y-107667000D01*
X185365000Y-107825750D01*
X185365000Y-108416310D01*
X185461673Y-108649699D01*
X185640302Y-108828327D01*
X185873691Y-108925000D01*
X186210962Y-108925000D01*
X186272785Y-108986823D01*
X186334608Y-108925000D01*
X186409427Y-108925000D01*
X186515725Y-109165859D01*
X187215883Y-109434071D01*
X187965384Y-109413928D01*
X188564275Y-109165859D01*
X188670573Y-108925000D01*
X188745392Y-108925000D01*
X188807215Y-108986823D01*
X188869038Y-108925000D01*
X189290000Y-108925000D01*
X189290000Y-134290000D01*
X176425000Y-134290000D01*
X176425000Y-133869038D01*
X176486823Y-133807215D01*
X176425000Y-133745392D01*
X176425000Y-133670573D01*
X176665859Y-133564275D01*
X176934071Y-132864117D01*
X176923005Y-132452340D01*
X182727265Y-132452340D01*
X183045501Y-132906203D01*
X184306434Y-133432936D01*
X185672956Y-133437035D01*
X186937027Y-132917878D01*
X186954499Y-132906203D01*
X187272735Y-132452340D01*
X185000000Y-130179605D01*
X182727265Y-132452340D01*
X176923005Y-132452340D01*
X176913928Y-132114616D01*
X176665859Y-131515725D01*
X176425000Y-131409427D01*
X176425000Y-131334608D01*
X176486823Y-131272785D01*
X176425000Y-131210962D01*
X176425000Y-130873691D01*
X176341853Y-130672956D01*
X181562965Y-130672956D01*
X182082122Y-131937027D01*
X182093797Y-131954499D01*
X182547660Y-132272735D01*
X184820395Y-130000000D01*
X185179605Y-130000000D01*
X187452340Y-132272735D01*
X187906203Y-131954499D01*
X188432936Y-130693566D01*
X188437035Y-129327044D01*
X187917878Y-128062973D01*
X187906203Y-128045501D01*
X187452340Y-127727265D01*
X185179605Y-130000000D01*
X184820395Y-130000000D01*
X182547660Y-127727265D01*
X182093797Y-128045501D01*
X181567064Y-129306434D01*
X181562965Y-130672956D01*
X176341853Y-130672956D01*
X176328327Y-130640302D01*
X176149699Y-130461673D01*
X175916310Y-130365000D01*
X175325750Y-130365000D01*
X175167000Y-130523750D01*
X175167000Y-130651227D01*
X174913000Y-130658053D01*
X174913000Y-130523750D01*
X174754250Y-130365000D01*
X174163690Y-130365000D01*
X174108798Y-130387737D01*
X174134206Y-130326547D01*
X174134774Y-129676306D01*
X173886462Y-129075345D01*
X173604698Y-128793089D01*
X173886517Y-128793089D01*
X174015725Y-129085859D01*
X174715883Y-129354071D01*
X175465384Y-129333928D01*
X176064275Y-129085859D01*
X176193483Y-128793089D01*
X175040000Y-127639605D01*
X173886517Y-128793089D01*
X173604698Y-128793089D01*
X173427073Y-128615154D01*
X172826547Y-128365794D01*
X172176306Y-128365226D01*
X171575345Y-128613538D01*
X171115154Y-129072927D01*
X170865794Y-129673453D01*
X170865226Y-130323694D01*
X170891788Y-130387980D01*
X170836310Y-130365000D01*
X170245750Y-130365000D01*
X170087000Y-130523750D01*
X170087000Y-130651227D01*
X169833000Y-130658053D01*
X169833000Y-130523750D01*
X169674250Y-130365000D01*
X169083690Y-130365000D01*
X168850301Y-130461673D01*
X168671673Y-130640302D01*
X168575000Y-130873691D01*
X168575000Y-131210962D01*
X168513177Y-131272785D01*
X168575000Y-131334608D01*
X168575000Y-131409427D01*
X168334141Y-131515725D01*
X168065929Y-132215883D01*
X168086072Y-132965384D01*
X168334141Y-133564275D01*
X168575000Y-133670573D01*
X168575000Y-133745392D01*
X168513177Y-133807215D01*
X168575000Y-133869038D01*
X168575000Y-134290000D01*
X140925000Y-134290000D01*
X140925000Y-133869038D01*
X140986823Y-133807215D01*
X140925000Y-133745392D01*
X140925000Y-133670573D01*
X141165859Y-133564275D01*
X141434071Y-132864117D01*
X141413928Y-132114616D01*
X141165859Y-131515725D01*
X140925000Y-131409427D01*
X140925000Y-131334608D01*
X140986823Y-131272785D01*
X140925000Y-131210962D01*
X140925000Y-130873691D01*
X140828327Y-130640302D01*
X140649699Y-130461673D01*
X140416310Y-130365000D01*
X139825750Y-130365000D01*
X139667000Y-130523750D01*
X139667000Y-130651227D01*
X139413000Y-130658053D01*
X139413000Y-130523750D01*
X139254250Y-130365000D01*
X138663690Y-130365000D01*
X138608798Y-130387737D01*
X138634206Y-130326547D01*
X138634774Y-129676306D01*
X138386462Y-129075345D01*
X138104698Y-128793089D01*
X138386517Y-128793089D01*
X138515725Y-129085859D01*
X139215883Y-129354071D01*
X139965384Y-129333928D01*
X140564275Y-129085859D01*
X140693483Y-128793089D01*
X139540000Y-127639605D01*
X138386517Y-128793089D01*
X138104698Y-128793089D01*
X137927073Y-128615154D01*
X137326547Y-128365794D01*
X136676306Y-128365226D01*
X136075345Y-128613538D01*
X135615154Y-129072927D01*
X135365794Y-129673453D01*
X135365226Y-130323694D01*
X135391788Y-130387980D01*
X135336310Y-130365000D01*
X134745750Y-130365000D01*
X134587000Y-130523750D01*
X134587000Y-130651227D01*
X134333000Y-130658053D01*
X134333000Y-130523750D01*
X134174250Y-130365000D01*
X133583690Y-130365000D01*
X133350301Y-130461673D01*
X133171673Y-130640302D01*
X133075000Y-130873691D01*
X133075000Y-131210962D01*
X133013177Y-131272785D01*
X133075000Y-131334608D01*
X133075000Y-131409427D01*
X132834141Y-131515725D01*
X132565929Y-132215883D01*
X132586072Y-132965384D01*
X132834141Y-133564275D01*
X133075000Y-133670573D01*
X133075000Y-133745392D01*
X133013177Y-133807215D01*
X133075000Y-133869038D01*
X133075000Y-134290000D01*
X125925000Y-134290000D01*
X125925000Y-133869038D01*
X125986823Y-133807215D01*
X125925000Y-133745392D01*
X125925000Y-133670573D01*
X126165859Y-133564275D01*
X126434071Y-132864117D01*
X126413928Y-132114616D01*
X126165859Y-131515725D01*
X125925000Y-131409427D01*
X125925000Y-131334608D01*
X125986823Y-131272785D01*
X125925000Y-131210962D01*
X125925000Y-130873691D01*
X125828327Y-130640302D01*
X125649699Y-130461673D01*
X125416310Y-130365000D01*
X124825750Y-130365000D01*
X124667000Y-130523750D01*
X124667000Y-130651227D01*
X124413000Y-130658053D01*
X124413000Y-130523750D01*
X124254250Y-130365000D01*
X123663690Y-130365000D01*
X123608798Y-130387737D01*
X123634206Y-130326547D01*
X123634774Y-129676306D01*
X123386462Y-129075345D01*
X123104698Y-128793089D01*
X123386517Y-128793089D01*
X123515725Y-129085859D01*
X124215883Y-129354071D01*
X124965384Y-129333928D01*
X125564275Y-129085859D01*
X125693483Y-128793089D01*
X133306517Y-128793089D01*
X133435725Y-129085859D01*
X134135883Y-129354071D01*
X134885384Y-129333928D01*
X135484275Y-129085859D01*
X135613483Y-128793089D01*
X134460000Y-127639605D01*
X133306517Y-128793089D01*
X125693483Y-128793089D01*
X124540000Y-127639605D01*
X123386517Y-128793089D01*
X123104698Y-128793089D01*
X122927073Y-128615154D01*
X122326547Y-128365794D01*
X121676306Y-128365226D01*
X121075345Y-128613538D01*
X120615154Y-129072927D01*
X120365794Y-129673453D01*
X120365226Y-130323694D01*
X120391788Y-130387980D01*
X120336310Y-130365000D01*
X119745750Y-130365000D01*
X119587000Y-130523750D01*
X119587000Y-130651227D01*
X119333000Y-130658053D01*
X119333000Y-130523750D01*
X119174250Y-130365000D01*
X118583690Y-130365000D01*
X118350301Y-130461673D01*
X118171673Y-130640302D01*
X118075000Y-130873691D01*
X118075000Y-131210962D01*
X118013177Y-131272785D01*
X118075000Y-131334608D01*
X118075000Y-131409427D01*
X117834141Y-131515725D01*
X117565929Y-132215883D01*
X117586072Y-132965384D01*
X117834141Y-133564275D01*
X118075000Y-133670573D01*
X118075000Y-133745392D01*
X118013177Y-133807215D01*
X118075000Y-133869038D01*
X118075000Y-134290000D01*
X110925000Y-134290000D01*
X110925000Y-133869038D01*
X110986823Y-133807215D01*
X110925000Y-133745392D01*
X110925000Y-133670573D01*
X111165859Y-133564275D01*
X111434071Y-132864117D01*
X111413928Y-132114616D01*
X111165859Y-131515725D01*
X110925000Y-131409427D01*
X110925000Y-131334608D01*
X110986823Y-131272785D01*
X110925000Y-131210962D01*
X110925000Y-130873691D01*
X110828327Y-130640302D01*
X110649699Y-130461673D01*
X110416310Y-130365000D01*
X109825750Y-130365000D01*
X109667000Y-130523750D01*
X109667000Y-130651227D01*
X109413000Y-130658053D01*
X109413000Y-130523750D01*
X109254250Y-130365000D01*
X108663690Y-130365000D01*
X108608798Y-130387737D01*
X108634206Y-130326547D01*
X108634774Y-129676306D01*
X108386462Y-129075345D01*
X108104698Y-128793089D01*
X108386517Y-128793089D01*
X108515725Y-129085859D01*
X109215883Y-129354071D01*
X109965384Y-129333928D01*
X110564275Y-129085859D01*
X110693483Y-128793089D01*
X118306517Y-128793089D01*
X118435725Y-129085859D01*
X119135883Y-129354071D01*
X119885384Y-129333928D01*
X120484275Y-129085859D01*
X120613483Y-128793089D01*
X119460000Y-127639605D01*
X118306517Y-128793089D01*
X110693483Y-128793089D01*
X109540000Y-127639605D01*
X108386517Y-128793089D01*
X108104698Y-128793089D01*
X107927073Y-128615154D01*
X107326547Y-128365794D01*
X106676306Y-128365226D01*
X106075345Y-128613538D01*
X105615154Y-129072927D01*
X105365794Y-129673453D01*
X105365226Y-130323694D01*
X105391788Y-130387980D01*
X105336310Y-130365000D01*
X104745750Y-130365000D01*
X104587000Y-130523750D01*
X104587000Y-130651227D01*
X104333000Y-130658053D01*
X104333000Y-130523750D01*
X104174250Y-130365000D01*
X103583690Y-130365000D01*
X103350301Y-130461673D01*
X103171673Y-130640302D01*
X103075000Y-130873691D01*
X103075000Y-131210962D01*
X103013177Y-131272785D01*
X103075000Y-131334608D01*
X103075000Y-131409427D01*
X102834141Y-131515725D01*
X102565929Y-132215883D01*
X102586072Y-132965384D01*
X102834141Y-133564275D01*
X103075000Y-133670573D01*
X103075000Y-133745392D01*
X103013177Y-133807215D01*
X103075000Y-133869038D01*
X103075000Y-134290000D01*
X90710000Y-134290000D01*
X90710000Y-132452340D01*
X92727265Y-132452340D01*
X93045501Y-132906203D01*
X94306434Y-133432936D01*
X95672956Y-133437035D01*
X96937027Y-132917878D01*
X96954499Y-132906203D01*
X97272735Y-132452340D01*
X95000000Y-130179605D01*
X92727265Y-132452340D01*
X90710000Y-132452340D01*
X90710000Y-130672956D01*
X91562965Y-130672956D01*
X92082122Y-131937027D01*
X92093797Y-131954499D01*
X92547660Y-132272735D01*
X94820395Y-130000000D01*
X95179605Y-130000000D01*
X97452340Y-132272735D01*
X97906203Y-131954499D01*
X98432936Y-130693566D01*
X98437035Y-129327044D01*
X98217739Y-128793089D01*
X103306517Y-128793089D01*
X103435725Y-129085859D01*
X104135883Y-129354071D01*
X104885384Y-129333928D01*
X105484275Y-129085859D01*
X105613483Y-128793089D01*
X104460000Y-127639605D01*
X103306517Y-128793089D01*
X98217739Y-128793089D01*
X97917878Y-128062973D01*
X97906203Y-128045501D01*
X97452340Y-127727265D01*
X95179605Y-130000000D01*
X94820395Y-130000000D01*
X92547660Y-127727265D01*
X92093797Y-128045501D01*
X91567064Y-129306434D01*
X91562965Y-130672956D01*
X90710000Y-130672956D01*
X90710000Y-127547660D01*
X92727265Y-127547660D01*
X95000000Y-129820395D01*
X97272735Y-127547660D01*
X96984009Y-127135883D01*
X102565929Y-127135883D01*
X102586072Y-127885384D01*
X102834141Y-128484275D01*
X103126911Y-128613483D01*
X104280395Y-127460000D01*
X104639605Y-127460000D01*
X105793089Y-128613483D01*
X106085859Y-128484275D01*
X106354071Y-127784117D01*
X106336650Y-127135883D01*
X107645929Y-127135883D01*
X107666072Y-127885384D01*
X107914141Y-128484275D01*
X108206911Y-128613483D01*
X109360395Y-127460000D01*
X109719605Y-127460000D01*
X110873089Y-128613483D01*
X111165859Y-128484275D01*
X111434071Y-127784117D01*
X111416650Y-127135883D01*
X117565929Y-127135883D01*
X117586072Y-127885384D01*
X117834141Y-128484275D01*
X118126911Y-128613483D01*
X119280395Y-127460000D01*
X119639605Y-127460000D01*
X120793089Y-128613483D01*
X121085859Y-128484275D01*
X121354071Y-127784117D01*
X121336650Y-127135883D01*
X122645929Y-127135883D01*
X122666072Y-127885384D01*
X122914141Y-128484275D01*
X123206911Y-128613483D01*
X124360395Y-127460000D01*
X124719605Y-127460000D01*
X125873089Y-128613483D01*
X126165859Y-128484275D01*
X126434071Y-127784117D01*
X126416650Y-127135883D01*
X132565929Y-127135883D01*
X132586072Y-127885384D01*
X132834141Y-128484275D01*
X133126911Y-128613483D01*
X134280395Y-127460000D01*
X134639605Y-127460000D01*
X135793089Y-128613483D01*
X136085859Y-128484275D01*
X136354071Y-127784117D01*
X136336650Y-127135883D01*
X137645929Y-127135883D01*
X137666072Y-127885384D01*
X137914141Y-128484275D01*
X138206911Y-128613483D01*
X139360395Y-127460000D01*
X139719605Y-127460000D01*
X140873089Y-128613483D01*
X141165859Y-128484275D01*
X141434071Y-127784117D01*
X141413928Y-127034616D01*
X141165859Y-126435725D01*
X140873089Y-126306517D01*
X139719605Y-127460000D01*
X139360395Y-127460000D01*
X138206911Y-126306517D01*
X137914141Y-126435725D01*
X137645929Y-127135883D01*
X136336650Y-127135883D01*
X136333928Y-127034616D01*
X136085859Y-126435725D01*
X135793089Y-126306517D01*
X134639605Y-127460000D01*
X134280395Y-127460000D01*
X133126911Y-126306517D01*
X132834141Y-126435725D01*
X132565929Y-127135883D01*
X126416650Y-127135883D01*
X126413928Y-127034616D01*
X126165859Y-126435725D01*
X125873089Y-126306517D01*
X124719605Y-127460000D01*
X124360395Y-127460000D01*
X123206911Y-126306517D01*
X122914141Y-126435725D01*
X122645929Y-127135883D01*
X121336650Y-127135883D01*
X121333928Y-127034616D01*
X121085859Y-126435725D01*
X120793089Y-126306517D01*
X119639605Y-127460000D01*
X119280395Y-127460000D01*
X118126911Y-126306517D01*
X117834141Y-126435725D01*
X117565929Y-127135883D01*
X111416650Y-127135883D01*
X111413928Y-127034616D01*
X111165859Y-126435725D01*
X110873089Y-126306517D01*
X109719605Y-127460000D01*
X109360395Y-127460000D01*
X108206911Y-126306517D01*
X107914141Y-126435725D01*
X107645929Y-127135883D01*
X106336650Y-127135883D01*
X106333928Y-127034616D01*
X106085859Y-126435725D01*
X105793089Y-126306517D01*
X104639605Y-127460000D01*
X104280395Y-127460000D01*
X103126911Y-126306517D01*
X102834141Y-126435725D01*
X102565929Y-127135883D01*
X96984009Y-127135883D01*
X96954499Y-127093797D01*
X95693566Y-126567064D01*
X94327044Y-126562965D01*
X93062973Y-127082122D01*
X93045501Y-127093797D01*
X92727265Y-127547660D01*
X90710000Y-127547660D01*
X90710000Y-126126911D01*
X103306517Y-126126911D01*
X104460000Y-127280395D01*
X105613483Y-126126911D01*
X108386517Y-126126911D01*
X109540000Y-127280395D01*
X110693483Y-126126911D01*
X118306517Y-126126911D01*
X119460000Y-127280395D01*
X120613483Y-126126911D01*
X123386517Y-126126911D01*
X124540000Y-127280395D01*
X125693483Y-126126911D01*
X133306517Y-126126911D01*
X134460000Y-127280395D01*
X135613483Y-126126911D01*
X138386517Y-126126911D01*
X139540000Y-127280395D01*
X140693483Y-126126911D01*
X140564275Y-125834141D01*
X139864117Y-125565929D01*
X139114616Y-125586072D01*
X138515725Y-125834141D01*
X138386517Y-126126911D01*
X135613483Y-126126911D01*
X135484275Y-125834141D01*
X134784117Y-125565929D01*
X134034616Y-125586072D01*
X133435725Y-125834141D01*
X133306517Y-126126911D01*
X125693483Y-126126911D01*
X125564275Y-125834141D01*
X124864117Y-125565929D01*
X124114616Y-125586072D01*
X123515725Y-125834141D01*
X123386517Y-126126911D01*
X120613483Y-126126911D01*
X120484275Y-125834141D01*
X119784117Y-125565929D01*
X119034616Y-125586072D01*
X118435725Y-125834141D01*
X118306517Y-126126911D01*
X110693483Y-126126911D01*
X110564275Y-125834141D01*
X109864117Y-125565929D01*
X109114616Y-125586072D01*
X108515725Y-125834141D01*
X108386517Y-126126911D01*
X105613483Y-126126911D01*
X105484275Y-125834141D01*
X104784117Y-125565929D01*
X104034616Y-125586072D01*
X103435725Y-125834141D01*
X103306517Y-126126911D01*
X90710000Y-126126911D01*
X90710000Y-118263991D01*
X112964735Y-118263991D01*
X113197932Y-118828371D01*
X113629357Y-119260551D01*
X114193330Y-119494733D01*
X114803991Y-119495265D01*
X115368371Y-119262068D01*
X115702560Y-118928463D01*
X115702560Y-119400000D01*
X115746838Y-119635317D01*
X115885910Y-119851441D01*
X116098110Y-119996431D01*
X116111197Y-119999081D01*
X115898559Y-120135910D01*
X115753569Y-120348110D01*
X115702560Y-120600000D01*
X115702560Y-121042308D01*
X115112577Y-121632291D01*
X114806670Y-121505267D01*
X114196009Y-121504735D01*
X113631629Y-121737932D01*
X113199449Y-122169357D01*
X112965267Y-122733330D01*
X112964735Y-123343991D01*
X113197932Y-123908371D01*
X113629357Y-124340551D01*
X114193330Y-124574733D01*
X114803991Y-124575265D01*
X115368371Y-124342068D01*
X115591904Y-124118926D01*
X115744346Y-124088603D01*
X116112566Y-123842566D01*
X117207692Y-122747440D01*
X117650000Y-122747440D01*
X117885317Y-122703162D01*
X118101441Y-122564090D01*
X118137386Y-122511483D01*
X118045267Y-122733330D01*
X118044735Y-123343991D01*
X118277932Y-123908371D01*
X118709357Y-124340551D01*
X119273330Y-124574733D01*
X119883991Y-124575265D01*
X120448371Y-124342068D01*
X120840305Y-123950818D01*
X121229357Y-124340551D01*
X121793330Y-124574733D01*
X122403991Y-124575265D01*
X122968371Y-124342068D01*
X123380340Y-123930818D01*
X123789357Y-124340551D01*
X124353330Y-124574733D01*
X124963991Y-124575265D01*
X125528371Y-124342068D01*
X125960551Y-123910643D01*
X126194733Y-123346670D01*
X126195265Y-122736009D01*
X125962068Y-122171629D01*
X125530643Y-121739449D01*
X124966670Y-121505267D01*
X124356009Y-121504735D01*
X123791629Y-121737932D01*
X123379660Y-122149182D01*
X122970643Y-121739449D01*
X122406670Y-121505267D01*
X121796009Y-121504735D01*
X121231629Y-121737932D01*
X120839695Y-122129182D01*
X120450643Y-121739449D01*
X119886670Y-121505267D01*
X119276009Y-121504735D01*
X118711629Y-121737932D01*
X118284395Y-122164420D01*
X118297440Y-122100000D01*
X118297440Y-120600000D01*
X118253162Y-120364683D01*
X118114090Y-120148559D01*
X117901890Y-120003569D01*
X117888803Y-120000919D01*
X118101441Y-119864090D01*
X118246431Y-119651890D01*
X118297440Y-119400000D01*
X118297440Y-118847913D01*
X118709357Y-119260551D01*
X119273330Y-119494733D01*
X119883991Y-119495265D01*
X120448371Y-119262068D01*
X120850323Y-118860818D01*
X121249357Y-119260551D01*
X121813330Y-119494733D01*
X122423991Y-119495265D01*
X122988371Y-119262068D01*
X123390323Y-118860818D01*
X123789357Y-119260551D01*
X124353330Y-119494733D01*
X124963991Y-119495265D01*
X125528371Y-119262068D01*
X125960551Y-118830643D01*
X126194733Y-118266670D01*
X126195265Y-117656009D01*
X125962068Y-117091629D01*
X125530643Y-116659449D01*
X124966670Y-116425267D01*
X124356009Y-116424735D01*
X123791629Y-116657932D01*
X123389677Y-117059182D01*
X122990643Y-116659449D01*
X122426670Y-116425267D01*
X121816009Y-116424735D01*
X121251629Y-116657932D01*
X120849677Y-117059182D01*
X120450643Y-116659449D01*
X119886670Y-116425267D01*
X119276009Y-116424735D01*
X118711629Y-116657932D01*
X118279449Y-117089357D01*
X118135000Y-117437229D01*
X118135000Y-116970132D01*
X120970133Y-114135000D01*
X130029868Y-114135000D01*
X145365000Y-129470132D01*
X145365000Y-130500000D01*
X145451397Y-130934346D01*
X145585470Y-131135000D01*
X145697434Y-131302566D01*
X147697434Y-133302566D01*
X148065654Y-133548603D01*
X148500000Y-133635000D01*
X152180000Y-133635000D01*
X152614346Y-133548603D01*
X152982566Y-133302566D01*
X153182566Y-133102566D01*
X153294967Y-132934346D01*
X153428603Y-132734346D01*
X153515000Y-132300000D01*
X153515000Y-131508141D01*
X153536120Y-131494029D01*
X153663219Y-131303812D01*
X153853683Y-131545922D01*
X154411645Y-131859144D01*
X154539566Y-131890124D01*
X154793000Y-131770777D01*
X154793000Y-130127000D01*
X154773000Y-130127000D01*
X154773000Y-129873000D01*
X154793000Y-129873000D01*
X154793000Y-128229223D01*
X155047000Y-128229223D01*
X155047000Y-129873000D01*
X155067000Y-129873000D01*
X155067000Y-130127000D01*
X155047000Y-130127000D01*
X155047000Y-131770777D01*
X155300434Y-131890124D01*
X155428355Y-131859144D01*
X155986317Y-131545922D01*
X156176781Y-131303812D01*
X156303880Y-131494029D01*
X156834313Y-131848452D01*
X157460000Y-131972909D01*
X158085687Y-131848452D01*
X158444192Y-131608907D01*
X158535910Y-131751441D01*
X158748110Y-131896431D01*
X159000000Y-131947440D01*
X161000000Y-131947440D01*
X161235317Y-131903162D01*
X161451441Y-131764090D01*
X161596431Y-131551890D01*
X161647440Y-131300000D01*
X161647440Y-128793089D01*
X168806517Y-128793089D01*
X168935725Y-129085859D01*
X169635883Y-129354071D01*
X170385384Y-129333928D01*
X170984275Y-129085859D01*
X171113483Y-128793089D01*
X169960000Y-127639605D01*
X168806517Y-128793089D01*
X161647440Y-128793089D01*
X161647440Y-128700000D01*
X161603162Y-128464683D01*
X161464090Y-128248559D01*
X161251890Y-128103569D01*
X161000000Y-128052560D01*
X159000000Y-128052560D01*
X158764683Y-128096838D01*
X158548559Y-128235910D01*
X158443049Y-128390329D01*
X158085687Y-128151548D01*
X157460000Y-128027091D01*
X156834313Y-128151548D01*
X156303880Y-128505971D01*
X156176781Y-128696188D01*
X155986317Y-128454078D01*
X155428355Y-128140856D01*
X155300434Y-128109876D01*
X155047000Y-128229223D01*
X154793000Y-128229223D01*
X154539566Y-128109876D01*
X154481096Y-128124036D01*
X155469249Y-127135883D01*
X168065929Y-127135883D01*
X168086072Y-127885384D01*
X168334141Y-128484275D01*
X168626911Y-128613483D01*
X169780395Y-127460000D01*
X170139605Y-127460000D01*
X171293089Y-128613483D01*
X171585859Y-128484275D01*
X171854071Y-127784117D01*
X171836650Y-127135883D01*
X173145929Y-127135883D01*
X173166072Y-127885384D01*
X173414141Y-128484275D01*
X173706911Y-128613483D01*
X174860395Y-127460000D01*
X175219605Y-127460000D01*
X176373089Y-128613483D01*
X176665859Y-128484275D01*
X176934071Y-127784117D01*
X176927717Y-127547660D01*
X182727265Y-127547660D01*
X185000000Y-129820395D01*
X187272735Y-127547660D01*
X186954499Y-127093797D01*
X185693566Y-126567064D01*
X184327044Y-126562965D01*
X183062973Y-127082122D01*
X183045501Y-127093797D01*
X182727265Y-127547660D01*
X176927717Y-127547660D01*
X176913928Y-127034616D01*
X176665859Y-126435725D01*
X176373089Y-126306517D01*
X175219605Y-127460000D01*
X174860395Y-127460000D01*
X173706911Y-126306517D01*
X173414141Y-126435725D01*
X173145929Y-127135883D01*
X171836650Y-127135883D01*
X171833928Y-127034616D01*
X171585859Y-126435725D01*
X171293089Y-126306517D01*
X170139605Y-127460000D01*
X169780395Y-127460000D01*
X168626911Y-126306517D01*
X168334141Y-126435725D01*
X168065929Y-127135883D01*
X155469249Y-127135883D01*
X156302566Y-126302566D01*
X156419935Y-126126911D01*
X168806517Y-126126911D01*
X169960000Y-127280395D01*
X171113483Y-126126911D01*
X173886517Y-126126911D01*
X175040000Y-127280395D01*
X176193483Y-126126911D01*
X176064275Y-125834141D01*
X175364117Y-125565929D01*
X174614616Y-125586072D01*
X174015725Y-125834141D01*
X173886517Y-126126911D01*
X171113483Y-126126911D01*
X170984275Y-125834141D01*
X170284117Y-125565929D01*
X169534616Y-125586072D01*
X168935725Y-125834141D01*
X168806517Y-126126911D01*
X156419935Y-126126911D01*
X156548603Y-125934346D01*
X156568535Y-125834141D01*
X156635000Y-125500000D01*
X156635000Y-119000000D01*
X156548603Y-118565654D01*
X156302566Y-118197434D01*
X155934346Y-117951397D01*
X155500000Y-117865000D01*
X155065654Y-117951397D01*
X154697434Y-118197434D01*
X154451397Y-118565654D01*
X154365000Y-119000000D01*
X154365000Y-125029868D01*
X151577434Y-127817434D01*
X151331397Y-128185654D01*
X151274396Y-128472217D01*
X151223880Y-128505971D01*
X151110000Y-128676405D01*
X150996120Y-128505971D01*
X150465687Y-128151548D01*
X149840000Y-128027091D01*
X149666696Y-128061563D01*
X131802566Y-110197434D01*
X131434346Y-109951397D01*
X131000000Y-109865000D01*
X120000000Y-109865000D01*
X119565655Y-109951396D01*
X119197434Y-110197434D01*
X113697434Y-115697434D01*
X113451397Y-116065654D01*
X113365000Y-116500000D01*
X113365000Y-116924095D01*
X113199449Y-117089357D01*
X112965267Y-117653330D01*
X112964735Y-118263991D01*
X90710000Y-118263991D01*
X90710000Y-108925000D01*
X91130962Y-108925000D01*
X91192785Y-108986823D01*
X91254608Y-108925000D01*
X91329427Y-108925000D01*
X91435725Y-109165859D01*
X92135883Y-109434071D01*
X92885384Y-109413928D01*
X93484275Y-109165859D01*
X93590573Y-108925000D01*
X93665392Y-108925000D01*
X93727215Y-108986823D01*
X93789038Y-108925000D01*
X94126309Y-108925000D01*
X94251633Y-108873089D01*
X96386517Y-108873089D01*
X96515725Y-109165859D01*
X97215883Y-109434071D01*
X97965384Y-109413928D01*
X98564275Y-109165859D01*
X98693483Y-108873089D01*
X97540000Y-107719605D01*
X96386517Y-108873089D01*
X94251633Y-108873089D01*
X94359698Y-108828327D01*
X94538327Y-108649699D01*
X94635000Y-108416310D01*
X94635000Y-107825750D01*
X94476250Y-107667000D01*
X94348773Y-107667000D01*
X94341947Y-107413000D01*
X94476250Y-107413000D01*
X94635000Y-107254250D01*
X94635000Y-107215883D01*
X95645929Y-107215883D01*
X95666072Y-107965384D01*
X95914141Y-108564275D01*
X96206911Y-108693483D01*
X97360395Y-107540000D01*
X97719605Y-107540000D01*
X98873089Y-108693483D01*
X99034349Y-108622314D01*
X128557291Y-108622314D01*
X128735379Y-108956666D01*
X129580426Y-109291673D01*
X130489350Y-109277794D01*
X131264621Y-108956666D01*
X131309137Y-108873089D01*
X181306517Y-108873089D01*
X181435725Y-109165859D01*
X182135883Y-109434071D01*
X182885384Y-109413928D01*
X183484275Y-109165859D01*
X183613483Y-108873089D01*
X182460000Y-107719605D01*
X181306517Y-108873089D01*
X131309137Y-108873089D01*
X131442709Y-108622314D01*
X130000000Y-107179605D01*
X128557291Y-108622314D01*
X99034349Y-108622314D01*
X99165859Y-108564275D01*
X99434071Y-107864117D01*
X99413928Y-107114616D01*
X99192660Y-106580426D01*
X127708327Y-106580426D01*
X127722206Y-107489350D01*
X128043334Y-108264621D01*
X128377686Y-108442709D01*
X129820395Y-107000000D01*
X130179605Y-107000000D01*
X131622314Y-108442709D01*
X131956666Y-108264621D01*
X132291673Y-107419574D01*
X132288563Y-107215883D01*
X180565929Y-107215883D01*
X180586072Y-107965384D01*
X180834141Y-108564275D01*
X181126911Y-108693483D01*
X182280395Y-107540000D01*
X182639605Y-107540000D01*
X183793089Y-108693483D01*
X184085859Y-108564275D01*
X184354071Y-107864117D01*
X184333928Y-107114616D01*
X184085859Y-106515725D01*
X183793089Y-106386517D01*
X182639605Y-107540000D01*
X182280395Y-107540000D01*
X181126911Y-106386517D01*
X180834141Y-106515725D01*
X180565929Y-107215883D01*
X132288563Y-107215883D01*
X132277794Y-106510650D01*
X132151982Y-106206911D01*
X181306517Y-106206911D01*
X182460000Y-107360395D01*
X183613483Y-106206911D01*
X183484275Y-105914141D01*
X182784117Y-105645929D01*
X182034616Y-105666072D01*
X181435725Y-105914141D01*
X181306517Y-106206911D01*
X132151982Y-106206911D01*
X131956666Y-105735379D01*
X131622314Y-105557291D01*
X130179605Y-107000000D01*
X129820395Y-107000000D01*
X128377686Y-105557291D01*
X128043334Y-105735379D01*
X127708327Y-106580426D01*
X99192660Y-106580426D01*
X99165859Y-106515725D01*
X98873089Y-106386517D01*
X97719605Y-107540000D01*
X97360395Y-107540000D01*
X96206911Y-106386517D01*
X95914141Y-106515725D01*
X95645929Y-107215883D01*
X94635000Y-107215883D01*
X94635000Y-106663690D01*
X94612263Y-106608798D01*
X94673453Y-106634206D01*
X95323694Y-106634774D01*
X95924655Y-106386462D01*
X96104519Y-106206911D01*
X96386517Y-106206911D01*
X97540000Y-107360395D01*
X98693483Y-106206911D01*
X98564275Y-105914141D01*
X97864117Y-105645929D01*
X97114616Y-105666072D01*
X96515725Y-105914141D01*
X96386517Y-106206911D01*
X96104519Y-106206911D01*
X96384846Y-105927073D01*
X96612971Y-105377686D01*
X128557291Y-105377686D01*
X130000000Y-106820395D01*
X131442709Y-105377686D01*
X131264621Y-105043334D01*
X130419574Y-104708327D01*
X129510650Y-104722206D01*
X128735379Y-105043334D01*
X128557291Y-105377686D01*
X96612971Y-105377686D01*
X96634206Y-105326547D01*
X96634774Y-104676306D01*
X96386462Y-104075345D01*
X96104698Y-103793089D01*
X96386517Y-103793089D01*
X96515725Y-104085859D01*
X97215883Y-104354071D01*
X97965384Y-104333928D01*
X98564275Y-104085859D01*
X98693483Y-103793089D01*
X181306517Y-103793089D01*
X181435725Y-104085859D01*
X182135883Y-104354071D01*
X182885384Y-104333928D01*
X183484275Y-104085859D01*
X183613483Y-103793089D01*
X182460000Y-102639605D01*
X181306517Y-103793089D01*
X98693483Y-103793089D01*
X97540000Y-102639605D01*
X96386517Y-103793089D01*
X96104698Y-103793089D01*
X95927073Y-103615154D01*
X95326547Y-103365794D01*
X94676306Y-103365226D01*
X94612020Y-103391788D01*
X94635000Y-103336310D01*
X94635000Y-102745750D01*
X94476250Y-102587000D01*
X94348773Y-102587000D01*
X94341947Y-102333000D01*
X94476250Y-102333000D01*
X94635000Y-102174250D01*
X94635000Y-102135883D01*
X95645929Y-102135883D01*
X95666072Y-102885384D01*
X95914141Y-103484275D01*
X96206911Y-103613483D01*
X97360395Y-102460000D01*
X97719605Y-102460000D01*
X98873089Y-103613483D01*
X99165859Y-103484275D01*
X99434071Y-102784117D01*
X99416650Y-102135883D01*
X180565929Y-102135883D01*
X180586072Y-102885384D01*
X180834141Y-103484275D01*
X181126911Y-103613483D01*
X182280395Y-102460000D01*
X182639605Y-102460000D01*
X183793089Y-103613483D01*
X184085859Y-103484275D01*
X184354071Y-102784117D01*
X184333928Y-102034616D01*
X184085859Y-101435725D01*
X183793089Y-101306517D01*
X182639605Y-102460000D01*
X182280395Y-102460000D01*
X181126911Y-101306517D01*
X180834141Y-101435725D01*
X180565929Y-102135883D01*
X99416650Y-102135883D01*
X99413928Y-102034616D01*
X99165859Y-101435725D01*
X98873089Y-101306517D01*
X97719605Y-102460000D01*
X97360395Y-102460000D01*
X96206911Y-101306517D01*
X95914141Y-101435725D01*
X95645929Y-102135883D01*
X94635000Y-102135883D01*
X94635000Y-101583690D01*
X94538327Y-101350301D01*
X94359698Y-101171673D01*
X94251634Y-101126911D01*
X96386517Y-101126911D01*
X97540000Y-102280395D01*
X98693483Y-101126911D01*
X181306517Y-101126911D01*
X182460000Y-102280395D01*
X183613483Y-101126911D01*
X183484275Y-100834141D01*
X182784117Y-100565929D01*
X182034616Y-100586072D01*
X181435725Y-100834141D01*
X181306517Y-101126911D01*
X98693483Y-101126911D01*
X98564275Y-100834141D01*
X97864117Y-100565929D01*
X97114616Y-100586072D01*
X96515725Y-100834141D01*
X96386517Y-101126911D01*
X94251634Y-101126911D01*
X94126309Y-101075000D01*
X93789038Y-101075000D01*
X93727215Y-101013177D01*
X93665392Y-101075000D01*
X93590573Y-101075000D01*
X93484275Y-100834141D01*
X92784117Y-100565929D01*
X92034616Y-100586072D01*
X91435725Y-100834141D01*
X91329427Y-101075000D01*
X91254608Y-101075000D01*
X91192785Y-101013177D01*
X91130962Y-101075000D01*
X90710000Y-101075000D01*
X90710000Y-92452340D01*
X92727265Y-92452340D01*
X93045501Y-92906203D01*
X94306434Y-93432936D01*
X95672956Y-93437035D01*
X96937027Y-92917878D01*
X96954499Y-92906203D01*
X97153554Y-92622314D01*
X142557291Y-92622314D01*
X142735379Y-92956666D01*
X143580426Y-93291673D01*
X144489350Y-93277794D01*
X145264621Y-92956666D01*
X145442709Y-92622314D01*
X145272735Y-92452340D01*
X182727265Y-92452340D01*
X183045501Y-92906203D01*
X184306434Y-93432936D01*
X185672956Y-93437035D01*
X186937027Y-92917878D01*
X186954499Y-92906203D01*
X187272735Y-92452340D01*
X185000000Y-90179605D01*
X182727265Y-92452340D01*
X145272735Y-92452340D01*
X144000000Y-91179605D01*
X142557291Y-92622314D01*
X97153554Y-92622314D01*
X97272735Y-92452340D01*
X95000000Y-90179605D01*
X92727265Y-92452340D01*
X90710000Y-92452340D01*
X90710000Y-90672956D01*
X91562965Y-90672956D01*
X92082122Y-91937027D01*
X92093797Y-91954499D01*
X92547660Y-92272735D01*
X94820395Y-90000000D01*
X95179605Y-90000000D01*
X97452340Y-92272735D01*
X97906203Y-91954499D01*
X98432936Y-90693566D01*
X98433275Y-90580426D01*
X141708327Y-90580426D01*
X141722206Y-91489350D01*
X142043334Y-92264621D01*
X142377686Y-92442709D01*
X143820395Y-91000000D01*
X144179605Y-91000000D01*
X145622314Y-92442709D01*
X145956666Y-92264621D01*
X146291673Y-91419574D01*
X146280273Y-90672956D01*
X181562965Y-90672956D01*
X182082122Y-91937027D01*
X182093797Y-91954499D01*
X182547660Y-92272735D01*
X184820395Y-90000000D01*
X185179605Y-90000000D01*
X187452340Y-92272735D01*
X187906203Y-91954499D01*
X188432936Y-90693566D01*
X188437035Y-89327044D01*
X187917878Y-88062973D01*
X187906203Y-88045501D01*
X187452340Y-87727265D01*
X185179605Y-90000000D01*
X184820395Y-90000000D01*
X182547660Y-87727265D01*
X182093797Y-88045501D01*
X181567064Y-89306434D01*
X181562965Y-90672956D01*
X146280273Y-90672956D01*
X146277794Y-90510650D01*
X145956666Y-89735379D01*
X145801125Y-89652532D01*
X176027073Y-89652532D01*
X176125736Y-89919387D01*
X176735461Y-90145908D01*
X177385460Y-90121856D01*
X177874264Y-89919387D01*
X177972927Y-89652532D01*
X177000000Y-88679605D01*
X176027073Y-89652532D01*
X145801125Y-89652532D01*
X145622314Y-89557291D01*
X144179605Y-91000000D01*
X143820395Y-91000000D01*
X142377686Y-89557291D01*
X142043334Y-89735379D01*
X141708327Y-90580426D01*
X98433275Y-90580426D01*
X98435848Y-89722532D01*
X138432073Y-89722532D01*
X138530736Y-89989387D01*
X139140461Y-90215908D01*
X139790460Y-90191856D01*
X140279264Y-89989387D01*
X140377927Y-89722532D01*
X139405000Y-88749605D01*
X138432073Y-89722532D01*
X98435848Y-89722532D01*
X98437035Y-89327044D01*
X98017469Y-88305461D01*
X137759092Y-88305461D01*
X137783144Y-88955460D01*
X137985613Y-89444264D01*
X138252468Y-89542927D01*
X139225395Y-88570000D01*
X139584605Y-88570000D01*
X140557532Y-89542927D01*
X140824387Y-89444264D01*
X140849121Y-89377686D01*
X142557291Y-89377686D01*
X144000000Y-90820395D01*
X145442709Y-89377686D01*
X145264621Y-89043334D01*
X144419574Y-88708327D01*
X143510650Y-88722206D01*
X142735379Y-89043334D01*
X142557291Y-89377686D01*
X140849121Y-89377686D01*
X141050908Y-88834539D01*
X141028741Y-88235461D01*
X175354092Y-88235461D01*
X175378144Y-88885460D01*
X175580613Y-89374264D01*
X175847468Y-89472927D01*
X176820395Y-88500000D01*
X177179605Y-88500000D01*
X178152532Y-89472927D01*
X178419387Y-89374264D01*
X178645908Y-88764539D01*
X178621856Y-88114540D01*
X178419387Y-87625736D01*
X178208214Y-87547660D01*
X182727265Y-87547660D01*
X185000000Y-89820395D01*
X187272735Y-87547660D01*
X186954499Y-87093797D01*
X185693566Y-86567064D01*
X184327044Y-86562965D01*
X183062973Y-87082122D01*
X183045501Y-87093797D01*
X182727265Y-87547660D01*
X178208214Y-87547660D01*
X178152532Y-87527073D01*
X177179605Y-88500000D01*
X176820395Y-88500000D01*
X175847468Y-87527073D01*
X175580613Y-87625736D01*
X175354092Y-88235461D01*
X141028741Y-88235461D01*
X141026856Y-88184540D01*
X140824387Y-87695736D01*
X140557532Y-87597073D01*
X139584605Y-88570000D01*
X139225395Y-88570000D01*
X138252468Y-87597073D01*
X137985613Y-87695736D01*
X137759092Y-88305461D01*
X98017469Y-88305461D01*
X97917878Y-88062973D01*
X97906203Y-88045501D01*
X97452340Y-87727265D01*
X95179605Y-90000000D01*
X94820395Y-90000000D01*
X92547660Y-87727265D01*
X92093797Y-88045501D01*
X91567064Y-89306434D01*
X91562965Y-90672956D01*
X90710000Y-90672956D01*
X90710000Y-87547660D01*
X92727265Y-87547660D01*
X95000000Y-89820395D01*
X97272735Y-87547660D01*
X97181449Y-87417468D01*
X138432073Y-87417468D01*
X139405000Y-88390395D01*
X140377927Y-87417468D01*
X140352047Y-87347468D01*
X176027073Y-87347468D01*
X177000000Y-88320395D01*
X177972927Y-87347468D01*
X177874264Y-87080613D01*
X177264539Y-86854092D01*
X176614540Y-86878144D01*
X176125736Y-87080613D01*
X176027073Y-87347468D01*
X140352047Y-87347468D01*
X140279264Y-87150613D01*
X139669539Y-86924092D01*
X139019540Y-86948144D01*
X138530736Y-87150613D01*
X138432073Y-87417468D01*
X97181449Y-87417468D01*
X96954499Y-87093797D01*
X95693566Y-86567064D01*
X94327044Y-86562965D01*
X93062973Y-87082122D01*
X93045501Y-87093797D01*
X92727265Y-87547660D01*
X90710000Y-87547660D01*
X90710000Y-85710000D01*
X189290000Y-85710000D01*
X189290000Y-101075000D01*
X189290000Y-101075000D01*
G37*
X189290000Y-101075000D02*
X188869038Y-101075000D01*
X188807215Y-101013177D01*
X188745392Y-101075000D01*
X188670573Y-101075000D01*
X188564275Y-100834141D01*
X187864117Y-100565929D01*
X187114616Y-100586072D01*
X186515725Y-100834141D01*
X186409427Y-101075000D01*
X186334608Y-101075000D01*
X186272785Y-101013177D01*
X186210962Y-101075000D01*
X185873691Y-101075000D01*
X185640302Y-101171673D01*
X185461673Y-101350301D01*
X185365000Y-101583690D01*
X185365000Y-102174250D01*
X185523750Y-102333000D01*
X185651227Y-102333000D01*
X185658053Y-102587000D01*
X185523750Y-102587000D01*
X185365000Y-102745750D01*
X185365000Y-103336310D01*
X185387737Y-103391202D01*
X185326547Y-103365794D01*
X184676306Y-103365226D01*
X184075345Y-103613538D01*
X183615154Y-104072927D01*
X183365794Y-104673453D01*
X183365226Y-105323694D01*
X183613538Y-105924655D01*
X184072927Y-106384846D01*
X184673453Y-106634206D01*
X185323694Y-106634774D01*
X185387980Y-106608212D01*
X185365000Y-106663690D01*
X185365000Y-107254250D01*
X185523750Y-107413000D01*
X185651227Y-107413000D01*
X185658053Y-107667000D01*
X185523750Y-107667000D01*
X185365000Y-107825750D01*
X185365000Y-108416310D01*
X185461673Y-108649699D01*
X185640302Y-108828327D01*
X185873691Y-108925000D01*
X186210962Y-108925000D01*
X186272785Y-108986823D01*
X186334608Y-108925000D01*
X186409427Y-108925000D01*
X186515725Y-109165859D01*
X187215883Y-109434071D01*
X187965384Y-109413928D01*
X188564275Y-109165859D01*
X188670573Y-108925000D01*
X188745392Y-108925000D01*
X188807215Y-108986823D01*
X188869038Y-108925000D01*
X189290000Y-108925000D01*
X189290000Y-134290000D01*
X176425000Y-134290000D01*
X176425000Y-133869038D01*
X176486823Y-133807215D01*
X176425000Y-133745392D01*
X176425000Y-133670573D01*
X176665859Y-133564275D01*
X176934071Y-132864117D01*
X176923005Y-132452340D01*
X182727265Y-132452340D01*
X183045501Y-132906203D01*
X184306434Y-133432936D01*
X185672956Y-133437035D01*
X186937027Y-132917878D01*
X186954499Y-132906203D01*
X187272735Y-132452340D01*
X185000000Y-130179605D01*
X182727265Y-132452340D01*
X176923005Y-132452340D01*
X176913928Y-132114616D01*
X176665859Y-131515725D01*
X176425000Y-131409427D01*
X176425000Y-131334608D01*
X176486823Y-131272785D01*
X176425000Y-131210962D01*
X176425000Y-130873691D01*
X176341853Y-130672956D01*
X181562965Y-130672956D01*
X182082122Y-131937027D01*
X182093797Y-131954499D01*
X182547660Y-132272735D01*
X184820395Y-130000000D01*
X185179605Y-130000000D01*
X187452340Y-132272735D01*
X187906203Y-131954499D01*
X188432936Y-130693566D01*
X188437035Y-129327044D01*
X187917878Y-128062973D01*
X187906203Y-128045501D01*
X187452340Y-127727265D01*
X185179605Y-130000000D01*
X184820395Y-130000000D01*
X182547660Y-127727265D01*
X182093797Y-128045501D01*
X181567064Y-129306434D01*
X181562965Y-130672956D01*
X176341853Y-130672956D01*
X176328327Y-130640302D01*
X176149699Y-130461673D01*
X175916310Y-130365000D01*
X175325750Y-130365000D01*
X175167000Y-130523750D01*
X175167000Y-130651227D01*
X174913000Y-130658053D01*
X174913000Y-130523750D01*
X174754250Y-130365000D01*
X174163690Y-130365000D01*
X174108798Y-130387737D01*
X174134206Y-130326547D01*
X174134774Y-129676306D01*
X173886462Y-129075345D01*
X173604698Y-128793089D01*
X173886517Y-128793089D01*
X174015725Y-129085859D01*
X174715883Y-129354071D01*
X175465384Y-129333928D01*
X176064275Y-129085859D01*
X176193483Y-128793089D01*
X175040000Y-127639605D01*
X173886517Y-128793089D01*
X173604698Y-128793089D01*
X173427073Y-128615154D01*
X172826547Y-128365794D01*
X172176306Y-128365226D01*
X171575345Y-128613538D01*
X171115154Y-129072927D01*
X170865794Y-129673453D01*
X170865226Y-130323694D01*
X170891788Y-130387980D01*
X170836310Y-130365000D01*
X170245750Y-130365000D01*
X170087000Y-130523750D01*
X170087000Y-130651227D01*
X169833000Y-130658053D01*
X169833000Y-130523750D01*
X169674250Y-130365000D01*
X169083690Y-130365000D01*
X168850301Y-130461673D01*
X168671673Y-130640302D01*
X168575000Y-130873691D01*
X168575000Y-131210962D01*
X168513177Y-131272785D01*
X168575000Y-131334608D01*
X168575000Y-131409427D01*
X168334141Y-131515725D01*
X168065929Y-132215883D01*
X168086072Y-132965384D01*
X168334141Y-133564275D01*
X168575000Y-133670573D01*
X168575000Y-133745392D01*
X168513177Y-133807215D01*
X168575000Y-133869038D01*
X168575000Y-134290000D01*
X140925000Y-134290000D01*
X140925000Y-133869038D01*
X140986823Y-133807215D01*
X140925000Y-133745392D01*
X140925000Y-133670573D01*
X141165859Y-133564275D01*
X141434071Y-132864117D01*
X141413928Y-132114616D01*
X141165859Y-131515725D01*
X140925000Y-131409427D01*
X140925000Y-131334608D01*
X140986823Y-131272785D01*
X140925000Y-131210962D01*
X140925000Y-130873691D01*
X140828327Y-130640302D01*
X140649699Y-130461673D01*
X140416310Y-130365000D01*
X139825750Y-130365000D01*
X139667000Y-130523750D01*
X139667000Y-130651227D01*
X139413000Y-130658053D01*
X139413000Y-130523750D01*
X139254250Y-130365000D01*
X138663690Y-130365000D01*
X138608798Y-130387737D01*
X138634206Y-130326547D01*
X138634774Y-129676306D01*
X138386462Y-129075345D01*
X138104698Y-128793089D01*
X138386517Y-128793089D01*
X138515725Y-129085859D01*
X139215883Y-129354071D01*
X139965384Y-129333928D01*
X140564275Y-129085859D01*
X140693483Y-128793089D01*
X139540000Y-127639605D01*
X138386517Y-128793089D01*
X138104698Y-128793089D01*
X137927073Y-128615154D01*
X137326547Y-128365794D01*
X136676306Y-128365226D01*
X136075345Y-128613538D01*
X135615154Y-129072927D01*
X135365794Y-129673453D01*
X135365226Y-130323694D01*
X135391788Y-130387980D01*
X135336310Y-130365000D01*
X134745750Y-130365000D01*
X134587000Y-130523750D01*
X134587000Y-130651227D01*
X134333000Y-130658053D01*
X134333000Y-130523750D01*
X134174250Y-130365000D01*
X133583690Y-130365000D01*
X133350301Y-130461673D01*
X133171673Y-130640302D01*
X133075000Y-130873691D01*
X133075000Y-131210962D01*
X133013177Y-131272785D01*
X133075000Y-131334608D01*
X133075000Y-131409427D01*
X132834141Y-131515725D01*
X132565929Y-132215883D01*
X132586072Y-132965384D01*
X132834141Y-133564275D01*
X133075000Y-133670573D01*
X133075000Y-133745392D01*
X133013177Y-133807215D01*
X133075000Y-133869038D01*
X133075000Y-134290000D01*
X125925000Y-134290000D01*
X125925000Y-133869038D01*
X125986823Y-133807215D01*
X125925000Y-133745392D01*
X125925000Y-133670573D01*
X126165859Y-133564275D01*
X126434071Y-132864117D01*
X126413928Y-132114616D01*
X126165859Y-131515725D01*
X125925000Y-131409427D01*
X125925000Y-131334608D01*
X125986823Y-131272785D01*
X125925000Y-131210962D01*
X125925000Y-130873691D01*
X125828327Y-130640302D01*
X125649699Y-130461673D01*
X125416310Y-130365000D01*
X124825750Y-130365000D01*
X124667000Y-130523750D01*
X124667000Y-130651227D01*
X124413000Y-130658053D01*
X124413000Y-130523750D01*
X124254250Y-130365000D01*
X123663690Y-130365000D01*
X123608798Y-130387737D01*
X123634206Y-130326547D01*
X123634774Y-129676306D01*
X123386462Y-129075345D01*
X123104698Y-128793089D01*
X123386517Y-128793089D01*
X123515725Y-129085859D01*
X124215883Y-129354071D01*
X124965384Y-129333928D01*
X125564275Y-129085859D01*
X125693483Y-128793089D01*
X133306517Y-128793089D01*
X133435725Y-129085859D01*
X134135883Y-129354071D01*
X134885384Y-129333928D01*
X135484275Y-129085859D01*
X135613483Y-128793089D01*
X134460000Y-127639605D01*
X133306517Y-128793089D01*
X125693483Y-128793089D01*
X124540000Y-127639605D01*
X123386517Y-128793089D01*
X123104698Y-128793089D01*
X122927073Y-128615154D01*
X122326547Y-128365794D01*
X121676306Y-128365226D01*
X121075345Y-128613538D01*
X120615154Y-129072927D01*
X120365794Y-129673453D01*
X120365226Y-130323694D01*
X120391788Y-130387980D01*
X120336310Y-130365000D01*
X119745750Y-130365000D01*
X119587000Y-130523750D01*
X119587000Y-130651227D01*
X119333000Y-130658053D01*
X119333000Y-130523750D01*
X119174250Y-130365000D01*
X118583690Y-130365000D01*
X118350301Y-130461673D01*
X118171673Y-130640302D01*
X118075000Y-130873691D01*
X118075000Y-131210962D01*
X118013177Y-131272785D01*
X118075000Y-131334608D01*
X118075000Y-131409427D01*
X117834141Y-131515725D01*
X117565929Y-132215883D01*
X117586072Y-132965384D01*
X117834141Y-133564275D01*
X118075000Y-133670573D01*
X118075000Y-133745392D01*
X118013177Y-133807215D01*
X118075000Y-133869038D01*
X118075000Y-134290000D01*
X110925000Y-134290000D01*
X110925000Y-133869038D01*
X110986823Y-133807215D01*
X110925000Y-133745392D01*
X110925000Y-133670573D01*
X111165859Y-133564275D01*
X111434071Y-132864117D01*
X111413928Y-132114616D01*
X111165859Y-131515725D01*
X110925000Y-131409427D01*
X110925000Y-131334608D01*
X110986823Y-131272785D01*
X110925000Y-131210962D01*
X110925000Y-130873691D01*
X110828327Y-130640302D01*
X110649699Y-130461673D01*
X110416310Y-130365000D01*
X109825750Y-130365000D01*
X109667000Y-130523750D01*
X109667000Y-130651227D01*
X109413000Y-130658053D01*
X109413000Y-130523750D01*
X109254250Y-130365000D01*
X108663690Y-130365000D01*
X108608798Y-130387737D01*
X108634206Y-130326547D01*
X108634774Y-129676306D01*
X108386462Y-129075345D01*
X108104698Y-128793089D01*
X108386517Y-128793089D01*
X108515725Y-129085859D01*
X109215883Y-129354071D01*
X109965384Y-129333928D01*
X110564275Y-129085859D01*
X110693483Y-128793089D01*
X118306517Y-128793089D01*
X118435725Y-129085859D01*
X119135883Y-129354071D01*
X119885384Y-129333928D01*
X120484275Y-129085859D01*
X120613483Y-128793089D01*
X119460000Y-127639605D01*
X118306517Y-128793089D01*
X110693483Y-128793089D01*
X109540000Y-127639605D01*
X108386517Y-128793089D01*
X108104698Y-128793089D01*
X107927073Y-128615154D01*
X107326547Y-128365794D01*
X106676306Y-128365226D01*
X106075345Y-128613538D01*
X105615154Y-129072927D01*
X105365794Y-129673453D01*
X105365226Y-130323694D01*
X105391788Y-130387980D01*
X105336310Y-130365000D01*
X104745750Y-130365000D01*
X104587000Y-130523750D01*
X104587000Y-130651227D01*
X104333000Y-130658053D01*
X104333000Y-130523750D01*
X104174250Y-130365000D01*
X103583690Y-130365000D01*
X103350301Y-130461673D01*
X103171673Y-130640302D01*
X103075000Y-130873691D01*
X103075000Y-131210962D01*
X103013177Y-131272785D01*
X103075000Y-131334608D01*
X103075000Y-131409427D01*
X102834141Y-131515725D01*
X102565929Y-132215883D01*
X102586072Y-132965384D01*
X102834141Y-133564275D01*
X103075000Y-133670573D01*
X103075000Y-133745392D01*
X103013177Y-133807215D01*
X103075000Y-133869038D01*
X103075000Y-134290000D01*
X90710000Y-134290000D01*
X90710000Y-132452340D01*
X92727265Y-132452340D01*
X93045501Y-132906203D01*
X94306434Y-133432936D01*
X95672956Y-133437035D01*
X96937027Y-132917878D01*
X96954499Y-132906203D01*
X97272735Y-132452340D01*
X95000000Y-130179605D01*
X92727265Y-132452340D01*
X90710000Y-132452340D01*
X90710000Y-130672956D01*
X91562965Y-130672956D01*
X92082122Y-131937027D01*
X92093797Y-131954499D01*
X92547660Y-132272735D01*
X94820395Y-130000000D01*
X95179605Y-130000000D01*
X97452340Y-132272735D01*
X97906203Y-131954499D01*
X98432936Y-130693566D01*
X98437035Y-129327044D01*
X98217739Y-128793089D01*
X103306517Y-128793089D01*
X103435725Y-129085859D01*
X104135883Y-129354071D01*
X104885384Y-129333928D01*
X105484275Y-129085859D01*
X105613483Y-128793089D01*
X104460000Y-127639605D01*
X103306517Y-128793089D01*
X98217739Y-128793089D01*
X97917878Y-128062973D01*
X97906203Y-128045501D01*
X97452340Y-127727265D01*
X95179605Y-130000000D01*
X94820395Y-130000000D01*
X92547660Y-127727265D01*
X92093797Y-128045501D01*
X91567064Y-129306434D01*
X91562965Y-130672956D01*
X90710000Y-130672956D01*
X90710000Y-127547660D01*
X92727265Y-127547660D01*
X95000000Y-129820395D01*
X97272735Y-127547660D01*
X96984009Y-127135883D01*
X102565929Y-127135883D01*
X102586072Y-127885384D01*
X102834141Y-128484275D01*
X103126911Y-128613483D01*
X104280395Y-127460000D01*
X104639605Y-127460000D01*
X105793089Y-128613483D01*
X106085859Y-128484275D01*
X106354071Y-127784117D01*
X106336650Y-127135883D01*
X107645929Y-127135883D01*
X107666072Y-127885384D01*
X107914141Y-128484275D01*
X108206911Y-128613483D01*
X109360395Y-127460000D01*
X109719605Y-127460000D01*
X110873089Y-128613483D01*
X111165859Y-128484275D01*
X111434071Y-127784117D01*
X111416650Y-127135883D01*
X117565929Y-127135883D01*
X117586072Y-127885384D01*
X117834141Y-128484275D01*
X118126911Y-128613483D01*
X119280395Y-127460000D01*
X119639605Y-127460000D01*
X120793089Y-128613483D01*
X121085859Y-128484275D01*
X121354071Y-127784117D01*
X121336650Y-127135883D01*
X122645929Y-127135883D01*
X122666072Y-127885384D01*
X122914141Y-128484275D01*
X123206911Y-128613483D01*
X124360395Y-127460000D01*
X124719605Y-127460000D01*
X125873089Y-128613483D01*
X126165859Y-128484275D01*
X126434071Y-127784117D01*
X126416650Y-127135883D01*
X132565929Y-127135883D01*
X132586072Y-127885384D01*
X132834141Y-128484275D01*
X133126911Y-128613483D01*
X134280395Y-127460000D01*
X134639605Y-127460000D01*
X135793089Y-128613483D01*
X136085859Y-128484275D01*
X136354071Y-127784117D01*
X136336650Y-127135883D01*
X137645929Y-127135883D01*
X137666072Y-127885384D01*
X137914141Y-128484275D01*
X138206911Y-128613483D01*
X139360395Y-127460000D01*
X139719605Y-127460000D01*
X140873089Y-128613483D01*
X141165859Y-128484275D01*
X141434071Y-127784117D01*
X141413928Y-127034616D01*
X141165859Y-126435725D01*
X140873089Y-126306517D01*
X139719605Y-127460000D01*
X139360395Y-127460000D01*
X138206911Y-126306517D01*
X137914141Y-126435725D01*
X137645929Y-127135883D01*
X136336650Y-127135883D01*
X136333928Y-127034616D01*
X136085859Y-126435725D01*
X135793089Y-126306517D01*
X134639605Y-127460000D01*
X134280395Y-127460000D01*
X133126911Y-126306517D01*
X132834141Y-126435725D01*
X132565929Y-127135883D01*
X126416650Y-127135883D01*
X126413928Y-127034616D01*
X126165859Y-126435725D01*
X125873089Y-126306517D01*
X124719605Y-127460000D01*
X124360395Y-127460000D01*
X123206911Y-126306517D01*
X122914141Y-126435725D01*
X122645929Y-127135883D01*
X121336650Y-127135883D01*
X121333928Y-127034616D01*
X121085859Y-126435725D01*
X120793089Y-126306517D01*
X119639605Y-127460000D01*
X119280395Y-127460000D01*
X118126911Y-126306517D01*
X117834141Y-126435725D01*
X117565929Y-127135883D01*
X111416650Y-127135883D01*
X111413928Y-127034616D01*
X111165859Y-126435725D01*
X110873089Y-126306517D01*
X109719605Y-127460000D01*
X109360395Y-127460000D01*
X108206911Y-126306517D01*
X107914141Y-126435725D01*
X107645929Y-127135883D01*
X106336650Y-127135883D01*
X106333928Y-127034616D01*
X106085859Y-126435725D01*
X105793089Y-126306517D01*
X104639605Y-127460000D01*
X104280395Y-127460000D01*
X103126911Y-126306517D01*
X102834141Y-126435725D01*
X102565929Y-127135883D01*
X96984009Y-127135883D01*
X96954499Y-127093797D01*
X95693566Y-126567064D01*
X94327044Y-126562965D01*
X93062973Y-127082122D01*
X93045501Y-127093797D01*
X92727265Y-127547660D01*
X90710000Y-127547660D01*
X90710000Y-126126911D01*
X103306517Y-126126911D01*
X104460000Y-127280395D01*
X105613483Y-126126911D01*
X108386517Y-126126911D01*
X109540000Y-127280395D01*
X110693483Y-126126911D01*
X118306517Y-126126911D01*
X119460000Y-127280395D01*
X120613483Y-126126911D01*
X123386517Y-126126911D01*
X124540000Y-127280395D01*
X125693483Y-126126911D01*
X133306517Y-126126911D01*
X134460000Y-127280395D01*
X135613483Y-126126911D01*
X138386517Y-126126911D01*
X139540000Y-127280395D01*
X140693483Y-126126911D01*
X140564275Y-125834141D01*
X139864117Y-125565929D01*
X139114616Y-125586072D01*
X138515725Y-125834141D01*
X138386517Y-126126911D01*
X135613483Y-126126911D01*
X135484275Y-125834141D01*
X134784117Y-125565929D01*
X134034616Y-125586072D01*
X133435725Y-125834141D01*
X133306517Y-126126911D01*
X125693483Y-126126911D01*
X125564275Y-125834141D01*
X124864117Y-125565929D01*
X124114616Y-125586072D01*
X123515725Y-125834141D01*
X123386517Y-126126911D01*
X120613483Y-126126911D01*
X120484275Y-125834141D01*
X119784117Y-125565929D01*
X119034616Y-125586072D01*
X118435725Y-125834141D01*
X118306517Y-126126911D01*
X110693483Y-126126911D01*
X110564275Y-125834141D01*
X109864117Y-125565929D01*
X109114616Y-125586072D01*
X108515725Y-125834141D01*
X108386517Y-126126911D01*
X105613483Y-126126911D01*
X105484275Y-125834141D01*
X104784117Y-125565929D01*
X104034616Y-125586072D01*
X103435725Y-125834141D01*
X103306517Y-126126911D01*
X90710000Y-126126911D01*
X90710000Y-118263991D01*
X112964735Y-118263991D01*
X113197932Y-118828371D01*
X113629357Y-119260551D01*
X114193330Y-119494733D01*
X114803991Y-119495265D01*
X115368371Y-119262068D01*
X115702560Y-118928463D01*
X115702560Y-119400000D01*
X115746838Y-119635317D01*
X115885910Y-119851441D01*
X116098110Y-119996431D01*
X116111197Y-119999081D01*
X115898559Y-120135910D01*
X115753569Y-120348110D01*
X115702560Y-120600000D01*
X115702560Y-121042308D01*
X115112577Y-121632291D01*
X114806670Y-121505267D01*
X114196009Y-121504735D01*
X113631629Y-121737932D01*
X113199449Y-122169357D01*
X112965267Y-122733330D01*
X112964735Y-123343991D01*
X113197932Y-123908371D01*
X113629357Y-124340551D01*
X114193330Y-124574733D01*
X114803991Y-124575265D01*
X115368371Y-124342068D01*
X115591904Y-124118926D01*
X115744346Y-124088603D01*
X116112566Y-123842566D01*
X117207692Y-122747440D01*
X117650000Y-122747440D01*
X117885317Y-122703162D01*
X118101441Y-122564090D01*
X118137386Y-122511483D01*
X118045267Y-122733330D01*
X118044735Y-123343991D01*
X118277932Y-123908371D01*
X118709357Y-124340551D01*
X119273330Y-124574733D01*
X119883991Y-124575265D01*
X120448371Y-124342068D01*
X120840305Y-123950818D01*
X121229357Y-124340551D01*
X121793330Y-124574733D01*
X122403991Y-124575265D01*
X122968371Y-124342068D01*
X123380340Y-123930818D01*
X123789357Y-124340551D01*
X124353330Y-124574733D01*
X124963991Y-124575265D01*
X125528371Y-124342068D01*
X125960551Y-123910643D01*
X126194733Y-123346670D01*
X126195265Y-122736009D01*
X125962068Y-122171629D01*
X125530643Y-121739449D01*
X124966670Y-121505267D01*
X124356009Y-121504735D01*
X123791629Y-121737932D01*
X123379660Y-122149182D01*
X122970643Y-121739449D01*
X122406670Y-121505267D01*
X121796009Y-121504735D01*
X121231629Y-121737932D01*
X120839695Y-122129182D01*
X120450643Y-121739449D01*
X119886670Y-121505267D01*
X119276009Y-121504735D01*
X118711629Y-121737932D01*
X118284395Y-122164420D01*
X118297440Y-122100000D01*
X118297440Y-120600000D01*
X118253162Y-120364683D01*
X118114090Y-120148559D01*
X117901890Y-120003569D01*
X117888803Y-120000919D01*
X118101441Y-119864090D01*
X118246431Y-119651890D01*
X118297440Y-119400000D01*
X118297440Y-118847913D01*
X118709357Y-119260551D01*
X119273330Y-119494733D01*
X119883991Y-119495265D01*
X120448371Y-119262068D01*
X120850323Y-118860818D01*
X121249357Y-119260551D01*
X121813330Y-119494733D01*
X122423991Y-119495265D01*
X122988371Y-119262068D01*
X123390323Y-118860818D01*
X123789357Y-119260551D01*
X124353330Y-119494733D01*
X124963991Y-119495265D01*
X125528371Y-119262068D01*
X125960551Y-118830643D01*
X126194733Y-118266670D01*
X126195265Y-117656009D01*
X125962068Y-117091629D01*
X125530643Y-116659449D01*
X124966670Y-116425267D01*
X124356009Y-116424735D01*
X123791629Y-116657932D01*
X123389677Y-117059182D01*
X122990643Y-116659449D01*
X122426670Y-116425267D01*
X121816009Y-116424735D01*
X121251629Y-116657932D01*
X120849677Y-117059182D01*
X120450643Y-116659449D01*
X119886670Y-116425267D01*
X119276009Y-116424735D01*
X118711629Y-116657932D01*
X118279449Y-117089357D01*
X118135000Y-117437229D01*
X118135000Y-116970132D01*
X120970133Y-114135000D01*
X130029868Y-114135000D01*
X145365000Y-129470132D01*
X145365000Y-130500000D01*
X145451397Y-130934346D01*
X145585470Y-131135000D01*
X145697434Y-131302566D01*
X147697434Y-133302566D01*
X148065654Y-133548603D01*
X148500000Y-133635000D01*
X152180000Y-133635000D01*
X152614346Y-133548603D01*
X152982566Y-133302566D01*
X153182566Y-133102566D01*
X153294967Y-132934346D01*
X153428603Y-132734346D01*
X153515000Y-132300000D01*
X153515000Y-131508141D01*
X153536120Y-131494029D01*
X153663219Y-131303812D01*
X153853683Y-131545922D01*
X154411645Y-131859144D01*
X154539566Y-131890124D01*
X154793000Y-131770777D01*
X154793000Y-130127000D01*
X154773000Y-130127000D01*
X154773000Y-129873000D01*
X154793000Y-129873000D01*
X154793000Y-128229223D01*
X155047000Y-128229223D01*
X155047000Y-129873000D01*
X155067000Y-129873000D01*
X155067000Y-130127000D01*
X155047000Y-130127000D01*
X155047000Y-131770777D01*
X155300434Y-131890124D01*
X155428355Y-131859144D01*
X155986317Y-131545922D01*
X156176781Y-131303812D01*
X156303880Y-131494029D01*
X156834313Y-131848452D01*
X157460000Y-131972909D01*
X158085687Y-131848452D01*
X158444192Y-131608907D01*
X158535910Y-131751441D01*
X158748110Y-131896431D01*
X159000000Y-131947440D01*
X161000000Y-131947440D01*
X161235317Y-131903162D01*
X161451441Y-131764090D01*
X161596431Y-131551890D01*
X161647440Y-131300000D01*
X161647440Y-128793089D01*
X168806517Y-128793089D01*
X168935725Y-129085859D01*
X169635883Y-129354071D01*
X170385384Y-129333928D01*
X170984275Y-129085859D01*
X171113483Y-128793089D01*
X169960000Y-127639605D01*
X168806517Y-128793089D01*
X161647440Y-128793089D01*
X161647440Y-128700000D01*
X161603162Y-128464683D01*
X161464090Y-128248559D01*
X161251890Y-128103569D01*
X161000000Y-128052560D01*
X159000000Y-128052560D01*
X158764683Y-128096838D01*
X158548559Y-128235910D01*
X158443049Y-128390329D01*
X158085687Y-128151548D01*
X157460000Y-128027091D01*
X156834313Y-128151548D01*
X156303880Y-128505971D01*
X156176781Y-128696188D01*
X155986317Y-128454078D01*
X155428355Y-128140856D01*
X155300434Y-128109876D01*
X155047000Y-128229223D01*
X154793000Y-128229223D01*
X154539566Y-128109876D01*
X154481096Y-128124036D01*
X155469249Y-127135883D01*
X168065929Y-127135883D01*
X168086072Y-127885384D01*
X168334141Y-128484275D01*
X168626911Y-128613483D01*
X169780395Y-127460000D01*
X170139605Y-127460000D01*
X171293089Y-128613483D01*
X171585859Y-128484275D01*
X171854071Y-127784117D01*
X171836650Y-127135883D01*
X173145929Y-127135883D01*
X173166072Y-127885384D01*
X173414141Y-128484275D01*
X173706911Y-128613483D01*
X174860395Y-127460000D01*
X175219605Y-127460000D01*
X176373089Y-128613483D01*
X176665859Y-128484275D01*
X176934071Y-127784117D01*
X176927717Y-127547660D01*
X182727265Y-127547660D01*
X185000000Y-129820395D01*
X187272735Y-127547660D01*
X186954499Y-127093797D01*
X185693566Y-126567064D01*
X184327044Y-126562965D01*
X183062973Y-127082122D01*
X183045501Y-127093797D01*
X182727265Y-127547660D01*
X176927717Y-127547660D01*
X176913928Y-127034616D01*
X176665859Y-126435725D01*
X176373089Y-126306517D01*
X175219605Y-127460000D01*
X174860395Y-127460000D01*
X173706911Y-126306517D01*
X173414141Y-126435725D01*
X173145929Y-127135883D01*
X171836650Y-127135883D01*
X171833928Y-127034616D01*
X171585859Y-126435725D01*
X171293089Y-126306517D01*
X170139605Y-127460000D01*
X169780395Y-127460000D01*
X168626911Y-126306517D01*
X168334141Y-126435725D01*
X168065929Y-127135883D01*
X155469249Y-127135883D01*
X156302566Y-126302566D01*
X156419935Y-126126911D01*
X168806517Y-126126911D01*
X169960000Y-127280395D01*
X171113483Y-126126911D01*
X173886517Y-126126911D01*
X175040000Y-127280395D01*
X176193483Y-126126911D01*
X176064275Y-125834141D01*
X175364117Y-125565929D01*
X174614616Y-125586072D01*
X174015725Y-125834141D01*
X173886517Y-126126911D01*
X171113483Y-126126911D01*
X170984275Y-125834141D01*
X170284117Y-125565929D01*
X169534616Y-125586072D01*
X168935725Y-125834141D01*
X168806517Y-126126911D01*
X156419935Y-126126911D01*
X156548603Y-125934346D01*
X156568535Y-125834141D01*
X156635000Y-125500000D01*
X156635000Y-119000000D01*
X156548603Y-118565654D01*
X156302566Y-118197434D01*
X155934346Y-117951397D01*
X155500000Y-117865000D01*
X155065654Y-117951397D01*
X154697434Y-118197434D01*
X154451397Y-118565654D01*
X154365000Y-119000000D01*
X154365000Y-125029868D01*
X151577434Y-127817434D01*
X151331397Y-128185654D01*
X151274396Y-128472217D01*
X151223880Y-128505971D01*
X151110000Y-128676405D01*
X150996120Y-128505971D01*
X150465687Y-128151548D01*
X149840000Y-128027091D01*
X149666696Y-128061563D01*
X131802566Y-110197434D01*
X131434346Y-109951397D01*
X131000000Y-109865000D01*
X120000000Y-109865000D01*
X119565655Y-109951396D01*
X119197434Y-110197434D01*
X113697434Y-115697434D01*
X113451397Y-116065654D01*
X113365000Y-116500000D01*
X113365000Y-116924095D01*
X113199449Y-117089357D01*
X112965267Y-117653330D01*
X112964735Y-118263991D01*
X90710000Y-118263991D01*
X90710000Y-108925000D01*
X91130962Y-108925000D01*
X91192785Y-108986823D01*
X91254608Y-108925000D01*
X91329427Y-108925000D01*
X91435725Y-109165859D01*
X92135883Y-109434071D01*
X92885384Y-109413928D01*
X93484275Y-109165859D01*
X93590573Y-108925000D01*
X93665392Y-108925000D01*
X93727215Y-108986823D01*
X93789038Y-108925000D01*
X94126309Y-108925000D01*
X94251633Y-108873089D01*
X96386517Y-108873089D01*
X96515725Y-109165859D01*
X97215883Y-109434071D01*
X97965384Y-109413928D01*
X98564275Y-109165859D01*
X98693483Y-108873089D01*
X97540000Y-107719605D01*
X96386517Y-108873089D01*
X94251633Y-108873089D01*
X94359698Y-108828327D01*
X94538327Y-108649699D01*
X94635000Y-108416310D01*
X94635000Y-107825750D01*
X94476250Y-107667000D01*
X94348773Y-107667000D01*
X94341947Y-107413000D01*
X94476250Y-107413000D01*
X94635000Y-107254250D01*
X94635000Y-107215883D01*
X95645929Y-107215883D01*
X95666072Y-107965384D01*
X95914141Y-108564275D01*
X96206911Y-108693483D01*
X97360395Y-107540000D01*
X97719605Y-107540000D01*
X98873089Y-108693483D01*
X99034349Y-108622314D01*
X128557291Y-108622314D01*
X128735379Y-108956666D01*
X129580426Y-109291673D01*
X130489350Y-109277794D01*
X131264621Y-108956666D01*
X131309137Y-108873089D01*
X181306517Y-108873089D01*
X181435725Y-109165859D01*
X182135883Y-109434071D01*
X182885384Y-109413928D01*
X183484275Y-109165859D01*
X183613483Y-108873089D01*
X182460000Y-107719605D01*
X181306517Y-108873089D01*
X131309137Y-108873089D01*
X131442709Y-108622314D01*
X130000000Y-107179605D01*
X128557291Y-108622314D01*
X99034349Y-108622314D01*
X99165859Y-108564275D01*
X99434071Y-107864117D01*
X99413928Y-107114616D01*
X99192660Y-106580426D01*
X127708327Y-106580426D01*
X127722206Y-107489350D01*
X128043334Y-108264621D01*
X128377686Y-108442709D01*
X129820395Y-107000000D01*
X130179605Y-107000000D01*
X131622314Y-108442709D01*
X131956666Y-108264621D01*
X132291673Y-107419574D01*
X132288563Y-107215883D01*
X180565929Y-107215883D01*
X180586072Y-107965384D01*
X180834141Y-108564275D01*
X181126911Y-108693483D01*
X182280395Y-107540000D01*
X182639605Y-107540000D01*
X183793089Y-108693483D01*
X184085859Y-108564275D01*
X184354071Y-107864117D01*
X184333928Y-107114616D01*
X184085859Y-106515725D01*
X183793089Y-106386517D01*
X182639605Y-107540000D01*
X182280395Y-107540000D01*
X181126911Y-106386517D01*
X180834141Y-106515725D01*
X180565929Y-107215883D01*
X132288563Y-107215883D01*
X132277794Y-106510650D01*
X132151982Y-106206911D01*
X181306517Y-106206911D01*
X182460000Y-107360395D01*
X183613483Y-106206911D01*
X183484275Y-105914141D01*
X182784117Y-105645929D01*
X182034616Y-105666072D01*
X181435725Y-105914141D01*
X181306517Y-106206911D01*
X132151982Y-106206911D01*
X131956666Y-105735379D01*
X131622314Y-105557291D01*
X130179605Y-107000000D01*
X129820395Y-107000000D01*
X128377686Y-105557291D01*
X128043334Y-105735379D01*
X127708327Y-106580426D01*
X99192660Y-106580426D01*
X99165859Y-106515725D01*
X98873089Y-106386517D01*
X97719605Y-107540000D01*
X97360395Y-107540000D01*
X96206911Y-106386517D01*
X95914141Y-106515725D01*
X95645929Y-107215883D01*
X94635000Y-107215883D01*
X94635000Y-106663690D01*
X94612263Y-106608798D01*
X94673453Y-106634206D01*
X95323694Y-106634774D01*
X95924655Y-106386462D01*
X96104519Y-106206911D01*
X96386517Y-106206911D01*
X97540000Y-107360395D01*
X98693483Y-106206911D01*
X98564275Y-105914141D01*
X97864117Y-105645929D01*
X97114616Y-105666072D01*
X96515725Y-105914141D01*
X96386517Y-106206911D01*
X96104519Y-106206911D01*
X96384846Y-105927073D01*
X96612971Y-105377686D01*
X128557291Y-105377686D01*
X130000000Y-106820395D01*
X131442709Y-105377686D01*
X131264621Y-105043334D01*
X130419574Y-104708327D01*
X129510650Y-104722206D01*
X128735379Y-105043334D01*
X128557291Y-105377686D01*
X96612971Y-105377686D01*
X96634206Y-105326547D01*
X96634774Y-104676306D01*
X96386462Y-104075345D01*
X96104698Y-103793089D01*
X96386517Y-103793089D01*
X96515725Y-104085859D01*
X97215883Y-104354071D01*
X97965384Y-104333928D01*
X98564275Y-104085859D01*
X98693483Y-103793089D01*
X181306517Y-103793089D01*
X181435725Y-104085859D01*
X182135883Y-104354071D01*
X182885384Y-104333928D01*
X183484275Y-104085859D01*
X183613483Y-103793089D01*
X182460000Y-102639605D01*
X181306517Y-103793089D01*
X98693483Y-103793089D01*
X97540000Y-102639605D01*
X96386517Y-103793089D01*
X96104698Y-103793089D01*
X95927073Y-103615154D01*
X95326547Y-103365794D01*
X94676306Y-103365226D01*
X94612020Y-103391788D01*
X94635000Y-103336310D01*
X94635000Y-102745750D01*
X94476250Y-102587000D01*
X94348773Y-102587000D01*
X94341947Y-102333000D01*
X94476250Y-102333000D01*
X94635000Y-102174250D01*
X94635000Y-102135883D01*
X95645929Y-102135883D01*
X95666072Y-102885384D01*
X95914141Y-103484275D01*
X96206911Y-103613483D01*
X97360395Y-102460000D01*
X97719605Y-102460000D01*
X98873089Y-103613483D01*
X99165859Y-103484275D01*
X99434071Y-102784117D01*
X99416650Y-102135883D01*
X180565929Y-102135883D01*
X180586072Y-102885384D01*
X180834141Y-103484275D01*
X181126911Y-103613483D01*
X182280395Y-102460000D01*
X182639605Y-102460000D01*
X183793089Y-103613483D01*
X184085859Y-103484275D01*
X184354071Y-102784117D01*
X184333928Y-102034616D01*
X184085859Y-101435725D01*
X183793089Y-101306517D01*
X182639605Y-102460000D01*
X182280395Y-102460000D01*
X181126911Y-101306517D01*
X180834141Y-101435725D01*
X180565929Y-102135883D01*
X99416650Y-102135883D01*
X99413928Y-102034616D01*
X99165859Y-101435725D01*
X98873089Y-101306517D01*
X97719605Y-102460000D01*
X97360395Y-102460000D01*
X96206911Y-101306517D01*
X95914141Y-101435725D01*
X95645929Y-102135883D01*
X94635000Y-102135883D01*
X94635000Y-101583690D01*
X94538327Y-101350301D01*
X94359698Y-101171673D01*
X94251634Y-101126911D01*
X96386517Y-101126911D01*
X97540000Y-102280395D01*
X98693483Y-101126911D01*
X181306517Y-101126911D01*
X182460000Y-102280395D01*
X183613483Y-101126911D01*
X183484275Y-100834141D01*
X182784117Y-100565929D01*
X182034616Y-100586072D01*
X181435725Y-100834141D01*
X181306517Y-101126911D01*
X98693483Y-101126911D01*
X98564275Y-100834141D01*
X97864117Y-100565929D01*
X97114616Y-100586072D01*
X96515725Y-100834141D01*
X96386517Y-101126911D01*
X94251634Y-101126911D01*
X94126309Y-101075000D01*
X93789038Y-101075000D01*
X93727215Y-101013177D01*
X93665392Y-101075000D01*
X93590573Y-101075000D01*
X93484275Y-100834141D01*
X92784117Y-100565929D01*
X92034616Y-100586072D01*
X91435725Y-100834141D01*
X91329427Y-101075000D01*
X91254608Y-101075000D01*
X91192785Y-101013177D01*
X91130962Y-101075000D01*
X90710000Y-101075000D01*
X90710000Y-92452340D01*
X92727265Y-92452340D01*
X93045501Y-92906203D01*
X94306434Y-93432936D01*
X95672956Y-93437035D01*
X96937027Y-92917878D01*
X96954499Y-92906203D01*
X97153554Y-92622314D01*
X142557291Y-92622314D01*
X142735379Y-92956666D01*
X143580426Y-93291673D01*
X144489350Y-93277794D01*
X145264621Y-92956666D01*
X145442709Y-92622314D01*
X145272735Y-92452340D01*
X182727265Y-92452340D01*
X183045501Y-92906203D01*
X184306434Y-93432936D01*
X185672956Y-93437035D01*
X186937027Y-92917878D01*
X186954499Y-92906203D01*
X187272735Y-92452340D01*
X185000000Y-90179605D01*
X182727265Y-92452340D01*
X145272735Y-92452340D01*
X144000000Y-91179605D01*
X142557291Y-92622314D01*
X97153554Y-92622314D01*
X97272735Y-92452340D01*
X95000000Y-90179605D01*
X92727265Y-92452340D01*
X90710000Y-92452340D01*
X90710000Y-90672956D01*
X91562965Y-90672956D01*
X92082122Y-91937027D01*
X92093797Y-91954499D01*
X92547660Y-92272735D01*
X94820395Y-90000000D01*
X95179605Y-90000000D01*
X97452340Y-92272735D01*
X97906203Y-91954499D01*
X98432936Y-90693566D01*
X98433275Y-90580426D01*
X141708327Y-90580426D01*
X141722206Y-91489350D01*
X142043334Y-92264621D01*
X142377686Y-92442709D01*
X143820395Y-91000000D01*
X144179605Y-91000000D01*
X145622314Y-92442709D01*
X145956666Y-92264621D01*
X146291673Y-91419574D01*
X146280273Y-90672956D01*
X181562965Y-90672956D01*
X182082122Y-91937027D01*
X182093797Y-91954499D01*
X182547660Y-92272735D01*
X184820395Y-90000000D01*
X185179605Y-90000000D01*
X187452340Y-92272735D01*
X187906203Y-91954499D01*
X188432936Y-90693566D01*
X188437035Y-89327044D01*
X187917878Y-88062973D01*
X187906203Y-88045501D01*
X187452340Y-87727265D01*
X185179605Y-90000000D01*
X184820395Y-90000000D01*
X182547660Y-87727265D01*
X182093797Y-88045501D01*
X181567064Y-89306434D01*
X181562965Y-90672956D01*
X146280273Y-90672956D01*
X146277794Y-90510650D01*
X145956666Y-89735379D01*
X145801125Y-89652532D01*
X176027073Y-89652532D01*
X176125736Y-89919387D01*
X176735461Y-90145908D01*
X177385460Y-90121856D01*
X177874264Y-89919387D01*
X177972927Y-89652532D01*
X177000000Y-88679605D01*
X176027073Y-89652532D01*
X145801125Y-89652532D01*
X145622314Y-89557291D01*
X144179605Y-91000000D01*
X143820395Y-91000000D01*
X142377686Y-89557291D01*
X142043334Y-89735379D01*
X141708327Y-90580426D01*
X98433275Y-90580426D01*
X98435848Y-89722532D01*
X138432073Y-89722532D01*
X138530736Y-89989387D01*
X139140461Y-90215908D01*
X139790460Y-90191856D01*
X140279264Y-89989387D01*
X140377927Y-89722532D01*
X139405000Y-88749605D01*
X138432073Y-89722532D01*
X98435848Y-89722532D01*
X98437035Y-89327044D01*
X98017469Y-88305461D01*
X137759092Y-88305461D01*
X137783144Y-88955460D01*
X137985613Y-89444264D01*
X138252468Y-89542927D01*
X139225395Y-88570000D01*
X139584605Y-88570000D01*
X140557532Y-89542927D01*
X140824387Y-89444264D01*
X140849121Y-89377686D01*
X142557291Y-89377686D01*
X144000000Y-90820395D01*
X145442709Y-89377686D01*
X145264621Y-89043334D01*
X144419574Y-88708327D01*
X143510650Y-88722206D01*
X142735379Y-89043334D01*
X142557291Y-89377686D01*
X140849121Y-89377686D01*
X141050908Y-88834539D01*
X141028741Y-88235461D01*
X175354092Y-88235461D01*
X175378144Y-88885460D01*
X175580613Y-89374264D01*
X175847468Y-89472927D01*
X176820395Y-88500000D01*
X177179605Y-88500000D01*
X178152532Y-89472927D01*
X178419387Y-89374264D01*
X178645908Y-88764539D01*
X178621856Y-88114540D01*
X178419387Y-87625736D01*
X178208214Y-87547660D01*
X182727265Y-87547660D01*
X185000000Y-89820395D01*
X187272735Y-87547660D01*
X186954499Y-87093797D01*
X185693566Y-86567064D01*
X184327044Y-86562965D01*
X183062973Y-87082122D01*
X183045501Y-87093797D01*
X182727265Y-87547660D01*
X178208214Y-87547660D01*
X178152532Y-87527073D01*
X177179605Y-88500000D01*
X176820395Y-88500000D01*
X175847468Y-87527073D01*
X175580613Y-87625736D01*
X175354092Y-88235461D01*
X141028741Y-88235461D01*
X141026856Y-88184540D01*
X140824387Y-87695736D01*
X140557532Y-87597073D01*
X139584605Y-88570000D01*
X139225395Y-88570000D01*
X138252468Y-87597073D01*
X137985613Y-87695736D01*
X137759092Y-88305461D01*
X98017469Y-88305461D01*
X97917878Y-88062973D01*
X97906203Y-88045501D01*
X97452340Y-87727265D01*
X95179605Y-90000000D01*
X94820395Y-90000000D01*
X92547660Y-87727265D01*
X92093797Y-88045501D01*
X91567064Y-89306434D01*
X91562965Y-90672956D01*
X90710000Y-90672956D01*
X90710000Y-87547660D01*
X92727265Y-87547660D01*
X95000000Y-89820395D01*
X97272735Y-87547660D01*
X97181449Y-87417468D01*
X138432073Y-87417468D01*
X139405000Y-88390395D01*
X140377927Y-87417468D01*
X140352047Y-87347468D01*
X176027073Y-87347468D01*
X177000000Y-88320395D01*
X177972927Y-87347468D01*
X177874264Y-87080613D01*
X177264539Y-86854092D01*
X176614540Y-86878144D01*
X176125736Y-87080613D01*
X176027073Y-87347468D01*
X140352047Y-87347468D01*
X140279264Y-87150613D01*
X139669539Y-86924092D01*
X139019540Y-86948144D01*
X138530736Y-87150613D01*
X138432073Y-87417468D01*
X97181449Y-87417468D01*
X96954499Y-87093797D01*
X95693566Y-86567064D01*
X94327044Y-86562965D01*
X93062973Y-87082122D01*
X93045501Y-87093797D01*
X92727265Y-87547660D01*
X90710000Y-87547660D01*
X90710000Y-85710000D01*
X189290000Y-85710000D01*
X189290000Y-101075000D01*
G36*
X119587000Y-132459110D02*
X119587000Y-132620890D01*
X119474143Y-132733748D01*
X119460000Y-132719605D01*
X119445858Y-132733748D01*
X119333000Y-132620890D01*
X119333000Y-132459110D01*
X119445858Y-132346253D01*
X119460000Y-132360395D01*
X119474143Y-132346253D01*
X119587000Y-132459110D01*
X119587000Y-132459110D01*
G37*
X119587000Y-132459110D02*
X119587000Y-132620890D01*
X119474143Y-132733748D01*
X119460000Y-132719605D01*
X119445858Y-132733748D01*
X119333000Y-132620890D01*
X119333000Y-132459110D01*
X119445858Y-132346253D01*
X119460000Y-132360395D01*
X119474143Y-132346253D01*
X119587000Y-132459110D01*
G36*
X170087000Y-132459110D02*
X170087000Y-132620890D01*
X169974143Y-132733748D01*
X169960000Y-132719605D01*
X169945858Y-132733748D01*
X169833000Y-132620890D01*
X169833000Y-132459110D01*
X169945858Y-132346253D01*
X169960000Y-132360395D01*
X169974143Y-132346253D01*
X170087000Y-132459110D01*
X170087000Y-132459110D01*
G37*
X170087000Y-132459110D02*
X170087000Y-132620890D01*
X169974143Y-132733748D01*
X169960000Y-132719605D01*
X169945858Y-132733748D01*
X169833000Y-132620890D01*
X169833000Y-132459110D01*
X169945858Y-132346253D01*
X169960000Y-132360395D01*
X169974143Y-132346253D01*
X170087000Y-132459110D01*
G36*
X109667000Y-132459110D02*
X109667000Y-132620890D01*
X109554143Y-132733748D01*
X109540000Y-132719605D01*
X109525858Y-132733748D01*
X109413000Y-132620890D01*
X109413000Y-132459110D01*
X109525858Y-132346253D01*
X109540000Y-132360395D01*
X109554143Y-132346253D01*
X109667000Y-132459110D01*
X109667000Y-132459110D01*
G37*
X109667000Y-132459110D02*
X109667000Y-132620890D01*
X109554143Y-132733748D01*
X109540000Y-132719605D01*
X109525858Y-132733748D01*
X109413000Y-132620890D01*
X109413000Y-132459110D01*
X109525858Y-132346253D01*
X109540000Y-132360395D01*
X109554143Y-132346253D01*
X109667000Y-132459110D01*
G36*
X175167000Y-132459110D02*
X175167000Y-132620890D01*
X175054143Y-132733748D01*
X175040000Y-132719605D01*
X175025858Y-132733748D01*
X174913000Y-132620890D01*
X174913000Y-132459110D01*
X175025858Y-132346253D01*
X175040000Y-132360395D01*
X175054143Y-132346253D01*
X175167000Y-132459110D01*
X175167000Y-132459110D01*
G37*
X175167000Y-132459110D02*
X175167000Y-132620890D01*
X175054143Y-132733748D01*
X175040000Y-132719605D01*
X175025858Y-132733748D01*
X174913000Y-132620890D01*
X174913000Y-132459110D01*
X175025858Y-132346253D01*
X175040000Y-132360395D01*
X175054143Y-132346253D01*
X175167000Y-132459110D01*
G36*
X104587000Y-132459110D02*
X104587000Y-132620890D01*
X104474143Y-132733748D01*
X104460000Y-132719605D01*
X104445858Y-132733748D01*
X104333000Y-132620890D01*
X104333000Y-132459110D01*
X104445858Y-132346253D01*
X104460000Y-132360395D01*
X104474143Y-132346253D01*
X104587000Y-132459110D01*
X104587000Y-132459110D01*
G37*
X104587000Y-132459110D02*
X104587000Y-132620890D01*
X104474143Y-132733748D01*
X104460000Y-132719605D01*
X104445858Y-132733748D01*
X104333000Y-132620890D01*
X104333000Y-132459110D01*
X104445858Y-132346253D01*
X104460000Y-132360395D01*
X104474143Y-132346253D01*
X104587000Y-132459110D01*
G36*
X139667000Y-132459110D02*
X139667000Y-132620890D01*
X139554143Y-132733748D01*
X139540000Y-132719605D01*
X139525858Y-132733748D01*
X139413000Y-132620890D01*
X139413000Y-132459110D01*
X139525858Y-132346253D01*
X139540000Y-132360395D01*
X139554143Y-132346253D01*
X139667000Y-132459110D01*
X139667000Y-132459110D01*
G37*
X139667000Y-132459110D02*
X139667000Y-132620890D01*
X139554143Y-132733748D01*
X139540000Y-132719605D01*
X139525858Y-132733748D01*
X139413000Y-132620890D01*
X139413000Y-132459110D01*
X139525858Y-132346253D01*
X139540000Y-132360395D01*
X139554143Y-132346253D01*
X139667000Y-132459110D01*
G36*
X134587000Y-132459110D02*
X134587000Y-132620890D01*
X134474143Y-132733748D01*
X134460000Y-132719605D01*
X134445858Y-132733748D01*
X134333000Y-132620890D01*
X134333000Y-132459110D01*
X134445858Y-132346253D01*
X134460000Y-132360395D01*
X134474143Y-132346253D01*
X134587000Y-132459110D01*
X134587000Y-132459110D01*
G37*
X134587000Y-132459110D02*
X134587000Y-132620890D01*
X134474143Y-132733748D01*
X134460000Y-132719605D01*
X134445858Y-132733748D01*
X134333000Y-132620890D01*
X134333000Y-132459110D01*
X134445858Y-132346253D01*
X134460000Y-132360395D01*
X134474143Y-132346253D01*
X134587000Y-132459110D01*
G36*
X124667000Y-132459110D02*
X124667000Y-132620890D01*
X124554143Y-132733748D01*
X124540000Y-132719605D01*
X124525858Y-132733748D01*
X124413000Y-132620890D01*
X124413000Y-132459110D01*
X124525858Y-132346253D01*
X124540000Y-132360395D01*
X124554143Y-132346253D01*
X124667000Y-132459110D01*
X124667000Y-132459110D01*
G37*
X124667000Y-132459110D02*
X124667000Y-132620890D01*
X124554143Y-132733748D01*
X124540000Y-132719605D01*
X124525858Y-132733748D01*
X124413000Y-132620890D01*
X124413000Y-132459110D01*
X124525858Y-132346253D01*
X124540000Y-132360395D01*
X124554143Y-132346253D01*
X124667000Y-132459110D01*
G36*
X187733748Y-107525858D02*
X187719605Y-107540000D01*
X187733748Y-107554143D01*
X187620890Y-107667000D01*
X187459110Y-107667000D01*
X187346253Y-107554143D01*
X187360395Y-107540000D01*
X187346253Y-107525858D01*
X187459110Y-107413000D01*
X187620890Y-107413000D01*
X187733748Y-107525858D01*
X187733748Y-107525858D01*
G37*
X187733748Y-107525858D02*
X187719605Y-107540000D01*
X187733748Y-107554143D01*
X187620890Y-107667000D01*
X187459110Y-107667000D01*
X187346253Y-107554143D01*
X187360395Y-107540000D01*
X187346253Y-107525858D01*
X187459110Y-107413000D01*
X187620890Y-107413000D01*
X187733748Y-107525858D01*
G36*
X92653748Y-107525858D02*
X92639605Y-107540000D01*
X92653748Y-107554143D01*
X92540890Y-107667000D01*
X92379110Y-107667000D01*
X92266253Y-107554143D01*
X92280395Y-107540000D01*
X92266253Y-107525858D01*
X92379110Y-107413000D01*
X92540890Y-107413000D01*
X92653748Y-107525858D01*
X92653748Y-107525858D01*
G37*
X92653748Y-107525858D02*
X92639605Y-107540000D01*
X92653748Y-107554143D01*
X92540890Y-107667000D01*
X92379110Y-107667000D01*
X92266253Y-107554143D01*
X92280395Y-107540000D01*
X92266253Y-107525858D01*
X92379110Y-107413000D01*
X92540890Y-107413000D01*
X92653748Y-107525858D01*
G36*
X187733748Y-102445858D02*
X187719605Y-102460000D01*
X187733748Y-102474143D01*
X187620890Y-102587000D01*
X187459110Y-102587000D01*
X187346253Y-102474143D01*
X187360395Y-102460000D01*
X187346253Y-102445858D01*
X187459110Y-102333000D01*
X187620890Y-102333000D01*
X187733748Y-102445858D01*
X187733748Y-102445858D01*
G37*
X187733748Y-102445858D02*
X187719605Y-102460000D01*
X187733748Y-102474143D01*
X187620890Y-102587000D01*
X187459110Y-102587000D01*
X187346253Y-102474143D01*
X187360395Y-102460000D01*
X187346253Y-102445858D01*
X187459110Y-102333000D01*
X187620890Y-102333000D01*
X187733748Y-102445858D01*
G36*
X92653748Y-102445858D02*
X92639605Y-102460000D01*
X92653748Y-102474143D01*
X92540890Y-102587000D01*
X92379110Y-102587000D01*
X92266253Y-102474143D01*
X92280395Y-102460000D01*
X92266253Y-102445858D01*
X92379110Y-102333000D01*
X92540890Y-102333000D01*
X92653748Y-102445858D01*
X92653748Y-102445858D01*
G37*
X92653748Y-102445858D02*
X92639605Y-102460000D01*
X92653748Y-102474143D01*
X92540890Y-102587000D01*
X92379110Y-102587000D01*
X92266253Y-102474143D01*
X92280395Y-102460000D01*
X92266253Y-102445858D01*
X92379110Y-102333000D01*
X92540890Y-102333000D01*
X92653748Y-102445858D01*
M02*
