G04 #@! TF.GenerationSoftware,KiCad,Pcbnew,(5.0.2)-1*
G04 #@! TF.CreationDate,2019-03-14T16:57:05+01:00*
G04 #@! TF.ProjectId,Themis,5468656d-6973-42e6-9b69-6361645f7063,rev?*
G04 #@! TF.SameCoordinates,Original*
G04 #@! TF.FileFunction,Copper,L2,Bot*
G04 #@! TF.FilePolarity,Positive*
%FSLAX46Y46*%
G04 Gerber Fmt 4.6, Leading zero omitted, Abs format (unit mm)*
G04 Created by KiCad (PCBNEW (5.0.2)-1) date 14/03/2019 16:57:05*
%MOMM*%
%LPD*%
G01*
G04 APERTURE LIST*
G04 #@! TA.AperFunction,NonConductor*
%ADD10C,0.150000*%
G04 #@! TD*
G04 #@! TA.AperFunction,ComponentPad*
%ADD11C,3.300000*%
G04 #@! TD*
G04 #@! TA.AperFunction,ComponentPad*
%ADD12C,2.000000*%
G04 #@! TD*
G04 #@! TA.AperFunction,ComponentPad*
%ADD13R,3.000000X3.000000*%
G04 #@! TD*
G04 #@! TA.AperFunction,ComponentPad*
%ADD14C,1.998980*%
G04 #@! TD*
G04 #@! TA.AperFunction,ComponentPad*
%ADD15C,2.499360*%
G04 #@! TD*
G04 #@! TA.AperFunction,SMDPad,CuDef*
%ADD16R,1.250000X1.500000*%
G04 #@! TD*
G04 #@! TA.AperFunction,ComponentPad*
%ADD17R,2.000000X2.600000*%
G04 #@! TD*
G04 #@! TA.AperFunction,ComponentPad*
%ADD18O,2.000000X2.600000*%
G04 #@! TD*
G04 #@! TA.AperFunction,SMDPad,CuDef*
%ADD19R,1.500000X1.300000*%
G04 #@! TD*
G04 #@! TA.AperFunction,SMDPad,CuDef*
%ADD20R,1.300000X1.500000*%
G04 #@! TD*
G04 #@! TA.AperFunction,ComponentPad*
%ADD21C,5.600000*%
G04 #@! TD*
G04 #@! TA.AperFunction,SMDPad,CuDef*
%ADD22R,0.900000X0.800000*%
G04 #@! TD*
G04 #@! TA.AperFunction,SMDPad,CuDef*
%ADD23R,0.800000X0.900000*%
G04 #@! TD*
G04 #@! TA.AperFunction,SMDPad,CuDef*
%ADD24R,0.600000X1.550000*%
G04 #@! TD*
G04 #@! TA.AperFunction,ViaPad*
%ADD25C,0.600000*%
G04 #@! TD*
G04 #@! TA.AperFunction,Conductor*
%ADD26C,0.250000*%
G04 #@! TD*
G04 #@! TA.AperFunction,Conductor*
%ADD27C,1.000000*%
G04 #@! TD*
G04 #@! TA.AperFunction,Conductor*
%ADD28C,0.600000*%
G04 #@! TD*
G04 #@! TA.AperFunction,Conductor*
%ADD29C,3.000000*%
G04 #@! TD*
G04 #@! TA.AperFunction,Conductor*
%ADD30C,1.600000*%
G04 #@! TD*
G04 #@! TA.AperFunction,Conductor*
%ADD31C,0.254000*%
G04 #@! TD*
G04 APERTURE END LIST*
D10*
X90000000Y-135000000D02*
X90000000Y-85000000D01*
X190000000Y-135000000D02*
X90000000Y-135000000D01*
X190000000Y-85000000D02*
X190000000Y-135000000D01*
X90000000Y-85000000D02*
X190000000Y-85000000D01*
D11*
G04 #@! TO.P,J18,1*
G04 #@! TO.N,N/C*
X169000000Y-105000000D03*
G04 #@! TD*
D12*
G04 #@! TO.P,T2,2*
G04 #@! TO.N,GND*
X135905000Y-93570000D03*
D13*
G04 #@! TO.P,T2,4*
G04 #@! TO.N,Net-(D3-Pad2)*
X134000000Y-118500000D03*
G04 #@! TO.P,T2,3*
G04 #@! TO.N,Net-(D1-Pad2)*
X147000000Y-114000000D03*
G04 #@! TD*
D12*
G04 #@! TO.P,T1,4*
G04 #@! TO.N,GND*
X177000000Y-98500000D03*
D13*
G04 #@! TO.P,T1,3*
G04 #@! TO.N,Net-(D1-Pad2)*
X162000000Y-114000000D03*
G04 #@! TD*
D14*
G04 #@! TO.P,J7,1*
G04 #@! TO.N,Net-(C1-Pad2)*
X94500000Y-105000000D03*
D15*
G04 #@! TO.P,J7,2*
G04 #@! TO.N,GND*
X97040000Y-102460000D03*
X97040000Y-107540000D03*
X91960000Y-107540000D03*
X91960000Y-102460000D03*
G04 #@! TD*
D16*
G04 #@! TO.P,C2,1*
G04 #@! TO.N,GND*
X155250000Y-132750000D03*
G04 #@! TO.P,C2,2*
G04 #@! TO.N,Net-(C2-Pad2)*
X155250000Y-130250000D03*
G04 #@! TD*
G04 #@! TO.P,C3,1*
G04 #@! TO.N,Net-(C3-Pad1)*
X160500000Y-121750000D03*
G04 #@! TO.P,C3,2*
G04 #@! TO.N,GND*
X160500000Y-124250000D03*
G04 #@! TD*
G04 #@! TO.P,C4,1*
G04 #@! TO.N,Net-(C4-Pad1)*
X140500000Y-115750000D03*
G04 #@! TO.P,C4,2*
G04 #@! TO.N,GND*
X140500000Y-113250000D03*
G04 #@! TD*
G04 #@! TO.P,C5,1*
G04 #@! TO.N,GND*
X144000000Y-121250000D03*
G04 #@! TO.P,C5,2*
G04 #@! TO.N,Net-(C5-Pad2)*
X144000000Y-123750000D03*
G04 #@! TD*
D17*
G04 #@! TO.P,J5,1*
G04 #@! TO.N,Net-(C2-Pad2)*
X143040000Y-130500000D03*
D18*
G04 #@! TO.P,J5,2*
G04 #@! TO.N,Net-(C5-Pad2)*
X140500000Y-130500000D03*
G04 #@! TO.P,J5,3*
G04 #@! TO.N,GND*
X137960000Y-130500000D03*
G04 #@! TO.P,J5,4*
G04 #@! TO.N,+12V*
X135420000Y-130500000D03*
G04 #@! TO.P,J5,5*
G04 #@! TO.N,N/C*
X132880000Y-130500000D03*
G04 #@! TD*
D19*
G04 #@! TO.P,R1,1*
G04 #@! TO.N,Net-(J17-Pad1)*
X169650000Y-122000000D03*
G04 #@! TO.P,R1,2*
G04 #@! TO.N,GND*
X172350000Y-122000000D03*
G04 #@! TD*
D20*
G04 #@! TO.P,R2,1*
G04 #@! TO.N,Net-(D1-Pad2)*
X167000000Y-118650000D03*
G04 #@! TO.P,R2,2*
G04 #@! TO.N,Net-(J17-Pad1)*
X167000000Y-121350000D03*
G04 #@! TD*
D19*
G04 #@! TO.P,R3,1*
G04 #@! TO.N,Net-(D1-Pad2)*
X169650000Y-118000000D03*
G04 #@! TO.P,R3,2*
G04 #@! TO.N,GND*
X172350000Y-118000000D03*
G04 #@! TD*
G04 #@! TO.P,R4,1*
G04 #@! TO.N,Net-(C2-Pad2)*
X161350000Y-127000000D03*
G04 #@! TO.P,R4,2*
G04 #@! TO.N,Net-(D2-Pad2)*
X158650000Y-127000000D03*
G04 #@! TD*
D20*
G04 #@! TO.P,R5,1*
G04 #@! TO.N,Net-(C2-Pad2)*
X159500000Y-130150000D03*
G04 #@! TO.P,R5,2*
G04 #@! TO.N,GND*
X159500000Y-132850000D03*
G04 #@! TD*
D19*
G04 #@! TO.P,R6,1*
G04 #@! TO.N,Net-(D2-Pad1)*
X150850000Y-127000000D03*
G04 #@! TO.P,R6,2*
G04 #@! TO.N,GND*
X148150000Y-127000000D03*
G04 #@! TD*
D20*
G04 #@! TO.P,R7,1*
G04 #@! TO.N,Net-(C3-Pad1)*
X163000000Y-121650000D03*
G04 #@! TO.P,R7,2*
G04 #@! TO.N,GND*
X163000000Y-124350000D03*
G04 #@! TD*
G04 #@! TO.P,R8,1*
G04 #@! TO.N,Net-(C4-Pad1)*
X138500000Y-115850000D03*
G04 #@! TO.P,R8,2*
G04 #@! TO.N,GND*
X138500000Y-113150000D03*
G04 #@! TD*
D19*
G04 #@! TO.P,R9,1*
G04 #@! TO.N,Net-(D3-Pad2)*
X131850000Y-118500000D03*
G04 #@! TO.P,R9,2*
G04 #@! TO.N,GND*
X129150000Y-118500000D03*
G04 #@! TD*
D20*
G04 #@! TO.P,R10,1*
G04 #@! TO.N,Net-(D3-Pad2)*
X134000000Y-116350000D03*
G04 #@! TO.P,R10,2*
G04 #@! TO.N,GND*
X134000000Y-113650000D03*
G04 #@! TD*
G04 #@! TO.P,R11,1*
G04 #@! TO.N,Net-(D4-Pad1)*
X158500000Y-119350000D03*
G04 #@! TO.P,R11,2*
G04 #@! TO.N,GND*
X158500000Y-116650000D03*
G04 #@! TD*
G04 #@! TO.P,R12,1*
G04 #@! TO.N,Net-(C5-Pad2)*
X142000000Y-123850000D03*
G04 #@! TO.P,R12,2*
G04 #@! TO.N,GND*
X142000000Y-121150000D03*
G04 #@! TD*
G04 #@! TO.P,R13,1*
G04 #@! TO.N,Net-(C5-Pad2)*
X146000000Y-123850000D03*
G04 #@! TO.P,R13,2*
G04 #@! TO.N,Net-(D4-Pad2)*
X146000000Y-121150000D03*
G04 #@! TD*
D21*
G04 #@! TO.P,J10,1*
G04 #@! TO.N,GND*
X95000000Y-130000000D03*
G04 #@! TD*
G04 #@! TO.P,J11,1*
G04 #@! TO.N,GND*
X185000000Y-130000000D03*
G04 #@! TD*
G04 #@! TO.P,J12,1*
G04 #@! TO.N,GND*
X95000000Y-90000000D03*
G04 #@! TD*
G04 #@! TO.P,J13,1*
G04 #@! TO.N,GND*
X185000000Y-90000000D03*
G04 #@! TD*
D11*
G04 #@! TO.P,J18,1*
G04 #@! TO.N,GND*
X140500000Y-96000000D03*
G04 #@! TD*
G04 #@! TO.P,J20,1*
G04 #@! TO.N,GND*
X126500000Y-112000000D03*
G04 #@! TD*
D22*
G04 #@! TO.P,D1,2*
G04 #@! TO.N,Net-(D1-Pad2)*
X162500000Y-117050000D03*
G04 #@! TO.P,D1,*
G04 #@! TO.N,*
X162500000Y-118950000D03*
G04 #@! TO.P,D1,1*
G04 #@! TO.N,Net-(C3-Pad1)*
X160500000Y-118000000D03*
G04 #@! TD*
D23*
G04 #@! TO.P,D2,2*
G04 #@! TO.N,Net-(D2-Pad2)*
X154050000Y-125000000D03*
G04 #@! TO.P,D2,*
G04 #@! TO.N,*
X155950000Y-125000000D03*
G04 #@! TO.P,D2,1*
G04 #@! TO.N,Net-(D2-Pad1)*
X155000000Y-127000000D03*
G04 #@! TD*
D22*
G04 #@! TO.P,D3,2*
G04 #@! TO.N,Net-(D3-Pad2)*
X136500000Y-118450000D03*
G04 #@! TO.P,D3,*
G04 #@! TO.N,*
X136500000Y-116550000D03*
G04 #@! TO.P,D3,1*
G04 #@! TO.N,Net-(C4-Pad1)*
X138500000Y-117500000D03*
G04 #@! TD*
D23*
G04 #@! TO.P,D4,2*
G04 #@! TO.N,Net-(D4-Pad2)*
X155950000Y-120000000D03*
G04 #@! TO.P,D4,*
G04 #@! TO.N,*
X154050000Y-120000000D03*
G04 #@! TO.P,D4,1*
G04 #@! TO.N,Net-(D4-Pad1)*
X155000000Y-118000000D03*
G04 #@! TD*
D14*
G04 #@! TO.P,J8,1*
G04 #@! TO.N,Net-(J8-Pad1)*
X185500000Y-105000000D03*
D15*
G04 #@! TO.P,J8,2*
G04 #@! TO.N,GND*
X188040000Y-102460000D03*
X188040000Y-107540000D03*
X182960000Y-107540000D03*
X182960000Y-102460000D03*
G04 #@! TD*
D14*
G04 #@! TO.P,J17,1*
G04 #@! TO.N,Net-(J17-Pad1)*
X167000000Y-130500000D03*
D15*
G04 #@! TO.P,J17,2*
G04 #@! TO.N,GND*
X169540000Y-133040000D03*
X164460000Y-133040000D03*
X164460000Y-127960000D03*
X169540000Y-127960000D03*
G04 #@! TD*
D24*
G04 #@! TO.P,U1,1*
G04 #@! TO.N,Net-(D2-Pad2)*
X151905000Y-124200000D03*
G04 #@! TO.P,U1,2*
G04 #@! TO.N,Net-(D2-Pad1)*
X150635000Y-124200000D03*
G04 #@! TO.P,U1,3*
G04 #@! TO.N,Net-(C3-Pad1)*
X149365000Y-124200000D03*
G04 #@! TO.P,U1,4*
G04 #@! TO.N,GND*
X148095000Y-124200000D03*
G04 #@! TO.P,U1,5*
G04 #@! TO.N,Net-(C4-Pad1)*
X148095000Y-118800000D03*
G04 #@! TO.P,U1,6*
G04 #@! TO.N,Net-(D4-Pad1)*
X149365000Y-118800000D03*
G04 #@! TO.P,U1,7*
G04 #@! TO.N,Net-(D4-Pad2)*
X150635000Y-118800000D03*
G04 #@! TO.P,U1,8*
G04 #@! TO.N,+12V*
X151905000Y-118800000D03*
G04 #@! TD*
D25*
G04 #@! TO.N,GND*
X176000000Y-91500000D03*
X146000000Y-91500000D03*
X105000000Y-91500000D03*
X111000000Y-91500000D03*
X113000000Y-91500000D03*
X121000000Y-91500000D03*
X127000000Y-91500000D03*
X103000000Y-91500000D03*
X109000000Y-91500000D03*
X129000000Y-91500000D03*
X119000000Y-91500000D03*
X101000000Y-91500000D03*
X131000000Y-91500000D03*
X125000000Y-91500000D03*
X117000000Y-91500000D03*
X99000000Y-91500000D03*
X107000000Y-91500000D03*
X123000000Y-91500000D03*
X115000000Y-91500000D03*
X91000000Y-112000000D03*
X93000000Y-112000000D03*
X95000000Y-112000000D03*
X97000000Y-112000000D03*
X99000000Y-112000000D03*
X101000000Y-112000000D03*
X103000000Y-112000000D03*
X105000000Y-112000000D03*
X107000000Y-112000000D03*
X109000000Y-112000000D03*
X111000000Y-112000000D03*
X113000000Y-112000000D03*
X115000000Y-112000000D03*
X117000000Y-112000000D03*
X119000000Y-112000000D03*
X121000000Y-112000000D03*
X123000000Y-112000000D03*
X91000000Y-114000000D03*
X93000000Y-114000000D03*
X95000000Y-114000000D03*
X97000000Y-114000000D03*
X99000000Y-114000000D03*
X101000000Y-114000000D03*
X103000000Y-114000000D03*
X105000000Y-114000000D03*
X107000000Y-114000000D03*
X109000000Y-114000000D03*
X111000000Y-114000000D03*
X113000000Y-114000000D03*
X115000000Y-114000000D03*
X117000000Y-114000000D03*
X119000000Y-114000000D03*
X121000000Y-114000000D03*
X123000000Y-114000000D03*
X91000000Y-116000000D03*
X93000000Y-116000000D03*
X95000000Y-116000000D03*
X97000000Y-116000000D03*
X99000000Y-116000000D03*
X101000000Y-116000000D03*
X103000000Y-116000000D03*
X105000000Y-116000000D03*
X107000000Y-116000000D03*
X109000000Y-116000000D03*
X111000000Y-116000000D03*
X113000000Y-116000000D03*
X115000000Y-116000000D03*
X117000000Y-116000000D03*
X119000000Y-116000000D03*
X121000000Y-116000000D03*
X123000000Y-116000000D03*
X91000000Y-118000000D03*
X93000000Y-118000000D03*
X95000000Y-118000000D03*
X97000000Y-118000000D03*
X99000000Y-118000000D03*
X101000000Y-118000000D03*
X103000000Y-118000000D03*
X105000000Y-118000000D03*
X107000000Y-118000000D03*
X109000000Y-118000000D03*
X111000000Y-118000000D03*
X113000000Y-118000000D03*
X115000000Y-118000000D03*
X117000000Y-118000000D03*
X119000000Y-118000000D03*
X121000000Y-118000000D03*
X123000000Y-118000000D03*
X91000000Y-120000000D03*
X93000000Y-120000000D03*
X95000000Y-120000000D03*
X97000000Y-120000000D03*
X99000000Y-120000000D03*
X101000000Y-120000000D03*
X103000000Y-120000000D03*
X105000000Y-120000000D03*
X107000000Y-120000000D03*
X109000000Y-120000000D03*
X111000000Y-120000000D03*
X113000000Y-120000000D03*
X115000000Y-120000000D03*
X117000000Y-120000000D03*
X119000000Y-120000000D03*
X121000000Y-120000000D03*
X123000000Y-120000000D03*
X91000000Y-122000000D03*
X93000000Y-122000000D03*
X95000000Y-122000000D03*
X97000000Y-122000000D03*
X99000000Y-122000000D03*
X101000000Y-122000000D03*
X103000000Y-122000000D03*
X105000000Y-122000000D03*
X107000000Y-122000000D03*
X109000000Y-122000000D03*
X111000000Y-122000000D03*
X113000000Y-122000000D03*
X115000000Y-122000000D03*
X117000000Y-122000000D03*
X119000000Y-122000000D03*
X121000000Y-122000000D03*
X123000000Y-122000000D03*
X91000000Y-124000000D03*
X93000000Y-124000000D03*
X95000000Y-124000000D03*
X97000000Y-124000000D03*
X99000000Y-124000000D03*
X101000000Y-124000000D03*
X103000000Y-124000000D03*
X105000000Y-124000000D03*
X107000000Y-124000000D03*
X109000000Y-124000000D03*
X111000000Y-124000000D03*
X113000000Y-124000000D03*
X115000000Y-124000000D03*
X117000000Y-124000000D03*
X119000000Y-124000000D03*
X121000000Y-124000000D03*
X123000000Y-124000000D03*
X91000000Y-126000000D03*
X93000000Y-126000000D03*
X95000000Y-126000000D03*
X97000000Y-126000000D03*
X99000000Y-126000000D03*
X101000000Y-126000000D03*
X103000000Y-126000000D03*
X105000000Y-126000000D03*
X107000000Y-126000000D03*
X109000000Y-126000000D03*
X111000000Y-126000000D03*
X113000000Y-126000000D03*
X115000000Y-126000000D03*
X117000000Y-126000000D03*
X119000000Y-126000000D03*
X121000000Y-126000000D03*
X123000000Y-126000000D03*
X99000000Y-128000000D03*
X121000000Y-128000000D03*
X111000000Y-128000000D03*
X115000000Y-128000000D03*
X119000000Y-128000000D03*
X101000000Y-128000000D03*
X123000000Y-128000000D03*
X107000000Y-128000000D03*
X103000000Y-128000000D03*
X117000000Y-128000000D03*
X113000000Y-128000000D03*
X105000000Y-128000000D03*
X109000000Y-128000000D03*
X91000000Y-93500000D03*
X154000000Y-116500000D03*
X155000000Y-116500000D03*
X156000000Y-116500000D03*
X157000000Y-116500000D03*
X99000000Y-109000000D03*
X100000000Y-109000000D03*
X101000000Y-109000000D03*
X102000000Y-109000000D03*
X103000000Y-109000000D03*
X104000000Y-109000000D03*
X105000000Y-109000000D03*
X106000000Y-109000000D03*
X107000000Y-109000000D03*
X108000000Y-109000000D03*
X109000000Y-109000000D03*
X110000000Y-109000000D03*
X111000000Y-109000000D03*
X112000000Y-109000000D03*
X113000000Y-109000000D03*
X114000000Y-109000000D03*
X115000000Y-109000000D03*
X116000000Y-109000000D03*
X117000000Y-109000000D03*
X118000000Y-109000000D03*
X119000000Y-109000000D03*
X120000000Y-109000000D03*
X121000000Y-109000000D03*
X122000000Y-109000000D03*
X123000000Y-109000000D03*
X124000000Y-109000000D03*
X136000000Y-109000000D03*
X141000000Y-109000000D03*
X142000000Y-109000000D03*
X143000000Y-109000000D03*
X144000000Y-109000000D03*
X145000000Y-109000000D03*
X146000000Y-109000000D03*
X147000000Y-109000000D03*
X148000000Y-109000000D03*
X149000000Y-109000000D03*
X150000000Y-109000000D03*
X151000000Y-109000000D03*
X152000000Y-109000000D03*
X153000000Y-109000000D03*
X154000000Y-109000000D03*
X155000000Y-109000000D03*
X156000000Y-109000000D03*
X157000000Y-109000000D03*
X158000000Y-109000000D03*
X159000000Y-109000000D03*
X160000000Y-109000000D03*
X161000000Y-109000000D03*
X162000000Y-109000000D03*
X163000000Y-109000000D03*
X164000000Y-109000000D03*
X165000000Y-109000000D03*
X166000000Y-109000000D03*
X167000000Y-109000000D03*
X168000000Y-109000000D03*
X169000000Y-109000000D03*
X170000000Y-109000000D03*
X171000000Y-109000000D03*
X172000000Y-109000000D03*
X173000000Y-109000000D03*
X174000000Y-109000000D03*
X175000000Y-109000000D03*
X176000000Y-109000000D03*
X177000000Y-109000000D03*
X178000000Y-109000000D03*
X179000000Y-109000000D03*
X180000000Y-109000000D03*
X181000000Y-109000000D03*
X136999996Y-109000000D03*
X138000010Y-109000000D03*
X139000006Y-109000000D03*
X128000000Y-109000000D03*
X129000000Y-109000000D03*
X130000000Y-109000000D03*
X131000000Y-109000000D03*
X132000000Y-109000000D03*
X133000000Y-109000000D03*
X134000000Y-109000000D03*
X135000000Y-109000000D03*
X99000000Y-101000000D03*
X100000000Y-101000000D03*
X101000000Y-101000000D03*
X102000000Y-101000000D03*
X103000000Y-101000000D03*
X104000000Y-101000000D03*
X105000000Y-101000000D03*
X106000000Y-101000000D03*
X107000000Y-101000000D03*
X108000000Y-101000000D03*
X109000000Y-101000000D03*
X115000000Y-101000000D03*
X116000000Y-101000000D03*
X117000000Y-101000000D03*
X118000000Y-101000000D03*
X119000000Y-101000000D03*
X120000000Y-101000000D03*
X121000000Y-101000000D03*
X122000000Y-101000000D03*
X123000000Y-101000000D03*
X124000000Y-101000000D03*
X125000000Y-101000000D03*
X126000000Y-101000000D03*
X127000000Y-101000000D03*
X128000000Y-101000000D03*
X129000000Y-101000000D03*
X130000000Y-101000000D03*
X131000000Y-101000000D03*
X132000000Y-101000000D03*
X133000000Y-101000000D03*
X134000000Y-101000000D03*
X135000000Y-101000000D03*
X136000000Y-101000000D03*
X137000000Y-101000000D03*
X138000000Y-101000000D03*
X139000000Y-101000000D03*
X140000000Y-101000000D03*
X141000000Y-101000000D03*
X142000000Y-101000000D03*
X143000000Y-101000000D03*
X144000000Y-101000000D03*
X145000000Y-101000000D03*
X146000000Y-101000000D03*
X147000000Y-101000000D03*
X148000000Y-101000000D03*
X149000000Y-101000000D03*
X150000000Y-101000000D03*
X151000000Y-101000000D03*
X152000000Y-101000000D03*
X153000000Y-101000000D03*
X154000000Y-101000000D03*
X155000000Y-101000000D03*
X156000000Y-101000000D03*
X157000000Y-101000000D03*
X158000000Y-101000000D03*
X159000000Y-101000000D03*
X160000000Y-101000000D03*
X161000000Y-101000000D03*
X162000000Y-101000000D03*
X163000000Y-101000000D03*
X164000000Y-101000000D03*
X165000000Y-101000000D03*
X166000000Y-101000000D03*
X167000000Y-101000000D03*
X168000000Y-101000000D03*
X169000000Y-101000000D03*
X170000000Y-101000000D03*
X171000000Y-101000000D03*
X172000000Y-101000000D03*
X173000000Y-101000000D03*
X174000000Y-101000000D03*
X175000000Y-101000000D03*
X176000000Y-101000000D03*
X177000000Y-101000000D03*
X178000000Y-101000000D03*
X179000000Y-101000000D03*
X180000000Y-101000000D03*
X181000000Y-101000000D03*
X148000000Y-117000000D03*
X147000000Y-117000000D03*
X146000000Y-117000000D03*
X145000000Y-117000000D03*
X144000000Y-112000000D03*
X144000000Y-113000000D03*
X144000000Y-114000000D03*
X144000000Y-115000000D03*
X144000000Y-116000000D03*
X144000000Y-117000000D03*
X142000000Y-117000000D03*
X143000000Y-117000000D03*
X165000000Y-117000000D03*
X165000000Y-118000000D03*
X165000000Y-119000000D03*
X165000000Y-120000000D03*
X165000000Y-121000000D03*
X165000000Y-122000000D03*
X165000000Y-123000000D03*
X165000000Y-124000000D03*
X165000000Y-125000000D03*
X165000000Y-126000000D03*
X169000000Y-126000000D03*
X169000000Y-125000000D03*
X169000000Y-124000000D03*
X170000000Y-124000000D03*
X171000000Y-124000000D03*
X172000000Y-124000000D03*
X173000000Y-124000000D03*
X174000000Y-124000000D03*
X174000000Y-123000000D03*
X174000000Y-122000000D03*
X174000000Y-121000000D03*
X169000000Y-120000000D03*
X170000000Y-120000000D03*
X171000000Y-120000000D03*
X143000000Y-111000000D03*
X144000000Y-111000000D03*
X145000000Y-111000000D03*
X146000000Y-111000000D03*
X147000000Y-111000000D03*
X148000000Y-111000000D03*
X149000000Y-111000000D03*
X150000000Y-111000000D03*
X151000000Y-111000000D03*
X152000000Y-111000000D03*
X153000000Y-111000000D03*
X154000000Y-111000000D03*
X155000000Y-111000000D03*
X156000000Y-111000000D03*
X157000000Y-111000000D03*
X158000000Y-111000000D03*
X159000000Y-111000000D03*
X160000000Y-111000000D03*
X161000000Y-111000000D03*
X162000000Y-111000000D03*
X163000000Y-111000000D03*
X164000000Y-111000000D03*
X165000000Y-112000000D03*
X166500000Y-113000000D03*
X168000000Y-114000000D03*
X169000000Y-115000000D03*
X169000000Y-116000000D03*
X170000000Y-116000000D03*
X172000000Y-116000000D03*
X173000000Y-116000000D03*
X174000000Y-116000000D03*
X174000000Y-117000000D03*
X174000000Y-118000000D03*
X174000000Y-119000000D03*
X174000000Y-120000000D03*
X173000000Y-120000000D03*
X172000000Y-120000000D03*
X127000000Y-116000000D03*
X127000000Y-117000000D03*
X127000000Y-118000000D03*
X127000000Y-119000000D03*
X127000000Y-120000000D03*
X127000000Y-121000000D03*
X127000000Y-122000000D03*
X128000000Y-122000000D03*
X129000000Y-122000000D03*
X130000000Y-122000000D03*
X131000000Y-122000000D03*
X132000000Y-122000000D03*
X133000000Y-122000000D03*
X134000000Y-122000000D03*
X135000000Y-122000000D03*
X136000000Y-122000000D03*
X137000000Y-122000000D03*
X138000000Y-122000000D03*
X139000000Y-122000000D03*
X142000000Y-126000000D03*
X143000000Y-126000000D03*
X144000000Y-126000000D03*
X145000000Y-126000000D03*
X146000000Y-126000000D03*
X100000000Y-87500000D03*
X102000000Y-87500000D03*
X104000000Y-87500000D03*
X106000000Y-87500000D03*
X108000000Y-87500000D03*
X110000000Y-87500000D03*
X112000000Y-87500000D03*
X114000000Y-87500000D03*
X116000000Y-87500000D03*
X118000000Y-87500000D03*
X120000000Y-87500000D03*
X122000000Y-87500000D03*
X124000000Y-87500000D03*
X126000000Y-87500000D03*
X128000000Y-87500000D03*
X130000000Y-87500000D03*
X132000000Y-87500000D03*
X134000000Y-87500000D03*
X136000000Y-87500000D03*
X138000000Y-87500000D03*
X140000000Y-87500000D03*
X142000000Y-87500000D03*
X144000000Y-87500000D03*
X146000000Y-87500000D03*
X148000000Y-87500000D03*
X150000000Y-87500000D03*
X152000000Y-87500000D03*
X154000000Y-87500000D03*
X156000000Y-87500000D03*
X158000000Y-87500000D03*
X160000000Y-87500000D03*
X162000000Y-87500000D03*
X164000000Y-87500000D03*
X166000000Y-87500000D03*
X168000000Y-87500000D03*
X170000000Y-87500000D03*
X172000000Y-87500000D03*
X174000000Y-87500000D03*
X176000000Y-87500000D03*
X178000000Y-87500000D03*
X100000000Y-89500000D03*
X102000000Y-89500000D03*
X104000000Y-89500000D03*
X106000000Y-89500000D03*
X108000000Y-89500000D03*
X110000000Y-89500000D03*
X112000000Y-89500000D03*
X114000000Y-89500000D03*
X116000000Y-89500000D03*
X118000000Y-89500000D03*
X120000000Y-89500000D03*
X122000000Y-89500000D03*
X124000000Y-89500000D03*
X126000000Y-89500000D03*
X128000000Y-89500000D03*
X130000000Y-89500000D03*
X132000000Y-89500000D03*
X134000000Y-89500000D03*
X136000000Y-89500000D03*
X138000000Y-89500000D03*
X140000000Y-89500000D03*
X142000000Y-89500000D03*
X144000000Y-89500000D03*
X146000000Y-89500000D03*
X148000000Y-89500000D03*
X150000000Y-89500000D03*
X152000000Y-89500000D03*
X154000000Y-89500000D03*
X156000000Y-89500000D03*
X158000000Y-89500000D03*
X160000000Y-89500000D03*
X162000000Y-89500000D03*
X164000000Y-89500000D03*
X166000000Y-89500000D03*
X168000000Y-89500000D03*
X170000000Y-89500000D03*
X172000000Y-89500000D03*
X174000000Y-89500000D03*
X176000000Y-89500000D03*
X178000000Y-89500000D03*
X100000000Y-130000000D03*
X102000000Y-130000000D03*
X104000000Y-130000000D03*
X106000000Y-130000000D03*
X108000000Y-130000000D03*
X110000000Y-130000000D03*
X112000000Y-130000000D03*
X114000000Y-130000000D03*
X116000000Y-130000000D03*
X118000000Y-130000000D03*
X120000000Y-130000000D03*
X122000000Y-130000000D03*
X124000000Y-130000000D03*
X126000000Y-130000000D03*
X128000000Y-130000000D03*
X130000000Y-130000000D03*
X100000000Y-132000000D03*
X102000000Y-132000000D03*
X104000000Y-132000000D03*
X106000000Y-132000000D03*
X108000000Y-132000000D03*
X110000000Y-132000000D03*
X112000000Y-132000000D03*
X114000000Y-132000000D03*
X116000000Y-132000000D03*
X118000000Y-132000000D03*
X120000000Y-132000000D03*
X122000000Y-132000000D03*
X124000000Y-132000000D03*
X126000000Y-132000000D03*
X128000000Y-132000000D03*
X130000000Y-132000000D03*
X93000000Y-93500000D03*
X95000000Y-93500000D03*
X97000000Y-93500000D03*
X99000000Y-93500000D03*
X101000000Y-93500000D03*
X103000000Y-93500000D03*
X105000000Y-93500000D03*
X107000000Y-93500000D03*
X109000000Y-93500000D03*
X111000000Y-93500000D03*
X113000000Y-93500000D03*
X115000000Y-93500000D03*
X117000000Y-93500000D03*
X119000000Y-93500000D03*
X121000000Y-93500000D03*
X123000000Y-93500000D03*
X125000000Y-93500000D03*
X127000000Y-93500000D03*
X129000000Y-93500000D03*
X131000000Y-93500000D03*
X91000000Y-95500000D03*
X93000000Y-95500000D03*
X95000000Y-95500000D03*
X97000000Y-95500000D03*
X99000000Y-95500000D03*
X101000000Y-95500000D03*
X103000000Y-95500000D03*
X105000000Y-95500000D03*
X107000000Y-95500000D03*
X109000000Y-95500000D03*
X111000000Y-95500000D03*
X113000000Y-95500000D03*
X115000000Y-95500000D03*
X117000000Y-95500000D03*
X119000000Y-95500000D03*
X121000000Y-95500000D03*
X123000000Y-95500000D03*
X125000000Y-95500000D03*
X127000000Y-95500000D03*
X129000000Y-95500000D03*
X131000000Y-95500000D03*
X91000000Y-97500000D03*
X93000000Y-97500000D03*
X95000000Y-97500000D03*
X97000000Y-97500000D03*
X99000000Y-97500000D03*
X101000000Y-97500000D03*
X103000000Y-97500000D03*
X105000000Y-97500000D03*
X107000000Y-97500000D03*
X109000000Y-97500000D03*
X111000000Y-97500000D03*
X113000000Y-97500000D03*
X115000000Y-97500000D03*
X117000000Y-97500000D03*
X119000000Y-97500000D03*
X121000000Y-97500000D03*
X123000000Y-97500000D03*
X125000000Y-97500000D03*
X127000000Y-97500000D03*
X129000000Y-97500000D03*
X131000000Y-97500000D03*
X91000000Y-99500000D03*
X93000000Y-99500000D03*
X95000000Y-99500000D03*
X97000000Y-99500000D03*
X99000000Y-99500000D03*
X101000000Y-99500000D03*
X103000000Y-99500000D03*
X105000000Y-99500000D03*
X107000000Y-99500000D03*
X109000000Y-99500000D03*
X111000000Y-99500000D03*
X113000000Y-99500000D03*
X115000000Y-99500000D03*
X117000000Y-99500000D03*
X119000000Y-99500000D03*
X121000000Y-99500000D03*
X123000000Y-99500000D03*
X125000000Y-99500000D03*
X127000000Y-99500000D03*
X129000000Y-99500000D03*
X131000000Y-99500000D03*
X148000000Y-91500000D03*
X150000000Y-91500000D03*
X152000000Y-91500000D03*
X154000000Y-91500000D03*
X156000000Y-91500000D03*
X158000000Y-91500000D03*
X160000000Y-91500000D03*
X162000000Y-91500000D03*
X164000000Y-91500000D03*
X166000000Y-91500000D03*
X168000000Y-91500000D03*
X170000000Y-91500000D03*
X172000000Y-91500000D03*
X174000000Y-91500000D03*
X146000000Y-93500000D03*
X148000000Y-93500000D03*
X150000000Y-93500000D03*
X152000000Y-93500000D03*
X154000000Y-93500000D03*
X156000000Y-93500000D03*
X158000000Y-93500000D03*
X160000000Y-93500000D03*
X162000000Y-93500000D03*
X164000000Y-93500000D03*
X166000000Y-93500000D03*
X168000000Y-93500000D03*
X170000000Y-93500000D03*
X172000000Y-93500000D03*
X174000000Y-93500000D03*
X146000000Y-95500000D03*
X148000000Y-95500000D03*
X150000000Y-95500000D03*
X152000000Y-95500000D03*
X154000000Y-95500000D03*
X156000000Y-95500000D03*
X158000000Y-95500000D03*
X160000000Y-95500000D03*
X162000000Y-95500000D03*
X164000000Y-95500000D03*
X166000000Y-95500000D03*
X168000000Y-95500000D03*
X170000000Y-95500000D03*
X172000000Y-95500000D03*
X174000000Y-95500000D03*
X146000000Y-97500000D03*
X148000000Y-97500000D03*
X150000000Y-97500000D03*
X152000000Y-97500000D03*
X154000000Y-97500000D03*
X156000000Y-97500000D03*
X158000000Y-97500000D03*
X160000000Y-97500000D03*
X162000000Y-97500000D03*
X164000000Y-97500000D03*
X166000000Y-97500000D03*
X168000000Y-97500000D03*
X170000000Y-97500000D03*
X172000000Y-97500000D03*
X174000000Y-97500000D03*
X146000000Y-99500000D03*
X148000000Y-99500000D03*
X150000000Y-99500000D03*
X152000000Y-99500000D03*
X154000000Y-99500000D03*
X156000000Y-99500000D03*
X158000000Y-99500000D03*
X160000000Y-99500000D03*
X162000000Y-99500000D03*
X164000000Y-99500000D03*
X166000000Y-99500000D03*
X168000000Y-99500000D03*
X170000000Y-99500000D03*
X172000000Y-99500000D03*
X174000000Y-99500000D03*
X176000000Y-110500000D03*
X178000000Y-110500000D03*
X180000000Y-110500000D03*
X182000000Y-110500000D03*
X184000000Y-110500000D03*
X186000000Y-110500000D03*
X188000000Y-110500000D03*
X176000000Y-112500000D03*
X178000000Y-112500000D03*
X180000000Y-112500000D03*
X182000000Y-112500000D03*
X184000000Y-112500000D03*
X186000000Y-112500000D03*
X188000000Y-112500000D03*
X176000000Y-114500000D03*
X178000000Y-114500000D03*
X180000000Y-114500000D03*
X182000000Y-114500000D03*
X184000000Y-114500000D03*
X186000000Y-114500000D03*
X188000000Y-114500000D03*
X176000000Y-116500000D03*
X178000000Y-116500000D03*
X180000000Y-116500000D03*
X182000000Y-116500000D03*
X184000000Y-116500000D03*
X186000000Y-116500000D03*
X188000000Y-116500000D03*
X176000000Y-118500000D03*
X178000000Y-118500000D03*
X180000000Y-118500000D03*
X182000000Y-118500000D03*
X184000000Y-118500000D03*
X186000000Y-118500000D03*
X188000000Y-118500000D03*
X176000000Y-120500000D03*
X178000000Y-120500000D03*
X180000000Y-120500000D03*
X182000000Y-120500000D03*
X184000000Y-120500000D03*
X186000000Y-120500000D03*
X188000000Y-120500000D03*
X176000000Y-122500000D03*
X178000000Y-122500000D03*
X180000000Y-122500000D03*
X182000000Y-122500000D03*
X184000000Y-122500000D03*
X186000000Y-122500000D03*
X188000000Y-122500000D03*
X176000000Y-124500000D03*
X178000000Y-124500000D03*
X180000000Y-124500000D03*
X182000000Y-124500000D03*
X184000000Y-124500000D03*
X186000000Y-124500000D03*
X188000000Y-124500000D03*
X176000000Y-126500000D03*
X178000000Y-126500000D03*
X180000000Y-126500000D03*
X182000000Y-126500000D03*
X184000000Y-126500000D03*
X186000000Y-126500000D03*
X188000000Y-126500000D03*
X172000000Y-126500000D03*
X174000000Y-126500000D03*
X172000000Y-129500000D03*
X174000000Y-129500000D03*
X176000000Y-129500000D03*
X178000000Y-129500000D03*
X180000000Y-129500000D03*
X172000000Y-131500000D03*
X174000000Y-131500000D03*
X176000000Y-131500000D03*
X178000000Y-131500000D03*
X180000000Y-131500000D03*
X172000000Y-133500000D03*
X174000000Y-133500000D03*
X176000000Y-133500000D03*
X178000000Y-133500000D03*
X180000000Y-133500000D03*
X182000000Y-133500000D03*
X125000000Y-122000000D03*
X125000000Y-120000000D03*
X125000000Y-124000000D03*
X125000000Y-118000000D03*
X125000000Y-126000000D03*
X125000000Y-128000000D03*
X127000000Y-124000000D03*
X129000000Y-124000000D03*
X131000000Y-124000000D03*
X133000000Y-124000000D03*
X135000000Y-124000000D03*
X137000000Y-124000000D03*
X127000000Y-126000000D03*
X129000000Y-126000000D03*
X129000000Y-128000000D03*
X127000000Y-128000000D03*
X131000000Y-126000000D03*
X133000000Y-126000000D03*
X135000000Y-126000000D03*
X131000000Y-128000000D03*
X146000000Y-132000000D03*
X147500000Y-132000000D03*
X149000000Y-132000000D03*
X150500000Y-132000000D03*
X152000000Y-132000000D03*
X153500000Y-132000000D03*
X157500000Y-132000000D03*
X178000000Y-91500000D03*
X180000000Y-91500000D03*
X176000000Y-93500000D03*
X178000000Y-93500000D03*
X180000000Y-93500000D03*
X182000000Y-93500000D03*
X184000000Y-93500000D03*
X176000000Y-95500000D03*
X178000000Y-95500000D03*
X180000000Y-95500000D03*
X182000000Y-95500000D03*
X184000000Y-95500000D03*
X180000000Y-97500000D03*
X182000000Y-97500000D03*
X184000000Y-97500000D03*
X186000000Y-97500000D03*
X188000000Y-97500000D03*
X180000000Y-99500000D03*
X182000000Y-99500000D03*
X184000000Y-99500000D03*
X186000000Y-99500000D03*
X188000000Y-99500000D03*
X180000000Y-87500000D03*
X186000000Y-93500000D03*
X188000000Y-93500000D03*
X180000000Y-89500000D03*
X186000000Y-95500000D03*
X188000000Y-95500000D03*
G04 #@! TO.N,+12V*
X152800000Y-120500000D03*
X151100000Y-120500000D03*
X152000000Y-120500000D03*
G04 #@! TD*
D26*
G04 #@! TO.N,GND*
X158500000Y-116650000D02*
X157150000Y-116650000D01*
X156000000Y-116500000D02*
X155000000Y-116500000D01*
X157150000Y-116650000D02*
X157000000Y-116500000D01*
X100000000Y-109000000D02*
X99000000Y-109000000D01*
X102000000Y-109000000D02*
X101000000Y-109000000D01*
X104000000Y-109000000D02*
X103000000Y-109000000D01*
X106000000Y-109000000D02*
X105000000Y-109000000D01*
X108000000Y-109000000D02*
X107000000Y-109000000D01*
X110000000Y-109000000D02*
X109000000Y-109000000D01*
X112000000Y-109000000D02*
X111000000Y-109000000D01*
X114000000Y-109000000D02*
X113000000Y-109000000D01*
X116000000Y-109000000D02*
X115000000Y-109000000D01*
X118000000Y-109000000D02*
X117000000Y-109000000D01*
X120000000Y-109000000D02*
X119000000Y-109000000D01*
X122000000Y-109000000D02*
X121000000Y-109000000D01*
X124000000Y-109000000D02*
X123000000Y-109000000D01*
X142000000Y-109000000D02*
X141000000Y-109000000D01*
X144000000Y-109000000D02*
X143000000Y-109000000D01*
X146000000Y-109000000D02*
X145000000Y-109000000D01*
X148000000Y-109000000D02*
X147000000Y-109000000D01*
X150000000Y-109000000D02*
X149000000Y-109000000D01*
X152000000Y-109000000D02*
X151000000Y-109000000D01*
X154000000Y-109000000D02*
X153000000Y-109000000D01*
X156000000Y-109000000D02*
X155000000Y-109000000D01*
X158000000Y-109000000D02*
X157000000Y-109000000D01*
X160000000Y-109000000D02*
X159000000Y-109000000D01*
X162000000Y-109000000D02*
X161000000Y-109000000D01*
X164000000Y-109000000D02*
X163000000Y-109000000D01*
X166000000Y-109000000D02*
X165000000Y-109000000D01*
X168000000Y-109000000D02*
X167000000Y-109000000D01*
X170000000Y-109000000D02*
X169000000Y-109000000D01*
X172000000Y-109000000D02*
X171000000Y-109000000D01*
X174000000Y-109000000D02*
X173000000Y-109000000D01*
X176000000Y-109000000D02*
X175000000Y-109000000D01*
X178000000Y-109000000D02*
X177000000Y-109000000D01*
X180000000Y-109000000D02*
X179000000Y-109000000D01*
X182460000Y-107540000D02*
X181000000Y-109000000D01*
X136000000Y-109000000D02*
X136999996Y-109000000D01*
X138000010Y-109000000D02*
X139000006Y-109000000D01*
X129000000Y-109000000D02*
X128000000Y-109000000D01*
X131000000Y-109000000D02*
X130000000Y-109000000D01*
X133000000Y-109000000D02*
X132000000Y-109000000D01*
X135000000Y-109000000D02*
X134000000Y-109000000D01*
X182960000Y-107540000D02*
X182460000Y-107540000D01*
X99000000Y-101000000D02*
X97540000Y-102460000D01*
X101000000Y-101000000D02*
X100000000Y-101000000D01*
X103000000Y-101000000D02*
X102000000Y-101000000D01*
X105000000Y-101000000D02*
X104000000Y-101000000D01*
X107000000Y-101000000D02*
X106000000Y-101000000D01*
X109000000Y-101000000D02*
X108000000Y-101000000D01*
X97540000Y-102460000D02*
X97040000Y-102460000D01*
X116000000Y-101000000D02*
X115000000Y-101000000D01*
X118000000Y-101000000D02*
X117000000Y-101000000D01*
X120000000Y-101000000D02*
X119000000Y-101000000D01*
X122000000Y-101000000D02*
X121000000Y-101000000D01*
X124000000Y-101000000D02*
X123000000Y-101000000D01*
X126000000Y-101000000D02*
X125000000Y-101000000D01*
X128000000Y-101000000D02*
X127000000Y-101000000D01*
X130000000Y-101000000D02*
X129000000Y-101000000D01*
X132000000Y-101000000D02*
X131000000Y-101000000D01*
X134000000Y-101000000D02*
X133000000Y-101000000D01*
X136000000Y-101000000D02*
X135000000Y-101000000D01*
X138000000Y-101000000D02*
X137000000Y-101000000D01*
X140000000Y-101000000D02*
X139000000Y-101000000D01*
X142000000Y-101000000D02*
X141000000Y-101000000D01*
X144000000Y-101000000D02*
X143000000Y-101000000D01*
X146000000Y-101000000D02*
X145000000Y-101000000D01*
X148000000Y-101000000D02*
X147000000Y-101000000D01*
X150000000Y-101000000D02*
X149000000Y-101000000D01*
X152000000Y-101000000D02*
X151000000Y-101000000D01*
X154000000Y-101000000D02*
X153000000Y-101000000D01*
X156000000Y-101000000D02*
X155000000Y-101000000D01*
X158000000Y-101000000D02*
X157000000Y-101000000D01*
X160000000Y-101000000D02*
X159000000Y-101000000D01*
X162000000Y-101000000D02*
X161000000Y-101000000D01*
X164000000Y-101000000D02*
X163000000Y-101000000D01*
X166000000Y-101000000D02*
X165000000Y-101000000D01*
X168000000Y-101000000D02*
X167000000Y-101000000D01*
X170000000Y-101000000D02*
X169000000Y-101000000D01*
X172000000Y-101000000D02*
X171000000Y-101000000D01*
X174000000Y-101000000D02*
X173000000Y-101000000D01*
X176000000Y-101000000D02*
X175000000Y-101000000D01*
X178000000Y-101000000D02*
X177000000Y-101000000D01*
X180000000Y-101000000D02*
X179000000Y-101000000D01*
X182460000Y-102460000D02*
X181000000Y-101000000D01*
X182960000Y-102460000D02*
X182460000Y-102460000D01*
X147000000Y-117000000D02*
X148000000Y-117000000D01*
X145000000Y-117000000D02*
X146000000Y-117000000D01*
X144000000Y-112000000D02*
X144000000Y-113000000D01*
X144000000Y-114000000D02*
X144000000Y-115000000D01*
X144000000Y-116000000D02*
X144000000Y-117000000D01*
X143000000Y-117000000D02*
X142000000Y-117000000D01*
X165000000Y-118000000D02*
X165000000Y-117000000D01*
X165000000Y-120000000D02*
X165000000Y-119000000D01*
X165000000Y-122000000D02*
X165000000Y-121000000D01*
X165000000Y-124000000D02*
X165000000Y-123000000D01*
X165000000Y-126000000D02*
X165000000Y-125000000D01*
X174000000Y-120000000D02*
X174000000Y-121000000D01*
X169000000Y-125000000D02*
X169000000Y-126000000D01*
X170000000Y-124000000D02*
X169000000Y-124000000D01*
X172000000Y-124000000D02*
X171000000Y-124000000D01*
X174000000Y-124000000D02*
X173000000Y-124000000D01*
X174000000Y-122000000D02*
X174000000Y-123000000D01*
X171000000Y-120000000D02*
X170000000Y-120000000D01*
X140500000Y-113250000D02*
X140750000Y-113250000D01*
X140750000Y-113250000D02*
X143000000Y-111000000D01*
X144000000Y-111000000D02*
X145000000Y-111000000D01*
X146000000Y-111000000D02*
X147000000Y-111000000D01*
X148000000Y-111000000D02*
X149000000Y-111000000D01*
X150000000Y-111000000D02*
X151000000Y-111000000D01*
X152000000Y-111000000D02*
X153000000Y-111000000D01*
X154000000Y-111000000D02*
X155000000Y-111000000D01*
X156000000Y-111000000D02*
X157000000Y-111000000D01*
X158000000Y-111000000D02*
X159000000Y-111000000D01*
X160000000Y-111000000D02*
X161000000Y-111000000D01*
X162000000Y-111000000D02*
X163000000Y-111000000D01*
X164000000Y-111000000D02*
X165000000Y-112000000D01*
X166500000Y-113000000D02*
X167500000Y-114000000D01*
X167500000Y-114000000D02*
X168000000Y-114000000D01*
X169000000Y-115000000D02*
X169000000Y-116000000D01*
X170000000Y-116000000D02*
X172000000Y-116000000D01*
X173000000Y-116000000D02*
X174000000Y-116000000D01*
X174000000Y-117000000D02*
X174000000Y-118000000D01*
X174000000Y-119000000D02*
X174000000Y-120000000D01*
X173000000Y-120000000D02*
X172000000Y-120000000D01*
X137960000Y-130500000D02*
X137960000Y-123040000D01*
X127000000Y-117000000D02*
X127000000Y-116000000D01*
X127000000Y-119000000D02*
X127000000Y-118000000D01*
X127000000Y-121000000D02*
X127000000Y-120000000D01*
X128000000Y-122000000D02*
X127000000Y-122000000D01*
X130000000Y-122000000D02*
X129000000Y-122000000D01*
X132000000Y-122000000D02*
X131000000Y-122000000D01*
X134000000Y-122000000D02*
X133000000Y-122000000D01*
X136000000Y-122000000D02*
X135000000Y-122000000D01*
X138000000Y-122000000D02*
X137000000Y-122000000D01*
X137960000Y-123040000D02*
X139000000Y-122000000D01*
X142000000Y-126000000D02*
X143000000Y-126000000D01*
X144000000Y-126000000D02*
X145000000Y-126000000D01*
D27*
X144000000Y-121250000D02*
X142100000Y-121250000D01*
X142100000Y-121250000D02*
X142000000Y-121150000D01*
D28*
G04 #@! TO.N,Net-(C2-Pad2)*
X155250000Y-130250000D02*
X155250000Y-130000000D01*
X155250000Y-130000000D02*
X154250000Y-129000000D01*
X159500000Y-130150000D02*
X159500000Y-130000000D01*
X159500000Y-130000000D02*
X160500000Y-129000000D01*
D27*
X161350000Y-127000000D02*
X161350000Y-128150000D01*
X161350000Y-128150000D02*
X160500000Y-129000000D01*
X160500000Y-129000000D02*
X154250000Y-129000000D01*
X154250000Y-129000000D02*
X144540000Y-129000000D01*
X144540000Y-129000000D02*
X143040000Y-130500000D01*
D28*
G04 #@! TO.N,Net-(C3-Pad1)*
X160500000Y-121750000D02*
X159275000Y-121750000D01*
X159275000Y-121750000D02*
X158525000Y-122500000D01*
X158525000Y-122500000D02*
X149690000Y-122500000D01*
X149690000Y-122500000D02*
X149365000Y-122825000D01*
X149365000Y-122825000D02*
X149365000Y-124200000D01*
X160500000Y-121750000D02*
X160500000Y-118000000D01*
X160115000Y-122135000D02*
X160500000Y-121750000D01*
D27*
X163000000Y-121650000D02*
X160600000Y-121650000D01*
X160600000Y-121650000D02*
X160500000Y-121750000D01*
D28*
G04 #@! TO.N,Net-(C4-Pad1)*
X148095000Y-118800000D02*
X139800000Y-118800000D01*
X139800000Y-118800000D02*
X138500000Y-117500000D01*
D27*
X138500000Y-115850000D02*
X138500000Y-117000000D01*
X138500000Y-117000000D02*
X138500000Y-117500000D01*
X140500000Y-115750000D02*
X138600000Y-115750000D01*
X138600000Y-115750000D02*
X138500000Y-115850000D01*
G04 #@! TO.N,Net-(C5-Pad2)*
X140500000Y-130500000D02*
X140500000Y-125350000D01*
X140500000Y-125350000D02*
X142000000Y-123850000D01*
D28*
X146000000Y-123850000D02*
X144100000Y-123850000D01*
X144100000Y-123850000D02*
X142000000Y-123850000D01*
D27*
G04 #@! TO.N,Net-(D1-Pad2)*
X169650000Y-118000000D02*
X167650000Y-118000000D01*
X167650000Y-118000000D02*
X167000000Y-118650000D01*
X167000000Y-118650000D02*
X167000000Y-116000000D01*
X165000000Y-114000000D02*
X162000000Y-114000000D01*
X167000000Y-116000000D02*
X165000000Y-114000000D01*
D29*
X147000000Y-114000000D02*
X162000000Y-114000000D01*
D27*
X162500000Y-117050000D02*
X162500000Y-114500000D01*
X162500000Y-114500000D02*
X162000000Y-114000000D01*
D28*
G04 #@! TO.N,Net-(D2-Pad1)*
X150850000Y-127000000D02*
X155000000Y-127000000D01*
X155000000Y-127000000D02*
X152000000Y-127000000D01*
X150635000Y-125635000D02*
X150635000Y-124200000D01*
X152000000Y-127000000D02*
X150635000Y-125635000D01*
G04 #@! TO.N,Net-(D2-Pad2)*
X154050000Y-125000000D02*
X154050000Y-123950000D01*
X154050000Y-123950000D02*
X154500000Y-123500000D01*
X158000000Y-123500000D02*
X158650000Y-124150000D01*
X154500000Y-123500000D02*
X158000000Y-123500000D01*
X158650000Y-124150000D02*
X158650000Y-127000000D01*
X154050000Y-125000000D02*
X152705000Y-125000000D01*
X152705000Y-125000000D02*
X151905000Y-124200000D01*
D27*
G04 #@! TO.N,Net-(D3-Pad2)*
X131850000Y-118500000D02*
X134000000Y-118500000D01*
D28*
X136500000Y-118450000D02*
X134050000Y-118450000D01*
X134050000Y-118450000D02*
X134000000Y-118500000D01*
D27*
X134000000Y-116350000D02*
X134000000Y-118500000D01*
D28*
G04 #@! TO.N,Net-(D4-Pad1)*
X158500000Y-119350000D02*
X157850000Y-119350000D01*
X157850000Y-119350000D02*
X156500000Y-118000000D01*
X156500000Y-118000000D02*
X155000000Y-118000000D01*
X155000000Y-118000000D02*
X154000000Y-118000000D01*
X154000000Y-118000000D02*
X153000000Y-117000000D01*
X153000000Y-117000000D02*
X150000000Y-117000000D01*
X150000000Y-117000000D02*
X149365000Y-117635000D01*
X149365000Y-117635000D02*
X149365000Y-118800000D01*
G04 #@! TO.N,Net-(D4-Pad2)*
X150635000Y-118800000D02*
X150635000Y-119765000D01*
X150635000Y-119765000D02*
X148900000Y-121500000D01*
X148900000Y-121500000D02*
X148200000Y-121500000D01*
X150000000Y-121500000D02*
X148200000Y-121500000D01*
X148200000Y-121500000D02*
X146350000Y-121500000D01*
X155950000Y-120000000D02*
X155800002Y-120000000D01*
X155800002Y-120000000D02*
X154300002Y-121500000D01*
X154300002Y-121500000D02*
X150000000Y-121500000D01*
X146350000Y-121500000D02*
X146000000Y-121150000D01*
G04 #@! TO.N,+12V*
X152000000Y-120500000D02*
X152800000Y-120500000D01*
X152000000Y-120500000D02*
X151100000Y-120500000D01*
X151905000Y-118800000D02*
X151905000Y-120405000D01*
X151905000Y-120405000D02*
X152000000Y-120500000D01*
D27*
G04 #@! TO.N,Net-(J17-Pad1)*
X167000000Y-124500000D02*
X167000000Y-121350000D01*
D30*
X167000000Y-130500000D02*
X167000000Y-124500000D01*
X167000000Y-124500000D02*
X167000000Y-124000000D01*
D27*
X169650000Y-122000000D02*
X167650000Y-122000000D01*
X167650000Y-122000000D02*
X167000000Y-121350000D01*
G04 #@! TD*
D31*
G04 #@! TO.N,GND*
G36*
X189290000Y-101030392D02*
X189193482Y-101126910D01*
X189064275Y-100834141D01*
X188364117Y-100565929D01*
X187614616Y-100586072D01*
X187015725Y-100834141D01*
X186886517Y-101126911D01*
X188040000Y-102280395D01*
X188054142Y-102266252D01*
X188233748Y-102445858D01*
X188219605Y-102460000D01*
X188233748Y-102474142D01*
X188054142Y-102653748D01*
X188040000Y-102639605D01*
X186886517Y-103793089D01*
X187015725Y-104085859D01*
X187715883Y-104354071D01*
X188465384Y-104333928D01*
X189064275Y-104085859D01*
X189193482Y-103793090D01*
X189290000Y-103889608D01*
X189290000Y-106110392D01*
X189193482Y-106206910D01*
X189064275Y-105914141D01*
X188364117Y-105645929D01*
X187614616Y-105666072D01*
X187015725Y-105914141D01*
X186886517Y-106206911D01*
X188040000Y-107360395D01*
X188054142Y-107346252D01*
X188233748Y-107525858D01*
X188219605Y-107540000D01*
X188233748Y-107554143D01*
X188054142Y-107733748D01*
X188040000Y-107719605D01*
X186886517Y-108873089D01*
X187015725Y-109165859D01*
X187715883Y-109434071D01*
X188465384Y-109413928D01*
X189064275Y-109165859D01*
X189193482Y-108873090D01*
X189290000Y-108969608D01*
X189290001Y-134290000D01*
X170969608Y-134290000D01*
X170873090Y-134193482D01*
X171165859Y-134064275D01*
X171434071Y-133364117D01*
X171413928Y-132614616D01*
X171346712Y-132452340D01*
X182727265Y-132452340D01*
X183045501Y-132906203D01*
X184306434Y-133432936D01*
X185672956Y-133437035D01*
X186937027Y-132917878D01*
X186954499Y-132906203D01*
X187272735Y-132452340D01*
X185000000Y-130179605D01*
X182727265Y-132452340D01*
X171346712Y-132452340D01*
X171165859Y-132015725D01*
X170873089Y-131886517D01*
X169719605Y-133040000D01*
X169733748Y-133054142D01*
X169554142Y-133233748D01*
X169540000Y-133219605D01*
X169525858Y-133233748D01*
X169346252Y-133054142D01*
X169360395Y-133040000D01*
X168206911Y-131886517D01*
X167914141Y-132015725D01*
X167645929Y-132715883D01*
X167666072Y-133465384D01*
X167914141Y-134064275D01*
X168206910Y-134193482D01*
X168110392Y-134290000D01*
X165889608Y-134290000D01*
X165793090Y-134193482D01*
X166085859Y-134064275D01*
X166354071Y-133364117D01*
X166333928Y-132614616D01*
X166085859Y-132015725D01*
X165793089Y-131886517D01*
X164639605Y-133040000D01*
X164653748Y-133054142D01*
X164474142Y-133233748D01*
X164460000Y-133219605D01*
X164445858Y-133233748D01*
X164266252Y-133054142D01*
X164280395Y-133040000D01*
X163126911Y-131886517D01*
X162834141Y-132015725D01*
X162565929Y-132715883D01*
X162586072Y-133465384D01*
X162834141Y-134064275D01*
X163126910Y-134193482D01*
X163030392Y-134290000D01*
X90710000Y-134290000D01*
X90710000Y-132452340D01*
X92727265Y-132452340D01*
X93045501Y-132906203D01*
X94306434Y-133432936D01*
X95672956Y-133437035D01*
X96650026Y-133035750D01*
X153990000Y-133035750D01*
X153990000Y-133626309D01*
X154086673Y-133859698D01*
X154265301Y-134038327D01*
X154498690Y-134135000D01*
X154964250Y-134135000D01*
X155123000Y-133976250D01*
X155123000Y-132877000D01*
X155377000Y-132877000D01*
X155377000Y-133976250D01*
X155535750Y-134135000D01*
X156001310Y-134135000D01*
X156234699Y-134038327D01*
X156413327Y-133859698D01*
X156510000Y-133626309D01*
X156510000Y-133135750D01*
X158215000Y-133135750D01*
X158215000Y-133726309D01*
X158311673Y-133959698D01*
X158490301Y-134138327D01*
X158723690Y-134235000D01*
X159214250Y-134235000D01*
X159373000Y-134076250D01*
X159373000Y-132977000D01*
X159627000Y-132977000D01*
X159627000Y-134076250D01*
X159785750Y-134235000D01*
X160276310Y-134235000D01*
X160509699Y-134138327D01*
X160688327Y-133959698D01*
X160785000Y-133726309D01*
X160785000Y-133135750D01*
X160626250Y-132977000D01*
X159627000Y-132977000D01*
X159373000Y-132977000D01*
X158373750Y-132977000D01*
X158215000Y-133135750D01*
X156510000Y-133135750D01*
X156510000Y-133035750D01*
X156351250Y-132877000D01*
X155377000Y-132877000D01*
X155123000Y-132877000D01*
X154148750Y-132877000D01*
X153990000Y-133035750D01*
X96650026Y-133035750D01*
X96937027Y-132917878D01*
X96954499Y-132906203D01*
X97272735Y-132452340D01*
X95000000Y-130179605D01*
X92727265Y-132452340D01*
X90710000Y-132452340D01*
X90710000Y-130672956D01*
X91562965Y-130672956D01*
X92082122Y-131937027D01*
X92093797Y-131954499D01*
X92547660Y-132272735D01*
X94820395Y-130000000D01*
X95179605Y-130000000D01*
X97452340Y-132272735D01*
X97906203Y-131954499D01*
X98432936Y-130693566D01*
X98434899Y-130038969D01*
X131245000Y-130038969D01*
X131245000Y-130961030D01*
X131339864Y-131437944D01*
X131701231Y-131978769D01*
X132242055Y-132340136D01*
X132880000Y-132467031D01*
X133517944Y-132340136D01*
X134058769Y-131978769D01*
X134150000Y-131842232D01*
X134241231Y-131978769D01*
X134782055Y-132340136D01*
X135420000Y-132467031D01*
X136057944Y-132340136D01*
X136598769Y-131978769D01*
X136709952Y-131812371D01*
X136893683Y-132045922D01*
X137451645Y-132359144D01*
X137579566Y-132390124D01*
X137833000Y-132270777D01*
X137833000Y-130627000D01*
X137813000Y-130627000D01*
X137813000Y-130373000D01*
X137833000Y-130373000D01*
X137833000Y-128729223D01*
X137579566Y-128609876D01*
X137451645Y-128640856D01*
X136893683Y-128954078D01*
X136709952Y-129187629D01*
X136598769Y-129021231D01*
X136057945Y-128659864D01*
X135420000Y-128532969D01*
X134782056Y-128659864D01*
X134241231Y-129021231D01*
X134150000Y-129157768D01*
X134058769Y-129021231D01*
X133517945Y-128659864D01*
X132880000Y-128532969D01*
X132242056Y-128659864D01*
X131701231Y-129021231D01*
X131339864Y-129562055D01*
X131245000Y-130038969D01*
X98434899Y-130038969D01*
X98437035Y-129327044D01*
X97917878Y-128062973D01*
X97906203Y-128045501D01*
X97452340Y-127727265D01*
X95179605Y-130000000D01*
X94820395Y-130000000D01*
X92547660Y-127727265D01*
X92093797Y-128045501D01*
X91567064Y-129306434D01*
X91562965Y-130672956D01*
X90710000Y-130672956D01*
X90710000Y-127547660D01*
X92727265Y-127547660D01*
X95000000Y-129820395D01*
X97272735Y-127547660D01*
X96954499Y-127093797D01*
X95693566Y-126567064D01*
X94327044Y-126562965D01*
X93062973Y-127082122D01*
X93045501Y-127093797D01*
X92727265Y-127547660D01*
X90710000Y-127547660D01*
X90710000Y-118785750D01*
X127765000Y-118785750D01*
X127765000Y-119276310D01*
X127861673Y-119509699D01*
X128040302Y-119688327D01*
X128273691Y-119785000D01*
X128864250Y-119785000D01*
X129023000Y-119626250D01*
X129023000Y-118627000D01*
X127923750Y-118627000D01*
X127765000Y-118785750D01*
X90710000Y-118785750D01*
X90710000Y-117723690D01*
X127765000Y-117723690D01*
X127765000Y-118214250D01*
X127923750Y-118373000D01*
X129023000Y-118373000D01*
X129023000Y-117373750D01*
X129277000Y-117373750D01*
X129277000Y-118373000D01*
X129297000Y-118373000D01*
X129297000Y-118627000D01*
X129277000Y-118627000D01*
X129277000Y-119626250D01*
X129435750Y-119785000D01*
X130026309Y-119785000D01*
X130259698Y-119688327D01*
X130438327Y-119509699D01*
X130496279Y-119369791D01*
X130501843Y-119397765D01*
X130642191Y-119607809D01*
X130852235Y-119748157D01*
X131100000Y-119797440D01*
X131656799Y-119797440D01*
X131656799Y-120000000D01*
X131720984Y-120322679D01*
X131903767Y-120596233D01*
X132177321Y-120779016D01*
X132500000Y-120843201D01*
X135500000Y-120843201D01*
X135822679Y-120779016D01*
X136096233Y-120596233D01*
X136279016Y-120322679D01*
X136288760Y-120273691D01*
X140715000Y-120273691D01*
X140715000Y-120864250D01*
X140873750Y-121023000D01*
X141873000Y-121023000D01*
X141873000Y-119923750D01*
X142127000Y-119923750D01*
X142127000Y-121023000D01*
X142798750Y-121023000D01*
X142898750Y-121123000D01*
X143873000Y-121123000D01*
X143873000Y-120023750D01*
X143714250Y-119865000D01*
X143248690Y-119865000D01*
X143082050Y-119934025D01*
X143009699Y-119861673D01*
X142776310Y-119765000D01*
X142285750Y-119765000D01*
X142127000Y-119923750D01*
X141873000Y-119923750D01*
X141714250Y-119765000D01*
X141223690Y-119765000D01*
X140990301Y-119861673D01*
X140811673Y-120040302D01*
X140715000Y-120273691D01*
X136288760Y-120273691D01*
X136343201Y-120000000D01*
X136343201Y-119497440D01*
X136950000Y-119497440D01*
X137197765Y-119448157D01*
X137407809Y-119307809D01*
X137548157Y-119097765D01*
X137597440Y-118850000D01*
X137597440Y-118361316D01*
X137802235Y-118498157D01*
X138013920Y-118540263D01*
X138057146Y-118569146D01*
X138293963Y-118616252D01*
X139073739Y-119396028D01*
X139125903Y-119474097D01*
X139399988Y-119657235D01*
X139435181Y-119680750D01*
X139800000Y-119753317D01*
X139892086Y-119735000D01*
X147179386Y-119735000D01*
X147196843Y-119822765D01*
X147337191Y-120032809D01*
X147547235Y-120173157D01*
X147795000Y-120222440D01*
X148395000Y-120222440D01*
X148642765Y-120173157D01*
X148730000Y-120114868D01*
X148817235Y-120173157D01*
X148890067Y-120187644D01*
X148512711Y-120565000D01*
X147297440Y-120565000D01*
X147297440Y-120400000D01*
X147248157Y-120152235D01*
X147107809Y-119942191D01*
X146897765Y-119801843D01*
X146650000Y-119752560D01*
X145350000Y-119752560D01*
X145102235Y-119801843D01*
X144909593Y-119930563D01*
X144751310Y-119865000D01*
X144285750Y-119865000D01*
X144127000Y-120023750D01*
X144127000Y-121123000D01*
X144147000Y-121123000D01*
X144147000Y-121377000D01*
X144127000Y-121377000D01*
X144127000Y-121397000D01*
X143873000Y-121397000D01*
X143873000Y-121377000D01*
X143226250Y-121377000D01*
X143126250Y-121277000D01*
X142127000Y-121277000D01*
X142127000Y-121297000D01*
X141873000Y-121297000D01*
X141873000Y-121277000D01*
X140873750Y-121277000D01*
X140715000Y-121435750D01*
X140715000Y-122026309D01*
X140811673Y-122259698D01*
X140990301Y-122438327D01*
X141130209Y-122496279D01*
X141102235Y-122501843D01*
X140892191Y-122642191D01*
X140751843Y-122852235D01*
X140702560Y-123100000D01*
X140702560Y-123542308D01*
X139776480Y-124468389D01*
X139681712Y-124531711D01*
X139533016Y-124754250D01*
X139430854Y-124907146D01*
X139342765Y-125350000D01*
X139365001Y-125461788D01*
X139365000Y-128991985D01*
X139321231Y-129021231D01*
X139210048Y-129187629D01*
X139026317Y-128954078D01*
X138468355Y-128640856D01*
X138340434Y-128609876D01*
X138087000Y-128729223D01*
X138087000Y-130373000D01*
X138107000Y-130373000D01*
X138107000Y-130627000D01*
X138087000Y-130627000D01*
X138087000Y-132270777D01*
X138340434Y-132390124D01*
X138468355Y-132359144D01*
X139026317Y-132045922D01*
X139210048Y-131812371D01*
X139321231Y-131978769D01*
X139862055Y-132340136D01*
X140500000Y-132467031D01*
X141137944Y-132340136D01*
X141483100Y-132109510D01*
X141582191Y-132257809D01*
X141792235Y-132398157D01*
X142040000Y-132447440D01*
X144040000Y-132447440D01*
X144287765Y-132398157D01*
X144497809Y-132257809D01*
X144638157Y-132047765D01*
X144687440Y-131800000D01*
X144687440Y-130457692D01*
X145010132Y-130135000D01*
X153977560Y-130135000D01*
X153977560Y-131000000D01*
X154026843Y-131247765D01*
X154167191Y-131457809D01*
X154228320Y-131498654D01*
X154086673Y-131640302D01*
X153990000Y-131873691D01*
X153990000Y-132464250D01*
X154148750Y-132623000D01*
X155123000Y-132623000D01*
X155123000Y-132603000D01*
X155377000Y-132603000D01*
X155377000Y-132623000D01*
X156351250Y-132623000D01*
X156510000Y-132464250D01*
X156510000Y-131873691D01*
X156413327Y-131640302D01*
X156271680Y-131498654D01*
X156332809Y-131457809D01*
X156473157Y-131247765D01*
X156522440Y-131000000D01*
X156522440Y-130135000D01*
X158202560Y-130135000D01*
X158202560Y-130900000D01*
X158251843Y-131147765D01*
X158392191Y-131357809D01*
X158602235Y-131498157D01*
X158630209Y-131503721D01*
X158490301Y-131561673D01*
X158311673Y-131740302D01*
X158215000Y-131973691D01*
X158215000Y-132564250D01*
X158373750Y-132723000D01*
X159373000Y-132723000D01*
X159373000Y-132703000D01*
X159627000Y-132703000D01*
X159627000Y-132723000D01*
X160626250Y-132723000D01*
X160785000Y-132564250D01*
X160785000Y-131973691D01*
X160688327Y-131740302D01*
X160654937Y-131706911D01*
X163306517Y-131706911D01*
X164460000Y-132860395D01*
X165613483Y-131706911D01*
X165484275Y-131414141D01*
X164784117Y-131145929D01*
X164034616Y-131166072D01*
X163435725Y-131414141D01*
X163306517Y-131706911D01*
X160654937Y-131706911D01*
X160509699Y-131561673D01*
X160369791Y-131503721D01*
X160397765Y-131498157D01*
X160607809Y-131357809D01*
X160748157Y-131147765D01*
X160797440Y-130900000D01*
X160797440Y-130098071D01*
X160942855Y-130069146D01*
X161318289Y-129818289D01*
X161381612Y-129723519D01*
X162073523Y-129031609D01*
X162168289Y-128968289D01*
X162419146Y-128592855D01*
X162485000Y-128261783D01*
X162507235Y-128150000D01*
X162505760Y-128142587D01*
X162557809Y-128107809D01*
X162577808Y-128077879D01*
X162586072Y-128385384D01*
X162834141Y-128984275D01*
X163126911Y-129113483D01*
X164280395Y-127960000D01*
X163126911Y-126806517D01*
X162834141Y-126935725D01*
X162747440Y-127162055D01*
X162747440Y-126350000D01*
X162698157Y-126102235D01*
X162557809Y-125892191D01*
X162347765Y-125751843D01*
X162263089Y-125735000D01*
X162714250Y-125735000D01*
X162873000Y-125576250D01*
X162873000Y-124477000D01*
X163127000Y-124477000D01*
X163127000Y-125576250D01*
X163285750Y-125735000D01*
X163776310Y-125735000D01*
X164009699Y-125638327D01*
X164188327Y-125459698D01*
X164285000Y-125226309D01*
X164285000Y-124635750D01*
X164126250Y-124477000D01*
X163127000Y-124477000D01*
X162873000Y-124477000D01*
X161873750Y-124477000D01*
X161760000Y-124590750D01*
X161760000Y-124535750D01*
X161601250Y-124377000D01*
X160627000Y-124377000D01*
X160627000Y-125476250D01*
X160785750Y-125635000D01*
X161251310Y-125635000D01*
X161484699Y-125538327D01*
X161663327Y-125359698D01*
X161716789Y-125230629D01*
X161811673Y-125459698D01*
X161990301Y-125638327D01*
X162187291Y-125719923D01*
X162100000Y-125702560D01*
X160600000Y-125702560D01*
X160352235Y-125751843D01*
X160142191Y-125892191D01*
X160001843Y-126102235D01*
X160000000Y-126111500D01*
X159998157Y-126102235D01*
X159857809Y-125892191D01*
X159647765Y-125751843D01*
X159585000Y-125739358D01*
X159585000Y-125567197D01*
X159748690Y-125635000D01*
X160214250Y-125635000D01*
X160373000Y-125476250D01*
X160373000Y-124377000D01*
X160353000Y-124377000D01*
X160353000Y-124123000D01*
X160373000Y-124123000D01*
X160373000Y-124103000D01*
X160627000Y-124103000D01*
X160627000Y-124123000D01*
X161601250Y-124123000D01*
X161715000Y-124009250D01*
X161715000Y-124064250D01*
X161873750Y-124223000D01*
X162873000Y-124223000D01*
X162873000Y-124203000D01*
X163127000Y-124203000D01*
X163127000Y-124223000D01*
X164126250Y-124223000D01*
X164285000Y-124064250D01*
X164285000Y-123473691D01*
X164188327Y-123240302D01*
X164009699Y-123061673D01*
X163869791Y-123003721D01*
X163897765Y-122998157D01*
X164107809Y-122857809D01*
X164248157Y-122647765D01*
X164297440Y-122400000D01*
X164297440Y-120900000D01*
X164248157Y-120652235D01*
X164107809Y-120442191D01*
X163897765Y-120301843D01*
X163650000Y-120252560D01*
X162350000Y-120252560D01*
X162102235Y-120301843D01*
X161892191Y-120442191D01*
X161843541Y-120515000D01*
X161542115Y-120515000D01*
X161435000Y-120443427D01*
X161435000Y-119513089D01*
X161451843Y-119597765D01*
X161592191Y-119807809D01*
X161802235Y-119948157D01*
X162050000Y-119997440D01*
X162950000Y-119997440D01*
X163197765Y-119948157D01*
X163407809Y-119807809D01*
X163548157Y-119597765D01*
X163597440Y-119350000D01*
X163597440Y-118550000D01*
X163548157Y-118302235D01*
X163407809Y-118092191D01*
X163269836Y-118000000D01*
X163407809Y-117907809D01*
X163548157Y-117697765D01*
X163597440Y-117450000D01*
X163597440Y-117350611D01*
X163635000Y-117161783D01*
X163635000Y-116316348D01*
X163822679Y-116279016D01*
X164096233Y-116096233D01*
X164279016Y-115822679D01*
X164343201Y-115500000D01*
X164343201Y-115135000D01*
X164529869Y-115135000D01*
X165865001Y-116470133D01*
X165865000Y-117482884D01*
X165751843Y-117652235D01*
X165702560Y-117900000D01*
X165702560Y-119400000D01*
X165751843Y-119647765D01*
X165892191Y-119857809D01*
X166102235Y-119998157D01*
X166111500Y-120000000D01*
X166102235Y-120001843D01*
X165892191Y-120142191D01*
X165751843Y-120352235D01*
X165702560Y-120600000D01*
X165702560Y-122100000D01*
X165751843Y-122347765D01*
X165865001Y-122517116D01*
X165865000Y-123115717D01*
X165648260Y-123440091D01*
X165565000Y-123858667D01*
X165565000Y-124641332D01*
X165565001Y-124641337D01*
X165565001Y-126517056D01*
X165484275Y-126334141D01*
X164784117Y-126065929D01*
X164034616Y-126086072D01*
X163435725Y-126334141D01*
X163306517Y-126626911D01*
X164460000Y-127780395D01*
X164474142Y-127766252D01*
X164653748Y-127945858D01*
X164639605Y-127960000D01*
X164653748Y-127974142D01*
X164474142Y-128153748D01*
X164460000Y-128139605D01*
X163306517Y-129293089D01*
X163435725Y-129585859D01*
X164135883Y-129854071D01*
X164885384Y-129833928D01*
X165484275Y-129585859D01*
X165565000Y-129402946D01*
X165565000Y-129693268D01*
X165365510Y-130174880D01*
X165365510Y-130825120D01*
X165614346Y-131425864D01*
X166074136Y-131885654D01*
X166674880Y-132134490D01*
X167325120Y-132134490D01*
X167925864Y-131885654D01*
X168104607Y-131706911D01*
X168386517Y-131706911D01*
X169540000Y-132860395D01*
X170693483Y-131706911D01*
X170564275Y-131414141D01*
X169864117Y-131145929D01*
X169114616Y-131166072D01*
X168515725Y-131414141D01*
X168386517Y-131706911D01*
X168104607Y-131706911D01*
X168385654Y-131425864D01*
X168634490Y-130825120D01*
X168634490Y-130672956D01*
X181562965Y-130672956D01*
X182082122Y-131937027D01*
X182093797Y-131954499D01*
X182547660Y-132272735D01*
X184820395Y-130000000D01*
X185179605Y-130000000D01*
X187452340Y-132272735D01*
X187906203Y-131954499D01*
X188432936Y-130693566D01*
X188437035Y-129327044D01*
X187917878Y-128062973D01*
X187906203Y-128045501D01*
X187452340Y-127727265D01*
X185179605Y-130000000D01*
X184820395Y-130000000D01*
X182547660Y-127727265D01*
X182093797Y-128045501D01*
X181567064Y-129306434D01*
X181562965Y-130672956D01*
X168634490Y-130672956D01*
X168634490Y-130174880D01*
X168435000Y-129693268D01*
X168435000Y-129402946D01*
X168515725Y-129585859D01*
X169215883Y-129854071D01*
X169965384Y-129833928D01*
X170564275Y-129585859D01*
X170693483Y-129293089D01*
X169540000Y-128139605D01*
X169525858Y-128153748D01*
X169346252Y-127974142D01*
X169360395Y-127960000D01*
X169719605Y-127960000D01*
X170873089Y-129113483D01*
X171165859Y-128984275D01*
X171434071Y-128284117D01*
X171414279Y-127547660D01*
X182727265Y-127547660D01*
X185000000Y-129820395D01*
X187272735Y-127547660D01*
X186954499Y-127093797D01*
X185693566Y-126567064D01*
X184327044Y-126562965D01*
X183062973Y-127082122D01*
X183045501Y-127093797D01*
X182727265Y-127547660D01*
X171414279Y-127547660D01*
X171413928Y-127534616D01*
X171165859Y-126935725D01*
X170873089Y-126806517D01*
X169719605Y-127960000D01*
X169360395Y-127960000D01*
X169346252Y-127945858D01*
X169525858Y-127766252D01*
X169540000Y-127780395D01*
X170693483Y-126626911D01*
X170564275Y-126334141D01*
X169864117Y-126065929D01*
X169114616Y-126086072D01*
X168515725Y-126334141D01*
X168435000Y-126517054D01*
X168435000Y-123858668D01*
X168351740Y-123440091D01*
X168147885Y-123135000D01*
X168482885Y-123135000D01*
X168652235Y-123248157D01*
X168900000Y-123297440D01*
X170400000Y-123297440D01*
X170647765Y-123248157D01*
X170857809Y-123107809D01*
X170998157Y-122897765D01*
X171003721Y-122869791D01*
X171061673Y-123009699D01*
X171240302Y-123188327D01*
X171473691Y-123285000D01*
X172064250Y-123285000D01*
X172223000Y-123126250D01*
X172223000Y-122127000D01*
X172477000Y-122127000D01*
X172477000Y-123126250D01*
X172635750Y-123285000D01*
X173226309Y-123285000D01*
X173459698Y-123188327D01*
X173638327Y-123009699D01*
X173735000Y-122776310D01*
X173735000Y-122285750D01*
X173576250Y-122127000D01*
X172477000Y-122127000D01*
X172223000Y-122127000D01*
X172203000Y-122127000D01*
X172203000Y-121873000D01*
X172223000Y-121873000D01*
X172223000Y-120873750D01*
X172477000Y-120873750D01*
X172477000Y-121873000D01*
X173576250Y-121873000D01*
X173735000Y-121714250D01*
X173735000Y-121223690D01*
X173638327Y-120990301D01*
X173459698Y-120811673D01*
X173226309Y-120715000D01*
X172635750Y-120715000D01*
X172477000Y-120873750D01*
X172223000Y-120873750D01*
X172064250Y-120715000D01*
X171473691Y-120715000D01*
X171240302Y-120811673D01*
X171061673Y-120990301D01*
X171003721Y-121130209D01*
X170998157Y-121102235D01*
X170857809Y-120892191D01*
X170647765Y-120751843D01*
X170400000Y-120702560D01*
X168900000Y-120702560D01*
X168652235Y-120751843D01*
X168482885Y-120865000D01*
X168297440Y-120865000D01*
X168297440Y-120600000D01*
X168248157Y-120352235D01*
X168107809Y-120142191D01*
X167897765Y-120001843D01*
X167888500Y-120000000D01*
X167897765Y-119998157D01*
X168107809Y-119857809D01*
X168248157Y-119647765D01*
X168297440Y-119400000D01*
X168297440Y-119135000D01*
X168482885Y-119135000D01*
X168652235Y-119248157D01*
X168900000Y-119297440D01*
X170400000Y-119297440D01*
X170647765Y-119248157D01*
X170857809Y-119107809D01*
X170998157Y-118897765D01*
X171003721Y-118869791D01*
X171061673Y-119009699D01*
X171240302Y-119188327D01*
X171473691Y-119285000D01*
X172064250Y-119285000D01*
X172223000Y-119126250D01*
X172223000Y-118127000D01*
X172477000Y-118127000D01*
X172477000Y-119126250D01*
X172635750Y-119285000D01*
X173226309Y-119285000D01*
X173459698Y-119188327D01*
X173638327Y-119009699D01*
X173735000Y-118776310D01*
X173735000Y-118285750D01*
X173576250Y-118127000D01*
X172477000Y-118127000D01*
X172223000Y-118127000D01*
X172203000Y-118127000D01*
X172203000Y-117873000D01*
X172223000Y-117873000D01*
X172223000Y-116873750D01*
X172477000Y-116873750D01*
X172477000Y-117873000D01*
X173576250Y-117873000D01*
X173735000Y-117714250D01*
X173735000Y-117223690D01*
X173638327Y-116990301D01*
X173459698Y-116811673D01*
X173226309Y-116715000D01*
X172635750Y-116715000D01*
X172477000Y-116873750D01*
X172223000Y-116873750D01*
X172064250Y-116715000D01*
X171473691Y-116715000D01*
X171240302Y-116811673D01*
X171061673Y-116990301D01*
X171003721Y-117130209D01*
X170998157Y-117102235D01*
X170857809Y-116892191D01*
X170647765Y-116751843D01*
X170400000Y-116702560D01*
X168900000Y-116702560D01*
X168652235Y-116751843D01*
X168482885Y-116865000D01*
X168135000Y-116865000D01*
X168135000Y-116111782D01*
X168157235Y-115999999D01*
X168069146Y-115557145D01*
X168057188Y-115539249D01*
X167818289Y-115181711D01*
X167723521Y-115118389D01*
X165881613Y-113276482D01*
X165818289Y-113181711D01*
X165442855Y-112930854D01*
X165111783Y-112865000D01*
X165000000Y-112842765D01*
X164888217Y-112865000D01*
X164343201Y-112865000D01*
X164343201Y-112500000D01*
X164279016Y-112177321D01*
X164096233Y-111903767D01*
X163822679Y-111720984D01*
X163500000Y-111656799D01*
X160500000Y-111656799D01*
X160177321Y-111720984D01*
X159961786Y-111865000D01*
X149038214Y-111865000D01*
X148822679Y-111720984D01*
X148500000Y-111656799D01*
X145500000Y-111656799D01*
X145177321Y-111720984D01*
X144903767Y-111903767D01*
X144720984Y-112177321D01*
X144656799Y-112500000D01*
X144656799Y-115500000D01*
X144720984Y-115822679D01*
X144903767Y-116096233D01*
X145177321Y-116279016D01*
X145500000Y-116343201D01*
X148500000Y-116343201D01*
X148822679Y-116279016D01*
X149038214Y-116135000D01*
X149611609Y-116135000D01*
X149325903Y-116325903D01*
X149273739Y-116403972D01*
X148768972Y-116908739D01*
X148690903Y-116960903D01*
X148521121Y-117215000D01*
X148484250Y-117270182D01*
X148460307Y-117390550D01*
X148395000Y-117377560D01*
X147795000Y-117377560D01*
X147547235Y-117426843D01*
X147337191Y-117567191D01*
X147196843Y-117777235D01*
X147179386Y-117865000D01*
X140187289Y-117865000D01*
X139635000Y-117312711D01*
X139635000Y-117099702D01*
X139875000Y-117147440D01*
X141125000Y-117147440D01*
X141372765Y-117098157D01*
X141582809Y-116957809D01*
X141723157Y-116747765D01*
X141772440Y-116500000D01*
X141772440Y-115000000D01*
X141723157Y-114752235D01*
X141582809Y-114542191D01*
X141521680Y-114501346D01*
X141663327Y-114359698D01*
X141760000Y-114126309D01*
X141760000Y-113535750D01*
X141601250Y-113377000D01*
X140627000Y-113377000D01*
X140627000Y-113397000D01*
X140373000Y-113397000D01*
X140373000Y-113377000D01*
X139726250Y-113377000D01*
X139626250Y-113277000D01*
X138627000Y-113277000D01*
X138627000Y-113297000D01*
X138373000Y-113297000D01*
X138373000Y-113277000D01*
X137373750Y-113277000D01*
X137215000Y-113435750D01*
X137215000Y-114026309D01*
X137311673Y-114259698D01*
X137490301Y-114438327D01*
X137630209Y-114496279D01*
X137602235Y-114501843D01*
X137392191Y-114642191D01*
X137251843Y-114852235D01*
X137202560Y-115100000D01*
X137202560Y-115555047D01*
X137197765Y-115551843D01*
X136950000Y-115502560D01*
X136050000Y-115502560D01*
X135802235Y-115551843D01*
X135592191Y-115692191D01*
X135451843Y-115902235D01*
X135402560Y-116150000D01*
X135402560Y-116156799D01*
X135297440Y-116156799D01*
X135297440Y-115600000D01*
X135248157Y-115352235D01*
X135107809Y-115142191D01*
X134897765Y-115001843D01*
X134869791Y-114996279D01*
X135009699Y-114938327D01*
X135188327Y-114759698D01*
X135285000Y-114526309D01*
X135285000Y-113935750D01*
X135126250Y-113777000D01*
X134127000Y-113777000D01*
X134127000Y-113797000D01*
X133873000Y-113797000D01*
X133873000Y-113777000D01*
X132873750Y-113777000D01*
X132715000Y-113935750D01*
X132715000Y-114526309D01*
X132811673Y-114759698D01*
X132990301Y-114938327D01*
X133130209Y-114996279D01*
X133102235Y-115001843D01*
X132892191Y-115142191D01*
X132751843Y-115352235D01*
X132702560Y-115600000D01*
X132702560Y-116156799D01*
X132500000Y-116156799D01*
X132177321Y-116220984D01*
X131903767Y-116403767D01*
X131720984Y-116677321D01*
X131656799Y-117000000D01*
X131656799Y-117202560D01*
X131100000Y-117202560D01*
X130852235Y-117251843D01*
X130642191Y-117392191D01*
X130501843Y-117602235D01*
X130496279Y-117630209D01*
X130438327Y-117490301D01*
X130259698Y-117311673D01*
X130026309Y-117215000D01*
X129435750Y-117215000D01*
X129277000Y-117373750D01*
X129023000Y-117373750D01*
X128864250Y-117215000D01*
X128273691Y-117215000D01*
X128040302Y-117311673D01*
X127861673Y-117490301D01*
X127765000Y-117723690D01*
X90710000Y-117723690D01*
X90710000Y-113622314D01*
X125057291Y-113622314D01*
X125235379Y-113956666D01*
X126080426Y-114291673D01*
X126989350Y-114277794D01*
X127764621Y-113956666D01*
X127942709Y-113622314D01*
X126500000Y-112179605D01*
X125057291Y-113622314D01*
X90710000Y-113622314D01*
X90710000Y-111580426D01*
X124208327Y-111580426D01*
X124222206Y-112489350D01*
X124543334Y-113264621D01*
X124877686Y-113442709D01*
X126320395Y-112000000D01*
X126679605Y-112000000D01*
X128122314Y-113442709D01*
X128456666Y-113264621D01*
X128651288Y-112773691D01*
X132715000Y-112773691D01*
X132715000Y-113364250D01*
X132873750Y-113523000D01*
X133873000Y-113523000D01*
X133873000Y-112423750D01*
X134127000Y-112423750D01*
X134127000Y-113523000D01*
X135126250Y-113523000D01*
X135285000Y-113364250D01*
X135285000Y-112773691D01*
X135188327Y-112540302D01*
X135009699Y-112361673D01*
X134797292Y-112273691D01*
X137215000Y-112273691D01*
X137215000Y-112864250D01*
X137373750Y-113023000D01*
X138373000Y-113023000D01*
X138373000Y-111923750D01*
X138627000Y-111923750D01*
X138627000Y-113023000D01*
X139298750Y-113023000D01*
X139398750Y-113123000D01*
X140373000Y-113123000D01*
X140373000Y-112023750D01*
X140627000Y-112023750D01*
X140627000Y-113123000D01*
X141601250Y-113123000D01*
X141760000Y-112964250D01*
X141760000Y-112373691D01*
X141663327Y-112140302D01*
X141484699Y-111961673D01*
X141251310Y-111865000D01*
X140785750Y-111865000D01*
X140627000Y-112023750D01*
X140373000Y-112023750D01*
X140214250Y-111865000D01*
X139748690Y-111865000D01*
X139582050Y-111934025D01*
X139509699Y-111861673D01*
X139276310Y-111765000D01*
X138785750Y-111765000D01*
X138627000Y-111923750D01*
X138373000Y-111923750D01*
X138214250Y-111765000D01*
X137723690Y-111765000D01*
X137490301Y-111861673D01*
X137311673Y-112040302D01*
X137215000Y-112273691D01*
X134797292Y-112273691D01*
X134776310Y-112265000D01*
X134285750Y-112265000D01*
X134127000Y-112423750D01*
X133873000Y-112423750D01*
X133714250Y-112265000D01*
X133223690Y-112265000D01*
X132990301Y-112361673D01*
X132811673Y-112540302D01*
X132715000Y-112773691D01*
X128651288Y-112773691D01*
X128791673Y-112419574D01*
X128777794Y-111510650D01*
X128456666Y-110735379D01*
X128122314Y-110557291D01*
X126679605Y-112000000D01*
X126320395Y-112000000D01*
X124877686Y-110557291D01*
X124543334Y-110735379D01*
X124208327Y-111580426D01*
X90710000Y-111580426D01*
X90710000Y-110377686D01*
X125057291Y-110377686D01*
X126500000Y-111820395D01*
X127942709Y-110377686D01*
X127764621Y-110043334D01*
X126919574Y-109708327D01*
X126010650Y-109722206D01*
X125235379Y-110043334D01*
X125057291Y-110377686D01*
X90710000Y-110377686D01*
X90710000Y-108969608D01*
X90806518Y-108873090D01*
X90935725Y-109165859D01*
X91635883Y-109434071D01*
X92385384Y-109413928D01*
X92984275Y-109165859D01*
X93113483Y-108873089D01*
X95886517Y-108873089D01*
X96015725Y-109165859D01*
X96715883Y-109434071D01*
X97465384Y-109413928D01*
X98064275Y-109165859D01*
X98193483Y-108873089D01*
X181806517Y-108873089D01*
X181935725Y-109165859D01*
X182635883Y-109434071D01*
X183385384Y-109413928D01*
X183984275Y-109165859D01*
X184113483Y-108873089D01*
X182960000Y-107719605D01*
X181806517Y-108873089D01*
X98193483Y-108873089D01*
X97040000Y-107719605D01*
X95886517Y-108873089D01*
X93113483Y-108873089D01*
X91960000Y-107719605D01*
X91945858Y-107733748D01*
X91766252Y-107554142D01*
X91780395Y-107540000D01*
X92139605Y-107540000D01*
X93293089Y-108693483D01*
X93585859Y-108564275D01*
X93854071Y-107864117D01*
X93836650Y-107215883D01*
X95145929Y-107215883D01*
X95166072Y-107965384D01*
X95414141Y-108564275D01*
X95706911Y-108693483D01*
X96860395Y-107540000D01*
X97219605Y-107540000D01*
X98373089Y-108693483D01*
X98665859Y-108564275D01*
X98934071Y-107864117D01*
X98913928Y-107114616D01*
X98665859Y-106515725D01*
X98373089Y-106386517D01*
X97219605Y-107540000D01*
X96860395Y-107540000D01*
X95706911Y-106386517D01*
X95414141Y-106515725D01*
X95145929Y-107215883D01*
X93836650Y-107215883D01*
X93833928Y-107114616D01*
X93585859Y-106515725D01*
X93293089Y-106386517D01*
X92139605Y-107540000D01*
X91780395Y-107540000D01*
X91766252Y-107525858D01*
X91945858Y-107346252D01*
X91960000Y-107360395D01*
X93113483Y-106206911D01*
X92984275Y-105914141D01*
X92284117Y-105645929D01*
X91534616Y-105666072D01*
X90935725Y-105914141D01*
X90806518Y-106206910D01*
X90710000Y-106110392D01*
X90710000Y-104674880D01*
X92865510Y-104674880D01*
X92865510Y-105325120D01*
X93114346Y-105925864D01*
X93574136Y-106385654D01*
X94174880Y-106634490D01*
X94825120Y-106634490D01*
X95425864Y-106385654D01*
X95604607Y-106206911D01*
X95886517Y-106206911D01*
X97040000Y-107360395D01*
X98193483Y-106206911D01*
X98064275Y-105914141D01*
X97364117Y-105645929D01*
X96614616Y-105666072D01*
X96015725Y-105914141D01*
X95886517Y-106206911D01*
X95604607Y-106206911D01*
X95885654Y-105925864D01*
X96134490Y-105325120D01*
X96134490Y-104674880D01*
X96080893Y-104545485D01*
X166715000Y-104545485D01*
X166715000Y-105454515D01*
X167062870Y-106294349D01*
X167705651Y-106937130D01*
X168545485Y-107285000D01*
X169454515Y-107285000D01*
X169621378Y-107215883D01*
X181065929Y-107215883D01*
X181086072Y-107965384D01*
X181334141Y-108564275D01*
X181626911Y-108693483D01*
X182780395Y-107540000D01*
X183139605Y-107540000D01*
X184293089Y-108693483D01*
X184585859Y-108564275D01*
X184854071Y-107864117D01*
X184836650Y-107215883D01*
X186145929Y-107215883D01*
X186166072Y-107965384D01*
X186414141Y-108564275D01*
X186706911Y-108693483D01*
X187860395Y-107540000D01*
X186706911Y-106386517D01*
X186414141Y-106515725D01*
X186145929Y-107215883D01*
X184836650Y-107215883D01*
X184833928Y-107114616D01*
X184585859Y-106515725D01*
X184293089Y-106386517D01*
X183139605Y-107540000D01*
X182780395Y-107540000D01*
X181626911Y-106386517D01*
X181334141Y-106515725D01*
X181065929Y-107215883D01*
X169621378Y-107215883D01*
X170294349Y-106937130D01*
X170937130Y-106294349D01*
X170973347Y-106206911D01*
X181806517Y-106206911D01*
X182960000Y-107360395D01*
X184113483Y-106206911D01*
X183984275Y-105914141D01*
X183284117Y-105645929D01*
X182534616Y-105666072D01*
X181935725Y-105914141D01*
X181806517Y-106206911D01*
X170973347Y-106206911D01*
X171285000Y-105454515D01*
X171285000Y-104674880D01*
X183865510Y-104674880D01*
X183865510Y-105325120D01*
X184114346Y-105925864D01*
X184574136Y-106385654D01*
X185174880Y-106634490D01*
X185825120Y-106634490D01*
X186425864Y-106385654D01*
X186885654Y-105925864D01*
X187134490Y-105325120D01*
X187134490Y-104674880D01*
X186885654Y-104074136D01*
X186425864Y-103614346D01*
X185825120Y-103365510D01*
X185174880Y-103365510D01*
X184574136Y-103614346D01*
X184114346Y-104074136D01*
X183865510Y-104674880D01*
X171285000Y-104674880D01*
X171285000Y-104545485D01*
X170973348Y-103793089D01*
X181806517Y-103793089D01*
X181935725Y-104085859D01*
X182635883Y-104354071D01*
X183385384Y-104333928D01*
X183984275Y-104085859D01*
X184113483Y-103793089D01*
X182960000Y-102639605D01*
X181806517Y-103793089D01*
X170973348Y-103793089D01*
X170937130Y-103705651D01*
X170294349Y-103062870D01*
X169454515Y-102715000D01*
X168545485Y-102715000D01*
X167705651Y-103062870D01*
X167062870Y-103705651D01*
X166715000Y-104545485D01*
X96080893Y-104545485D01*
X95885654Y-104074136D01*
X95604607Y-103793089D01*
X95886517Y-103793089D01*
X96015725Y-104085859D01*
X96715883Y-104354071D01*
X97465384Y-104333928D01*
X98064275Y-104085859D01*
X98193483Y-103793089D01*
X97040000Y-102639605D01*
X95886517Y-103793089D01*
X95604607Y-103793089D01*
X95425864Y-103614346D01*
X94825120Y-103365510D01*
X94174880Y-103365510D01*
X93574136Y-103614346D01*
X93114346Y-104074136D01*
X92865510Y-104674880D01*
X90710000Y-104674880D01*
X90710000Y-103889608D01*
X90806518Y-103793090D01*
X90935725Y-104085859D01*
X91635883Y-104354071D01*
X92385384Y-104333928D01*
X92984275Y-104085859D01*
X93113483Y-103793089D01*
X91960000Y-102639605D01*
X91945858Y-102653748D01*
X91766252Y-102474142D01*
X91780395Y-102460000D01*
X92139605Y-102460000D01*
X93293089Y-103613483D01*
X93585859Y-103484275D01*
X93854071Y-102784117D01*
X93836650Y-102135883D01*
X95145929Y-102135883D01*
X95166072Y-102885384D01*
X95414141Y-103484275D01*
X95706911Y-103613483D01*
X96860395Y-102460000D01*
X97219605Y-102460000D01*
X98373089Y-103613483D01*
X98665859Y-103484275D01*
X98934071Y-102784117D01*
X98916650Y-102135883D01*
X181065929Y-102135883D01*
X181086072Y-102885384D01*
X181334141Y-103484275D01*
X181626911Y-103613483D01*
X182780395Y-102460000D01*
X183139605Y-102460000D01*
X184293089Y-103613483D01*
X184585859Y-103484275D01*
X184854071Y-102784117D01*
X184836650Y-102135883D01*
X186145929Y-102135883D01*
X186166072Y-102885384D01*
X186414141Y-103484275D01*
X186706911Y-103613483D01*
X187860395Y-102460000D01*
X186706911Y-101306517D01*
X186414141Y-101435725D01*
X186145929Y-102135883D01*
X184836650Y-102135883D01*
X184833928Y-102034616D01*
X184585859Y-101435725D01*
X184293089Y-101306517D01*
X183139605Y-102460000D01*
X182780395Y-102460000D01*
X181626911Y-101306517D01*
X181334141Y-101435725D01*
X181065929Y-102135883D01*
X98916650Y-102135883D01*
X98913928Y-102034616D01*
X98665859Y-101435725D01*
X98373089Y-101306517D01*
X97219605Y-102460000D01*
X96860395Y-102460000D01*
X95706911Y-101306517D01*
X95414141Y-101435725D01*
X95145929Y-102135883D01*
X93836650Y-102135883D01*
X93833928Y-102034616D01*
X93585859Y-101435725D01*
X93293089Y-101306517D01*
X92139605Y-102460000D01*
X91780395Y-102460000D01*
X91766252Y-102445858D01*
X91945858Y-102266252D01*
X91960000Y-102280395D01*
X93113483Y-101126911D01*
X95886517Y-101126911D01*
X97040000Y-102280395D01*
X98193483Y-101126911D01*
X181806517Y-101126911D01*
X182960000Y-102280395D01*
X184113483Y-101126911D01*
X183984275Y-100834141D01*
X183284117Y-100565929D01*
X182534616Y-100586072D01*
X181935725Y-100834141D01*
X181806517Y-101126911D01*
X98193483Y-101126911D01*
X98064275Y-100834141D01*
X97364117Y-100565929D01*
X96614616Y-100586072D01*
X96015725Y-100834141D01*
X95886517Y-101126911D01*
X93113483Y-101126911D01*
X92984275Y-100834141D01*
X92284117Y-100565929D01*
X91534616Y-100586072D01*
X90935725Y-100834141D01*
X90806518Y-101126910D01*
X90710000Y-101030392D01*
X90710000Y-99652532D01*
X176027073Y-99652532D01*
X176125736Y-99919387D01*
X176735461Y-100145908D01*
X177385460Y-100121856D01*
X177874264Y-99919387D01*
X177972927Y-99652532D01*
X177000000Y-98679605D01*
X176027073Y-99652532D01*
X90710000Y-99652532D01*
X90710000Y-97622314D01*
X139057291Y-97622314D01*
X139235379Y-97956666D01*
X140080426Y-98291673D01*
X140989350Y-98277794D01*
X141091550Y-98235461D01*
X175354092Y-98235461D01*
X175378144Y-98885460D01*
X175580613Y-99374264D01*
X175847468Y-99472927D01*
X176820395Y-98500000D01*
X177179605Y-98500000D01*
X178152532Y-99472927D01*
X178419387Y-99374264D01*
X178645908Y-98764539D01*
X178621856Y-98114540D01*
X178419387Y-97625736D01*
X178152532Y-97527073D01*
X177179605Y-98500000D01*
X176820395Y-98500000D01*
X175847468Y-97527073D01*
X175580613Y-97625736D01*
X175354092Y-98235461D01*
X141091550Y-98235461D01*
X141764621Y-97956666D01*
X141942709Y-97622314D01*
X140500000Y-96179605D01*
X139057291Y-97622314D01*
X90710000Y-97622314D01*
X90710000Y-95580426D01*
X138208327Y-95580426D01*
X138222206Y-96489350D01*
X138543334Y-97264621D01*
X138877686Y-97442709D01*
X140320395Y-96000000D01*
X140679605Y-96000000D01*
X142122314Y-97442709D01*
X142301124Y-97347468D01*
X176027073Y-97347468D01*
X177000000Y-98320395D01*
X177972927Y-97347468D01*
X177874264Y-97080613D01*
X177264539Y-96854092D01*
X176614540Y-96878144D01*
X176125736Y-97080613D01*
X176027073Y-97347468D01*
X142301124Y-97347468D01*
X142456666Y-97264621D01*
X142791673Y-96419574D01*
X142777794Y-95510650D01*
X142456666Y-94735379D01*
X142122314Y-94557291D01*
X140679605Y-96000000D01*
X140320395Y-96000000D01*
X138877686Y-94557291D01*
X138543334Y-94735379D01*
X138208327Y-95580426D01*
X90710000Y-95580426D01*
X90710000Y-94722532D01*
X134932073Y-94722532D01*
X135030736Y-94989387D01*
X135640461Y-95215908D01*
X136290460Y-95191856D01*
X136779264Y-94989387D01*
X136877927Y-94722532D01*
X135905000Y-93749605D01*
X134932073Y-94722532D01*
X90710000Y-94722532D01*
X90710000Y-92452340D01*
X92727265Y-92452340D01*
X93045501Y-92906203D01*
X94306434Y-93432936D01*
X95672956Y-93437035D01*
X95993319Y-93305461D01*
X134259092Y-93305461D01*
X134283144Y-93955460D01*
X134485613Y-94444264D01*
X134752468Y-94542927D01*
X135725395Y-93570000D01*
X136084605Y-93570000D01*
X137057532Y-94542927D01*
X137324387Y-94444264D01*
X137349121Y-94377686D01*
X139057291Y-94377686D01*
X140500000Y-95820395D01*
X141942709Y-94377686D01*
X141764621Y-94043334D01*
X140919574Y-93708327D01*
X140010650Y-93722206D01*
X139235379Y-94043334D01*
X139057291Y-94377686D01*
X137349121Y-94377686D01*
X137550908Y-93834539D01*
X137526856Y-93184540D01*
X137324387Y-92695736D01*
X137057532Y-92597073D01*
X136084605Y-93570000D01*
X135725395Y-93570000D01*
X134752468Y-92597073D01*
X134485613Y-92695736D01*
X134259092Y-93305461D01*
X95993319Y-93305461D01*
X96937027Y-92917878D01*
X96954499Y-92906203D01*
X97272735Y-92452340D01*
X97237863Y-92417468D01*
X134932073Y-92417468D01*
X135905000Y-93390395D01*
X136843055Y-92452340D01*
X182727265Y-92452340D01*
X183045501Y-92906203D01*
X184306434Y-93432936D01*
X185672956Y-93437035D01*
X186937027Y-92917878D01*
X186954499Y-92906203D01*
X187272735Y-92452340D01*
X185000000Y-90179605D01*
X182727265Y-92452340D01*
X136843055Y-92452340D01*
X136877927Y-92417468D01*
X136779264Y-92150613D01*
X136169539Y-91924092D01*
X135519540Y-91948144D01*
X135030736Y-92150613D01*
X134932073Y-92417468D01*
X97237863Y-92417468D01*
X95000000Y-90179605D01*
X92727265Y-92452340D01*
X90710000Y-92452340D01*
X90710000Y-90672956D01*
X91562965Y-90672956D01*
X92082122Y-91937027D01*
X92093797Y-91954499D01*
X92547660Y-92272735D01*
X94820395Y-90000000D01*
X95179605Y-90000000D01*
X97452340Y-92272735D01*
X97906203Y-91954499D01*
X98432936Y-90693566D01*
X98432997Y-90672956D01*
X181562965Y-90672956D01*
X182082122Y-91937027D01*
X182093797Y-91954499D01*
X182547660Y-92272735D01*
X184820395Y-90000000D01*
X185179605Y-90000000D01*
X187452340Y-92272735D01*
X187906203Y-91954499D01*
X188432936Y-90693566D01*
X188437035Y-89327044D01*
X187917878Y-88062973D01*
X187906203Y-88045501D01*
X187452340Y-87727265D01*
X185179605Y-90000000D01*
X184820395Y-90000000D01*
X182547660Y-87727265D01*
X182093797Y-88045501D01*
X181567064Y-89306434D01*
X181562965Y-90672956D01*
X98432997Y-90672956D01*
X98437035Y-89327044D01*
X97917878Y-88062973D01*
X97906203Y-88045501D01*
X97452340Y-87727265D01*
X95179605Y-90000000D01*
X94820395Y-90000000D01*
X92547660Y-87727265D01*
X92093797Y-88045501D01*
X91567064Y-89306434D01*
X91562965Y-90672956D01*
X90710000Y-90672956D01*
X90710000Y-87547660D01*
X92727265Y-87547660D01*
X95000000Y-89820395D01*
X97272735Y-87547660D01*
X182727265Y-87547660D01*
X185000000Y-89820395D01*
X187272735Y-87547660D01*
X186954499Y-87093797D01*
X185693566Y-86567064D01*
X184327044Y-86562965D01*
X183062973Y-87082122D01*
X183045501Y-87093797D01*
X182727265Y-87547660D01*
X97272735Y-87547660D01*
X96954499Y-87093797D01*
X95693566Y-86567064D01*
X94327044Y-86562965D01*
X93062973Y-87082122D01*
X93045501Y-87093797D01*
X92727265Y-87547660D01*
X90710000Y-87547660D01*
X90710000Y-85710000D01*
X189290000Y-85710000D01*
X189290000Y-101030392D01*
X189290000Y-101030392D01*
G37*
X189290000Y-101030392D02*
X189193482Y-101126910D01*
X189064275Y-100834141D01*
X188364117Y-100565929D01*
X187614616Y-100586072D01*
X187015725Y-100834141D01*
X186886517Y-101126911D01*
X188040000Y-102280395D01*
X188054142Y-102266252D01*
X188233748Y-102445858D01*
X188219605Y-102460000D01*
X188233748Y-102474142D01*
X188054142Y-102653748D01*
X188040000Y-102639605D01*
X186886517Y-103793089D01*
X187015725Y-104085859D01*
X187715883Y-104354071D01*
X188465384Y-104333928D01*
X189064275Y-104085859D01*
X189193482Y-103793090D01*
X189290000Y-103889608D01*
X189290000Y-106110392D01*
X189193482Y-106206910D01*
X189064275Y-105914141D01*
X188364117Y-105645929D01*
X187614616Y-105666072D01*
X187015725Y-105914141D01*
X186886517Y-106206911D01*
X188040000Y-107360395D01*
X188054142Y-107346252D01*
X188233748Y-107525858D01*
X188219605Y-107540000D01*
X188233748Y-107554143D01*
X188054142Y-107733748D01*
X188040000Y-107719605D01*
X186886517Y-108873089D01*
X187015725Y-109165859D01*
X187715883Y-109434071D01*
X188465384Y-109413928D01*
X189064275Y-109165859D01*
X189193482Y-108873090D01*
X189290000Y-108969608D01*
X189290001Y-134290000D01*
X170969608Y-134290000D01*
X170873090Y-134193482D01*
X171165859Y-134064275D01*
X171434071Y-133364117D01*
X171413928Y-132614616D01*
X171346712Y-132452340D01*
X182727265Y-132452340D01*
X183045501Y-132906203D01*
X184306434Y-133432936D01*
X185672956Y-133437035D01*
X186937027Y-132917878D01*
X186954499Y-132906203D01*
X187272735Y-132452340D01*
X185000000Y-130179605D01*
X182727265Y-132452340D01*
X171346712Y-132452340D01*
X171165859Y-132015725D01*
X170873089Y-131886517D01*
X169719605Y-133040000D01*
X169733748Y-133054142D01*
X169554142Y-133233748D01*
X169540000Y-133219605D01*
X169525858Y-133233748D01*
X169346252Y-133054142D01*
X169360395Y-133040000D01*
X168206911Y-131886517D01*
X167914141Y-132015725D01*
X167645929Y-132715883D01*
X167666072Y-133465384D01*
X167914141Y-134064275D01*
X168206910Y-134193482D01*
X168110392Y-134290000D01*
X165889608Y-134290000D01*
X165793090Y-134193482D01*
X166085859Y-134064275D01*
X166354071Y-133364117D01*
X166333928Y-132614616D01*
X166085859Y-132015725D01*
X165793089Y-131886517D01*
X164639605Y-133040000D01*
X164653748Y-133054142D01*
X164474142Y-133233748D01*
X164460000Y-133219605D01*
X164445858Y-133233748D01*
X164266252Y-133054142D01*
X164280395Y-133040000D01*
X163126911Y-131886517D01*
X162834141Y-132015725D01*
X162565929Y-132715883D01*
X162586072Y-133465384D01*
X162834141Y-134064275D01*
X163126910Y-134193482D01*
X163030392Y-134290000D01*
X90710000Y-134290000D01*
X90710000Y-132452340D01*
X92727265Y-132452340D01*
X93045501Y-132906203D01*
X94306434Y-133432936D01*
X95672956Y-133437035D01*
X96650026Y-133035750D01*
X153990000Y-133035750D01*
X153990000Y-133626309D01*
X154086673Y-133859698D01*
X154265301Y-134038327D01*
X154498690Y-134135000D01*
X154964250Y-134135000D01*
X155123000Y-133976250D01*
X155123000Y-132877000D01*
X155377000Y-132877000D01*
X155377000Y-133976250D01*
X155535750Y-134135000D01*
X156001310Y-134135000D01*
X156234699Y-134038327D01*
X156413327Y-133859698D01*
X156510000Y-133626309D01*
X156510000Y-133135750D01*
X158215000Y-133135750D01*
X158215000Y-133726309D01*
X158311673Y-133959698D01*
X158490301Y-134138327D01*
X158723690Y-134235000D01*
X159214250Y-134235000D01*
X159373000Y-134076250D01*
X159373000Y-132977000D01*
X159627000Y-132977000D01*
X159627000Y-134076250D01*
X159785750Y-134235000D01*
X160276310Y-134235000D01*
X160509699Y-134138327D01*
X160688327Y-133959698D01*
X160785000Y-133726309D01*
X160785000Y-133135750D01*
X160626250Y-132977000D01*
X159627000Y-132977000D01*
X159373000Y-132977000D01*
X158373750Y-132977000D01*
X158215000Y-133135750D01*
X156510000Y-133135750D01*
X156510000Y-133035750D01*
X156351250Y-132877000D01*
X155377000Y-132877000D01*
X155123000Y-132877000D01*
X154148750Y-132877000D01*
X153990000Y-133035750D01*
X96650026Y-133035750D01*
X96937027Y-132917878D01*
X96954499Y-132906203D01*
X97272735Y-132452340D01*
X95000000Y-130179605D01*
X92727265Y-132452340D01*
X90710000Y-132452340D01*
X90710000Y-130672956D01*
X91562965Y-130672956D01*
X92082122Y-131937027D01*
X92093797Y-131954499D01*
X92547660Y-132272735D01*
X94820395Y-130000000D01*
X95179605Y-130000000D01*
X97452340Y-132272735D01*
X97906203Y-131954499D01*
X98432936Y-130693566D01*
X98434899Y-130038969D01*
X131245000Y-130038969D01*
X131245000Y-130961030D01*
X131339864Y-131437944D01*
X131701231Y-131978769D01*
X132242055Y-132340136D01*
X132880000Y-132467031D01*
X133517944Y-132340136D01*
X134058769Y-131978769D01*
X134150000Y-131842232D01*
X134241231Y-131978769D01*
X134782055Y-132340136D01*
X135420000Y-132467031D01*
X136057944Y-132340136D01*
X136598769Y-131978769D01*
X136709952Y-131812371D01*
X136893683Y-132045922D01*
X137451645Y-132359144D01*
X137579566Y-132390124D01*
X137833000Y-132270777D01*
X137833000Y-130627000D01*
X137813000Y-130627000D01*
X137813000Y-130373000D01*
X137833000Y-130373000D01*
X137833000Y-128729223D01*
X137579566Y-128609876D01*
X137451645Y-128640856D01*
X136893683Y-128954078D01*
X136709952Y-129187629D01*
X136598769Y-129021231D01*
X136057945Y-128659864D01*
X135420000Y-128532969D01*
X134782056Y-128659864D01*
X134241231Y-129021231D01*
X134150000Y-129157768D01*
X134058769Y-129021231D01*
X133517945Y-128659864D01*
X132880000Y-128532969D01*
X132242056Y-128659864D01*
X131701231Y-129021231D01*
X131339864Y-129562055D01*
X131245000Y-130038969D01*
X98434899Y-130038969D01*
X98437035Y-129327044D01*
X97917878Y-128062973D01*
X97906203Y-128045501D01*
X97452340Y-127727265D01*
X95179605Y-130000000D01*
X94820395Y-130000000D01*
X92547660Y-127727265D01*
X92093797Y-128045501D01*
X91567064Y-129306434D01*
X91562965Y-130672956D01*
X90710000Y-130672956D01*
X90710000Y-127547660D01*
X92727265Y-127547660D01*
X95000000Y-129820395D01*
X97272735Y-127547660D01*
X96954499Y-127093797D01*
X95693566Y-126567064D01*
X94327044Y-126562965D01*
X93062973Y-127082122D01*
X93045501Y-127093797D01*
X92727265Y-127547660D01*
X90710000Y-127547660D01*
X90710000Y-118785750D01*
X127765000Y-118785750D01*
X127765000Y-119276310D01*
X127861673Y-119509699D01*
X128040302Y-119688327D01*
X128273691Y-119785000D01*
X128864250Y-119785000D01*
X129023000Y-119626250D01*
X129023000Y-118627000D01*
X127923750Y-118627000D01*
X127765000Y-118785750D01*
X90710000Y-118785750D01*
X90710000Y-117723690D01*
X127765000Y-117723690D01*
X127765000Y-118214250D01*
X127923750Y-118373000D01*
X129023000Y-118373000D01*
X129023000Y-117373750D01*
X129277000Y-117373750D01*
X129277000Y-118373000D01*
X129297000Y-118373000D01*
X129297000Y-118627000D01*
X129277000Y-118627000D01*
X129277000Y-119626250D01*
X129435750Y-119785000D01*
X130026309Y-119785000D01*
X130259698Y-119688327D01*
X130438327Y-119509699D01*
X130496279Y-119369791D01*
X130501843Y-119397765D01*
X130642191Y-119607809D01*
X130852235Y-119748157D01*
X131100000Y-119797440D01*
X131656799Y-119797440D01*
X131656799Y-120000000D01*
X131720984Y-120322679D01*
X131903767Y-120596233D01*
X132177321Y-120779016D01*
X132500000Y-120843201D01*
X135500000Y-120843201D01*
X135822679Y-120779016D01*
X136096233Y-120596233D01*
X136279016Y-120322679D01*
X136288760Y-120273691D01*
X140715000Y-120273691D01*
X140715000Y-120864250D01*
X140873750Y-121023000D01*
X141873000Y-121023000D01*
X141873000Y-119923750D01*
X142127000Y-119923750D01*
X142127000Y-121023000D01*
X142798750Y-121023000D01*
X142898750Y-121123000D01*
X143873000Y-121123000D01*
X143873000Y-120023750D01*
X143714250Y-119865000D01*
X143248690Y-119865000D01*
X143082050Y-119934025D01*
X143009699Y-119861673D01*
X142776310Y-119765000D01*
X142285750Y-119765000D01*
X142127000Y-119923750D01*
X141873000Y-119923750D01*
X141714250Y-119765000D01*
X141223690Y-119765000D01*
X140990301Y-119861673D01*
X140811673Y-120040302D01*
X140715000Y-120273691D01*
X136288760Y-120273691D01*
X136343201Y-120000000D01*
X136343201Y-119497440D01*
X136950000Y-119497440D01*
X137197765Y-119448157D01*
X137407809Y-119307809D01*
X137548157Y-119097765D01*
X137597440Y-118850000D01*
X137597440Y-118361316D01*
X137802235Y-118498157D01*
X138013920Y-118540263D01*
X138057146Y-118569146D01*
X138293963Y-118616252D01*
X139073739Y-119396028D01*
X139125903Y-119474097D01*
X139399988Y-119657235D01*
X139435181Y-119680750D01*
X139800000Y-119753317D01*
X139892086Y-119735000D01*
X147179386Y-119735000D01*
X147196843Y-119822765D01*
X147337191Y-120032809D01*
X147547235Y-120173157D01*
X147795000Y-120222440D01*
X148395000Y-120222440D01*
X148642765Y-120173157D01*
X148730000Y-120114868D01*
X148817235Y-120173157D01*
X148890067Y-120187644D01*
X148512711Y-120565000D01*
X147297440Y-120565000D01*
X147297440Y-120400000D01*
X147248157Y-120152235D01*
X147107809Y-119942191D01*
X146897765Y-119801843D01*
X146650000Y-119752560D01*
X145350000Y-119752560D01*
X145102235Y-119801843D01*
X144909593Y-119930563D01*
X144751310Y-119865000D01*
X144285750Y-119865000D01*
X144127000Y-120023750D01*
X144127000Y-121123000D01*
X144147000Y-121123000D01*
X144147000Y-121377000D01*
X144127000Y-121377000D01*
X144127000Y-121397000D01*
X143873000Y-121397000D01*
X143873000Y-121377000D01*
X143226250Y-121377000D01*
X143126250Y-121277000D01*
X142127000Y-121277000D01*
X142127000Y-121297000D01*
X141873000Y-121297000D01*
X141873000Y-121277000D01*
X140873750Y-121277000D01*
X140715000Y-121435750D01*
X140715000Y-122026309D01*
X140811673Y-122259698D01*
X140990301Y-122438327D01*
X141130209Y-122496279D01*
X141102235Y-122501843D01*
X140892191Y-122642191D01*
X140751843Y-122852235D01*
X140702560Y-123100000D01*
X140702560Y-123542308D01*
X139776480Y-124468389D01*
X139681712Y-124531711D01*
X139533016Y-124754250D01*
X139430854Y-124907146D01*
X139342765Y-125350000D01*
X139365001Y-125461788D01*
X139365000Y-128991985D01*
X139321231Y-129021231D01*
X139210048Y-129187629D01*
X139026317Y-128954078D01*
X138468355Y-128640856D01*
X138340434Y-128609876D01*
X138087000Y-128729223D01*
X138087000Y-130373000D01*
X138107000Y-130373000D01*
X138107000Y-130627000D01*
X138087000Y-130627000D01*
X138087000Y-132270777D01*
X138340434Y-132390124D01*
X138468355Y-132359144D01*
X139026317Y-132045922D01*
X139210048Y-131812371D01*
X139321231Y-131978769D01*
X139862055Y-132340136D01*
X140500000Y-132467031D01*
X141137944Y-132340136D01*
X141483100Y-132109510D01*
X141582191Y-132257809D01*
X141792235Y-132398157D01*
X142040000Y-132447440D01*
X144040000Y-132447440D01*
X144287765Y-132398157D01*
X144497809Y-132257809D01*
X144638157Y-132047765D01*
X144687440Y-131800000D01*
X144687440Y-130457692D01*
X145010132Y-130135000D01*
X153977560Y-130135000D01*
X153977560Y-131000000D01*
X154026843Y-131247765D01*
X154167191Y-131457809D01*
X154228320Y-131498654D01*
X154086673Y-131640302D01*
X153990000Y-131873691D01*
X153990000Y-132464250D01*
X154148750Y-132623000D01*
X155123000Y-132623000D01*
X155123000Y-132603000D01*
X155377000Y-132603000D01*
X155377000Y-132623000D01*
X156351250Y-132623000D01*
X156510000Y-132464250D01*
X156510000Y-131873691D01*
X156413327Y-131640302D01*
X156271680Y-131498654D01*
X156332809Y-131457809D01*
X156473157Y-131247765D01*
X156522440Y-131000000D01*
X156522440Y-130135000D01*
X158202560Y-130135000D01*
X158202560Y-130900000D01*
X158251843Y-131147765D01*
X158392191Y-131357809D01*
X158602235Y-131498157D01*
X158630209Y-131503721D01*
X158490301Y-131561673D01*
X158311673Y-131740302D01*
X158215000Y-131973691D01*
X158215000Y-132564250D01*
X158373750Y-132723000D01*
X159373000Y-132723000D01*
X159373000Y-132703000D01*
X159627000Y-132703000D01*
X159627000Y-132723000D01*
X160626250Y-132723000D01*
X160785000Y-132564250D01*
X160785000Y-131973691D01*
X160688327Y-131740302D01*
X160654937Y-131706911D01*
X163306517Y-131706911D01*
X164460000Y-132860395D01*
X165613483Y-131706911D01*
X165484275Y-131414141D01*
X164784117Y-131145929D01*
X164034616Y-131166072D01*
X163435725Y-131414141D01*
X163306517Y-131706911D01*
X160654937Y-131706911D01*
X160509699Y-131561673D01*
X160369791Y-131503721D01*
X160397765Y-131498157D01*
X160607809Y-131357809D01*
X160748157Y-131147765D01*
X160797440Y-130900000D01*
X160797440Y-130098071D01*
X160942855Y-130069146D01*
X161318289Y-129818289D01*
X161381612Y-129723519D01*
X162073523Y-129031609D01*
X162168289Y-128968289D01*
X162419146Y-128592855D01*
X162485000Y-128261783D01*
X162507235Y-128150000D01*
X162505760Y-128142587D01*
X162557809Y-128107809D01*
X162577808Y-128077879D01*
X162586072Y-128385384D01*
X162834141Y-128984275D01*
X163126911Y-129113483D01*
X164280395Y-127960000D01*
X163126911Y-126806517D01*
X162834141Y-126935725D01*
X162747440Y-127162055D01*
X162747440Y-126350000D01*
X162698157Y-126102235D01*
X162557809Y-125892191D01*
X162347765Y-125751843D01*
X162263089Y-125735000D01*
X162714250Y-125735000D01*
X162873000Y-125576250D01*
X162873000Y-124477000D01*
X163127000Y-124477000D01*
X163127000Y-125576250D01*
X163285750Y-125735000D01*
X163776310Y-125735000D01*
X164009699Y-125638327D01*
X164188327Y-125459698D01*
X164285000Y-125226309D01*
X164285000Y-124635750D01*
X164126250Y-124477000D01*
X163127000Y-124477000D01*
X162873000Y-124477000D01*
X161873750Y-124477000D01*
X161760000Y-124590750D01*
X161760000Y-124535750D01*
X161601250Y-124377000D01*
X160627000Y-124377000D01*
X160627000Y-125476250D01*
X160785750Y-125635000D01*
X161251310Y-125635000D01*
X161484699Y-125538327D01*
X161663327Y-125359698D01*
X161716789Y-125230629D01*
X161811673Y-125459698D01*
X161990301Y-125638327D01*
X162187291Y-125719923D01*
X162100000Y-125702560D01*
X160600000Y-125702560D01*
X160352235Y-125751843D01*
X160142191Y-125892191D01*
X160001843Y-126102235D01*
X160000000Y-126111500D01*
X159998157Y-126102235D01*
X159857809Y-125892191D01*
X159647765Y-125751843D01*
X159585000Y-125739358D01*
X159585000Y-125567197D01*
X159748690Y-125635000D01*
X160214250Y-125635000D01*
X160373000Y-125476250D01*
X160373000Y-124377000D01*
X160353000Y-124377000D01*
X160353000Y-124123000D01*
X160373000Y-124123000D01*
X160373000Y-124103000D01*
X160627000Y-124103000D01*
X160627000Y-124123000D01*
X161601250Y-124123000D01*
X161715000Y-124009250D01*
X161715000Y-124064250D01*
X161873750Y-124223000D01*
X162873000Y-124223000D01*
X162873000Y-124203000D01*
X163127000Y-124203000D01*
X163127000Y-124223000D01*
X164126250Y-124223000D01*
X164285000Y-124064250D01*
X164285000Y-123473691D01*
X164188327Y-123240302D01*
X164009699Y-123061673D01*
X163869791Y-123003721D01*
X163897765Y-122998157D01*
X164107809Y-122857809D01*
X164248157Y-122647765D01*
X164297440Y-122400000D01*
X164297440Y-120900000D01*
X164248157Y-120652235D01*
X164107809Y-120442191D01*
X163897765Y-120301843D01*
X163650000Y-120252560D01*
X162350000Y-120252560D01*
X162102235Y-120301843D01*
X161892191Y-120442191D01*
X161843541Y-120515000D01*
X161542115Y-120515000D01*
X161435000Y-120443427D01*
X161435000Y-119513089D01*
X161451843Y-119597765D01*
X161592191Y-119807809D01*
X161802235Y-119948157D01*
X162050000Y-119997440D01*
X162950000Y-119997440D01*
X163197765Y-119948157D01*
X163407809Y-119807809D01*
X163548157Y-119597765D01*
X163597440Y-119350000D01*
X163597440Y-118550000D01*
X163548157Y-118302235D01*
X163407809Y-118092191D01*
X163269836Y-118000000D01*
X163407809Y-117907809D01*
X163548157Y-117697765D01*
X163597440Y-117450000D01*
X163597440Y-117350611D01*
X163635000Y-117161783D01*
X163635000Y-116316348D01*
X163822679Y-116279016D01*
X164096233Y-116096233D01*
X164279016Y-115822679D01*
X164343201Y-115500000D01*
X164343201Y-115135000D01*
X164529869Y-115135000D01*
X165865001Y-116470133D01*
X165865000Y-117482884D01*
X165751843Y-117652235D01*
X165702560Y-117900000D01*
X165702560Y-119400000D01*
X165751843Y-119647765D01*
X165892191Y-119857809D01*
X166102235Y-119998157D01*
X166111500Y-120000000D01*
X166102235Y-120001843D01*
X165892191Y-120142191D01*
X165751843Y-120352235D01*
X165702560Y-120600000D01*
X165702560Y-122100000D01*
X165751843Y-122347765D01*
X165865001Y-122517116D01*
X165865000Y-123115717D01*
X165648260Y-123440091D01*
X165565000Y-123858667D01*
X165565000Y-124641332D01*
X165565001Y-124641337D01*
X165565001Y-126517056D01*
X165484275Y-126334141D01*
X164784117Y-126065929D01*
X164034616Y-126086072D01*
X163435725Y-126334141D01*
X163306517Y-126626911D01*
X164460000Y-127780395D01*
X164474142Y-127766252D01*
X164653748Y-127945858D01*
X164639605Y-127960000D01*
X164653748Y-127974142D01*
X164474142Y-128153748D01*
X164460000Y-128139605D01*
X163306517Y-129293089D01*
X163435725Y-129585859D01*
X164135883Y-129854071D01*
X164885384Y-129833928D01*
X165484275Y-129585859D01*
X165565000Y-129402946D01*
X165565000Y-129693268D01*
X165365510Y-130174880D01*
X165365510Y-130825120D01*
X165614346Y-131425864D01*
X166074136Y-131885654D01*
X166674880Y-132134490D01*
X167325120Y-132134490D01*
X167925864Y-131885654D01*
X168104607Y-131706911D01*
X168386517Y-131706911D01*
X169540000Y-132860395D01*
X170693483Y-131706911D01*
X170564275Y-131414141D01*
X169864117Y-131145929D01*
X169114616Y-131166072D01*
X168515725Y-131414141D01*
X168386517Y-131706911D01*
X168104607Y-131706911D01*
X168385654Y-131425864D01*
X168634490Y-130825120D01*
X168634490Y-130672956D01*
X181562965Y-130672956D01*
X182082122Y-131937027D01*
X182093797Y-131954499D01*
X182547660Y-132272735D01*
X184820395Y-130000000D01*
X185179605Y-130000000D01*
X187452340Y-132272735D01*
X187906203Y-131954499D01*
X188432936Y-130693566D01*
X188437035Y-129327044D01*
X187917878Y-128062973D01*
X187906203Y-128045501D01*
X187452340Y-127727265D01*
X185179605Y-130000000D01*
X184820395Y-130000000D01*
X182547660Y-127727265D01*
X182093797Y-128045501D01*
X181567064Y-129306434D01*
X181562965Y-130672956D01*
X168634490Y-130672956D01*
X168634490Y-130174880D01*
X168435000Y-129693268D01*
X168435000Y-129402946D01*
X168515725Y-129585859D01*
X169215883Y-129854071D01*
X169965384Y-129833928D01*
X170564275Y-129585859D01*
X170693483Y-129293089D01*
X169540000Y-128139605D01*
X169525858Y-128153748D01*
X169346252Y-127974142D01*
X169360395Y-127960000D01*
X169719605Y-127960000D01*
X170873089Y-129113483D01*
X171165859Y-128984275D01*
X171434071Y-128284117D01*
X171414279Y-127547660D01*
X182727265Y-127547660D01*
X185000000Y-129820395D01*
X187272735Y-127547660D01*
X186954499Y-127093797D01*
X185693566Y-126567064D01*
X184327044Y-126562965D01*
X183062973Y-127082122D01*
X183045501Y-127093797D01*
X182727265Y-127547660D01*
X171414279Y-127547660D01*
X171413928Y-127534616D01*
X171165859Y-126935725D01*
X170873089Y-126806517D01*
X169719605Y-127960000D01*
X169360395Y-127960000D01*
X169346252Y-127945858D01*
X169525858Y-127766252D01*
X169540000Y-127780395D01*
X170693483Y-126626911D01*
X170564275Y-126334141D01*
X169864117Y-126065929D01*
X169114616Y-126086072D01*
X168515725Y-126334141D01*
X168435000Y-126517054D01*
X168435000Y-123858668D01*
X168351740Y-123440091D01*
X168147885Y-123135000D01*
X168482885Y-123135000D01*
X168652235Y-123248157D01*
X168900000Y-123297440D01*
X170400000Y-123297440D01*
X170647765Y-123248157D01*
X170857809Y-123107809D01*
X170998157Y-122897765D01*
X171003721Y-122869791D01*
X171061673Y-123009699D01*
X171240302Y-123188327D01*
X171473691Y-123285000D01*
X172064250Y-123285000D01*
X172223000Y-123126250D01*
X172223000Y-122127000D01*
X172477000Y-122127000D01*
X172477000Y-123126250D01*
X172635750Y-123285000D01*
X173226309Y-123285000D01*
X173459698Y-123188327D01*
X173638327Y-123009699D01*
X173735000Y-122776310D01*
X173735000Y-122285750D01*
X173576250Y-122127000D01*
X172477000Y-122127000D01*
X172223000Y-122127000D01*
X172203000Y-122127000D01*
X172203000Y-121873000D01*
X172223000Y-121873000D01*
X172223000Y-120873750D01*
X172477000Y-120873750D01*
X172477000Y-121873000D01*
X173576250Y-121873000D01*
X173735000Y-121714250D01*
X173735000Y-121223690D01*
X173638327Y-120990301D01*
X173459698Y-120811673D01*
X173226309Y-120715000D01*
X172635750Y-120715000D01*
X172477000Y-120873750D01*
X172223000Y-120873750D01*
X172064250Y-120715000D01*
X171473691Y-120715000D01*
X171240302Y-120811673D01*
X171061673Y-120990301D01*
X171003721Y-121130209D01*
X170998157Y-121102235D01*
X170857809Y-120892191D01*
X170647765Y-120751843D01*
X170400000Y-120702560D01*
X168900000Y-120702560D01*
X168652235Y-120751843D01*
X168482885Y-120865000D01*
X168297440Y-120865000D01*
X168297440Y-120600000D01*
X168248157Y-120352235D01*
X168107809Y-120142191D01*
X167897765Y-120001843D01*
X167888500Y-120000000D01*
X167897765Y-119998157D01*
X168107809Y-119857809D01*
X168248157Y-119647765D01*
X168297440Y-119400000D01*
X168297440Y-119135000D01*
X168482885Y-119135000D01*
X168652235Y-119248157D01*
X168900000Y-119297440D01*
X170400000Y-119297440D01*
X170647765Y-119248157D01*
X170857809Y-119107809D01*
X170998157Y-118897765D01*
X171003721Y-118869791D01*
X171061673Y-119009699D01*
X171240302Y-119188327D01*
X171473691Y-119285000D01*
X172064250Y-119285000D01*
X172223000Y-119126250D01*
X172223000Y-118127000D01*
X172477000Y-118127000D01*
X172477000Y-119126250D01*
X172635750Y-119285000D01*
X173226309Y-119285000D01*
X173459698Y-119188327D01*
X173638327Y-119009699D01*
X173735000Y-118776310D01*
X173735000Y-118285750D01*
X173576250Y-118127000D01*
X172477000Y-118127000D01*
X172223000Y-118127000D01*
X172203000Y-118127000D01*
X172203000Y-117873000D01*
X172223000Y-117873000D01*
X172223000Y-116873750D01*
X172477000Y-116873750D01*
X172477000Y-117873000D01*
X173576250Y-117873000D01*
X173735000Y-117714250D01*
X173735000Y-117223690D01*
X173638327Y-116990301D01*
X173459698Y-116811673D01*
X173226309Y-116715000D01*
X172635750Y-116715000D01*
X172477000Y-116873750D01*
X172223000Y-116873750D01*
X172064250Y-116715000D01*
X171473691Y-116715000D01*
X171240302Y-116811673D01*
X171061673Y-116990301D01*
X171003721Y-117130209D01*
X170998157Y-117102235D01*
X170857809Y-116892191D01*
X170647765Y-116751843D01*
X170400000Y-116702560D01*
X168900000Y-116702560D01*
X168652235Y-116751843D01*
X168482885Y-116865000D01*
X168135000Y-116865000D01*
X168135000Y-116111782D01*
X168157235Y-115999999D01*
X168069146Y-115557145D01*
X168057188Y-115539249D01*
X167818289Y-115181711D01*
X167723521Y-115118389D01*
X165881613Y-113276482D01*
X165818289Y-113181711D01*
X165442855Y-112930854D01*
X165111783Y-112865000D01*
X165000000Y-112842765D01*
X164888217Y-112865000D01*
X164343201Y-112865000D01*
X164343201Y-112500000D01*
X164279016Y-112177321D01*
X164096233Y-111903767D01*
X163822679Y-111720984D01*
X163500000Y-111656799D01*
X160500000Y-111656799D01*
X160177321Y-111720984D01*
X159961786Y-111865000D01*
X149038214Y-111865000D01*
X148822679Y-111720984D01*
X148500000Y-111656799D01*
X145500000Y-111656799D01*
X145177321Y-111720984D01*
X144903767Y-111903767D01*
X144720984Y-112177321D01*
X144656799Y-112500000D01*
X144656799Y-115500000D01*
X144720984Y-115822679D01*
X144903767Y-116096233D01*
X145177321Y-116279016D01*
X145500000Y-116343201D01*
X148500000Y-116343201D01*
X148822679Y-116279016D01*
X149038214Y-116135000D01*
X149611609Y-116135000D01*
X149325903Y-116325903D01*
X149273739Y-116403972D01*
X148768972Y-116908739D01*
X148690903Y-116960903D01*
X148521121Y-117215000D01*
X148484250Y-117270182D01*
X148460307Y-117390550D01*
X148395000Y-117377560D01*
X147795000Y-117377560D01*
X147547235Y-117426843D01*
X147337191Y-117567191D01*
X147196843Y-117777235D01*
X147179386Y-117865000D01*
X140187289Y-117865000D01*
X139635000Y-117312711D01*
X139635000Y-117099702D01*
X139875000Y-117147440D01*
X141125000Y-117147440D01*
X141372765Y-117098157D01*
X141582809Y-116957809D01*
X141723157Y-116747765D01*
X141772440Y-116500000D01*
X141772440Y-115000000D01*
X141723157Y-114752235D01*
X141582809Y-114542191D01*
X141521680Y-114501346D01*
X141663327Y-114359698D01*
X141760000Y-114126309D01*
X141760000Y-113535750D01*
X141601250Y-113377000D01*
X140627000Y-113377000D01*
X140627000Y-113397000D01*
X140373000Y-113397000D01*
X140373000Y-113377000D01*
X139726250Y-113377000D01*
X139626250Y-113277000D01*
X138627000Y-113277000D01*
X138627000Y-113297000D01*
X138373000Y-113297000D01*
X138373000Y-113277000D01*
X137373750Y-113277000D01*
X137215000Y-113435750D01*
X137215000Y-114026309D01*
X137311673Y-114259698D01*
X137490301Y-114438327D01*
X137630209Y-114496279D01*
X137602235Y-114501843D01*
X137392191Y-114642191D01*
X137251843Y-114852235D01*
X137202560Y-115100000D01*
X137202560Y-115555047D01*
X137197765Y-115551843D01*
X136950000Y-115502560D01*
X136050000Y-115502560D01*
X135802235Y-115551843D01*
X135592191Y-115692191D01*
X135451843Y-115902235D01*
X135402560Y-116150000D01*
X135402560Y-116156799D01*
X135297440Y-116156799D01*
X135297440Y-115600000D01*
X135248157Y-115352235D01*
X135107809Y-115142191D01*
X134897765Y-115001843D01*
X134869791Y-114996279D01*
X135009699Y-114938327D01*
X135188327Y-114759698D01*
X135285000Y-114526309D01*
X135285000Y-113935750D01*
X135126250Y-113777000D01*
X134127000Y-113777000D01*
X134127000Y-113797000D01*
X133873000Y-113797000D01*
X133873000Y-113777000D01*
X132873750Y-113777000D01*
X132715000Y-113935750D01*
X132715000Y-114526309D01*
X132811673Y-114759698D01*
X132990301Y-114938327D01*
X133130209Y-114996279D01*
X133102235Y-115001843D01*
X132892191Y-115142191D01*
X132751843Y-115352235D01*
X132702560Y-115600000D01*
X132702560Y-116156799D01*
X132500000Y-116156799D01*
X132177321Y-116220984D01*
X131903767Y-116403767D01*
X131720984Y-116677321D01*
X131656799Y-117000000D01*
X131656799Y-117202560D01*
X131100000Y-117202560D01*
X130852235Y-117251843D01*
X130642191Y-117392191D01*
X130501843Y-117602235D01*
X130496279Y-117630209D01*
X130438327Y-117490301D01*
X130259698Y-117311673D01*
X130026309Y-117215000D01*
X129435750Y-117215000D01*
X129277000Y-117373750D01*
X129023000Y-117373750D01*
X128864250Y-117215000D01*
X128273691Y-117215000D01*
X128040302Y-117311673D01*
X127861673Y-117490301D01*
X127765000Y-117723690D01*
X90710000Y-117723690D01*
X90710000Y-113622314D01*
X125057291Y-113622314D01*
X125235379Y-113956666D01*
X126080426Y-114291673D01*
X126989350Y-114277794D01*
X127764621Y-113956666D01*
X127942709Y-113622314D01*
X126500000Y-112179605D01*
X125057291Y-113622314D01*
X90710000Y-113622314D01*
X90710000Y-111580426D01*
X124208327Y-111580426D01*
X124222206Y-112489350D01*
X124543334Y-113264621D01*
X124877686Y-113442709D01*
X126320395Y-112000000D01*
X126679605Y-112000000D01*
X128122314Y-113442709D01*
X128456666Y-113264621D01*
X128651288Y-112773691D01*
X132715000Y-112773691D01*
X132715000Y-113364250D01*
X132873750Y-113523000D01*
X133873000Y-113523000D01*
X133873000Y-112423750D01*
X134127000Y-112423750D01*
X134127000Y-113523000D01*
X135126250Y-113523000D01*
X135285000Y-113364250D01*
X135285000Y-112773691D01*
X135188327Y-112540302D01*
X135009699Y-112361673D01*
X134797292Y-112273691D01*
X137215000Y-112273691D01*
X137215000Y-112864250D01*
X137373750Y-113023000D01*
X138373000Y-113023000D01*
X138373000Y-111923750D01*
X138627000Y-111923750D01*
X138627000Y-113023000D01*
X139298750Y-113023000D01*
X139398750Y-113123000D01*
X140373000Y-113123000D01*
X140373000Y-112023750D01*
X140627000Y-112023750D01*
X140627000Y-113123000D01*
X141601250Y-113123000D01*
X141760000Y-112964250D01*
X141760000Y-112373691D01*
X141663327Y-112140302D01*
X141484699Y-111961673D01*
X141251310Y-111865000D01*
X140785750Y-111865000D01*
X140627000Y-112023750D01*
X140373000Y-112023750D01*
X140214250Y-111865000D01*
X139748690Y-111865000D01*
X139582050Y-111934025D01*
X139509699Y-111861673D01*
X139276310Y-111765000D01*
X138785750Y-111765000D01*
X138627000Y-111923750D01*
X138373000Y-111923750D01*
X138214250Y-111765000D01*
X137723690Y-111765000D01*
X137490301Y-111861673D01*
X137311673Y-112040302D01*
X137215000Y-112273691D01*
X134797292Y-112273691D01*
X134776310Y-112265000D01*
X134285750Y-112265000D01*
X134127000Y-112423750D01*
X133873000Y-112423750D01*
X133714250Y-112265000D01*
X133223690Y-112265000D01*
X132990301Y-112361673D01*
X132811673Y-112540302D01*
X132715000Y-112773691D01*
X128651288Y-112773691D01*
X128791673Y-112419574D01*
X128777794Y-111510650D01*
X128456666Y-110735379D01*
X128122314Y-110557291D01*
X126679605Y-112000000D01*
X126320395Y-112000000D01*
X124877686Y-110557291D01*
X124543334Y-110735379D01*
X124208327Y-111580426D01*
X90710000Y-111580426D01*
X90710000Y-110377686D01*
X125057291Y-110377686D01*
X126500000Y-111820395D01*
X127942709Y-110377686D01*
X127764621Y-110043334D01*
X126919574Y-109708327D01*
X126010650Y-109722206D01*
X125235379Y-110043334D01*
X125057291Y-110377686D01*
X90710000Y-110377686D01*
X90710000Y-108969608D01*
X90806518Y-108873090D01*
X90935725Y-109165859D01*
X91635883Y-109434071D01*
X92385384Y-109413928D01*
X92984275Y-109165859D01*
X93113483Y-108873089D01*
X95886517Y-108873089D01*
X96015725Y-109165859D01*
X96715883Y-109434071D01*
X97465384Y-109413928D01*
X98064275Y-109165859D01*
X98193483Y-108873089D01*
X181806517Y-108873089D01*
X181935725Y-109165859D01*
X182635883Y-109434071D01*
X183385384Y-109413928D01*
X183984275Y-109165859D01*
X184113483Y-108873089D01*
X182960000Y-107719605D01*
X181806517Y-108873089D01*
X98193483Y-108873089D01*
X97040000Y-107719605D01*
X95886517Y-108873089D01*
X93113483Y-108873089D01*
X91960000Y-107719605D01*
X91945858Y-107733748D01*
X91766252Y-107554142D01*
X91780395Y-107540000D01*
X92139605Y-107540000D01*
X93293089Y-108693483D01*
X93585859Y-108564275D01*
X93854071Y-107864117D01*
X93836650Y-107215883D01*
X95145929Y-107215883D01*
X95166072Y-107965384D01*
X95414141Y-108564275D01*
X95706911Y-108693483D01*
X96860395Y-107540000D01*
X97219605Y-107540000D01*
X98373089Y-108693483D01*
X98665859Y-108564275D01*
X98934071Y-107864117D01*
X98913928Y-107114616D01*
X98665859Y-106515725D01*
X98373089Y-106386517D01*
X97219605Y-107540000D01*
X96860395Y-107540000D01*
X95706911Y-106386517D01*
X95414141Y-106515725D01*
X95145929Y-107215883D01*
X93836650Y-107215883D01*
X93833928Y-107114616D01*
X93585859Y-106515725D01*
X93293089Y-106386517D01*
X92139605Y-107540000D01*
X91780395Y-107540000D01*
X91766252Y-107525858D01*
X91945858Y-107346252D01*
X91960000Y-107360395D01*
X93113483Y-106206911D01*
X92984275Y-105914141D01*
X92284117Y-105645929D01*
X91534616Y-105666072D01*
X90935725Y-105914141D01*
X90806518Y-106206910D01*
X90710000Y-106110392D01*
X90710000Y-104674880D01*
X92865510Y-104674880D01*
X92865510Y-105325120D01*
X93114346Y-105925864D01*
X93574136Y-106385654D01*
X94174880Y-106634490D01*
X94825120Y-106634490D01*
X95425864Y-106385654D01*
X95604607Y-106206911D01*
X95886517Y-106206911D01*
X97040000Y-107360395D01*
X98193483Y-106206911D01*
X98064275Y-105914141D01*
X97364117Y-105645929D01*
X96614616Y-105666072D01*
X96015725Y-105914141D01*
X95886517Y-106206911D01*
X95604607Y-106206911D01*
X95885654Y-105925864D01*
X96134490Y-105325120D01*
X96134490Y-104674880D01*
X96080893Y-104545485D01*
X166715000Y-104545485D01*
X166715000Y-105454515D01*
X167062870Y-106294349D01*
X167705651Y-106937130D01*
X168545485Y-107285000D01*
X169454515Y-107285000D01*
X169621378Y-107215883D01*
X181065929Y-107215883D01*
X181086072Y-107965384D01*
X181334141Y-108564275D01*
X181626911Y-108693483D01*
X182780395Y-107540000D01*
X183139605Y-107540000D01*
X184293089Y-108693483D01*
X184585859Y-108564275D01*
X184854071Y-107864117D01*
X184836650Y-107215883D01*
X186145929Y-107215883D01*
X186166072Y-107965384D01*
X186414141Y-108564275D01*
X186706911Y-108693483D01*
X187860395Y-107540000D01*
X186706911Y-106386517D01*
X186414141Y-106515725D01*
X186145929Y-107215883D01*
X184836650Y-107215883D01*
X184833928Y-107114616D01*
X184585859Y-106515725D01*
X184293089Y-106386517D01*
X183139605Y-107540000D01*
X182780395Y-107540000D01*
X181626911Y-106386517D01*
X181334141Y-106515725D01*
X181065929Y-107215883D01*
X169621378Y-107215883D01*
X170294349Y-106937130D01*
X170937130Y-106294349D01*
X170973347Y-106206911D01*
X181806517Y-106206911D01*
X182960000Y-107360395D01*
X184113483Y-106206911D01*
X183984275Y-105914141D01*
X183284117Y-105645929D01*
X182534616Y-105666072D01*
X181935725Y-105914141D01*
X181806517Y-106206911D01*
X170973347Y-106206911D01*
X171285000Y-105454515D01*
X171285000Y-104674880D01*
X183865510Y-104674880D01*
X183865510Y-105325120D01*
X184114346Y-105925864D01*
X184574136Y-106385654D01*
X185174880Y-106634490D01*
X185825120Y-106634490D01*
X186425864Y-106385654D01*
X186885654Y-105925864D01*
X187134490Y-105325120D01*
X187134490Y-104674880D01*
X186885654Y-104074136D01*
X186425864Y-103614346D01*
X185825120Y-103365510D01*
X185174880Y-103365510D01*
X184574136Y-103614346D01*
X184114346Y-104074136D01*
X183865510Y-104674880D01*
X171285000Y-104674880D01*
X171285000Y-104545485D01*
X170973348Y-103793089D01*
X181806517Y-103793089D01*
X181935725Y-104085859D01*
X182635883Y-104354071D01*
X183385384Y-104333928D01*
X183984275Y-104085859D01*
X184113483Y-103793089D01*
X182960000Y-102639605D01*
X181806517Y-103793089D01*
X170973348Y-103793089D01*
X170937130Y-103705651D01*
X170294349Y-103062870D01*
X169454515Y-102715000D01*
X168545485Y-102715000D01*
X167705651Y-103062870D01*
X167062870Y-103705651D01*
X166715000Y-104545485D01*
X96080893Y-104545485D01*
X95885654Y-104074136D01*
X95604607Y-103793089D01*
X95886517Y-103793089D01*
X96015725Y-104085859D01*
X96715883Y-104354071D01*
X97465384Y-104333928D01*
X98064275Y-104085859D01*
X98193483Y-103793089D01*
X97040000Y-102639605D01*
X95886517Y-103793089D01*
X95604607Y-103793089D01*
X95425864Y-103614346D01*
X94825120Y-103365510D01*
X94174880Y-103365510D01*
X93574136Y-103614346D01*
X93114346Y-104074136D01*
X92865510Y-104674880D01*
X90710000Y-104674880D01*
X90710000Y-103889608D01*
X90806518Y-103793090D01*
X90935725Y-104085859D01*
X91635883Y-104354071D01*
X92385384Y-104333928D01*
X92984275Y-104085859D01*
X93113483Y-103793089D01*
X91960000Y-102639605D01*
X91945858Y-102653748D01*
X91766252Y-102474142D01*
X91780395Y-102460000D01*
X92139605Y-102460000D01*
X93293089Y-103613483D01*
X93585859Y-103484275D01*
X93854071Y-102784117D01*
X93836650Y-102135883D01*
X95145929Y-102135883D01*
X95166072Y-102885384D01*
X95414141Y-103484275D01*
X95706911Y-103613483D01*
X96860395Y-102460000D01*
X97219605Y-102460000D01*
X98373089Y-103613483D01*
X98665859Y-103484275D01*
X98934071Y-102784117D01*
X98916650Y-102135883D01*
X181065929Y-102135883D01*
X181086072Y-102885384D01*
X181334141Y-103484275D01*
X181626911Y-103613483D01*
X182780395Y-102460000D01*
X183139605Y-102460000D01*
X184293089Y-103613483D01*
X184585859Y-103484275D01*
X184854071Y-102784117D01*
X184836650Y-102135883D01*
X186145929Y-102135883D01*
X186166072Y-102885384D01*
X186414141Y-103484275D01*
X186706911Y-103613483D01*
X187860395Y-102460000D01*
X186706911Y-101306517D01*
X186414141Y-101435725D01*
X186145929Y-102135883D01*
X184836650Y-102135883D01*
X184833928Y-102034616D01*
X184585859Y-101435725D01*
X184293089Y-101306517D01*
X183139605Y-102460000D01*
X182780395Y-102460000D01*
X181626911Y-101306517D01*
X181334141Y-101435725D01*
X181065929Y-102135883D01*
X98916650Y-102135883D01*
X98913928Y-102034616D01*
X98665859Y-101435725D01*
X98373089Y-101306517D01*
X97219605Y-102460000D01*
X96860395Y-102460000D01*
X95706911Y-101306517D01*
X95414141Y-101435725D01*
X95145929Y-102135883D01*
X93836650Y-102135883D01*
X93833928Y-102034616D01*
X93585859Y-101435725D01*
X93293089Y-101306517D01*
X92139605Y-102460000D01*
X91780395Y-102460000D01*
X91766252Y-102445858D01*
X91945858Y-102266252D01*
X91960000Y-102280395D01*
X93113483Y-101126911D01*
X95886517Y-101126911D01*
X97040000Y-102280395D01*
X98193483Y-101126911D01*
X181806517Y-101126911D01*
X182960000Y-102280395D01*
X184113483Y-101126911D01*
X183984275Y-100834141D01*
X183284117Y-100565929D01*
X182534616Y-100586072D01*
X181935725Y-100834141D01*
X181806517Y-101126911D01*
X98193483Y-101126911D01*
X98064275Y-100834141D01*
X97364117Y-100565929D01*
X96614616Y-100586072D01*
X96015725Y-100834141D01*
X95886517Y-101126911D01*
X93113483Y-101126911D01*
X92984275Y-100834141D01*
X92284117Y-100565929D01*
X91534616Y-100586072D01*
X90935725Y-100834141D01*
X90806518Y-101126910D01*
X90710000Y-101030392D01*
X90710000Y-99652532D01*
X176027073Y-99652532D01*
X176125736Y-99919387D01*
X176735461Y-100145908D01*
X177385460Y-100121856D01*
X177874264Y-99919387D01*
X177972927Y-99652532D01*
X177000000Y-98679605D01*
X176027073Y-99652532D01*
X90710000Y-99652532D01*
X90710000Y-97622314D01*
X139057291Y-97622314D01*
X139235379Y-97956666D01*
X140080426Y-98291673D01*
X140989350Y-98277794D01*
X141091550Y-98235461D01*
X175354092Y-98235461D01*
X175378144Y-98885460D01*
X175580613Y-99374264D01*
X175847468Y-99472927D01*
X176820395Y-98500000D01*
X177179605Y-98500000D01*
X178152532Y-99472927D01*
X178419387Y-99374264D01*
X178645908Y-98764539D01*
X178621856Y-98114540D01*
X178419387Y-97625736D01*
X178152532Y-97527073D01*
X177179605Y-98500000D01*
X176820395Y-98500000D01*
X175847468Y-97527073D01*
X175580613Y-97625736D01*
X175354092Y-98235461D01*
X141091550Y-98235461D01*
X141764621Y-97956666D01*
X141942709Y-97622314D01*
X140500000Y-96179605D01*
X139057291Y-97622314D01*
X90710000Y-97622314D01*
X90710000Y-95580426D01*
X138208327Y-95580426D01*
X138222206Y-96489350D01*
X138543334Y-97264621D01*
X138877686Y-97442709D01*
X140320395Y-96000000D01*
X140679605Y-96000000D01*
X142122314Y-97442709D01*
X142301124Y-97347468D01*
X176027073Y-97347468D01*
X177000000Y-98320395D01*
X177972927Y-97347468D01*
X177874264Y-97080613D01*
X177264539Y-96854092D01*
X176614540Y-96878144D01*
X176125736Y-97080613D01*
X176027073Y-97347468D01*
X142301124Y-97347468D01*
X142456666Y-97264621D01*
X142791673Y-96419574D01*
X142777794Y-95510650D01*
X142456666Y-94735379D01*
X142122314Y-94557291D01*
X140679605Y-96000000D01*
X140320395Y-96000000D01*
X138877686Y-94557291D01*
X138543334Y-94735379D01*
X138208327Y-95580426D01*
X90710000Y-95580426D01*
X90710000Y-94722532D01*
X134932073Y-94722532D01*
X135030736Y-94989387D01*
X135640461Y-95215908D01*
X136290460Y-95191856D01*
X136779264Y-94989387D01*
X136877927Y-94722532D01*
X135905000Y-93749605D01*
X134932073Y-94722532D01*
X90710000Y-94722532D01*
X90710000Y-92452340D01*
X92727265Y-92452340D01*
X93045501Y-92906203D01*
X94306434Y-93432936D01*
X95672956Y-93437035D01*
X95993319Y-93305461D01*
X134259092Y-93305461D01*
X134283144Y-93955460D01*
X134485613Y-94444264D01*
X134752468Y-94542927D01*
X135725395Y-93570000D01*
X136084605Y-93570000D01*
X137057532Y-94542927D01*
X137324387Y-94444264D01*
X137349121Y-94377686D01*
X139057291Y-94377686D01*
X140500000Y-95820395D01*
X141942709Y-94377686D01*
X141764621Y-94043334D01*
X140919574Y-93708327D01*
X140010650Y-93722206D01*
X139235379Y-94043334D01*
X139057291Y-94377686D01*
X137349121Y-94377686D01*
X137550908Y-93834539D01*
X137526856Y-93184540D01*
X137324387Y-92695736D01*
X137057532Y-92597073D01*
X136084605Y-93570000D01*
X135725395Y-93570000D01*
X134752468Y-92597073D01*
X134485613Y-92695736D01*
X134259092Y-93305461D01*
X95993319Y-93305461D01*
X96937027Y-92917878D01*
X96954499Y-92906203D01*
X97272735Y-92452340D01*
X97237863Y-92417468D01*
X134932073Y-92417468D01*
X135905000Y-93390395D01*
X136843055Y-92452340D01*
X182727265Y-92452340D01*
X183045501Y-92906203D01*
X184306434Y-93432936D01*
X185672956Y-93437035D01*
X186937027Y-92917878D01*
X186954499Y-92906203D01*
X187272735Y-92452340D01*
X185000000Y-90179605D01*
X182727265Y-92452340D01*
X136843055Y-92452340D01*
X136877927Y-92417468D01*
X136779264Y-92150613D01*
X136169539Y-91924092D01*
X135519540Y-91948144D01*
X135030736Y-92150613D01*
X134932073Y-92417468D01*
X97237863Y-92417468D01*
X95000000Y-90179605D01*
X92727265Y-92452340D01*
X90710000Y-92452340D01*
X90710000Y-90672956D01*
X91562965Y-90672956D01*
X92082122Y-91937027D01*
X92093797Y-91954499D01*
X92547660Y-92272735D01*
X94820395Y-90000000D01*
X95179605Y-90000000D01*
X97452340Y-92272735D01*
X97906203Y-91954499D01*
X98432936Y-90693566D01*
X98432997Y-90672956D01*
X181562965Y-90672956D01*
X182082122Y-91937027D01*
X182093797Y-91954499D01*
X182547660Y-92272735D01*
X184820395Y-90000000D01*
X185179605Y-90000000D01*
X187452340Y-92272735D01*
X187906203Y-91954499D01*
X188432936Y-90693566D01*
X188437035Y-89327044D01*
X187917878Y-88062973D01*
X187906203Y-88045501D01*
X187452340Y-87727265D01*
X185179605Y-90000000D01*
X184820395Y-90000000D01*
X182547660Y-87727265D01*
X182093797Y-88045501D01*
X181567064Y-89306434D01*
X181562965Y-90672956D01*
X98432997Y-90672956D01*
X98437035Y-89327044D01*
X97917878Y-88062973D01*
X97906203Y-88045501D01*
X97452340Y-87727265D01*
X95179605Y-90000000D01*
X94820395Y-90000000D01*
X92547660Y-87727265D01*
X92093797Y-88045501D01*
X91567064Y-89306434D01*
X91562965Y-90672956D01*
X90710000Y-90672956D01*
X90710000Y-87547660D01*
X92727265Y-87547660D01*
X95000000Y-89820395D01*
X97272735Y-87547660D01*
X182727265Y-87547660D01*
X185000000Y-89820395D01*
X187272735Y-87547660D01*
X186954499Y-87093797D01*
X185693566Y-86567064D01*
X184327044Y-86562965D01*
X183062973Y-87082122D01*
X183045501Y-87093797D01*
X182727265Y-87547660D01*
X97272735Y-87547660D01*
X96954499Y-87093797D01*
X95693566Y-86567064D01*
X94327044Y-86562965D01*
X93062973Y-87082122D01*
X93045501Y-87093797D01*
X92727265Y-87547660D01*
X90710000Y-87547660D01*
X90710000Y-85710000D01*
X189290000Y-85710000D01*
X189290000Y-101030392D01*
G36*
X148489343Y-122452560D02*
X148484250Y-122460182D01*
X148418645Y-122790000D01*
X148380750Y-122790000D01*
X148222000Y-122948750D01*
X148222000Y-124073000D01*
X148242000Y-124073000D01*
X148242000Y-124327000D01*
X148222000Y-124327000D01*
X148222000Y-125451250D01*
X148380750Y-125610000D01*
X148521310Y-125610000D01*
X148738028Y-125520232D01*
X148817235Y-125573157D01*
X149065000Y-125622440D01*
X149665000Y-125622440D01*
X149684972Y-125618467D01*
X149681683Y-125635000D01*
X149722207Y-125838726D01*
X149642191Y-125892191D01*
X149501843Y-126102235D01*
X149496279Y-126130209D01*
X149438327Y-125990301D01*
X149259698Y-125811673D01*
X149026309Y-125715000D01*
X148435750Y-125715000D01*
X148277000Y-125873750D01*
X148277000Y-126873000D01*
X148297000Y-126873000D01*
X148297000Y-127127000D01*
X148277000Y-127127000D01*
X148277000Y-127147000D01*
X148023000Y-127147000D01*
X148023000Y-127127000D01*
X146923750Y-127127000D01*
X146765000Y-127285750D01*
X146765000Y-127776310D01*
X146801737Y-127865000D01*
X144651781Y-127865000D01*
X144539999Y-127842765D01*
X144428217Y-127865000D01*
X144097145Y-127930854D01*
X143721711Y-128181711D01*
X143658389Y-128276479D01*
X143382308Y-128552560D01*
X142040000Y-128552560D01*
X141792235Y-128601843D01*
X141635000Y-128706905D01*
X141635000Y-126223690D01*
X146765000Y-126223690D01*
X146765000Y-126714250D01*
X146923750Y-126873000D01*
X148023000Y-126873000D01*
X148023000Y-125873750D01*
X147864250Y-125715000D01*
X147273691Y-125715000D01*
X147040302Y-125811673D01*
X146861673Y-125990301D01*
X146765000Y-126223690D01*
X141635000Y-126223690D01*
X141635000Y-125820131D01*
X142207692Y-125247440D01*
X142650000Y-125247440D01*
X142897765Y-125198157D01*
X143087330Y-125071493D01*
X143127235Y-125098157D01*
X143375000Y-125147440D01*
X144625000Y-125147440D01*
X144872765Y-125098157D01*
X144912670Y-125071493D01*
X145102235Y-125198157D01*
X145350000Y-125247440D01*
X146650000Y-125247440D01*
X146897765Y-125198157D01*
X147107809Y-125057809D01*
X147160000Y-124979700D01*
X147160000Y-125101309D01*
X147256673Y-125334698D01*
X147435301Y-125513327D01*
X147668690Y-125610000D01*
X147809250Y-125610000D01*
X147968000Y-125451250D01*
X147968000Y-124327000D01*
X147948000Y-124327000D01*
X147948000Y-124073000D01*
X147968000Y-124073000D01*
X147968000Y-122948750D01*
X147809250Y-122790000D01*
X147668690Y-122790000D01*
X147435301Y-122886673D01*
X147284920Y-123037055D01*
X147248157Y-122852235D01*
X147107809Y-122642191D01*
X146897765Y-122501843D01*
X146888500Y-122500000D01*
X146897765Y-122498157D01*
X146992285Y-122435000D01*
X148501076Y-122435000D01*
X148489343Y-122452560D01*
X148489343Y-122452560D01*
G37*
X148489343Y-122452560D02*
X148484250Y-122460182D01*
X148418645Y-122790000D01*
X148380750Y-122790000D01*
X148222000Y-122948750D01*
X148222000Y-124073000D01*
X148242000Y-124073000D01*
X148242000Y-124327000D01*
X148222000Y-124327000D01*
X148222000Y-125451250D01*
X148380750Y-125610000D01*
X148521310Y-125610000D01*
X148738028Y-125520232D01*
X148817235Y-125573157D01*
X149065000Y-125622440D01*
X149665000Y-125622440D01*
X149684972Y-125618467D01*
X149681683Y-125635000D01*
X149722207Y-125838726D01*
X149642191Y-125892191D01*
X149501843Y-126102235D01*
X149496279Y-126130209D01*
X149438327Y-125990301D01*
X149259698Y-125811673D01*
X149026309Y-125715000D01*
X148435750Y-125715000D01*
X148277000Y-125873750D01*
X148277000Y-126873000D01*
X148297000Y-126873000D01*
X148297000Y-127127000D01*
X148277000Y-127127000D01*
X148277000Y-127147000D01*
X148023000Y-127147000D01*
X148023000Y-127127000D01*
X146923750Y-127127000D01*
X146765000Y-127285750D01*
X146765000Y-127776310D01*
X146801737Y-127865000D01*
X144651781Y-127865000D01*
X144539999Y-127842765D01*
X144428217Y-127865000D01*
X144097145Y-127930854D01*
X143721711Y-128181711D01*
X143658389Y-128276479D01*
X143382308Y-128552560D01*
X142040000Y-128552560D01*
X141792235Y-128601843D01*
X141635000Y-128706905D01*
X141635000Y-126223690D01*
X146765000Y-126223690D01*
X146765000Y-126714250D01*
X146923750Y-126873000D01*
X148023000Y-126873000D01*
X148023000Y-125873750D01*
X147864250Y-125715000D01*
X147273691Y-125715000D01*
X147040302Y-125811673D01*
X146861673Y-125990301D01*
X146765000Y-126223690D01*
X141635000Y-126223690D01*
X141635000Y-125820131D01*
X142207692Y-125247440D01*
X142650000Y-125247440D01*
X142897765Y-125198157D01*
X143087330Y-125071493D01*
X143127235Y-125098157D01*
X143375000Y-125147440D01*
X144625000Y-125147440D01*
X144872765Y-125098157D01*
X144912670Y-125071493D01*
X145102235Y-125198157D01*
X145350000Y-125247440D01*
X146650000Y-125247440D01*
X146897765Y-125198157D01*
X147107809Y-125057809D01*
X147160000Y-124979700D01*
X147160000Y-125101309D01*
X147256673Y-125334698D01*
X147435301Y-125513327D01*
X147668690Y-125610000D01*
X147809250Y-125610000D01*
X147968000Y-125451250D01*
X147968000Y-124327000D01*
X147948000Y-124327000D01*
X147948000Y-124073000D01*
X147968000Y-124073000D01*
X147968000Y-122948750D01*
X147809250Y-122790000D01*
X147668690Y-122790000D01*
X147435301Y-122886673D01*
X147284920Y-123037055D01*
X147248157Y-122852235D01*
X147107809Y-122642191D01*
X146897765Y-122501843D01*
X146888500Y-122500000D01*
X146897765Y-122498157D01*
X146992285Y-122435000D01*
X148501076Y-122435000D01*
X148489343Y-122452560D01*
G36*
X157215000Y-116364250D02*
X157373750Y-116523000D01*
X158373000Y-116523000D01*
X158373000Y-116503000D01*
X158627000Y-116503000D01*
X158627000Y-116523000D01*
X159626250Y-116523000D01*
X159785000Y-116364250D01*
X159785000Y-116135000D01*
X159961786Y-116135000D01*
X160177321Y-116279016D01*
X160500000Y-116343201D01*
X161365000Y-116343201D01*
X161365000Y-117113587D01*
X161197765Y-117001843D01*
X160950000Y-116952560D01*
X160050000Y-116952560D01*
X159802235Y-117001843D01*
X159785000Y-117013359D01*
X159785000Y-116935750D01*
X159626250Y-116777000D01*
X158627000Y-116777000D01*
X158627000Y-116797000D01*
X158373000Y-116797000D01*
X158373000Y-116777000D01*
X157373750Y-116777000D01*
X157215000Y-116935750D01*
X157215000Y-117387119D01*
X157174097Y-117325903D01*
X156864819Y-117119250D01*
X156592086Y-117065000D01*
X156500000Y-117046683D01*
X156407914Y-117065000D01*
X155817115Y-117065000D01*
X155647765Y-116951843D01*
X155400000Y-116902560D01*
X154600000Y-116902560D01*
X154352235Y-116951843D01*
X154305416Y-116983127D01*
X153726261Y-116403972D01*
X153674097Y-116325903D01*
X153388391Y-116135000D01*
X157215000Y-116135000D01*
X157215000Y-116364250D01*
X157215000Y-116364250D01*
G37*
X157215000Y-116364250D02*
X157373750Y-116523000D01*
X158373000Y-116523000D01*
X158373000Y-116503000D01*
X158627000Y-116503000D01*
X158627000Y-116523000D01*
X159626250Y-116523000D01*
X159785000Y-116364250D01*
X159785000Y-116135000D01*
X159961786Y-116135000D01*
X160177321Y-116279016D01*
X160500000Y-116343201D01*
X161365000Y-116343201D01*
X161365000Y-117113587D01*
X161197765Y-117001843D01*
X160950000Y-116952560D01*
X160050000Y-116952560D01*
X159802235Y-117001843D01*
X159785000Y-117013359D01*
X159785000Y-116935750D01*
X159626250Y-116777000D01*
X158627000Y-116777000D01*
X158627000Y-116797000D01*
X158373000Y-116797000D01*
X158373000Y-116777000D01*
X157373750Y-116777000D01*
X157215000Y-116935750D01*
X157215000Y-117387119D01*
X157174097Y-117325903D01*
X156864819Y-117119250D01*
X156592086Y-117065000D01*
X156500000Y-117046683D01*
X156407914Y-117065000D01*
X155817115Y-117065000D01*
X155647765Y-116951843D01*
X155400000Y-116902560D01*
X154600000Y-116902560D01*
X154352235Y-116951843D01*
X154305416Y-116983127D01*
X153726261Y-116403972D01*
X153674097Y-116325903D01*
X153388391Y-116135000D01*
X157215000Y-116135000D01*
X157215000Y-116364250D01*
G04 #@! TD*
M02*
