G04 #@! TF.FileFunction,Copper,L1,Top,Signal*
%FSLAX46Y46*%
G04 Gerber Fmt 4.6, Leading zero omitted, Abs format (unit mm)*
G04 Created by KiCad (PCBNEW 4.0.7) date 01/06/18 22:06:09*
%MOMM*%
%LPD*%
G01*
G04 APERTURE LIST*
%ADD10C,0.100000*%
%ADD11C,0.600000*%
%ADD12R,3.000000X3.000000*%
%ADD13C,2.000000*%
%ADD14R,4.000000X3.000000*%
%ADD15R,3.000000X4.000000*%
%ADD16C,1.800000*%
%ADD17C,1.998980*%
%ADD18C,2.499360*%
%ADD19R,3.500000X2.000000*%
%ADD20R,1.500000X1.250000*%
%ADD21R,1.250000X1.500000*%
%ADD22R,1.400000X4.000000*%
%ADD23R,1.500000X4.000000*%
%ADD24R,2.000000X2.600000*%
%ADD25O,2.000000X2.600000*%
%ADD26R,4.000000X1.400000*%
%ADD27R,4.000000X1.500000*%
%ADD28R,1.500000X1.300000*%
%ADD29R,1.300000X1.500000*%
%ADD30R,1.550000X0.600000*%
%ADD31C,5.600000*%
%ADD32C,3.300000*%
%ADD33R,0.800000X0.900000*%
%ADD34R,0.900000X0.800000*%
%ADD35C,0.250000*%
%ADD36C,1.000000*%
%ADD37C,1.600000*%
%ADD38C,3.000000*%
%ADD39C,0.600000*%
%ADD40C,0.254000*%
G04 APERTURE END LIST*
D10*
D11*
X186000000Y-94000000D03*
X187000000Y-94000000D03*
X186000000Y-95000000D03*
X187000000Y-95000000D03*
X186000000Y-96000000D03*
X187000000Y-96000000D03*
X186000000Y-97000000D03*
X187000000Y-97000000D03*
X186000000Y-98000000D03*
X187000000Y-98000000D03*
X186000000Y-99000000D03*
X187000000Y-99000000D03*
X186000000Y-100000000D03*
X187000000Y-100000000D03*
X188000000Y-94000000D03*
X188000000Y-95000000D03*
X188000000Y-96000000D03*
X188000000Y-97000000D03*
X188000000Y-98000000D03*
X188000000Y-99000000D03*
X188000000Y-100000000D03*
X93000000Y-94000000D03*
X94000000Y-94000000D03*
X95000000Y-94000000D03*
X93000000Y-95000000D03*
X94000000Y-95000000D03*
X95000000Y-95000000D03*
X93000000Y-96000000D03*
X94000000Y-96000000D03*
X95000000Y-96000000D03*
X93000000Y-97000000D03*
X94000000Y-97000000D03*
X95000000Y-97000000D03*
X93000000Y-98000000D03*
X94000000Y-98000000D03*
X95000000Y-98000000D03*
X93000000Y-99000000D03*
X94000000Y-99000000D03*
X95000000Y-99000000D03*
X92000000Y-94000000D03*
X92000000Y-95000000D03*
X92000000Y-96000000D03*
X92000000Y-97000000D03*
X92000000Y-98000000D03*
X92000000Y-99000000D03*
X188000000Y-128000000D03*
X188000000Y-127000000D03*
X188000000Y-126000000D03*
X188000000Y-125000000D03*
X188000000Y-124000000D03*
X188000000Y-123000000D03*
X188000000Y-122000000D03*
X188000000Y-121000000D03*
X188000000Y-120000000D03*
X188000000Y-119000000D03*
X188000000Y-118000000D03*
X188000000Y-117000000D03*
X188000000Y-116000000D03*
X188000000Y-115000000D03*
X188000000Y-114000000D03*
X188000000Y-113000000D03*
X188000000Y-112000000D03*
X188000000Y-111000000D03*
X127000000Y-91000000D03*
X126000000Y-91000000D03*
X125000000Y-91000000D03*
X124000000Y-91000000D03*
X123000000Y-91000000D03*
X122000000Y-91000000D03*
X121000000Y-91000000D03*
X120000000Y-91000000D03*
X119000000Y-91000000D03*
X118000000Y-91000000D03*
X117000000Y-91000000D03*
X116000000Y-91000000D03*
X115000000Y-91000000D03*
X114000000Y-91000000D03*
X113000000Y-91000000D03*
X112000000Y-91000000D03*
X111000000Y-91000000D03*
X110000000Y-91000000D03*
X109000000Y-91000000D03*
X108000000Y-91000000D03*
X107000000Y-91000000D03*
X106000000Y-91000000D03*
X105000000Y-91000000D03*
X104000000Y-91000000D03*
X103000000Y-91000000D03*
X102000000Y-91000000D03*
X101000000Y-91000000D03*
X100000000Y-91000000D03*
X99000000Y-91000000D03*
X127000000Y-90000000D03*
X126000000Y-90000000D03*
X125000000Y-90000000D03*
X124000000Y-90000000D03*
X123000000Y-90000000D03*
X122000000Y-90000000D03*
X121000000Y-90000000D03*
X120000000Y-90000000D03*
X119000000Y-90000000D03*
X118000000Y-90000000D03*
X117000000Y-90000000D03*
X116000000Y-90000000D03*
X115000000Y-90000000D03*
X114000000Y-90000000D03*
X113000000Y-90000000D03*
X112000000Y-90000000D03*
X111000000Y-90000000D03*
X110000000Y-90000000D03*
X109000000Y-90000000D03*
X108000000Y-90000000D03*
X107000000Y-90000000D03*
X106000000Y-90000000D03*
X105000000Y-90000000D03*
X104000000Y-90000000D03*
X103000000Y-90000000D03*
X102000000Y-90000000D03*
X101000000Y-90000000D03*
X100000000Y-90000000D03*
X99000000Y-90000000D03*
X127000000Y-89000000D03*
X126000000Y-89000000D03*
X125000000Y-89000000D03*
X124000000Y-89000000D03*
X123000000Y-89000000D03*
X122000000Y-89000000D03*
X121000000Y-89000000D03*
X120000000Y-89000000D03*
X119000000Y-89000000D03*
X118000000Y-89000000D03*
X117000000Y-89000000D03*
X116000000Y-89000000D03*
X115000000Y-89000000D03*
X114000000Y-89000000D03*
X113000000Y-89000000D03*
X112000000Y-89000000D03*
X111000000Y-89000000D03*
X110000000Y-89000000D03*
X109000000Y-89000000D03*
X108000000Y-89000000D03*
X107000000Y-89000000D03*
X106000000Y-89000000D03*
X105000000Y-89000000D03*
X104000000Y-89000000D03*
X103000000Y-89000000D03*
X102000000Y-89000000D03*
X101000000Y-89000000D03*
X100000000Y-89000000D03*
X99000000Y-89000000D03*
X127000000Y-88000000D03*
X126000000Y-88000000D03*
X125000000Y-88000000D03*
X124000000Y-88000000D03*
X123000000Y-88000000D03*
X122000000Y-88000000D03*
X121000000Y-88000000D03*
X120000000Y-88000000D03*
X119000000Y-88000000D03*
X118000000Y-88000000D03*
X117000000Y-88000000D03*
X116000000Y-88000000D03*
X115000000Y-88000000D03*
X114000000Y-88000000D03*
X113000000Y-88000000D03*
X112000000Y-88000000D03*
X111000000Y-88000000D03*
X110000000Y-88000000D03*
X109000000Y-88000000D03*
X108000000Y-88000000D03*
X107000000Y-88000000D03*
X106000000Y-88000000D03*
X105000000Y-88000000D03*
X104000000Y-88000000D03*
X103000000Y-88000000D03*
X102000000Y-88000000D03*
X101000000Y-88000000D03*
X100000000Y-88000000D03*
X99000000Y-88000000D03*
X127000000Y-87000000D03*
X126000000Y-87000000D03*
X125000000Y-87000000D03*
X124000000Y-87000000D03*
X123000000Y-87000000D03*
X122000000Y-87000000D03*
X121000000Y-87000000D03*
X120000000Y-87000000D03*
X119000000Y-87000000D03*
X118000000Y-87000000D03*
X117000000Y-87000000D03*
X116000000Y-87000000D03*
X115000000Y-87000000D03*
X114000000Y-87000000D03*
X113000000Y-87000000D03*
X112000000Y-87000000D03*
X111000000Y-87000000D03*
X110000000Y-87000000D03*
X109000000Y-87000000D03*
X108000000Y-87000000D03*
X107000000Y-87000000D03*
X106000000Y-87000000D03*
X105000000Y-87000000D03*
X104000000Y-87000000D03*
X103000000Y-87000000D03*
X102000000Y-87000000D03*
X101000000Y-87000000D03*
X100000000Y-87000000D03*
X99000000Y-87000000D03*
X91000000Y-101000000D03*
X91000000Y-100000000D03*
X91000000Y-99000000D03*
X91000000Y-98000000D03*
X91000000Y-97000000D03*
X91000000Y-96000000D03*
X91000000Y-95000000D03*
X91000000Y-94000000D03*
X91000000Y-93000000D03*
X91000000Y-92000000D03*
X91000000Y-91000000D03*
X91000000Y-90000000D03*
X91000000Y-89000000D03*
X91000000Y-88000000D03*
X91000000Y-87000000D03*
X189000000Y-101000000D03*
X189000000Y-100000000D03*
X189000000Y-99000000D03*
X189000000Y-98000000D03*
X189000000Y-97000000D03*
X189000000Y-96000000D03*
X189000000Y-95000000D03*
X189000000Y-94000000D03*
X189000000Y-93000000D03*
X189000000Y-92000000D03*
X189000000Y-91000000D03*
X189000000Y-90000000D03*
X189000000Y-89000000D03*
X189000000Y-88000000D03*
X189000000Y-87000000D03*
X189000000Y-133000000D03*
X189000000Y-132000000D03*
X189000000Y-131000000D03*
X189000000Y-130000000D03*
X189000000Y-129000000D03*
X189000000Y-128000000D03*
X189000000Y-127000000D03*
X189000000Y-126000000D03*
X189000000Y-125000000D03*
X189000000Y-124000000D03*
X189000000Y-123000000D03*
X189000000Y-122000000D03*
X189000000Y-121000000D03*
X189000000Y-120000000D03*
X189000000Y-119000000D03*
X189000000Y-118000000D03*
X189000000Y-117000000D03*
X189000000Y-116000000D03*
X189000000Y-115000000D03*
X189000000Y-114000000D03*
X189000000Y-113000000D03*
X189000000Y-112000000D03*
X189000000Y-111000000D03*
X189000000Y-110000000D03*
X188500000Y-134000000D03*
X187500000Y-134000000D03*
X186500000Y-134000000D03*
X185500000Y-134000000D03*
X184500000Y-134000000D03*
X183500000Y-134000000D03*
X182500000Y-134000000D03*
X181500000Y-134000000D03*
X180500000Y-134000000D03*
X179500000Y-134000000D03*
X178500000Y-134000000D03*
X177500000Y-134000000D03*
X176500000Y-134000000D03*
X168500000Y-134000000D03*
X167500000Y-134000000D03*
X166500000Y-134000000D03*
X165500000Y-134000000D03*
X164500000Y-134000000D03*
X163500000Y-134000000D03*
X162500000Y-134000000D03*
X161500000Y-134000000D03*
X160500000Y-134000000D03*
X159500000Y-134000000D03*
X158500000Y-134000000D03*
X157500000Y-134000000D03*
X156500000Y-134000000D03*
X155500000Y-134000000D03*
X154500000Y-134000000D03*
X153500000Y-134000000D03*
X152500000Y-134000000D03*
X151500000Y-134000000D03*
X150500000Y-134000000D03*
X149500000Y-134000000D03*
X148500000Y-134000000D03*
X147500000Y-134000000D03*
X146500000Y-134000000D03*
X145500000Y-134000000D03*
X144500000Y-134000000D03*
X143500000Y-134000000D03*
X142500000Y-134000000D03*
X141500000Y-134000000D03*
X104500000Y-134000000D03*
X103500000Y-134000000D03*
X102500000Y-134000000D03*
X101500000Y-134000000D03*
X100500000Y-134000000D03*
X99500000Y-134000000D03*
X98500000Y-134000000D03*
X97500000Y-134000000D03*
X96500000Y-134000000D03*
X95500000Y-134000000D03*
X94500000Y-134000000D03*
X93500000Y-134000000D03*
X92500000Y-134000000D03*
X91500000Y-134000000D03*
X91500000Y-133000000D03*
X91500000Y-132000000D03*
X91500000Y-131000000D03*
X91500000Y-130000000D03*
X91500000Y-129000000D03*
X91500000Y-128000000D03*
X91500000Y-127000000D03*
X91500000Y-126000000D03*
X91500000Y-125000000D03*
X91500000Y-124000000D03*
X91500000Y-123000000D03*
X91500000Y-122000000D03*
X91500000Y-121000000D03*
X91500000Y-120000000D03*
X91500000Y-119000000D03*
X91500000Y-118000000D03*
X91500000Y-117000000D03*
X91500000Y-116000000D03*
X91500000Y-115000000D03*
X91500000Y-114000000D03*
X91500000Y-113000000D03*
X91500000Y-112000000D03*
X91500000Y-111000000D03*
X91500000Y-110000000D03*
X91500000Y-109000000D03*
X189000000Y-86000000D03*
X188000000Y-86000000D03*
X187000000Y-86000000D03*
X186000000Y-86000000D03*
X185000000Y-86000000D03*
X184000000Y-86000000D03*
X183000000Y-86000000D03*
X182000000Y-86000000D03*
X181000000Y-86000000D03*
X180000000Y-86000000D03*
X179000000Y-86000000D03*
X178000000Y-86000000D03*
X177000000Y-86000000D03*
X176000000Y-86000000D03*
X175000000Y-86000000D03*
X174000000Y-86000000D03*
X173000000Y-86000000D03*
X172000000Y-86000000D03*
X171000000Y-86000000D03*
X170000000Y-86000000D03*
X169000000Y-86000000D03*
X168000000Y-86000000D03*
X167000000Y-86000000D03*
X166000000Y-86000000D03*
X165000000Y-86000000D03*
X164000000Y-86000000D03*
X163000000Y-86000000D03*
X162000000Y-86000000D03*
X161000000Y-86000000D03*
X160000000Y-86000000D03*
X159000000Y-86000000D03*
X158000000Y-86000000D03*
X157000000Y-86000000D03*
X156000000Y-86000000D03*
X155000000Y-86000000D03*
X154000000Y-86000000D03*
X153000000Y-86000000D03*
X152000000Y-86000000D03*
X151000000Y-86000000D03*
X150000000Y-86000000D03*
X149000000Y-86000000D03*
X148000000Y-86000000D03*
X147000000Y-86000000D03*
X146000000Y-86000000D03*
X145000000Y-86000000D03*
X144000000Y-86000000D03*
X143000000Y-86000000D03*
X142000000Y-86000000D03*
X141000000Y-86000000D03*
X140000000Y-86000000D03*
X139000000Y-86000000D03*
X138000000Y-86000000D03*
X137000000Y-86000000D03*
X136000000Y-86000000D03*
X135000000Y-86000000D03*
X134000000Y-86000000D03*
X133000000Y-86000000D03*
X132000000Y-86000000D03*
X131000000Y-86000000D03*
X130000000Y-86000000D03*
X129000000Y-86000000D03*
X128000000Y-86000000D03*
X127000000Y-86000000D03*
X126000000Y-86000000D03*
X125000000Y-86000000D03*
X124000000Y-86000000D03*
X123000000Y-86000000D03*
X122000000Y-86000000D03*
X121000000Y-86000000D03*
X120000000Y-86000000D03*
X119000000Y-86000000D03*
X118000000Y-86000000D03*
X117000000Y-86000000D03*
X116000000Y-86000000D03*
X115000000Y-86000000D03*
X114000000Y-86000000D03*
X113000000Y-86000000D03*
X112000000Y-86000000D03*
X111000000Y-86000000D03*
X110000000Y-86000000D03*
X109000000Y-86000000D03*
X108000000Y-86000000D03*
X107000000Y-86000000D03*
X106000000Y-86000000D03*
X105000000Y-86000000D03*
X104000000Y-86000000D03*
X103000000Y-86000000D03*
X102000000Y-86000000D03*
X101000000Y-86000000D03*
X100000000Y-86000000D03*
X99000000Y-86000000D03*
X98000000Y-86000000D03*
X97000000Y-86000000D03*
X96000000Y-86000000D03*
X95000000Y-86000000D03*
X94000000Y-86000000D03*
X93000000Y-86000000D03*
X92000000Y-86000000D03*
X94500000Y-126000000D03*
X93500000Y-126000000D03*
X92500000Y-126000000D03*
X94500000Y-125000000D03*
X93500000Y-125000000D03*
X92500000Y-125000000D03*
X94500000Y-124000000D03*
X93500000Y-124000000D03*
X92500000Y-124000000D03*
X94500000Y-123000000D03*
X93500000Y-123000000D03*
X92500000Y-123000000D03*
X94500000Y-122000000D03*
X93500000Y-122000000D03*
X92500000Y-122000000D03*
X94500000Y-121000000D03*
X93500000Y-121000000D03*
X92500000Y-121000000D03*
X94500000Y-120000000D03*
X93500000Y-120000000D03*
X92500000Y-120000000D03*
X94500000Y-119000000D03*
X93500000Y-119000000D03*
X92500000Y-119000000D03*
X94500000Y-118000000D03*
X93500000Y-118000000D03*
X92500000Y-118000000D03*
X94500000Y-117000000D03*
X93500000Y-117000000D03*
X92500000Y-117000000D03*
X94500000Y-116000000D03*
X93500000Y-116000000D03*
X92500000Y-116000000D03*
X94500000Y-115000000D03*
X93500000Y-115000000D03*
X92500000Y-115000000D03*
X94500000Y-114000000D03*
X93500000Y-114000000D03*
X92500000Y-114000000D03*
X94500000Y-113000000D03*
X93500000Y-113000000D03*
X92500000Y-113000000D03*
X94500000Y-112000000D03*
X93500000Y-112000000D03*
X92500000Y-112000000D03*
X94500000Y-111000000D03*
X93500000Y-111000000D03*
X187000000Y-126000000D03*
X186000000Y-126000000D03*
X187000000Y-125000000D03*
X186000000Y-125000000D03*
X187000000Y-124000000D03*
X186000000Y-124000000D03*
X187000000Y-123000000D03*
X186000000Y-123000000D03*
X187000000Y-122000000D03*
X186000000Y-122000000D03*
X187000000Y-121000000D03*
X186000000Y-121000000D03*
X187000000Y-120000000D03*
X186000000Y-120000000D03*
X187000000Y-119000000D03*
X186000000Y-119000000D03*
X187000000Y-118000000D03*
X186000000Y-118000000D03*
X187000000Y-117000000D03*
X186000000Y-117000000D03*
X187000000Y-116000000D03*
X186000000Y-116000000D03*
X187000000Y-115000000D03*
X186000000Y-115000000D03*
X187000000Y-114000000D03*
X186000000Y-114000000D03*
X187000000Y-113000000D03*
X186000000Y-113000000D03*
X187000000Y-112000000D03*
X186000000Y-112000000D03*
X187000000Y-111000000D03*
X186000000Y-111000000D03*
D12*
X125000000Y-100000000D03*
D13*
X139405000Y-88570000D03*
D12*
X137500000Y-113500000D03*
X149565000Y-105715000D03*
D14*
X162380000Y-95000000D03*
D15*
X176985000Y-95000000D03*
D13*
X177000000Y-88500000D03*
D12*
X163500000Y-106000000D03*
D16*
X114500000Y-123040000D03*
X114500000Y-117960000D03*
X124660000Y-123040000D03*
X119580000Y-123040000D03*
X122100000Y-123040000D03*
X124660000Y-117960000D03*
X119580000Y-117960000D03*
X122120000Y-117960000D03*
D17*
X95000000Y-105000000D03*
D18*
X97540000Y-102460000D03*
X97540000Y-107540000D03*
X92460000Y-107540000D03*
X92460000Y-102460000D03*
D19*
X115000000Y-93500000D03*
X115000000Y-97500000D03*
D20*
X163750000Y-124500000D03*
X161250000Y-124500000D03*
X163750000Y-111500000D03*
X166250000Y-111500000D03*
D21*
X144500000Y-115750000D03*
X144500000Y-118250000D03*
D20*
X149250000Y-124500000D03*
X151750000Y-124500000D03*
D22*
X107000000Y-133000000D03*
D23*
X109540000Y-133000000D03*
X104460000Y-133000000D03*
D17*
X107000000Y-130000000D03*
D18*
X109540000Y-127460000D03*
X109540000Y-132540000D03*
X104460000Y-132540000D03*
X104460000Y-127460000D03*
D22*
X122000000Y-133000000D03*
D23*
X124540000Y-133000000D03*
X119460000Y-133000000D03*
D17*
X122000000Y-130000000D03*
D18*
X124540000Y-127460000D03*
X124540000Y-132540000D03*
X119460000Y-132540000D03*
X119460000Y-127460000D03*
D24*
X160000000Y-130000000D03*
D25*
X157460000Y-130000000D03*
X154920000Y-130000000D03*
X152380000Y-130000000D03*
X149840000Y-130000000D03*
D26*
X92000000Y-105000000D03*
D27*
X92000000Y-107540000D03*
X92000000Y-102460000D03*
D26*
X188000000Y-105000000D03*
D27*
X188000000Y-102460000D03*
X188000000Y-107540000D03*
D17*
X185000000Y-105000000D03*
D18*
X187540000Y-102460000D03*
X187540000Y-107540000D03*
X182460000Y-107540000D03*
X182460000Y-102460000D03*
D28*
X173650000Y-124500000D03*
X176350000Y-124500000D03*
D29*
X172500000Y-119150000D03*
X172500000Y-121850000D03*
D28*
X173650000Y-116500000D03*
X176350000Y-116500000D03*
X161150000Y-120500000D03*
X163850000Y-120500000D03*
X161150000Y-122500000D03*
X163850000Y-122500000D03*
D29*
X166500000Y-115650000D03*
X166500000Y-118350000D03*
D28*
X163650000Y-113500000D03*
X166350000Y-113500000D03*
D29*
X144500000Y-111350000D03*
X144500000Y-108650000D03*
X138500000Y-116150000D03*
X138500000Y-118850000D03*
X138500000Y-110350000D03*
X138500000Y-107650000D03*
X146500000Y-115650000D03*
X146500000Y-118350000D03*
D28*
X151850000Y-122500000D03*
X149150000Y-122500000D03*
X151850000Y-120500000D03*
X149150000Y-120500000D03*
D30*
X158700000Y-116905000D03*
X158700000Y-115635000D03*
X158700000Y-114365000D03*
X158700000Y-113095000D03*
X153300000Y-113095000D03*
X153300000Y-114365000D03*
X153300000Y-115635000D03*
X153300000Y-116905000D03*
D31*
X95000000Y-130000000D03*
X185000000Y-130000000D03*
X95000000Y-90000000D03*
X185000000Y-90000000D03*
D22*
X137000000Y-133000000D03*
D23*
X139540000Y-133000000D03*
X134460000Y-133000000D03*
D17*
X137000000Y-130000000D03*
D18*
X139540000Y-127460000D03*
X139540000Y-132540000D03*
X134460000Y-132540000D03*
X134460000Y-127460000D03*
D17*
X172500000Y-130000000D03*
D18*
X175040000Y-127460000D03*
X175040000Y-132540000D03*
X169960000Y-132540000D03*
X169960000Y-127460000D03*
D22*
X172500000Y-133000000D03*
D23*
X175040000Y-133000000D03*
X169960000Y-133000000D03*
D21*
X114500000Y-128750000D03*
X114500000Y-126250000D03*
D32*
X144000000Y-91000000D03*
X130000000Y-107000000D03*
D33*
X162450000Y-109000000D03*
X160550000Y-109000000D03*
X161500000Y-111000000D03*
D34*
X163600000Y-117950000D03*
X163600000Y-116050000D03*
X161600000Y-117000000D03*
X140000000Y-113050000D03*
X140000000Y-114950000D03*
X142000000Y-114000000D03*
X150400000Y-116550000D03*
X150400000Y-114650000D03*
X148400000Y-115600000D03*
D11*
X92500000Y-111000000D03*
X91000000Y-86000000D03*
X131000000Y-134000000D03*
X130000000Y-134000000D03*
X129000000Y-134000000D03*
X128000000Y-134000000D03*
X116000000Y-134000000D03*
X115000000Y-134000000D03*
X114000000Y-134000000D03*
X113000000Y-134000000D03*
X144000000Y-120000000D03*
X145000000Y-120000000D03*
X146000000Y-120000000D03*
X147000000Y-120000000D03*
X147000000Y-121000000D03*
X147000000Y-122000000D03*
X147000000Y-123000000D03*
X167000000Y-103000000D03*
X168000000Y-104000000D03*
X169000000Y-105000000D03*
X170000000Y-106000000D03*
X171000000Y-107000000D03*
X172000000Y-108000000D03*
X173000000Y-109000000D03*
X174000000Y-110000000D03*
X174000000Y-111000000D03*
X174000000Y-112000000D03*
X174000000Y-113000000D03*
X174000000Y-114000000D03*
X174000000Y-115000000D03*
X174000000Y-119000000D03*
X174000000Y-120000000D03*
X174000000Y-121000000D03*
X174000000Y-122000000D03*
X174000000Y-123000000D03*
X159000000Y-109000000D03*
X158000000Y-109000000D03*
X157000000Y-109000000D03*
X156000000Y-109000000D03*
X155000000Y-109000000D03*
X154000000Y-109000000D03*
X153000000Y-109000000D03*
X152000000Y-109000000D03*
X151000000Y-109000000D03*
X150000000Y-109000000D03*
X149000000Y-109000000D03*
X148000000Y-109000000D03*
X147000000Y-109000000D03*
X146000000Y-107000000D03*
X146000000Y-106000000D03*
X146000000Y-105000000D03*
X146000000Y-104000000D03*
X146000000Y-103000000D03*
X148000000Y-102000000D03*
X149000000Y-102000000D03*
X150000000Y-102000000D03*
X151000000Y-102000000D03*
X152000000Y-102000000D03*
X153000000Y-103000000D03*
X154000000Y-103000000D03*
X155000000Y-103000000D03*
X156000000Y-103000000D03*
X157000000Y-103000000D03*
X146000000Y-102000000D03*
X147000000Y-102000000D03*
X146000000Y-108000000D03*
X166000000Y-103000000D03*
X165000000Y-103000000D03*
X164000000Y-103000000D03*
X163000000Y-103000000D03*
X162000000Y-103000000D03*
X161000000Y-103000000D03*
X160000000Y-103000000D03*
X159000000Y-103000000D03*
X158000000Y-103000000D03*
X171000000Y-112000000D03*
X171000000Y-113000000D03*
X171000000Y-114000000D03*
X171000000Y-115000000D03*
X171000000Y-116000000D03*
X171000000Y-117000000D03*
X171000000Y-118000000D03*
X171000000Y-119000000D03*
X171000000Y-120000000D03*
X171000000Y-121000000D03*
X171000000Y-122000000D03*
X171000000Y-123000000D03*
X171000000Y-124000000D03*
X171000000Y-125000000D03*
X170000000Y-111000000D03*
X169000000Y-110000000D03*
X168000000Y-109000000D03*
X167000000Y-109000000D03*
X166000000Y-109000000D03*
X165000000Y-109000000D03*
X164000000Y-109000000D03*
X127000000Y-118000000D03*
X133000000Y-119000000D03*
X132000000Y-119000000D03*
X131000000Y-119000000D03*
X130000000Y-119000000D03*
X129000000Y-119000000D03*
X128000000Y-119000000D03*
X127000000Y-119000000D03*
X186000000Y-101000000D03*
X185000000Y-101000000D03*
X184000000Y-101000000D03*
X184000000Y-100000000D03*
X98000000Y-110000000D03*
X182000000Y-110000000D03*
X128000000Y-104000000D03*
X129000000Y-103000000D03*
X130000000Y-102000000D03*
X131000000Y-101000000D03*
X132000000Y-100000000D03*
X133000000Y-100000000D03*
X134000000Y-100000000D03*
X135000000Y-100000000D03*
X136000000Y-100000000D03*
X137000000Y-100000000D03*
X138000000Y-100000000D03*
X139000000Y-100000000D03*
X140000000Y-100000000D03*
X141000000Y-100000000D03*
X142000000Y-100000000D03*
X143000000Y-100000000D03*
X144000000Y-100000000D03*
X145000000Y-100000000D03*
X146000000Y-100000000D03*
X147000000Y-100000000D03*
X148000000Y-100000000D03*
X149000000Y-100000000D03*
X150000000Y-100000000D03*
X151000000Y-100000000D03*
X152000000Y-100000000D03*
X153000000Y-100000000D03*
X154000000Y-100000000D03*
X155000000Y-100000000D03*
X156000000Y-100000000D03*
X157000000Y-100000000D03*
X158000000Y-100000000D03*
X159000000Y-100000000D03*
X160000000Y-100000000D03*
X161000000Y-100000000D03*
X162000000Y-100000000D03*
X163000000Y-100000000D03*
X164000000Y-100000000D03*
X165000000Y-100000000D03*
X166000000Y-100000000D03*
X167000000Y-100000000D03*
X168000000Y-100000000D03*
X169000000Y-100000000D03*
X170000000Y-100000000D03*
X171000000Y-100000000D03*
X172000000Y-100000000D03*
X127000000Y-105000000D03*
X126000000Y-105000000D03*
X125000000Y-105000000D03*
X124000000Y-105000000D03*
X123000000Y-105000000D03*
X122000000Y-105000000D03*
X121000000Y-105000000D03*
X120000000Y-105000000D03*
X119000000Y-105000000D03*
X118000000Y-105000000D03*
X117000000Y-105000000D03*
X116000000Y-105000000D03*
X115000000Y-105000000D03*
X114000000Y-105000000D03*
X113000000Y-105000000D03*
X112000000Y-105000000D03*
X111000000Y-106000000D03*
X110000000Y-107000000D03*
X109000000Y-108000000D03*
X108000000Y-109000000D03*
X107000000Y-110000000D03*
X106000000Y-110000000D03*
X105000000Y-110000000D03*
X104000000Y-110000000D03*
X103000000Y-110000000D03*
X102000000Y-110000000D03*
X101000000Y-110000000D03*
X100000000Y-110000000D03*
X99000000Y-110000000D03*
X97000000Y-110000000D03*
X96000000Y-110000000D03*
X95000000Y-110000000D03*
X94000000Y-110000000D03*
X172000000Y-104000000D03*
X172000000Y-103000000D03*
X172000000Y-102000000D03*
X172000000Y-101000000D03*
X173000000Y-105000000D03*
X174000000Y-106000000D03*
X175000000Y-107000000D03*
X176000000Y-108000000D03*
X177000000Y-109000000D03*
X178000000Y-110000000D03*
X179000000Y-110000000D03*
X180000000Y-110000000D03*
X181000000Y-110000000D03*
X183000000Y-110000000D03*
X184000000Y-110000000D03*
X185000000Y-110000000D03*
X186000000Y-110000000D03*
X187000000Y-110000000D03*
X188000000Y-110000000D03*
X113000000Y-119000000D03*
X105000000Y-125000000D03*
X105000000Y-124000000D03*
X105000000Y-123000000D03*
X106000000Y-122000000D03*
X107000000Y-121000000D03*
X108000000Y-120000000D03*
X109000000Y-119000000D03*
X110000000Y-119000000D03*
X111000000Y-119000000D03*
X112000000Y-119000000D03*
X113000000Y-125000000D03*
X113000000Y-124000000D03*
X113000000Y-123000000D03*
X113000000Y-122000000D03*
X112000000Y-122000000D03*
X111000000Y-123000000D03*
X110000000Y-124000000D03*
X109000000Y-125000000D03*
X109000000Y-126000000D03*
X116000000Y-125000000D03*
X117000000Y-125000000D03*
X118000000Y-125000000D03*
X119000000Y-125000000D03*
X120000000Y-125000000D03*
X135000000Y-125000000D03*
X134000000Y-124000000D03*
X133000000Y-123000000D03*
X132000000Y-122000000D03*
X131000000Y-122000000D03*
X130000000Y-122000000D03*
X129000000Y-122000000D03*
X128000000Y-122000000D03*
X127000000Y-122000000D03*
X127000000Y-123000000D03*
X127000000Y-124000000D03*
X127000000Y-125000000D03*
X127000000Y-126000000D03*
X127000000Y-127000000D03*
X139000000Y-125000000D03*
X138000000Y-123000000D03*
X137000000Y-122000000D03*
X136000000Y-121000000D03*
X135000000Y-120000000D03*
X134000000Y-119000000D03*
X120000000Y-116000000D03*
X121000000Y-116000000D03*
X122000000Y-116000000D03*
X123000000Y-116000000D03*
X124000000Y-116000000D03*
X125000000Y-116000000D03*
X126000000Y-116000000D03*
X127000000Y-116000000D03*
X127000000Y-117000000D03*
X158000000Y-119500000D03*
X158000000Y-121500000D03*
X158000000Y-123500000D03*
X158000000Y-125500000D03*
X132000000Y-134000000D03*
X127000000Y-134000000D03*
X117000000Y-134000000D03*
X112000000Y-134000000D03*
X182000000Y-100000000D03*
X183000000Y-100000000D03*
X181000000Y-100000000D03*
X181000000Y-99000000D03*
X181000000Y-98000000D03*
X181000000Y-97000000D03*
X181000000Y-96000000D03*
X181000000Y-95000000D03*
X181000000Y-94000000D03*
X181000000Y-93000000D03*
X181000000Y-92000000D03*
X181000000Y-91000000D03*
X181000000Y-90000000D03*
X180000000Y-90000000D03*
X179000000Y-90000000D03*
X178000000Y-90000000D03*
X177000000Y-90000000D03*
X176000000Y-90000000D03*
X175000000Y-90000000D03*
X174000000Y-90000000D03*
X173000000Y-90000000D03*
X172000000Y-90000000D03*
X171000000Y-90000000D03*
X170000000Y-90000000D03*
X169000000Y-90000000D03*
X168000000Y-90000000D03*
X167000000Y-90000000D03*
X166000000Y-90000000D03*
X165000000Y-90000000D03*
X164000000Y-90000000D03*
X163000000Y-90000000D03*
X162000000Y-90000000D03*
X161000000Y-90000000D03*
X160000000Y-90000000D03*
X159000000Y-90000000D03*
X158000000Y-90000000D03*
X157000000Y-90000000D03*
X156000000Y-90000000D03*
X155000000Y-90000000D03*
X154000000Y-90000000D03*
X153000000Y-90000000D03*
X152000000Y-90000000D03*
X151000000Y-90000000D03*
X150000000Y-90000000D03*
X149000000Y-90000000D03*
X148000000Y-90000000D03*
X147000000Y-90000000D03*
X146000000Y-90000000D03*
X142000000Y-90000000D03*
X141000000Y-90000000D03*
X140000000Y-90000000D03*
X139000000Y-90000000D03*
X138000000Y-90000000D03*
X137000000Y-90000000D03*
X136000000Y-90000000D03*
X135000000Y-90000000D03*
X134000000Y-90000000D03*
X133000000Y-90000000D03*
X132000000Y-90000000D03*
X131000000Y-90000000D03*
X130000000Y-90000000D03*
X129000000Y-90000000D03*
X128000000Y-91000000D03*
X127000000Y-92000000D03*
X126000000Y-93000000D03*
X125000000Y-94000000D03*
X124000000Y-95000000D03*
X123000000Y-95000000D03*
X122000000Y-95000000D03*
X121000000Y-95000000D03*
X120000000Y-95000000D03*
X119000000Y-95000000D03*
X118000000Y-95000000D03*
X118000000Y-94000000D03*
X118000000Y-93000000D03*
X117000000Y-92000000D03*
X116000000Y-92000000D03*
X115000000Y-92000000D03*
X114000000Y-92000000D03*
X113000000Y-92000000D03*
X112000000Y-92000000D03*
X112000000Y-93000000D03*
X112000000Y-94000000D03*
X112000000Y-95000000D03*
X111000000Y-95000000D03*
X110000000Y-95000000D03*
X109000000Y-95000000D03*
X108000000Y-95000000D03*
X107000000Y-96000000D03*
X106000000Y-97000000D03*
X105000000Y-98000000D03*
X104000000Y-99000000D03*
X103000000Y-100000000D03*
X102000000Y-100000000D03*
X101000000Y-100000000D03*
X100000000Y-100000000D03*
X99000000Y-100000000D03*
X98000000Y-100000000D03*
X97000000Y-100000000D03*
X96000000Y-100000000D03*
X95000000Y-100000000D03*
X93000000Y-100000000D03*
X155500000Y-119000000D03*
X155500000Y-121000000D03*
X155500000Y-122500000D03*
D35*
X131000000Y-134000000D02*
X132000000Y-134000000D01*
X130000000Y-134000000D02*
X131000000Y-134000000D01*
X129000000Y-134000000D02*
X130000000Y-134000000D01*
X128000000Y-134000000D02*
X129000000Y-134000000D01*
X127000000Y-134000000D02*
X128000000Y-134000000D01*
X116000000Y-134000000D02*
X117000000Y-134000000D01*
X115000000Y-134000000D02*
X116000000Y-134000000D01*
X114000000Y-134000000D02*
X115000000Y-134000000D01*
X113000000Y-134000000D02*
X114000000Y-134000000D01*
X112000000Y-134000000D02*
X113000000Y-134000000D01*
X145000000Y-120000000D02*
X144000000Y-120000000D01*
X147000000Y-120000000D02*
X146000000Y-120000000D01*
X147000000Y-122000000D02*
X147000000Y-121000000D01*
X149250000Y-124500000D02*
X149125000Y-124500000D01*
X149125000Y-124500000D02*
X147625000Y-123000000D01*
X147625000Y-123000000D02*
X147000000Y-123000000D01*
X149250000Y-124500000D02*
X148000000Y-124500000D01*
X103500000Y-134000000D02*
X104500000Y-134000000D01*
X91500000Y-109000000D02*
X91500000Y-108500000D01*
X91500000Y-108500000D02*
X92460000Y-107540000D01*
X167000000Y-103000000D02*
X166000000Y-103000000D01*
X169000000Y-105000000D02*
X168000000Y-104000000D01*
X171000000Y-107000000D02*
X170000000Y-106000000D01*
X173000000Y-109000000D02*
X172000000Y-108000000D01*
X174000000Y-111000000D02*
X174000000Y-110000000D01*
X174000000Y-113000000D02*
X174000000Y-112000000D01*
X174000000Y-115000000D02*
X174000000Y-114000000D01*
X176350000Y-124500000D02*
X176350000Y-123350000D01*
X174000000Y-120000000D02*
X174000000Y-119000000D01*
X174000000Y-122000000D02*
X174000000Y-121000000D01*
X176000000Y-123000000D02*
X174000000Y-123000000D01*
X176350000Y-123350000D02*
X176000000Y-123000000D01*
X158700000Y-109300000D02*
X159000000Y-109000000D01*
X158000000Y-109000000D02*
X157000000Y-109000000D01*
X156000000Y-109000000D02*
X155000000Y-109000000D01*
X154000000Y-109000000D02*
X153000000Y-109000000D01*
X152000000Y-109000000D02*
X151000000Y-109000000D01*
X150000000Y-109000000D02*
X149000000Y-109000000D01*
X148000000Y-109000000D02*
X147000000Y-109000000D01*
X146000000Y-106000000D02*
X146000000Y-105000000D01*
X146000000Y-104000000D02*
X146000000Y-103000000D01*
X149000000Y-102000000D02*
X150000000Y-102000000D01*
X151000000Y-102000000D02*
X152000000Y-102000000D01*
X153000000Y-103000000D02*
X154000000Y-103000000D01*
X155000000Y-103000000D02*
X156000000Y-103000000D01*
X158700000Y-113095000D02*
X158700000Y-109300000D01*
X148000000Y-102000000D02*
X147000000Y-102000000D01*
X147000000Y-102000000D02*
X146000000Y-102000000D01*
X146000000Y-107000000D02*
X146000000Y-108000000D01*
X164000000Y-103000000D02*
X165000000Y-103000000D01*
X162000000Y-103000000D02*
X163000000Y-103000000D01*
X160000000Y-103000000D02*
X161000000Y-103000000D01*
X158000000Y-103000000D02*
X159000000Y-103000000D01*
X171000000Y-113000000D02*
X171000000Y-112000000D01*
X171000000Y-115000000D02*
X171000000Y-114000000D01*
X171000000Y-117000000D02*
X171000000Y-116000000D01*
X171000000Y-119000000D02*
X171000000Y-118000000D01*
X171000000Y-121000000D02*
X171000000Y-120000000D01*
X171000000Y-123000000D02*
X171000000Y-122000000D01*
X171000000Y-125000000D02*
X171000000Y-124000000D01*
X170000000Y-111000000D02*
X169000000Y-110000000D01*
X168000000Y-109000000D02*
X167000000Y-109000000D01*
X166000000Y-109000000D02*
X165000000Y-109000000D01*
X134000000Y-119000000D02*
X133000000Y-119000000D01*
X131000000Y-119000000D02*
X132000000Y-119000000D01*
X129000000Y-119000000D02*
X130000000Y-119000000D01*
X127000000Y-119000000D02*
X128000000Y-119000000D01*
X186000000Y-101000000D02*
X187460000Y-102460000D01*
X184000000Y-101000000D02*
X185000000Y-101000000D01*
X183000000Y-100000000D02*
X184000000Y-100000000D01*
X187460000Y-102460000D02*
X187540000Y-102460000D01*
X187540000Y-102460000D02*
X188000000Y-102460000D01*
X97000000Y-110000000D02*
X98000000Y-110000000D01*
X181000000Y-110000000D02*
X182000000Y-110000000D01*
X129000000Y-103000000D02*
X130000000Y-102000000D01*
X131000000Y-101000000D02*
X132000000Y-100000000D01*
X133000000Y-100000000D02*
X134000000Y-100000000D01*
X135000000Y-100000000D02*
X136000000Y-100000000D01*
X137000000Y-100000000D02*
X138000000Y-100000000D01*
X139000000Y-100000000D02*
X140000000Y-100000000D01*
X141000000Y-100000000D02*
X142000000Y-100000000D01*
X143000000Y-100000000D02*
X144000000Y-100000000D01*
X145000000Y-100000000D02*
X146000000Y-100000000D01*
X147000000Y-100000000D02*
X148000000Y-100000000D01*
X149000000Y-100000000D02*
X150000000Y-100000000D01*
X151000000Y-100000000D02*
X152000000Y-100000000D01*
X153000000Y-100000000D02*
X154000000Y-100000000D01*
X155000000Y-100000000D02*
X156000000Y-100000000D01*
X157000000Y-100000000D02*
X158000000Y-100000000D01*
X159000000Y-100000000D02*
X160000000Y-100000000D01*
X161000000Y-100000000D02*
X162000000Y-100000000D01*
X163000000Y-100000000D02*
X164000000Y-100000000D01*
X165000000Y-100000000D02*
X166000000Y-100000000D01*
X167000000Y-100000000D02*
X168000000Y-100000000D01*
X169000000Y-100000000D02*
X170000000Y-100000000D01*
X171000000Y-100000000D02*
X172000000Y-100000000D01*
X92460000Y-108460000D02*
X94000000Y-110000000D01*
X125000000Y-105000000D02*
X126000000Y-105000000D01*
X123000000Y-105000000D02*
X124000000Y-105000000D01*
X121000000Y-105000000D02*
X122000000Y-105000000D01*
X119000000Y-105000000D02*
X120000000Y-105000000D01*
X117000000Y-105000000D02*
X118000000Y-105000000D01*
X115000000Y-105000000D02*
X116000000Y-105000000D01*
X113000000Y-105000000D02*
X114000000Y-105000000D01*
X111000000Y-106000000D02*
X112000000Y-105000000D01*
X109000000Y-108000000D02*
X110000000Y-107000000D01*
X107000000Y-110000000D02*
X108000000Y-109000000D01*
X105000000Y-110000000D02*
X106000000Y-110000000D01*
X103000000Y-110000000D02*
X104000000Y-110000000D01*
X101000000Y-110000000D02*
X102000000Y-110000000D01*
X99000000Y-110000000D02*
X100000000Y-110000000D01*
X95000000Y-110000000D02*
X96000000Y-110000000D01*
X127000000Y-105000000D02*
X128000000Y-104000000D01*
X172000000Y-103000000D02*
X172000000Y-104000000D01*
X172000000Y-101000000D02*
X172000000Y-102000000D01*
X173000000Y-105000000D02*
X174000000Y-106000000D01*
X175000000Y-107000000D02*
X176000000Y-108000000D01*
X177000000Y-109000000D02*
X178000000Y-110000000D01*
X179000000Y-110000000D02*
X180000000Y-110000000D01*
X183000000Y-110000000D02*
X184000000Y-110000000D01*
X185000000Y-110000000D02*
X186000000Y-110000000D01*
X187000000Y-110000000D02*
X188000000Y-110000000D01*
X92460000Y-107540000D02*
X92460000Y-108460000D01*
X105000000Y-125000000D02*
X105000000Y-124000000D01*
X105000000Y-123000000D02*
X106000000Y-122000000D01*
X107000000Y-121000000D02*
X108000000Y-120000000D01*
X109000000Y-119000000D02*
X110000000Y-119000000D01*
X111000000Y-119000000D02*
X112000000Y-119000000D01*
X109540000Y-127460000D02*
X109540000Y-126540000D01*
X109540000Y-126540000D02*
X109000000Y-126000000D01*
X113000000Y-124000000D02*
X113000000Y-125000000D01*
X113000000Y-122000000D02*
X113000000Y-123000000D01*
X111000000Y-123000000D02*
X112000000Y-122000000D01*
X109000000Y-125000000D02*
X110000000Y-124000000D01*
X118000000Y-125000000D02*
X117000000Y-125000000D01*
X120000000Y-125000000D02*
X119000000Y-125000000D01*
X134000000Y-124000000D02*
X135000000Y-125000000D01*
X132000000Y-122000000D02*
X133000000Y-123000000D01*
X130000000Y-122000000D02*
X131000000Y-122000000D01*
X128000000Y-122000000D02*
X129000000Y-122000000D01*
X127000000Y-123000000D02*
X127000000Y-122000000D01*
X127000000Y-125000000D02*
X127000000Y-124000000D01*
X127000000Y-127000000D02*
X127000000Y-126000000D01*
X139540000Y-125540000D02*
X139000000Y-125000000D01*
X138000000Y-123000000D02*
X137000000Y-122000000D01*
X136000000Y-121000000D02*
X135000000Y-120000000D01*
X139540000Y-127460000D02*
X139540000Y-125540000D01*
X122000000Y-116000000D02*
X121000000Y-116000000D01*
X124000000Y-116000000D02*
X123000000Y-116000000D01*
X126000000Y-116000000D02*
X125000000Y-116000000D01*
X127000000Y-117000000D02*
X127000000Y-116000000D01*
D36*
X115500000Y-93500000D02*
X117500000Y-91500000D01*
X117500000Y-91500000D02*
X120430000Y-88570000D01*
D35*
X158000000Y-121500000D02*
X158000000Y-119500000D01*
X158000000Y-125500000D02*
X158000000Y-123500000D01*
X185000000Y-90000000D02*
X189000000Y-86000000D01*
X187540000Y-107540000D02*
X188000000Y-107540000D01*
D36*
X182460000Y-92540000D02*
X185000000Y-90000000D01*
D35*
X176350000Y-116500000D02*
X176300000Y-116500000D01*
X95000000Y-90000000D02*
X95000000Y-88000000D01*
X185000000Y-89000000D02*
X185000000Y-90000000D01*
X169960000Y-132540000D02*
X169460000Y-132540000D01*
X185000000Y-130000000D02*
X188000000Y-127000000D01*
X166250000Y-111500000D02*
X166250000Y-111250000D01*
D36*
X92460000Y-107540000D02*
X92460000Y-127460000D01*
X92460000Y-127460000D02*
X95000000Y-130000000D01*
D35*
X97540000Y-107540000D02*
X97540000Y-127460000D01*
D36*
X97540000Y-127460000D02*
X95000000Y-130000000D01*
X188000000Y-102460000D02*
X188000000Y-93000000D01*
X188000000Y-93000000D02*
X185000000Y-90000000D01*
X188000000Y-107540000D02*
X188000000Y-127000000D01*
X182460000Y-107540000D02*
X182460000Y-127460000D01*
X182460000Y-127460000D02*
X185000000Y-130000000D01*
X92460000Y-102460000D02*
X92460000Y-100540000D01*
X92460000Y-100540000D02*
X95000000Y-98000000D01*
X97540000Y-102460000D02*
X97540000Y-101540000D01*
X97540000Y-101540000D02*
X95000000Y-99000000D01*
X95000000Y-99000000D02*
X95000000Y-98000000D01*
X95000000Y-98000000D02*
X95000000Y-90000000D01*
X115000000Y-93500000D02*
X115500000Y-93500000D01*
X120430000Y-88570000D02*
X139405000Y-88570000D01*
X115000000Y-93500000D02*
X115000000Y-93000000D01*
X115000000Y-93000000D02*
X112000000Y-90000000D01*
X112000000Y-90000000D02*
X95000000Y-90000000D01*
D37*
X139540000Y-133000000D02*
X139540000Y-127460000D01*
X134460000Y-133000000D02*
X134460000Y-127460000D01*
X124540000Y-133000000D02*
X124540000Y-127460000D01*
X119460000Y-133000000D02*
X119460000Y-127460000D01*
X109540000Y-133000000D02*
X109540000Y-127460000D01*
X104460000Y-133000000D02*
X104460000Y-127460000D01*
X169960000Y-132540000D02*
X169960000Y-127460000D01*
X175040000Y-132540000D02*
X175040000Y-127460000D01*
X188000000Y-107540000D02*
X182460000Y-107540000D01*
D35*
X181000000Y-100000000D02*
X182000000Y-100000000D01*
X181000000Y-98000000D02*
X181000000Y-99000000D01*
X181000000Y-96000000D02*
X181000000Y-97000000D01*
X181000000Y-94000000D02*
X181000000Y-95000000D01*
X181000000Y-92000000D02*
X181000000Y-93000000D01*
X181000000Y-90000000D02*
X181000000Y-91000000D01*
X179000000Y-90000000D02*
X180000000Y-90000000D01*
X177000000Y-90000000D02*
X178000000Y-90000000D01*
X175000000Y-90000000D02*
X176000000Y-90000000D01*
X173000000Y-90000000D02*
X174000000Y-90000000D01*
X171000000Y-90000000D02*
X172000000Y-90000000D01*
X169000000Y-90000000D02*
X170000000Y-90000000D01*
X167000000Y-90000000D02*
X168000000Y-90000000D01*
X165000000Y-90000000D02*
X166000000Y-90000000D01*
X163000000Y-90000000D02*
X164000000Y-90000000D01*
X161000000Y-90000000D02*
X162000000Y-90000000D01*
X159000000Y-90000000D02*
X160000000Y-90000000D01*
X157000000Y-90000000D02*
X158000000Y-90000000D01*
X155000000Y-90000000D02*
X156000000Y-90000000D01*
X153000000Y-90000000D02*
X154000000Y-90000000D01*
X151000000Y-90000000D02*
X152000000Y-90000000D01*
X149000000Y-90000000D02*
X150000000Y-90000000D01*
X147000000Y-90000000D02*
X148000000Y-90000000D01*
X141000000Y-90000000D02*
X142000000Y-90000000D01*
X139000000Y-90000000D02*
X140000000Y-90000000D01*
X137000000Y-90000000D02*
X138000000Y-90000000D01*
X135000000Y-90000000D02*
X136000000Y-90000000D01*
X133000000Y-90000000D02*
X134000000Y-90000000D01*
X131000000Y-90000000D02*
X132000000Y-90000000D01*
X129000000Y-90000000D02*
X130000000Y-90000000D01*
X127000000Y-92000000D02*
X128000000Y-91000000D01*
X125000000Y-94000000D02*
X126000000Y-93000000D01*
X123000000Y-95000000D02*
X124000000Y-95000000D01*
X121000000Y-95000000D02*
X122000000Y-95000000D01*
X119000000Y-95000000D02*
X120000000Y-95000000D01*
X118000000Y-94000000D02*
X118000000Y-95000000D01*
X117000000Y-92000000D02*
X118000000Y-93000000D01*
X115000000Y-92000000D02*
X116000000Y-92000000D01*
X113000000Y-92000000D02*
X114000000Y-92000000D01*
X112000000Y-93000000D02*
X112000000Y-92000000D01*
X112000000Y-95000000D02*
X112000000Y-94000000D01*
X110000000Y-95000000D02*
X111000000Y-95000000D01*
X108000000Y-95000000D02*
X109000000Y-95000000D01*
X106000000Y-97000000D02*
X107000000Y-96000000D01*
X104000000Y-99000000D02*
X105000000Y-98000000D01*
X102000000Y-100000000D02*
X103000000Y-100000000D01*
X100000000Y-100000000D02*
X101000000Y-100000000D01*
X98000000Y-100000000D02*
X99000000Y-100000000D01*
X96000000Y-100000000D02*
X97000000Y-100000000D01*
X93000000Y-100000000D02*
X95000000Y-100000000D01*
D36*
X182460000Y-102460000D02*
X182460000Y-92540000D01*
D37*
X188000000Y-102460000D02*
X182460000Y-102460000D01*
X115000000Y-97500000D02*
X115000000Y-100000000D01*
D38*
X100000000Y-105000000D02*
X105000000Y-105000000D01*
D37*
X95000000Y-105000000D02*
X100000000Y-105000000D01*
D38*
X110000000Y-100000000D02*
X115000000Y-100000000D01*
X115000000Y-100000000D02*
X125000000Y-100000000D01*
X105000000Y-105000000D02*
X110000000Y-100000000D01*
X162380000Y-95000000D02*
X130000000Y-95000000D01*
X130000000Y-95000000D02*
X125000000Y-100000000D01*
D37*
X92000000Y-105000000D02*
X95000000Y-105000000D01*
D36*
X161250000Y-124500000D02*
X161250000Y-128750000D01*
X161250000Y-128750000D02*
X160000000Y-130000000D01*
X161250000Y-124500000D02*
X161250000Y-122600000D01*
X161250000Y-122600000D02*
X161150000Y-122500000D01*
X161150000Y-122500000D02*
X161150000Y-120500000D01*
D39*
X163750000Y-111500000D02*
X162000000Y-111500000D01*
X162000000Y-111500000D02*
X161500000Y-111000000D01*
X161195771Y-113500000D02*
X162300000Y-113500000D01*
X158700000Y-114365000D02*
X160330771Y-114365000D01*
X160330771Y-114365000D02*
X161195771Y-113500000D01*
X162300000Y-113500000D02*
X163650000Y-113500000D01*
D36*
X163650000Y-113500000D02*
X163650000Y-111600000D01*
X163650000Y-111600000D02*
X163750000Y-111500000D01*
D39*
X145050012Y-112949988D02*
X144500000Y-113500000D01*
X145805000Y-112195000D02*
X145050012Y-112949988D01*
X151925000Y-112195000D02*
X145805000Y-112195000D01*
X152825000Y-113095000D02*
X151925000Y-112195000D01*
X153300000Y-113095000D02*
X152825000Y-113095000D01*
D36*
X142000000Y-114000000D02*
X144000000Y-114000000D01*
X144000000Y-114000000D02*
X144500000Y-113500000D01*
X144500000Y-111350000D02*
X144500000Y-113500000D01*
X144500000Y-113500000D02*
X144500000Y-115750000D01*
X151750000Y-124500000D02*
X153500000Y-124500000D01*
X157460000Y-128460000D02*
X157460000Y-130000000D01*
X153500000Y-124500000D02*
X157460000Y-128460000D01*
X151850000Y-120500000D02*
X151850000Y-122500000D01*
X151850000Y-122500000D02*
X151750000Y-122600000D01*
X151750000Y-122600000D02*
X151750000Y-124500000D01*
X162450000Y-109000000D02*
X162450000Y-107050000D01*
X162450000Y-107050000D02*
X163500000Y-106000000D01*
D38*
X158500000Y-106000000D02*
X154000000Y-106000000D01*
D36*
X173650000Y-116500000D02*
X172500000Y-116500000D01*
X172500000Y-119150000D02*
X172500000Y-116500000D01*
X172500000Y-116500000D02*
X172500000Y-111000000D01*
X167500000Y-106000000D02*
X163500000Y-106000000D01*
X172500000Y-111000000D02*
X167500000Y-106000000D01*
D38*
X163500000Y-106000000D02*
X158500000Y-106000000D01*
X154000000Y-106000000D02*
X149850000Y-106000000D01*
X149850000Y-106000000D02*
X149565000Y-105715000D01*
D39*
X166500000Y-115650000D02*
X165250000Y-115650000D01*
X161765000Y-115635000D02*
X158700000Y-115635000D01*
X165250000Y-115650000D02*
X164600000Y-115000000D01*
X164600000Y-115000000D02*
X162400000Y-115000000D01*
X162400000Y-115000000D02*
X161765000Y-115635000D01*
X161600000Y-117000000D02*
X160235000Y-115635000D01*
X160235000Y-115635000D02*
X158700000Y-115635000D01*
X163600000Y-117950000D02*
X163150000Y-118400000D01*
X163150000Y-118400000D02*
X160195000Y-118400000D01*
X160195000Y-118400000D02*
X158700000Y-116905000D01*
X163850000Y-120500000D02*
X163850000Y-118200000D01*
X163850000Y-118200000D02*
X163600000Y-117950000D01*
D36*
X138500000Y-111350000D02*
X138500000Y-110350000D01*
X140000000Y-113050000D02*
X137950000Y-113050000D01*
X137950000Y-113050000D02*
X137500000Y-113500000D01*
X138500000Y-111350000D02*
X138500000Y-112500000D01*
X138500000Y-112500000D02*
X137500000Y-113500000D01*
X138500000Y-116150000D02*
X138500000Y-114500000D01*
X138500000Y-114500000D02*
X137500000Y-113500000D01*
D39*
X153300000Y-114365000D02*
X151965000Y-114365000D01*
X151965000Y-114365000D02*
X151000000Y-113400000D01*
X149600000Y-113400000D02*
X147350000Y-115650000D01*
X151000000Y-113400000D02*
X149600000Y-113400000D01*
X147350000Y-115650000D02*
X146500000Y-115650000D01*
X148400000Y-115600000D02*
X146550000Y-115600000D01*
X146550000Y-115600000D02*
X146500000Y-115650000D01*
X153300000Y-115635000D02*
X152365000Y-115635000D01*
X152365000Y-115635000D02*
X151800000Y-116200000D01*
X151800000Y-116200000D02*
X150750000Y-116200000D01*
X150750000Y-116200000D02*
X150400000Y-116550000D01*
X149150000Y-120500000D02*
X149150000Y-117800000D01*
X149150000Y-117800000D02*
X150400000Y-116550000D01*
D36*
X149000000Y-120350000D02*
X149150000Y-120500000D01*
D37*
X119580000Y-120500000D02*
X110500000Y-120500000D01*
X107000000Y-124000000D02*
X107000000Y-130000000D01*
X110500000Y-120500000D02*
X107000000Y-124000000D01*
X119580000Y-117960000D02*
X119580000Y-120500000D01*
X119580000Y-120500000D02*
X119580000Y-123040000D01*
X107000000Y-133000000D02*
X107000000Y-130000000D01*
X122000000Y-130000000D02*
X122000000Y-123140000D01*
X122000000Y-123140000D02*
X122100000Y-123040000D01*
X122120000Y-117960000D02*
X122120000Y-123020000D01*
X122120000Y-123020000D02*
X122100000Y-123040000D01*
X122000000Y-133000000D02*
X122000000Y-130000000D01*
D36*
X155500000Y-122500000D02*
X155500000Y-121000000D01*
X155500000Y-121000000D02*
X155500000Y-119105000D01*
X155500000Y-119105000D02*
X153300000Y-116905000D01*
D38*
X176985000Y-95000000D02*
X176985000Y-101985000D01*
X176985000Y-101985000D02*
X180000000Y-105000000D01*
D37*
X185000000Y-105000000D02*
X180000000Y-105000000D01*
X180000000Y-105000000D02*
X176985000Y-101985000D01*
X188000000Y-105000000D02*
X185000000Y-105000000D01*
X124660000Y-120500000D02*
X133500000Y-120500000D01*
X137000000Y-124000000D02*
X137000000Y-130000000D01*
X133500000Y-120500000D02*
X137000000Y-124000000D01*
X124660000Y-117960000D02*
X124660000Y-120500000D01*
X124660000Y-120500000D02*
X124660000Y-123040000D01*
X137000000Y-133000000D02*
X137000000Y-130000000D01*
D36*
X173650000Y-124500000D02*
X172500000Y-124500000D01*
X172500000Y-121850000D02*
X172500000Y-124500000D01*
X172500000Y-124500000D02*
X172500000Y-125650000D01*
X172500000Y-130000000D02*
X172500000Y-125650000D01*
D37*
X172500000Y-133000000D02*
X172500000Y-130000000D01*
D36*
X114500000Y-126250000D02*
X114500000Y-123040000D01*
D40*
G36*
X113199449Y-122169357D02*
X112965267Y-122733330D01*
X112964735Y-123343991D01*
X113197932Y-123908371D01*
X113365000Y-124075731D01*
X113365000Y-125121614D01*
X113278569Y-125248110D01*
X113227560Y-125500000D01*
X113227560Y-127000000D01*
X113271838Y-127235317D01*
X113410910Y-127451441D01*
X113479006Y-127497969D01*
X113336673Y-127640302D01*
X113240000Y-127873691D01*
X113240000Y-128464250D01*
X113398750Y-128623000D01*
X114373000Y-128623000D01*
X114373000Y-128603000D01*
X114627000Y-128603000D01*
X114627000Y-128623000D01*
X115601250Y-128623000D01*
X115760000Y-128464250D01*
X115760000Y-127873691D01*
X115663327Y-127640302D01*
X115522090Y-127499064D01*
X115576441Y-127464090D01*
X115721431Y-127251890D01*
X115744923Y-127135883D01*
X117565929Y-127135883D01*
X117586072Y-127885384D01*
X117834141Y-128484275D01*
X118126911Y-128613483D01*
X119280395Y-127460000D01*
X118126911Y-126306517D01*
X117834141Y-126435725D01*
X117565929Y-127135883D01*
X115744923Y-127135883D01*
X115772440Y-127000000D01*
X115772440Y-125500000D01*
X115728162Y-125264683D01*
X115635000Y-125119905D01*
X115635000Y-124075905D01*
X115800551Y-123910643D01*
X116034733Y-123346670D01*
X116035265Y-122736009D01*
X115802068Y-122171629D01*
X115565852Y-121935000D01*
X118145000Y-121935000D01*
X118145000Y-122493146D01*
X118045267Y-122733330D01*
X118044735Y-123343991D01*
X118277932Y-123908371D01*
X118709357Y-124340551D01*
X119273330Y-124574733D01*
X119883991Y-124575265D01*
X120448371Y-124342068D01*
X120565000Y-124225643D01*
X120565000Y-126017054D01*
X120484275Y-125834141D01*
X119784117Y-125565929D01*
X119034616Y-125586072D01*
X118435725Y-125834141D01*
X118306517Y-126126911D01*
X119460000Y-127280395D01*
X119474142Y-127266252D01*
X119653748Y-127445858D01*
X119639605Y-127460000D01*
X119653748Y-127474142D01*
X119474142Y-127653748D01*
X119460000Y-127639605D01*
X118306517Y-128793089D01*
X118435725Y-129085859D01*
X119135883Y-129354071D01*
X119885384Y-129333928D01*
X120484275Y-129085859D01*
X120565000Y-128902946D01*
X120565000Y-129193711D01*
X120365794Y-129673453D01*
X120365226Y-130323694D01*
X120391788Y-130387980D01*
X120336310Y-130365000D01*
X119745750Y-130365000D01*
X119587000Y-130523750D01*
X119587000Y-130651227D01*
X119333000Y-130658053D01*
X119333000Y-130523750D01*
X119174250Y-130365000D01*
X118583690Y-130365000D01*
X118350301Y-130461673D01*
X118171673Y-130640302D01*
X118075000Y-130873691D01*
X118075000Y-131210962D01*
X118013177Y-131272785D01*
X118075000Y-131334608D01*
X118075000Y-131409427D01*
X117834141Y-131515725D01*
X117565929Y-132215883D01*
X117586072Y-132965384D01*
X117834141Y-133564275D01*
X118075000Y-133670573D01*
X118075000Y-133745392D01*
X118013177Y-133807215D01*
X118075000Y-133869038D01*
X118075000Y-134290000D01*
X110925000Y-134290000D01*
X110925000Y-133869038D01*
X110986823Y-133807215D01*
X110925000Y-133745392D01*
X110925000Y-133670573D01*
X111165859Y-133564275D01*
X111434071Y-132864117D01*
X111413928Y-132114616D01*
X111165859Y-131515725D01*
X110925000Y-131409427D01*
X110925000Y-131334608D01*
X110986823Y-131272785D01*
X110925000Y-131210962D01*
X110925000Y-130873691D01*
X110828327Y-130640302D01*
X110649699Y-130461673D01*
X110416310Y-130365000D01*
X109825750Y-130365000D01*
X109667000Y-130523750D01*
X109667000Y-130651227D01*
X109413000Y-130658053D01*
X109413000Y-130523750D01*
X109254250Y-130365000D01*
X108663690Y-130365000D01*
X108608798Y-130387737D01*
X108634206Y-130326547D01*
X108634774Y-129676306D01*
X108435000Y-129192816D01*
X108435000Y-128902946D01*
X108515725Y-129085859D01*
X109215883Y-129354071D01*
X109965384Y-129333928D01*
X110564275Y-129085859D01*
X110586389Y-129035750D01*
X113240000Y-129035750D01*
X113240000Y-129626309D01*
X113336673Y-129859698D01*
X113515301Y-130038327D01*
X113748690Y-130135000D01*
X114214250Y-130135000D01*
X114373000Y-129976250D01*
X114373000Y-128877000D01*
X114627000Y-128877000D01*
X114627000Y-129976250D01*
X114785750Y-130135000D01*
X115251310Y-130135000D01*
X115484699Y-130038327D01*
X115663327Y-129859698D01*
X115760000Y-129626309D01*
X115760000Y-129035750D01*
X115601250Y-128877000D01*
X114627000Y-128877000D01*
X114373000Y-128877000D01*
X113398750Y-128877000D01*
X113240000Y-129035750D01*
X110586389Y-129035750D01*
X110693483Y-128793089D01*
X109540000Y-127639605D01*
X109525858Y-127653748D01*
X109346252Y-127474142D01*
X109360395Y-127460000D01*
X109719605Y-127460000D01*
X110873089Y-128613483D01*
X111165859Y-128484275D01*
X111434071Y-127784117D01*
X111413928Y-127034616D01*
X111165859Y-126435725D01*
X110873089Y-126306517D01*
X109719605Y-127460000D01*
X109360395Y-127460000D01*
X109346252Y-127445858D01*
X109525858Y-127266252D01*
X109540000Y-127280395D01*
X110693483Y-126126911D01*
X110564275Y-125834141D01*
X109864117Y-125565929D01*
X109114616Y-125586072D01*
X108515725Y-125834141D01*
X108435000Y-126017054D01*
X108435000Y-124594396D01*
X111094397Y-121935000D01*
X113434216Y-121935000D01*
X113199449Y-122169357D01*
X113199449Y-122169357D01*
G37*
X113199449Y-122169357D02*
X112965267Y-122733330D01*
X112964735Y-123343991D01*
X113197932Y-123908371D01*
X113365000Y-124075731D01*
X113365000Y-125121614D01*
X113278569Y-125248110D01*
X113227560Y-125500000D01*
X113227560Y-127000000D01*
X113271838Y-127235317D01*
X113410910Y-127451441D01*
X113479006Y-127497969D01*
X113336673Y-127640302D01*
X113240000Y-127873691D01*
X113240000Y-128464250D01*
X113398750Y-128623000D01*
X114373000Y-128623000D01*
X114373000Y-128603000D01*
X114627000Y-128603000D01*
X114627000Y-128623000D01*
X115601250Y-128623000D01*
X115760000Y-128464250D01*
X115760000Y-127873691D01*
X115663327Y-127640302D01*
X115522090Y-127499064D01*
X115576441Y-127464090D01*
X115721431Y-127251890D01*
X115744923Y-127135883D01*
X117565929Y-127135883D01*
X117586072Y-127885384D01*
X117834141Y-128484275D01*
X118126911Y-128613483D01*
X119280395Y-127460000D01*
X118126911Y-126306517D01*
X117834141Y-126435725D01*
X117565929Y-127135883D01*
X115744923Y-127135883D01*
X115772440Y-127000000D01*
X115772440Y-125500000D01*
X115728162Y-125264683D01*
X115635000Y-125119905D01*
X115635000Y-124075905D01*
X115800551Y-123910643D01*
X116034733Y-123346670D01*
X116035265Y-122736009D01*
X115802068Y-122171629D01*
X115565852Y-121935000D01*
X118145000Y-121935000D01*
X118145000Y-122493146D01*
X118045267Y-122733330D01*
X118044735Y-123343991D01*
X118277932Y-123908371D01*
X118709357Y-124340551D01*
X119273330Y-124574733D01*
X119883991Y-124575265D01*
X120448371Y-124342068D01*
X120565000Y-124225643D01*
X120565000Y-126017054D01*
X120484275Y-125834141D01*
X119784117Y-125565929D01*
X119034616Y-125586072D01*
X118435725Y-125834141D01*
X118306517Y-126126911D01*
X119460000Y-127280395D01*
X119474142Y-127266252D01*
X119653748Y-127445858D01*
X119639605Y-127460000D01*
X119653748Y-127474142D01*
X119474142Y-127653748D01*
X119460000Y-127639605D01*
X118306517Y-128793089D01*
X118435725Y-129085859D01*
X119135883Y-129354071D01*
X119885384Y-129333928D01*
X120484275Y-129085859D01*
X120565000Y-128902946D01*
X120565000Y-129193711D01*
X120365794Y-129673453D01*
X120365226Y-130323694D01*
X120391788Y-130387980D01*
X120336310Y-130365000D01*
X119745750Y-130365000D01*
X119587000Y-130523750D01*
X119587000Y-130651227D01*
X119333000Y-130658053D01*
X119333000Y-130523750D01*
X119174250Y-130365000D01*
X118583690Y-130365000D01*
X118350301Y-130461673D01*
X118171673Y-130640302D01*
X118075000Y-130873691D01*
X118075000Y-131210962D01*
X118013177Y-131272785D01*
X118075000Y-131334608D01*
X118075000Y-131409427D01*
X117834141Y-131515725D01*
X117565929Y-132215883D01*
X117586072Y-132965384D01*
X117834141Y-133564275D01*
X118075000Y-133670573D01*
X118075000Y-133745392D01*
X118013177Y-133807215D01*
X118075000Y-133869038D01*
X118075000Y-134290000D01*
X110925000Y-134290000D01*
X110925000Y-133869038D01*
X110986823Y-133807215D01*
X110925000Y-133745392D01*
X110925000Y-133670573D01*
X111165859Y-133564275D01*
X111434071Y-132864117D01*
X111413928Y-132114616D01*
X111165859Y-131515725D01*
X110925000Y-131409427D01*
X110925000Y-131334608D01*
X110986823Y-131272785D01*
X110925000Y-131210962D01*
X110925000Y-130873691D01*
X110828327Y-130640302D01*
X110649699Y-130461673D01*
X110416310Y-130365000D01*
X109825750Y-130365000D01*
X109667000Y-130523750D01*
X109667000Y-130651227D01*
X109413000Y-130658053D01*
X109413000Y-130523750D01*
X109254250Y-130365000D01*
X108663690Y-130365000D01*
X108608798Y-130387737D01*
X108634206Y-130326547D01*
X108634774Y-129676306D01*
X108435000Y-129192816D01*
X108435000Y-128902946D01*
X108515725Y-129085859D01*
X109215883Y-129354071D01*
X109965384Y-129333928D01*
X110564275Y-129085859D01*
X110586389Y-129035750D01*
X113240000Y-129035750D01*
X113240000Y-129626309D01*
X113336673Y-129859698D01*
X113515301Y-130038327D01*
X113748690Y-130135000D01*
X114214250Y-130135000D01*
X114373000Y-129976250D01*
X114373000Y-128877000D01*
X114627000Y-128877000D01*
X114627000Y-129976250D01*
X114785750Y-130135000D01*
X115251310Y-130135000D01*
X115484699Y-130038327D01*
X115663327Y-129859698D01*
X115760000Y-129626309D01*
X115760000Y-129035750D01*
X115601250Y-128877000D01*
X114627000Y-128877000D01*
X114373000Y-128877000D01*
X113398750Y-128877000D01*
X113240000Y-129035750D01*
X110586389Y-129035750D01*
X110693483Y-128793089D01*
X109540000Y-127639605D01*
X109525858Y-127653748D01*
X109346252Y-127474142D01*
X109360395Y-127460000D01*
X109719605Y-127460000D01*
X110873089Y-128613483D01*
X111165859Y-128484275D01*
X111434071Y-127784117D01*
X111413928Y-127034616D01*
X111165859Y-126435725D01*
X110873089Y-126306517D01*
X109719605Y-127460000D01*
X109360395Y-127460000D01*
X109346252Y-127445858D01*
X109525858Y-127266252D01*
X109540000Y-127280395D01*
X110693483Y-126126911D01*
X110564275Y-125834141D01*
X109864117Y-125565929D01*
X109114616Y-125586072D01*
X108515725Y-125834141D01*
X108435000Y-126017054D01*
X108435000Y-124594396D01*
X111094397Y-121935000D01*
X113434216Y-121935000D01*
X113199449Y-122169357D01*
G36*
X172873000Y-104000000D02*
X172883006Y-104049410D01*
X172910197Y-104089803D01*
X177910197Y-109089803D01*
X177952211Y-109117666D01*
X178000000Y-109127000D01*
X181418575Y-109127000D01*
X181435725Y-109165859D01*
X182135883Y-109434071D01*
X182885384Y-109413928D01*
X183484275Y-109165859D01*
X183613483Y-108873089D01*
X182460000Y-107719605D01*
X182445858Y-107733748D01*
X182354946Y-107642836D01*
X182396080Y-107396030D01*
X182445858Y-107346253D01*
X182460000Y-107360395D01*
X182474142Y-107346252D01*
X182653748Y-107525858D01*
X182639605Y-107540000D01*
X183793089Y-108693483D01*
X184085859Y-108564275D01*
X184354071Y-107864117D01*
X184333928Y-107114616D01*
X184085859Y-106515725D01*
X183902946Y-106435000D01*
X184193711Y-106435000D01*
X184673453Y-106634206D01*
X185323694Y-106634774D01*
X185387980Y-106608212D01*
X185365000Y-106663690D01*
X185365000Y-107254250D01*
X185523750Y-107413000D01*
X185651227Y-107413000D01*
X185658053Y-107667000D01*
X185523750Y-107667000D01*
X185365000Y-107825750D01*
X185365000Y-108416310D01*
X185461673Y-108649699D01*
X185640302Y-108828327D01*
X185873691Y-108925000D01*
X186210962Y-108925000D01*
X186272785Y-108986823D01*
X186334608Y-108925000D01*
X186409427Y-108925000D01*
X186515725Y-109165859D01*
X187215883Y-109434071D01*
X187965384Y-109413928D01*
X188564275Y-109165859D01*
X188670573Y-108925000D01*
X188745392Y-108925000D01*
X188807215Y-108986823D01*
X188869038Y-108925000D01*
X189290000Y-108925000D01*
X189290000Y-134290000D01*
X176425000Y-134290000D01*
X176425000Y-133869038D01*
X176486823Y-133807215D01*
X176425000Y-133745392D01*
X176425000Y-133670573D01*
X176665859Y-133564275D01*
X176934071Y-132864117D01*
X176923005Y-132452340D01*
X182727265Y-132452340D01*
X183045501Y-132906203D01*
X184306434Y-133432936D01*
X185672956Y-133437035D01*
X186937027Y-132917878D01*
X186954499Y-132906203D01*
X187272735Y-132452340D01*
X185000000Y-130179605D01*
X182727265Y-132452340D01*
X176923005Y-132452340D01*
X176913928Y-132114616D01*
X176665859Y-131515725D01*
X176425000Y-131409427D01*
X176425000Y-131334608D01*
X176486823Y-131272785D01*
X176425000Y-131210962D01*
X176425000Y-130873691D01*
X176341853Y-130672956D01*
X181562965Y-130672956D01*
X182082122Y-131937027D01*
X182093797Y-131954499D01*
X182547660Y-132272735D01*
X184820395Y-130000000D01*
X185179605Y-130000000D01*
X187452340Y-132272735D01*
X187906203Y-131954499D01*
X188432936Y-130693566D01*
X188437035Y-129327044D01*
X187917878Y-128062973D01*
X187906203Y-128045501D01*
X187452340Y-127727265D01*
X185179605Y-130000000D01*
X184820395Y-130000000D01*
X182547660Y-127727265D01*
X182093797Y-128045501D01*
X181567064Y-129306434D01*
X181562965Y-130672956D01*
X176341853Y-130672956D01*
X176328327Y-130640302D01*
X176149699Y-130461673D01*
X175916310Y-130365000D01*
X175325750Y-130365000D01*
X175167000Y-130523750D01*
X175167000Y-130651227D01*
X174913000Y-130658053D01*
X174913000Y-130523750D01*
X174754250Y-130365000D01*
X174163690Y-130365000D01*
X174108798Y-130387737D01*
X174134206Y-130326547D01*
X174134774Y-129676306D01*
X173886462Y-129075345D01*
X173635000Y-128823444D01*
X173635000Y-128793089D01*
X173886517Y-128793089D01*
X174015725Y-129085859D01*
X174715883Y-129354071D01*
X175465384Y-129333928D01*
X176064275Y-129085859D01*
X176193483Y-128793089D01*
X175040000Y-127639605D01*
X173886517Y-128793089D01*
X173635000Y-128793089D01*
X173635000Y-128581747D01*
X173706911Y-128613483D01*
X174860395Y-127460000D01*
X175219605Y-127460000D01*
X176373089Y-128613483D01*
X176665859Y-128484275D01*
X176934071Y-127784117D01*
X176927717Y-127547660D01*
X182727265Y-127547660D01*
X185000000Y-129820395D01*
X187272735Y-127547660D01*
X186954499Y-127093797D01*
X185693566Y-126567064D01*
X184327044Y-126562965D01*
X183062973Y-127082122D01*
X183045501Y-127093797D01*
X182727265Y-127547660D01*
X176927717Y-127547660D01*
X176913928Y-127034616D01*
X176665859Y-126435725D01*
X176373089Y-126306517D01*
X175219605Y-127460000D01*
X174860395Y-127460000D01*
X173706911Y-126306517D01*
X173635000Y-126338253D01*
X173635000Y-125797440D01*
X174104329Y-125797440D01*
X174015725Y-125834141D01*
X173886517Y-126126911D01*
X175040000Y-127280395D01*
X176193483Y-126126911D01*
X176064275Y-125834141D01*
X175935994Y-125785000D01*
X176064250Y-125785000D01*
X176223000Y-125626250D01*
X176223000Y-124627000D01*
X176477000Y-124627000D01*
X176477000Y-125626250D01*
X176635750Y-125785000D01*
X177226309Y-125785000D01*
X177459698Y-125688327D01*
X177638327Y-125509699D01*
X177735000Y-125276310D01*
X177735000Y-124785750D01*
X177576250Y-124627000D01*
X176477000Y-124627000D01*
X176223000Y-124627000D01*
X176203000Y-124627000D01*
X176203000Y-124373000D01*
X176223000Y-124373000D01*
X176223000Y-123373750D01*
X176477000Y-123373750D01*
X176477000Y-124373000D01*
X177576250Y-124373000D01*
X177735000Y-124214250D01*
X177735000Y-123723690D01*
X177638327Y-123490301D01*
X177459698Y-123311673D01*
X177226309Y-123215000D01*
X176635750Y-123215000D01*
X176477000Y-123373750D01*
X176223000Y-123373750D01*
X176064250Y-123215000D01*
X175473691Y-123215000D01*
X175240302Y-123311673D01*
X175061673Y-123490301D01*
X175005346Y-123626287D01*
X175003162Y-123614683D01*
X174864090Y-123398559D01*
X174651890Y-123253569D01*
X174400000Y-123202560D01*
X173635000Y-123202560D01*
X173635000Y-123014975D01*
X173746431Y-122851890D01*
X173797440Y-122600000D01*
X173797440Y-121100000D01*
X173753162Y-120864683D01*
X173614090Y-120648559D01*
X173401890Y-120503569D01*
X173388803Y-120500919D01*
X173601441Y-120364090D01*
X173746431Y-120151890D01*
X173797440Y-119900000D01*
X173797440Y-118400000D01*
X173753162Y-118164683D01*
X173635000Y-117981054D01*
X173635000Y-117797440D01*
X174400000Y-117797440D01*
X174635317Y-117753162D01*
X174851441Y-117614090D01*
X174996431Y-117401890D01*
X175003191Y-117368510D01*
X175061673Y-117509699D01*
X175240302Y-117688327D01*
X175473691Y-117785000D01*
X176064250Y-117785000D01*
X176223000Y-117626250D01*
X176223000Y-116627000D01*
X176477000Y-116627000D01*
X176477000Y-117626250D01*
X176635750Y-117785000D01*
X177226309Y-117785000D01*
X177459698Y-117688327D01*
X177638327Y-117509699D01*
X177735000Y-117276310D01*
X177735000Y-116785750D01*
X177576250Y-116627000D01*
X176477000Y-116627000D01*
X176223000Y-116627000D01*
X176203000Y-116627000D01*
X176203000Y-116373000D01*
X176223000Y-116373000D01*
X176223000Y-115373750D01*
X176477000Y-115373750D01*
X176477000Y-116373000D01*
X177576250Y-116373000D01*
X177735000Y-116214250D01*
X177735000Y-115723690D01*
X177638327Y-115490301D01*
X177459698Y-115311673D01*
X177226309Y-115215000D01*
X176635750Y-115215000D01*
X176477000Y-115373750D01*
X176223000Y-115373750D01*
X176064250Y-115215000D01*
X175473691Y-115215000D01*
X175240302Y-115311673D01*
X175061673Y-115490301D01*
X175005346Y-115626287D01*
X175003162Y-115614683D01*
X174864090Y-115398559D01*
X174651890Y-115253569D01*
X174400000Y-115202560D01*
X173635000Y-115202560D01*
X173635000Y-111000000D01*
X173548603Y-110565654D01*
X173302566Y-110197434D01*
X168302566Y-105197434D01*
X168007085Y-105000000D01*
X167934346Y-104951397D01*
X167500000Y-104865000D01*
X165647440Y-104865000D01*
X165647440Y-104500000D01*
X165603162Y-104264683D01*
X165464090Y-104048559D01*
X165251890Y-103903569D01*
X165000000Y-103852560D01*
X162000000Y-103852560D01*
X161933887Y-103865000D01*
X152148222Y-103865000D01*
X152135494Y-103797359D01*
X151888669Y-103413781D01*
X151512056Y-103156452D01*
X151065000Y-103065921D01*
X148065000Y-103065921D01*
X147647359Y-103144506D01*
X147263781Y-103391331D01*
X147006452Y-103767944D01*
X146915921Y-104215000D01*
X146915921Y-107215000D01*
X146994506Y-107632641D01*
X147241331Y-108016219D01*
X147617944Y-108273548D01*
X148065000Y-108364079D01*
X151065000Y-108364079D01*
X151482641Y-108285494D01*
X151716516Y-108135000D01*
X159665017Y-108135000D01*
X159553569Y-108298110D01*
X159502560Y-108550000D01*
X159502560Y-109450000D01*
X159546838Y-109685317D01*
X159685910Y-109901441D01*
X159873000Y-110029274D01*
X159873000Y-112294975D01*
X159834698Y-112256673D01*
X159601309Y-112160000D01*
X158985750Y-112160000D01*
X158827000Y-112318750D01*
X158827000Y-112968000D01*
X158847000Y-112968000D01*
X158847000Y-113222000D01*
X158827000Y-113222000D01*
X158827000Y-113242000D01*
X158573000Y-113242000D01*
X158573000Y-113222000D01*
X157448750Y-113222000D01*
X157290000Y-113380750D01*
X157290000Y-113521310D01*
X157379806Y-113738122D01*
X157328569Y-113813110D01*
X157277560Y-114065000D01*
X157277560Y-114665000D01*
X157321838Y-114900317D01*
X157385678Y-114999528D01*
X157328569Y-115083110D01*
X157277560Y-115335000D01*
X157277560Y-115935000D01*
X157321838Y-116170317D01*
X157385678Y-116269528D01*
X157328569Y-116353110D01*
X157277560Y-116605000D01*
X157277560Y-117205000D01*
X157321838Y-117440317D01*
X157460910Y-117656441D01*
X157673110Y-117801431D01*
X157925000Y-117852440D01*
X158325150Y-117852440D01*
X159533855Y-119061145D01*
X159837191Y-119263827D01*
X160067185Y-119309576D01*
X159948559Y-119385910D01*
X159803569Y-119598110D01*
X159752560Y-119850000D01*
X159752560Y-121150000D01*
X159796838Y-121385317D01*
X159870620Y-121499978D01*
X159803569Y-121598110D01*
X159752560Y-121850000D01*
X159752560Y-123150000D01*
X159796838Y-123385317D01*
X159927405Y-123588224D01*
X159903569Y-123623110D01*
X159852560Y-123875000D01*
X159852560Y-125125000D01*
X159896838Y-125360317D01*
X160035910Y-125576441D01*
X160115000Y-125630481D01*
X160115000Y-128052560D01*
X159000000Y-128052560D01*
X158764683Y-128096838D01*
X158550214Y-128234845D01*
X158508604Y-128025655D01*
X158262566Y-127657434D01*
X155127000Y-124521868D01*
X155127000Y-123560806D01*
X155500000Y-123635000D01*
X155934346Y-123548603D01*
X156302566Y-123302566D01*
X156548603Y-122934346D01*
X156635000Y-122500000D01*
X156635000Y-119105000D01*
X156548603Y-118670654D01*
X156302566Y-118302434D01*
X154722440Y-116722308D01*
X154722440Y-116605000D01*
X154678162Y-116369683D01*
X154627000Y-116290174D01*
X154627000Y-116251917D01*
X154671431Y-116186890D01*
X154722440Y-115935000D01*
X154722440Y-115335000D01*
X154678162Y-115099683D01*
X154627000Y-115020174D01*
X154627000Y-114981917D01*
X154671431Y-114916890D01*
X154722440Y-114665000D01*
X154722440Y-114065000D01*
X154678162Y-113829683D01*
X154627000Y-113750174D01*
X154627000Y-113711917D01*
X154671431Y-113646890D01*
X154722440Y-113395000D01*
X154722440Y-112795000D01*
X154698674Y-112668690D01*
X157290000Y-112668690D01*
X157290000Y-112809250D01*
X157448750Y-112968000D01*
X158573000Y-112968000D01*
X158573000Y-112318750D01*
X158414250Y-112160000D01*
X157798691Y-112160000D01*
X157565302Y-112256673D01*
X157386673Y-112435301D01*
X157290000Y-112668690D01*
X154698674Y-112668690D01*
X154678162Y-112559683D01*
X154539090Y-112343559D01*
X154326890Y-112198569D01*
X154075000Y-112147560D01*
X153199850Y-112147560D01*
X152586145Y-111533855D01*
X152282809Y-111331173D01*
X151925000Y-111260000D01*
X145805000Y-111260000D01*
X145797440Y-111261504D01*
X145797440Y-110600000D01*
X145753162Y-110364683D01*
X145614090Y-110148559D01*
X145401890Y-110003569D01*
X145368510Y-109996809D01*
X145509699Y-109938327D01*
X145688327Y-109759698D01*
X145785000Y-109526309D01*
X145785000Y-108935750D01*
X145626250Y-108777000D01*
X144627000Y-108777000D01*
X144627000Y-108797000D01*
X144373000Y-108797000D01*
X144373000Y-108777000D01*
X143373750Y-108777000D01*
X143215000Y-108935750D01*
X143215000Y-109526309D01*
X143311673Y-109759698D01*
X143490301Y-109938327D01*
X143626287Y-109994654D01*
X143614683Y-109996838D01*
X143398559Y-110135910D01*
X143253569Y-110348110D01*
X143202560Y-110600000D01*
X143202560Y-112100000D01*
X143246838Y-112335317D01*
X143365000Y-112518946D01*
X143365000Y-112865000D01*
X142000000Y-112865000D01*
X141959781Y-112873000D01*
X141099792Y-112873000D01*
X141097440Y-112861174D01*
X141097440Y-112650000D01*
X141053162Y-112414683D01*
X140914090Y-112198559D01*
X140701890Y-112053569D01*
X140450000Y-112002560D01*
X140436087Y-112002560D01*
X140434346Y-112001397D01*
X140138260Y-111942502D01*
X140127000Y-111882661D01*
X140127000Y-110000000D01*
X140116994Y-109950590D01*
X140088553Y-109908965D01*
X140046159Y-109881685D01*
X140000000Y-109873000D01*
X139797440Y-109873000D01*
X139797440Y-109600000D01*
X139753162Y-109364683D01*
X139614090Y-109148559D01*
X139401890Y-109003569D01*
X139368510Y-108996809D01*
X139509699Y-108938327D01*
X139688327Y-108759698D01*
X139785000Y-108526309D01*
X139785000Y-107935750D01*
X139626250Y-107777000D01*
X138627000Y-107777000D01*
X138627000Y-107797000D01*
X138373000Y-107797000D01*
X138373000Y-107777000D01*
X137373750Y-107777000D01*
X137215000Y-107935750D01*
X137215000Y-108526309D01*
X137311673Y-108759698D01*
X137490301Y-108938327D01*
X137626287Y-108994654D01*
X137614683Y-108996838D01*
X137398559Y-109135910D01*
X137253569Y-109348110D01*
X137202560Y-109600000D01*
X137202560Y-110850921D01*
X136000000Y-110850921D01*
X135582359Y-110929506D01*
X135198781Y-111176331D01*
X134941452Y-111552944D01*
X134850921Y-112000000D01*
X134850921Y-115000000D01*
X134929506Y-115417641D01*
X135176331Y-115801219D01*
X135552944Y-116058548D01*
X136000000Y-116149079D01*
X137202560Y-116149079D01*
X137202560Y-116900000D01*
X137246838Y-117135317D01*
X137385910Y-117351441D01*
X137598110Y-117496431D01*
X137631490Y-117503191D01*
X137490301Y-117561673D01*
X137311673Y-117740302D01*
X137215000Y-117973691D01*
X137215000Y-118564250D01*
X137373750Y-118723000D01*
X138373000Y-118723000D01*
X138373000Y-118703000D01*
X138627000Y-118703000D01*
X138627000Y-118723000D01*
X139626250Y-118723000D01*
X139785000Y-118564250D01*
X139785000Y-118535750D01*
X143240000Y-118535750D01*
X143240000Y-119126309D01*
X143336673Y-119359698D01*
X143515301Y-119538327D01*
X143748690Y-119635000D01*
X144214250Y-119635000D01*
X144373000Y-119476250D01*
X144373000Y-118377000D01*
X144627000Y-118377000D01*
X144627000Y-119476250D01*
X144785750Y-119635000D01*
X145251310Y-119635000D01*
X145417950Y-119565975D01*
X145490301Y-119638327D01*
X145723690Y-119735000D01*
X146214250Y-119735000D01*
X146373000Y-119576250D01*
X146373000Y-118477000D01*
X146627000Y-118477000D01*
X146627000Y-119576250D01*
X146785750Y-119735000D01*
X147276310Y-119735000D01*
X147509699Y-119638327D01*
X147688327Y-119459698D01*
X147785000Y-119226309D01*
X147785000Y-118635750D01*
X147626250Y-118477000D01*
X146627000Y-118477000D01*
X146373000Y-118477000D01*
X145701250Y-118477000D01*
X145601250Y-118377000D01*
X144627000Y-118377000D01*
X144373000Y-118377000D01*
X143398750Y-118377000D01*
X143240000Y-118535750D01*
X139785000Y-118535750D01*
X139785000Y-117973691D01*
X139688327Y-117740302D01*
X139509699Y-117561673D01*
X139373713Y-117505346D01*
X139385317Y-117503162D01*
X139601441Y-117364090D01*
X139746431Y-117151890D01*
X139751471Y-117127000D01*
X143349975Y-117127000D01*
X143336673Y-117140302D01*
X143240000Y-117373691D01*
X143240000Y-117964250D01*
X143398750Y-118123000D01*
X144373000Y-118123000D01*
X144373000Y-118103000D01*
X144627000Y-118103000D01*
X144627000Y-118123000D01*
X145273750Y-118123000D01*
X145373750Y-118223000D01*
X146373000Y-118223000D01*
X146373000Y-118203000D01*
X146627000Y-118203000D01*
X146627000Y-118223000D01*
X147626250Y-118223000D01*
X147785000Y-118064250D01*
X147785000Y-117473691D01*
X147688327Y-117240302D01*
X147575026Y-117127000D01*
X148373000Y-117127000D01*
X148373000Y-117312245D01*
X148286173Y-117442191D01*
X148215000Y-117800000D01*
X148215000Y-119237370D01*
X148164683Y-119246838D01*
X147948559Y-119385910D01*
X147803569Y-119598110D01*
X147752560Y-119850000D01*
X147752560Y-121150000D01*
X147796838Y-121385317D01*
X147863328Y-121488646D01*
X147861673Y-121490301D01*
X147765000Y-121723690D01*
X147765000Y-122214250D01*
X147923750Y-122373000D01*
X149023000Y-122373000D01*
X149023000Y-122353000D01*
X149277000Y-122353000D01*
X149277000Y-122373000D01*
X149297000Y-122373000D01*
X149297000Y-122627000D01*
X149277000Y-122627000D01*
X149277000Y-123626250D01*
X149377000Y-123726250D01*
X149377000Y-124373000D01*
X149397000Y-124373000D01*
X149397000Y-124627000D01*
X149377000Y-124627000D01*
X149377000Y-125601250D01*
X149535750Y-125760000D01*
X150126309Y-125760000D01*
X150359698Y-125663327D01*
X150500936Y-125522090D01*
X150535910Y-125576441D01*
X150748110Y-125721431D01*
X151000000Y-125772440D01*
X152500000Y-125772440D01*
X152735317Y-125728162D01*
X152880095Y-125635000D01*
X153029868Y-125635000D01*
X155673136Y-128278268D01*
X155428355Y-128140856D01*
X155300434Y-128109876D01*
X155047000Y-128229223D01*
X155047000Y-129873000D01*
X155067000Y-129873000D01*
X155067000Y-130127000D01*
X155047000Y-130127000D01*
X155047000Y-131770777D01*
X155300434Y-131890124D01*
X155428355Y-131859144D01*
X155986317Y-131545922D01*
X156176781Y-131303812D01*
X156303880Y-131494029D01*
X156834313Y-131848452D01*
X157460000Y-131972909D01*
X158085687Y-131848452D01*
X158444192Y-131608907D01*
X158535910Y-131751441D01*
X158748110Y-131896431D01*
X159000000Y-131947440D01*
X161000000Y-131947440D01*
X161235317Y-131903162D01*
X161451441Y-131764090D01*
X161596431Y-131551890D01*
X161647440Y-131300000D01*
X161647440Y-129957692D01*
X162052566Y-129552566D01*
X162298603Y-129184346D01*
X162376429Y-128793089D01*
X168806517Y-128793089D01*
X168935725Y-129085859D01*
X169635883Y-129354071D01*
X170385384Y-129333928D01*
X170984275Y-129085859D01*
X171113483Y-128793089D01*
X169960000Y-127639605D01*
X168806517Y-128793089D01*
X162376429Y-128793089D01*
X162385000Y-128750000D01*
X162385000Y-127135883D01*
X168065929Y-127135883D01*
X168086072Y-127885384D01*
X168334141Y-128484275D01*
X168626911Y-128613483D01*
X169780395Y-127460000D01*
X168626911Y-126306517D01*
X168334141Y-126435725D01*
X168065929Y-127135883D01*
X162385000Y-127135883D01*
X162385000Y-126126911D01*
X168806517Y-126126911D01*
X169960000Y-127280395D01*
X171113483Y-126126911D01*
X170984275Y-125834141D01*
X170284117Y-125565929D01*
X169534616Y-125586072D01*
X168935725Y-125834141D01*
X168806517Y-126126911D01*
X162385000Y-126126911D01*
X162385000Y-125631844D01*
X162451441Y-125589090D01*
X162497969Y-125520994D01*
X162640302Y-125663327D01*
X162873691Y-125760000D01*
X163464250Y-125760000D01*
X163623000Y-125601250D01*
X163623000Y-124627000D01*
X163877000Y-124627000D01*
X163877000Y-125601250D01*
X164035750Y-125760000D01*
X164626309Y-125760000D01*
X164859698Y-125663327D01*
X165038327Y-125484699D01*
X165135000Y-125251310D01*
X165135000Y-124785750D01*
X164976250Y-124627000D01*
X163877000Y-124627000D01*
X163623000Y-124627000D01*
X163603000Y-124627000D01*
X163603000Y-124373000D01*
X163623000Y-124373000D01*
X163623000Y-123726250D01*
X163723000Y-123626250D01*
X163723000Y-123398750D01*
X163877000Y-123398750D01*
X163877000Y-124373000D01*
X164976250Y-124373000D01*
X165135000Y-124214250D01*
X165135000Y-123748690D01*
X165065975Y-123582050D01*
X165138327Y-123509699D01*
X165235000Y-123276310D01*
X165235000Y-122785750D01*
X165076250Y-122627000D01*
X163977000Y-122627000D01*
X163977000Y-123298750D01*
X163877000Y-123398750D01*
X163723000Y-123398750D01*
X163723000Y-122627000D01*
X163703000Y-122627000D01*
X163703000Y-122373000D01*
X163723000Y-122373000D01*
X163723000Y-122353000D01*
X163977000Y-122353000D01*
X163977000Y-122373000D01*
X165076250Y-122373000D01*
X165235000Y-122214250D01*
X165235000Y-121723690D01*
X165138327Y-121490301D01*
X165136958Y-121488932D01*
X165196431Y-121401890D01*
X165247440Y-121150000D01*
X165247440Y-119850000D01*
X165203162Y-119614683D01*
X165064090Y-119398559D01*
X164851890Y-119253569D01*
X164785000Y-119240023D01*
X164785000Y-118635750D01*
X165215000Y-118635750D01*
X165215000Y-119226309D01*
X165311673Y-119459698D01*
X165490301Y-119638327D01*
X165723690Y-119735000D01*
X166214250Y-119735000D01*
X166373000Y-119576250D01*
X166373000Y-118477000D01*
X166627000Y-118477000D01*
X166627000Y-119576250D01*
X166785750Y-119735000D01*
X167276310Y-119735000D01*
X167509699Y-119638327D01*
X167688327Y-119459698D01*
X167785000Y-119226309D01*
X167785000Y-118635750D01*
X167626250Y-118477000D01*
X166627000Y-118477000D01*
X166373000Y-118477000D01*
X165373750Y-118477000D01*
X165215000Y-118635750D01*
X164785000Y-118635750D01*
X164785000Y-118200000D01*
X164713827Y-117842191D01*
X164697440Y-117817666D01*
X164697440Y-117550000D01*
X164653162Y-117314683D01*
X164532391Y-117127000D01*
X165424974Y-117127000D01*
X165311673Y-117240302D01*
X165215000Y-117473691D01*
X165215000Y-118064250D01*
X165373750Y-118223000D01*
X166373000Y-118223000D01*
X166373000Y-118203000D01*
X166627000Y-118203000D01*
X166627000Y-118223000D01*
X167626250Y-118223000D01*
X167785000Y-118064250D01*
X167785000Y-117473691D01*
X167688327Y-117240302D01*
X167558683Y-117110658D01*
X167591035Y-117088553D01*
X167618315Y-117046159D01*
X167627000Y-117000000D01*
X167627000Y-116826683D01*
X167746431Y-116651890D01*
X167797440Y-116400000D01*
X167797440Y-114900000D01*
X167753162Y-114664683D01*
X167644243Y-114495417D01*
X167735000Y-114276310D01*
X167735000Y-113785750D01*
X167576250Y-113627000D01*
X166477000Y-113627000D01*
X166477000Y-113647000D01*
X166223000Y-113647000D01*
X166223000Y-113627000D01*
X166203000Y-113627000D01*
X166203000Y-113373000D01*
X166223000Y-113373000D01*
X166223000Y-112373750D01*
X166123000Y-112273750D01*
X166123000Y-111627000D01*
X166377000Y-111627000D01*
X166377000Y-112601250D01*
X166477000Y-112701250D01*
X166477000Y-113373000D01*
X167576250Y-113373000D01*
X167735000Y-113214250D01*
X167735000Y-112723690D01*
X167638327Y-112490301D01*
X167565975Y-112417950D01*
X167635000Y-112251310D01*
X167635000Y-111785750D01*
X167476250Y-111627000D01*
X166377000Y-111627000D01*
X166123000Y-111627000D01*
X166103000Y-111627000D01*
X166103000Y-111373000D01*
X166123000Y-111373000D01*
X166123000Y-110398750D01*
X166377000Y-110398750D01*
X166377000Y-111373000D01*
X167476250Y-111373000D01*
X167635000Y-111214250D01*
X167635000Y-110748690D01*
X167538327Y-110515301D01*
X167359698Y-110336673D01*
X167126309Y-110240000D01*
X166535750Y-110240000D01*
X166377000Y-110398750D01*
X166123000Y-110398750D01*
X165964250Y-110240000D01*
X165373691Y-110240000D01*
X165140302Y-110336673D01*
X164999064Y-110477910D01*
X164964090Y-110423559D01*
X164751890Y-110278569D01*
X164627000Y-110253278D01*
X164627000Y-110000000D01*
X164616994Y-109950590D01*
X164588553Y-109908965D01*
X164546159Y-109881685D01*
X164500000Y-109873000D01*
X163329517Y-109873000D01*
X163446431Y-109701890D01*
X163497440Y-109450000D01*
X163497440Y-109436087D01*
X163498603Y-109434346D01*
X163585000Y-109000000D01*
X163585000Y-108147440D01*
X165000000Y-108147440D01*
X165235317Y-108103162D01*
X165451441Y-107964090D01*
X165596431Y-107751890D01*
X165647440Y-107500000D01*
X165647440Y-107135000D01*
X167029868Y-107135000D01*
X171365000Y-111470132D01*
X171365000Y-117985025D01*
X171253569Y-118148110D01*
X171202560Y-118400000D01*
X171202560Y-119900000D01*
X171246838Y-120135317D01*
X171385910Y-120351441D01*
X171598110Y-120496431D01*
X171611197Y-120499081D01*
X171398559Y-120635910D01*
X171253569Y-120848110D01*
X171202560Y-121100000D01*
X171202560Y-122600000D01*
X171246838Y-122835317D01*
X171365000Y-123018946D01*
X171365000Y-126338253D01*
X171293089Y-126306517D01*
X170139605Y-127460000D01*
X171293089Y-128613483D01*
X171365000Y-128581747D01*
X171365000Y-128823516D01*
X171115154Y-129072927D01*
X170865794Y-129673453D01*
X170865226Y-130323694D01*
X170891788Y-130387980D01*
X170836310Y-130365000D01*
X170245750Y-130365000D01*
X170087000Y-130523750D01*
X170087000Y-130651227D01*
X169833000Y-130658053D01*
X169833000Y-130523750D01*
X169674250Y-130365000D01*
X169083690Y-130365000D01*
X168850301Y-130461673D01*
X168671673Y-130640302D01*
X168575000Y-130873691D01*
X168575000Y-131210962D01*
X168513177Y-131272785D01*
X168575000Y-131334608D01*
X168575000Y-131409427D01*
X168334141Y-131515725D01*
X168065929Y-132215883D01*
X168086072Y-132965384D01*
X168334141Y-133564275D01*
X168575000Y-133670573D01*
X168575000Y-133745392D01*
X168513177Y-133807215D01*
X168575000Y-133869038D01*
X168575000Y-134290000D01*
X140925000Y-134290000D01*
X140925000Y-133869038D01*
X140986823Y-133807215D01*
X140925000Y-133745392D01*
X140925000Y-133670573D01*
X141165859Y-133564275D01*
X141434071Y-132864117D01*
X141413928Y-132114616D01*
X141165859Y-131515725D01*
X140925000Y-131409427D01*
X140925000Y-131334608D01*
X140986823Y-131272785D01*
X140925000Y-131210962D01*
X140925000Y-130873691D01*
X140828327Y-130640302D01*
X140649699Y-130461673D01*
X140416310Y-130365000D01*
X139825750Y-130365000D01*
X139667000Y-130523750D01*
X139667000Y-130651227D01*
X139413000Y-130658053D01*
X139413000Y-130523750D01*
X139254250Y-130365000D01*
X138663690Y-130365000D01*
X138608798Y-130387737D01*
X138634206Y-130326547D01*
X138634774Y-129676306D01*
X138628901Y-129662091D01*
X148205000Y-129662091D01*
X148205000Y-130337909D01*
X148329457Y-130963596D01*
X148683880Y-131494029D01*
X149214313Y-131848452D01*
X149840000Y-131972909D01*
X150465687Y-131848452D01*
X150996120Y-131494029D01*
X151110000Y-131323595D01*
X151223880Y-131494029D01*
X151754313Y-131848452D01*
X152380000Y-131972909D01*
X153005687Y-131848452D01*
X153536120Y-131494029D01*
X153663219Y-131303812D01*
X153853683Y-131545922D01*
X154411645Y-131859144D01*
X154539566Y-131890124D01*
X154793000Y-131770777D01*
X154793000Y-130127000D01*
X154773000Y-130127000D01*
X154773000Y-129873000D01*
X154793000Y-129873000D01*
X154793000Y-128229223D01*
X154539566Y-128109876D01*
X154411645Y-128140856D01*
X153853683Y-128454078D01*
X153663219Y-128696188D01*
X153536120Y-128505971D01*
X153005687Y-128151548D01*
X152380000Y-128027091D01*
X151754313Y-128151548D01*
X151223880Y-128505971D01*
X151110000Y-128676405D01*
X150996120Y-128505971D01*
X150465687Y-128151548D01*
X149840000Y-128027091D01*
X149214313Y-128151548D01*
X148683880Y-128505971D01*
X148329457Y-129036404D01*
X148205000Y-129662091D01*
X138628901Y-129662091D01*
X138435000Y-129192816D01*
X138435000Y-128902946D01*
X138515725Y-129085859D01*
X139215883Y-129354071D01*
X139965384Y-129333928D01*
X140564275Y-129085859D01*
X140693483Y-128793089D01*
X139540000Y-127639605D01*
X139525858Y-127653748D01*
X139346252Y-127474142D01*
X139360395Y-127460000D01*
X139719605Y-127460000D01*
X140873089Y-128613483D01*
X141165859Y-128484275D01*
X141434071Y-127784117D01*
X141413928Y-127034616D01*
X141165859Y-126435725D01*
X140873089Y-126306517D01*
X139719605Y-127460000D01*
X139360395Y-127460000D01*
X139346252Y-127445858D01*
X139525858Y-127266252D01*
X139540000Y-127280395D01*
X140693483Y-126126911D01*
X140564275Y-125834141D01*
X139864117Y-125565929D01*
X139114616Y-125586072D01*
X138515725Y-125834141D01*
X138435000Y-126017054D01*
X138435000Y-124785750D01*
X147865000Y-124785750D01*
X147865000Y-125251310D01*
X147961673Y-125484699D01*
X148140302Y-125663327D01*
X148373691Y-125760000D01*
X148964250Y-125760000D01*
X149123000Y-125601250D01*
X149123000Y-124627000D01*
X148023750Y-124627000D01*
X147865000Y-124785750D01*
X138435000Y-124785750D01*
X138435000Y-124000000D01*
X138325767Y-123450849D01*
X138274251Y-123373750D01*
X138014698Y-122985301D01*
X137815147Y-122785750D01*
X147765000Y-122785750D01*
X147765000Y-123276310D01*
X147861673Y-123509699D01*
X147934025Y-123582050D01*
X147865000Y-123748690D01*
X147865000Y-124214250D01*
X148023750Y-124373000D01*
X149123000Y-124373000D01*
X149123000Y-123398750D01*
X149023000Y-123298750D01*
X149023000Y-122627000D01*
X147923750Y-122627000D01*
X147765000Y-122785750D01*
X137815147Y-122785750D01*
X134514698Y-119485302D01*
X134384878Y-119398559D01*
X134049151Y-119174233D01*
X133855685Y-119135750D01*
X137215000Y-119135750D01*
X137215000Y-119726309D01*
X137311673Y-119959698D01*
X137490301Y-120138327D01*
X137723690Y-120235000D01*
X138214250Y-120235000D01*
X138373000Y-120076250D01*
X138373000Y-118977000D01*
X138627000Y-118977000D01*
X138627000Y-120076250D01*
X138785750Y-120235000D01*
X139276310Y-120235000D01*
X139509699Y-120138327D01*
X139688327Y-119959698D01*
X139785000Y-119726309D01*
X139785000Y-119135750D01*
X139626250Y-118977000D01*
X138627000Y-118977000D01*
X138373000Y-118977000D01*
X137373750Y-118977000D01*
X137215000Y-119135750D01*
X133855685Y-119135750D01*
X133500000Y-119065000D01*
X126095000Y-119065000D01*
X126095000Y-118506854D01*
X126194733Y-118266670D01*
X126195265Y-117656009D01*
X125962068Y-117091629D01*
X125530643Y-116659449D01*
X124966670Y-116425267D01*
X124356009Y-116424735D01*
X123791629Y-116657932D01*
X123389677Y-117059182D01*
X122990643Y-116659449D01*
X122426670Y-116425267D01*
X121816009Y-116424735D01*
X121251629Y-116657932D01*
X120849677Y-117059182D01*
X120450643Y-116659449D01*
X119886670Y-116425267D01*
X119276009Y-116424735D01*
X118711629Y-116657932D01*
X118279449Y-117089357D01*
X118045267Y-117653330D01*
X118044735Y-118263991D01*
X118145000Y-118506651D01*
X118145000Y-119065000D01*
X115565784Y-119065000D01*
X115800551Y-118830643D01*
X116034733Y-118266670D01*
X116035265Y-117656009D01*
X115802068Y-117091629D01*
X115370643Y-116659449D01*
X114806670Y-116425267D01*
X114196009Y-116424735D01*
X113631629Y-116657932D01*
X113199449Y-117089357D01*
X112965267Y-117653330D01*
X112964735Y-118263991D01*
X113197932Y-118828371D01*
X113434148Y-119065000D01*
X110500000Y-119065000D01*
X109950849Y-119174233D01*
X109485301Y-119485302D01*
X105985303Y-122985301D01*
X105985302Y-122985302D01*
X105674233Y-123450849D01*
X105565000Y-124000000D01*
X105565000Y-126017054D01*
X105484275Y-125834141D01*
X104784117Y-125565929D01*
X104034616Y-125586072D01*
X103435725Y-125834141D01*
X103306517Y-126126911D01*
X104460000Y-127280395D01*
X104474142Y-127266252D01*
X104653748Y-127445858D01*
X104639605Y-127460000D01*
X104653748Y-127474142D01*
X104474142Y-127653748D01*
X104460000Y-127639605D01*
X103306517Y-128793089D01*
X103435725Y-129085859D01*
X104135883Y-129354071D01*
X104885384Y-129333928D01*
X105484275Y-129085859D01*
X105565000Y-128902946D01*
X105565000Y-129193711D01*
X105365794Y-129673453D01*
X105365226Y-130323694D01*
X105391788Y-130387980D01*
X105336310Y-130365000D01*
X104745750Y-130365000D01*
X104587000Y-130523750D01*
X104587000Y-130651227D01*
X104333000Y-130658053D01*
X104333000Y-130523750D01*
X104174250Y-130365000D01*
X103583690Y-130365000D01*
X103350301Y-130461673D01*
X103171673Y-130640302D01*
X103075000Y-130873691D01*
X103075000Y-131210962D01*
X103013177Y-131272785D01*
X103075000Y-131334608D01*
X103075000Y-131409427D01*
X102834141Y-131515725D01*
X102565929Y-132215883D01*
X102586072Y-132965384D01*
X102834141Y-133564275D01*
X103075000Y-133670573D01*
X103075000Y-133745392D01*
X103013177Y-133807215D01*
X103075000Y-133869038D01*
X103075000Y-134290000D01*
X90710000Y-134290000D01*
X90710000Y-132452340D01*
X92727265Y-132452340D01*
X93045501Y-132906203D01*
X94306434Y-133432936D01*
X95672956Y-133437035D01*
X96937027Y-132917878D01*
X96954499Y-132906203D01*
X97272735Y-132452340D01*
X95000000Y-130179605D01*
X92727265Y-132452340D01*
X90710000Y-132452340D01*
X90710000Y-130672956D01*
X91562965Y-130672956D01*
X92082122Y-131937027D01*
X92093797Y-131954499D01*
X92547660Y-132272735D01*
X94820395Y-130000000D01*
X95179605Y-130000000D01*
X97452340Y-132272735D01*
X97906203Y-131954499D01*
X98432936Y-130693566D01*
X98437035Y-129327044D01*
X97917878Y-128062973D01*
X97906203Y-128045501D01*
X97452340Y-127727265D01*
X95179605Y-130000000D01*
X94820395Y-130000000D01*
X92547660Y-127727265D01*
X92093797Y-128045501D01*
X91567064Y-129306434D01*
X91562965Y-130672956D01*
X90710000Y-130672956D01*
X90710000Y-127547660D01*
X92727265Y-127547660D01*
X95000000Y-129820395D01*
X97272735Y-127547660D01*
X96984009Y-127135883D01*
X102565929Y-127135883D01*
X102586072Y-127885384D01*
X102834141Y-128484275D01*
X103126911Y-128613483D01*
X104280395Y-127460000D01*
X103126911Y-126306517D01*
X102834141Y-126435725D01*
X102565929Y-127135883D01*
X96984009Y-127135883D01*
X96954499Y-127093797D01*
X95693566Y-126567064D01*
X94327044Y-126562965D01*
X93062973Y-127082122D01*
X93045501Y-127093797D01*
X92727265Y-127547660D01*
X90710000Y-127547660D01*
X90710000Y-108925000D01*
X91130962Y-108925000D01*
X91192785Y-108986823D01*
X91254608Y-108925000D01*
X91329427Y-108925000D01*
X91435725Y-109165859D01*
X92135883Y-109434071D01*
X92885384Y-109413928D01*
X93484275Y-109165859D01*
X93590573Y-108925000D01*
X93665392Y-108925000D01*
X93727215Y-108986823D01*
X93789038Y-108925000D01*
X94126309Y-108925000D01*
X94359698Y-108828327D01*
X94538327Y-108649699D01*
X94635000Y-108416310D01*
X94635000Y-107825750D01*
X94476250Y-107667000D01*
X94348773Y-107667000D01*
X94341947Y-107413000D01*
X94476250Y-107413000D01*
X94635000Y-107254250D01*
X94635000Y-106663690D01*
X94612263Y-106608798D01*
X94673453Y-106634206D01*
X95323694Y-106634774D01*
X95807184Y-106435000D01*
X96097054Y-106435000D01*
X95914141Y-106515725D01*
X95645929Y-107215883D01*
X95666072Y-107965384D01*
X95914141Y-108564275D01*
X96206911Y-108693483D01*
X96873000Y-108027395D01*
X96873000Y-108386606D01*
X96386517Y-108873089D01*
X96515725Y-109165859D01*
X97215883Y-109434071D01*
X97965384Y-109413928D01*
X98564275Y-109165859D01*
X98581425Y-109127000D01*
X107000000Y-109127000D01*
X107049410Y-109116994D01*
X107089803Y-109089803D01*
X107557292Y-108622314D01*
X128557291Y-108622314D01*
X128735379Y-108956666D01*
X129580426Y-109291673D01*
X130489350Y-109277794D01*
X131264621Y-108956666D01*
X131442709Y-108622314D01*
X130000000Y-107179605D01*
X128557291Y-108622314D01*
X107557292Y-108622314D01*
X109599180Y-106580426D01*
X127708327Y-106580426D01*
X127722206Y-107489350D01*
X128043334Y-108264621D01*
X128377686Y-108442709D01*
X129820395Y-107000000D01*
X130179605Y-107000000D01*
X131622314Y-108442709D01*
X131956666Y-108264621D01*
X132151288Y-107773691D01*
X143215000Y-107773691D01*
X143215000Y-108364250D01*
X143373750Y-108523000D01*
X144373000Y-108523000D01*
X144373000Y-107423750D01*
X144627000Y-107423750D01*
X144627000Y-108523000D01*
X145626250Y-108523000D01*
X145785000Y-108364250D01*
X145785000Y-107773691D01*
X145688327Y-107540302D01*
X145509699Y-107361673D01*
X145276310Y-107265000D01*
X144785750Y-107265000D01*
X144627000Y-107423750D01*
X144373000Y-107423750D01*
X144214250Y-107265000D01*
X143723690Y-107265000D01*
X143490301Y-107361673D01*
X143311673Y-107540302D01*
X143215000Y-107773691D01*
X132151288Y-107773691D01*
X132291673Y-107419574D01*
X132281811Y-106773691D01*
X137215000Y-106773691D01*
X137215000Y-107364250D01*
X137373750Y-107523000D01*
X138373000Y-107523000D01*
X138373000Y-106423750D01*
X138627000Y-106423750D01*
X138627000Y-107523000D01*
X139626250Y-107523000D01*
X139785000Y-107364250D01*
X139785000Y-106773691D01*
X139688327Y-106540302D01*
X139509699Y-106361673D01*
X139276310Y-106265000D01*
X138785750Y-106265000D01*
X138627000Y-106423750D01*
X138373000Y-106423750D01*
X138214250Y-106265000D01*
X137723690Y-106265000D01*
X137490301Y-106361673D01*
X137311673Y-106540302D01*
X137215000Y-106773691D01*
X132281811Y-106773691D01*
X132277794Y-106510650D01*
X131956666Y-105735379D01*
X131622314Y-105557291D01*
X130179605Y-107000000D01*
X129820395Y-107000000D01*
X128377686Y-105557291D01*
X128043334Y-105735379D01*
X127708327Y-106580426D01*
X109599180Y-106580426D01*
X110801920Y-105377686D01*
X128557291Y-105377686D01*
X130000000Y-106820395D01*
X131442709Y-105377686D01*
X131264621Y-105043334D01*
X130419574Y-104708327D01*
X129510650Y-104722206D01*
X128735379Y-105043334D01*
X128557291Y-105377686D01*
X110801920Y-105377686D01*
X112052606Y-104127000D01*
X127000000Y-104127000D01*
X127049410Y-104116994D01*
X127089803Y-104089803D01*
X132052606Y-99127000D01*
X172873000Y-99127000D01*
X172873000Y-104000000D01*
X172873000Y-104000000D01*
G37*
X172873000Y-104000000D02*
X172883006Y-104049410D01*
X172910197Y-104089803D01*
X177910197Y-109089803D01*
X177952211Y-109117666D01*
X178000000Y-109127000D01*
X181418575Y-109127000D01*
X181435725Y-109165859D01*
X182135883Y-109434071D01*
X182885384Y-109413928D01*
X183484275Y-109165859D01*
X183613483Y-108873089D01*
X182460000Y-107719605D01*
X182445858Y-107733748D01*
X182354946Y-107642836D01*
X182396080Y-107396030D01*
X182445858Y-107346253D01*
X182460000Y-107360395D01*
X182474142Y-107346252D01*
X182653748Y-107525858D01*
X182639605Y-107540000D01*
X183793089Y-108693483D01*
X184085859Y-108564275D01*
X184354071Y-107864117D01*
X184333928Y-107114616D01*
X184085859Y-106515725D01*
X183902946Y-106435000D01*
X184193711Y-106435000D01*
X184673453Y-106634206D01*
X185323694Y-106634774D01*
X185387980Y-106608212D01*
X185365000Y-106663690D01*
X185365000Y-107254250D01*
X185523750Y-107413000D01*
X185651227Y-107413000D01*
X185658053Y-107667000D01*
X185523750Y-107667000D01*
X185365000Y-107825750D01*
X185365000Y-108416310D01*
X185461673Y-108649699D01*
X185640302Y-108828327D01*
X185873691Y-108925000D01*
X186210962Y-108925000D01*
X186272785Y-108986823D01*
X186334608Y-108925000D01*
X186409427Y-108925000D01*
X186515725Y-109165859D01*
X187215883Y-109434071D01*
X187965384Y-109413928D01*
X188564275Y-109165859D01*
X188670573Y-108925000D01*
X188745392Y-108925000D01*
X188807215Y-108986823D01*
X188869038Y-108925000D01*
X189290000Y-108925000D01*
X189290000Y-134290000D01*
X176425000Y-134290000D01*
X176425000Y-133869038D01*
X176486823Y-133807215D01*
X176425000Y-133745392D01*
X176425000Y-133670573D01*
X176665859Y-133564275D01*
X176934071Y-132864117D01*
X176923005Y-132452340D01*
X182727265Y-132452340D01*
X183045501Y-132906203D01*
X184306434Y-133432936D01*
X185672956Y-133437035D01*
X186937027Y-132917878D01*
X186954499Y-132906203D01*
X187272735Y-132452340D01*
X185000000Y-130179605D01*
X182727265Y-132452340D01*
X176923005Y-132452340D01*
X176913928Y-132114616D01*
X176665859Y-131515725D01*
X176425000Y-131409427D01*
X176425000Y-131334608D01*
X176486823Y-131272785D01*
X176425000Y-131210962D01*
X176425000Y-130873691D01*
X176341853Y-130672956D01*
X181562965Y-130672956D01*
X182082122Y-131937027D01*
X182093797Y-131954499D01*
X182547660Y-132272735D01*
X184820395Y-130000000D01*
X185179605Y-130000000D01*
X187452340Y-132272735D01*
X187906203Y-131954499D01*
X188432936Y-130693566D01*
X188437035Y-129327044D01*
X187917878Y-128062973D01*
X187906203Y-128045501D01*
X187452340Y-127727265D01*
X185179605Y-130000000D01*
X184820395Y-130000000D01*
X182547660Y-127727265D01*
X182093797Y-128045501D01*
X181567064Y-129306434D01*
X181562965Y-130672956D01*
X176341853Y-130672956D01*
X176328327Y-130640302D01*
X176149699Y-130461673D01*
X175916310Y-130365000D01*
X175325750Y-130365000D01*
X175167000Y-130523750D01*
X175167000Y-130651227D01*
X174913000Y-130658053D01*
X174913000Y-130523750D01*
X174754250Y-130365000D01*
X174163690Y-130365000D01*
X174108798Y-130387737D01*
X174134206Y-130326547D01*
X174134774Y-129676306D01*
X173886462Y-129075345D01*
X173635000Y-128823444D01*
X173635000Y-128793089D01*
X173886517Y-128793089D01*
X174015725Y-129085859D01*
X174715883Y-129354071D01*
X175465384Y-129333928D01*
X176064275Y-129085859D01*
X176193483Y-128793089D01*
X175040000Y-127639605D01*
X173886517Y-128793089D01*
X173635000Y-128793089D01*
X173635000Y-128581747D01*
X173706911Y-128613483D01*
X174860395Y-127460000D01*
X175219605Y-127460000D01*
X176373089Y-128613483D01*
X176665859Y-128484275D01*
X176934071Y-127784117D01*
X176927717Y-127547660D01*
X182727265Y-127547660D01*
X185000000Y-129820395D01*
X187272735Y-127547660D01*
X186954499Y-127093797D01*
X185693566Y-126567064D01*
X184327044Y-126562965D01*
X183062973Y-127082122D01*
X183045501Y-127093797D01*
X182727265Y-127547660D01*
X176927717Y-127547660D01*
X176913928Y-127034616D01*
X176665859Y-126435725D01*
X176373089Y-126306517D01*
X175219605Y-127460000D01*
X174860395Y-127460000D01*
X173706911Y-126306517D01*
X173635000Y-126338253D01*
X173635000Y-125797440D01*
X174104329Y-125797440D01*
X174015725Y-125834141D01*
X173886517Y-126126911D01*
X175040000Y-127280395D01*
X176193483Y-126126911D01*
X176064275Y-125834141D01*
X175935994Y-125785000D01*
X176064250Y-125785000D01*
X176223000Y-125626250D01*
X176223000Y-124627000D01*
X176477000Y-124627000D01*
X176477000Y-125626250D01*
X176635750Y-125785000D01*
X177226309Y-125785000D01*
X177459698Y-125688327D01*
X177638327Y-125509699D01*
X177735000Y-125276310D01*
X177735000Y-124785750D01*
X177576250Y-124627000D01*
X176477000Y-124627000D01*
X176223000Y-124627000D01*
X176203000Y-124627000D01*
X176203000Y-124373000D01*
X176223000Y-124373000D01*
X176223000Y-123373750D01*
X176477000Y-123373750D01*
X176477000Y-124373000D01*
X177576250Y-124373000D01*
X177735000Y-124214250D01*
X177735000Y-123723690D01*
X177638327Y-123490301D01*
X177459698Y-123311673D01*
X177226309Y-123215000D01*
X176635750Y-123215000D01*
X176477000Y-123373750D01*
X176223000Y-123373750D01*
X176064250Y-123215000D01*
X175473691Y-123215000D01*
X175240302Y-123311673D01*
X175061673Y-123490301D01*
X175005346Y-123626287D01*
X175003162Y-123614683D01*
X174864090Y-123398559D01*
X174651890Y-123253569D01*
X174400000Y-123202560D01*
X173635000Y-123202560D01*
X173635000Y-123014975D01*
X173746431Y-122851890D01*
X173797440Y-122600000D01*
X173797440Y-121100000D01*
X173753162Y-120864683D01*
X173614090Y-120648559D01*
X173401890Y-120503569D01*
X173388803Y-120500919D01*
X173601441Y-120364090D01*
X173746431Y-120151890D01*
X173797440Y-119900000D01*
X173797440Y-118400000D01*
X173753162Y-118164683D01*
X173635000Y-117981054D01*
X173635000Y-117797440D01*
X174400000Y-117797440D01*
X174635317Y-117753162D01*
X174851441Y-117614090D01*
X174996431Y-117401890D01*
X175003191Y-117368510D01*
X175061673Y-117509699D01*
X175240302Y-117688327D01*
X175473691Y-117785000D01*
X176064250Y-117785000D01*
X176223000Y-117626250D01*
X176223000Y-116627000D01*
X176477000Y-116627000D01*
X176477000Y-117626250D01*
X176635750Y-117785000D01*
X177226309Y-117785000D01*
X177459698Y-117688327D01*
X177638327Y-117509699D01*
X177735000Y-117276310D01*
X177735000Y-116785750D01*
X177576250Y-116627000D01*
X176477000Y-116627000D01*
X176223000Y-116627000D01*
X176203000Y-116627000D01*
X176203000Y-116373000D01*
X176223000Y-116373000D01*
X176223000Y-115373750D01*
X176477000Y-115373750D01*
X176477000Y-116373000D01*
X177576250Y-116373000D01*
X177735000Y-116214250D01*
X177735000Y-115723690D01*
X177638327Y-115490301D01*
X177459698Y-115311673D01*
X177226309Y-115215000D01*
X176635750Y-115215000D01*
X176477000Y-115373750D01*
X176223000Y-115373750D01*
X176064250Y-115215000D01*
X175473691Y-115215000D01*
X175240302Y-115311673D01*
X175061673Y-115490301D01*
X175005346Y-115626287D01*
X175003162Y-115614683D01*
X174864090Y-115398559D01*
X174651890Y-115253569D01*
X174400000Y-115202560D01*
X173635000Y-115202560D01*
X173635000Y-111000000D01*
X173548603Y-110565654D01*
X173302566Y-110197434D01*
X168302566Y-105197434D01*
X168007085Y-105000000D01*
X167934346Y-104951397D01*
X167500000Y-104865000D01*
X165647440Y-104865000D01*
X165647440Y-104500000D01*
X165603162Y-104264683D01*
X165464090Y-104048559D01*
X165251890Y-103903569D01*
X165000000Y-103852560D01*
X162000000Y-103852560D01*
X161933887Y-103865000D01*
X152148222Y-103865000D01*
X152135494Y-103797359D01*
X151888669Y-103413781D01*
X151512056Y-103156452D01*
X151065000Y-103065921D01*
X148065000Y-103065921D01*
X147647359Y-103144506D01*
X147263781Y-103391331D01*
X147006452Y-103767944D01*
X146915921Y-104215000D01*
X146915921Y-107215000D01*
X146994506Y-107632641D01*
X147241331Y-108016219D01*
X147617944Y-108273548D01*
X148065000Y-108364079D01*
X151065000Y-108364079D01*
X151482641Y-108285494D01*
X151716516Y-108135000D01*
X159665017Y-108135000D01*
X159553569Y-108298110D01*
X159502560Y-108550000D01*
X159502560Y-109450000D01*
X159546838Y-109685317D01*
X159685910Y-109901441D01*
X159873000Y-110029274D01*
X159873000Y-112294975D01*
X159834698Y-112256673D01*
X159601309Y-112160000D01*
X158985750Y-112160000D01*
X158827000Y-112318750D01*
X158827000Y-112968000D01*
X158847000Y-112968000D01*
X158847000Y-113222000D01*
X158827000Y-113222000D01*
X158827000Y-113242000D01*
X158573000Y-113242000D01*
X158573000Y-113222000D01*
X157448750Y-113222000D01*
X157290000Y-113380750D01*
X157290000Y-113521310D01*
X157379806Y-113738122D01*
X157328569Y-113813110D01*
X157277560Y-114065000D01*
X157277560Y-114665000D01*
X157321838Y-114900317D01*
X157385678Y-114999528D01*
X157328569Y-115083110D01*
X157277560Y-115335000D01*
X157277560Y-115935000D01*
X157321838Y-116170317D01*
X157385678Y-116269528D01*
X157328569Y-116353110D01*
X157277560Y-116605000D01*
X157277560Y-117205000D01*
X157321838Y-117440317D01*
X157460910Y-117656441D01*
X157673110Y-117801431D01*
X157925000Y-117852440D01*
X158325150Y-117852440D01*
X159533855Y-119061145D01*
X159837191Y-119263827D01*
X160067185Y-119309576D01*
X159948559Y-119385910D01*
X159803569Y-119598110D01*
X159752560Y-119850000D01*
X159752560Y-121150000D01*
X159796838Y-121385317D01*
X159870620Y-121499978D01*
X159803569Y-121598110D01*
X159752560Y-121850000D01*
X159752560Y-123150000D01*
X159796838Y-123385317D01*
X159927405Y-123588224D01*
X159903569Y-123623110D01*
X159852560Y-123875000D01*
X159852560Y-125125000D01*
X159896838Y-125360317D01*
X160035910Y-125576441D01*
X160115000Y-125630481D01*
X160115000Y-128052560D01*
X159000000Y-128052560D01*
X158764683Y-128096838D01*
X158550214Y-128234845D01*
X158508604Y-128025655D01*
X158262566Y-127657434D01*
X155127000Y-124521868D01*
X155127000Y-123560806D01*
X155500000Y-123635000D01*
X155934346Y-123548603D01*
X156302566Y-123302566D01*
X156548603Y-122934346D01*
X156635000Y-122500000D01*
X156635000Y-119105000D01*
X156548603Y-118670654D01*
X156302566Y-118302434D01*
X154722440Y-116722308D01*
X154722440Y-116605000D01*
X154678162Y-116369683D01*
X154627000Y-116290174D01*
X154627000Y-116251917D01*
X154671431Y-116186890D01*
X154722440Y-115935000D01*
X154722440Y-115335000D01*
X154678162Y-115099683D01*
X154627000Y-115020174D01*
X154627000Y-114981917D01*
X154671431Y-114916890D01*
X154722440Y-114665000D01*
X154722440Y-114065000D01*
X154678162Y-113829683D01*
X154627000Y-113750174D01*
X154627000Y-113711917D01*
X154671431Y-113646890D01*
X154722440Y-113395000D01*
X154722440Y-112795000D01*
X154698674Y-112668690D01*
X157290000Y-112668690D01*
X157290000Y-112809250D01*
X157448750Y-112968000D01*
X158573000Y-112968000D01*
X158573000Y-112318750D01*
X158414250Y-112160000D01*
X157798691Y-112160000D01*
X157565302Y-112256673D01*
X157386673Y-112435301D01*
X157290000Y-112668690D01*
X154698674Y-112668690D01*
X154678162Y-112559683D01*
X154539090Y-112343559D01*
X154326890Y-112198569D01*
X154075000Y-112147560D01*
X153199850Y-112147560D01*
X152586145Y-111533855D01*
X152282809Y-111331173D01*
X151925000Y-111260000D01*
X145805000Y-111260000D01*
X145797440Y-111261504D01*
X145797440Y-110600000D01*
X145753162Y-110364683D01*
X145614090Y-110148559D01*
X145401890Y-110003569D01*
X145368510Y-109996809D01*
X145509699Y-109938327D01*
X145688327Y-109759698D01*
X145785000Y-109526309D01*
X145785000Y-108935750D01*
X145626250Y-108777000D01*
X144627000Y-108777000D01*
X144627000Y-108797000D01*
X144373000Y-108797000D01*
X144373000Y-108777000D01*
X143373750Y-108777000D01*
X143215000Y-108935750D01*
X143215000Y-109526309D01*
X143311673Y-109759698D01*
X143490301Y-109938327D01*
X143626287Y-109994654D01*
X143614683Y-109996838D01*
X143398559Y-110135910D01*
X143253569Y-110348110D01*
X143202560Y-110600000D01*
X143202560Y-112100000D01*
X143246838Y-112335317D01*
X143365000Y-112518946D01*
X143365000Y-112865000D01*
X142000000Y-112865000D01*
X141959781Y-112873000D01*
X141099792Y-112873000D01*
X141097440Y-112861174D01*
X141097440Y-112650000D01*
X141053162Y-112414683D01*
X140914090Y-112198559D01*
X140701890Y-112053569D01*
X140450000Y-112002560D01*
X140436087Y-112002560D01*
X140434346Y-112001397D01*
X140138260Y-111942502D01*
X140127000Y-111882661D01*
X140127000Y-110000000D01*
X140116994Y-109950590D01*
X140088553Y-109908965D01*
X140046159Y-109881685D01*
X140000000Y-109873000D01*
X139797440Y-109873000D01*
X139797440Y-109600000D01*
X139753162Y-109364683D01*
X139614090Y-109148559D01*
X139401890Y-109003569D01*
X139368510Y-108996809D01*
X139509699Y-108938327D01*
X139688327Y-108759698D01*
X139785000Y-108526309D01*
X139785000Y-107935750D01*
X139626250Y-107777000D01*
X138627000Y-107777000D01*
X138627000Y-107797000D01*
X138373000Y-107797000D01*
X138373000Y-107777000D01*
X137373750Y-107777000D01*
X137215000Y-107935750D01*
X137215000Y-108526309D01*
X137311673Y-108759698D01*
X137490301Y-108938327D01*
X137626287Y-108994654D01*
X137614683Y-108996838D01*
X137398559Y-109135910D01*
X137253569Y-109348110D01*
X137202560Y-109600000D01*
X137202560Y-110850921D01*
X136000000Y-110850921D01*
X135582359Y-110929506D01*
X135198781Y-111176331D01*
X134941452Y-111552944D01*
X134850921Y-112000000D01*
X134850921Y-115000000D01*
X134929506Y-115417641D01*
X135176331Y-115801219D01*
X135552944Y-116058548D01*
X136000000Y-116149079D01*
X137202560Y-116149079D01*
X137202560Y-116900000D01*
X137246838Y-117135317D01*
X137385910Y-117351441D01*
X137598110Y-117496431D01*
X137631490Y-117503191D01*
X137490301Y-117561673D01*
X137311673Y-117740302D01*
X137215000Y-117973691D01*
X137215000Y-118564250D01*
X137373750Y-118723000D01*
X138373000Y-118723000D01*
X138373000Y-118703000D01*
X138627000Y-118703000D01*
X138627000Y-118723000D01*
X139626250Y-118723000D01*
X139785000Y-118564250D01*
X139785000Y-118535750D01*
X143240000Y-118535750D01*
X143240000Y-119126309D01*
X143336673Y-119359698D01*
X143515301Y-119538327D01*
X143748690Y-119635000D01*
X144214250Y-119635000D01*
X144373000Y-119476250D01*
X144373000Y-118377000D01*
X144627000Y-118377000D01*
X144627000Y-119476250D01*
X144785750Y-119635000D01*
X145251310Y-119635000D01*
X145417950Y-119565975D01*
X145490301Y-119638327D01*
X145723690Y-119735000D01*
X146214250Y-119735000D01*
X146373000Y-119576250D01*
X146373000Y-118477000D01*
X146627000Y-118477000D01*
X146627000Y-119576250D01*
X146785750Y-119735000D01*
X147276310Y-119735000D01*
X147509699Y-119638327D01*
X147688327Y-119459698D01*
X147785000Y-119226309D01*
X147785000Y-118635750D01*
X147626250Y-118477000D01*
X146627000Y-118477000D01*
X146373000Y-118477000D01*
X145701250Y-118477000D01*
X145601250Y-118377000D01*
X144627000Y-118377000D01*
X144373000Y-118377000D01*
X143398750Y-118377000D01*
X143240000Y-118535750D01*
X139785000Y-118535750D01*
X139785000Y-117973691D01*
X139688327Y-117740302D01*
X139509699Y-117561673D01*
X139373713Y-117505346D01*
X139385317Y-117503162D01*
X139601441Y-117364090D01*
X139746431Y-117151890D01*
X139751471Y-117127000D01*
X143349975Y-117127000D01*
X143336673Y-117140302D01*
X143240000Y-117373691D01*
X143240000Y-117964250D01*
X143398750Y-118123000D01*
X144373000Y-118123000D01*
X144373000Y-118103000D01*
X144627000Y-118103000D01*
X144627000Y-118123000D01*
X145273750Y-118123000D01*
X145373750Y-118223000D01*
X146373000Y-118223000D01*
X146373000Y-118203000D01*
X146627000Y-118203000D01*
X146627000Y-118223000D01*
X147626250Y-118223000D01*
X147785000Y-118064250D01*
X147785000Y-117473691D01*
X147688327Y-117240302D01*
X147575026Y-117127000D01*
X148373000Y-117127000D01*
X148373000Y-117312245D01*
X148286173Y-117442191D01*
X148215000Y-117800000D01*
X148215000Y-119237370D01*
X148164683Y-119246838D01*
X147948559Y-119385910D01*
X147803569Y-119598110D01*
X147752560Y-119850000D01*
X147752560Y-121150000D01*
X147796838Y-121385317D01*
X147863328Y-121488646D01*
X147861673Y-121490301D01*
X147765000Y-121723690D01*
X147765000Y-122214250D01*
X147923750Y-122373000D01*
X149023000Y-122373000D01*
X149023000Y-122353000D01*
X149277000Y-122353000D01*
X149277000Y-122373000D01*
X149297000Y-122373000D01*
X149297000Y-122627000D01*
X149277000Y-122627000D01*
X149277000Y-123626250D01*
X149377000Y-123726250D01*
X149377000Y-124373000D01*
X149397000Y-124373000D01*
X149397000Y-124627000D01*
X149377000Y-124627000D01*
X149377000Y-125601250D01*
X149535750Y-125760000D01*
X150126309Y-125760000D01*
X150359698Y-125663327D01*
X150500936Y-125522090D01*
X150535910Y-125576441D01*
X150748110Y-125721431D01*
X151000000Y-125772440D01*
X152500000Y-125772440D01*
X152735317Y-125728162D01*
X152880095Y-125635000D01*
X153029868Y-125635000D01*
X155673136Y-128278268D01*
X155428355Y-128140856D01*
X155300434Y-128109876D01*
X155047000Y-128229223D01*
X155047000Y-129873000D01*
X155067000Y-129873000D01*
X155067000Y-130127000D01*
X155047000Y-130127000D01*
X155047000Y-131770777D01*
X155300434Y-131890124D01*
X155428355Y-131859144D01*
X155986317Y-131545922D01*
X156176781Y-131303812D01*
X156303880Y-131494029D01*
X156834313Y-131848452D01*
X157460000Y-131972909D01*
X158085687Y-131848452D01*
X158444192Y-131608907D01*
X158535910Y-131751441D01*
X158748110Y-131896431D01*
X159000000Y-131947440D01*
X161000000Y-131947440D01*
X161235317Y-131903162D01*
X161451441Y-131764090D01*
X161596431Y-131551890D01*
X161647440Y-131300000D01*
X161647440Y-129957692D01*
X162052566Y-129552566D01*
X162298603Y-129184346D01*
X162376429Y-128793089D01*
X168806517Y-128793089D01*
X168935725Y-129085859D01*
X169635883Y-129354071D01*
X170385384Y-129333928D01*
X170984275Y-129085859D01*
X171113483Y-128793089D01*
X169960000Y-127639605D01*
X168806517Y-128793089D01*
X162376429Y-128793089D01*
X162385000Y-128750000D01*
X162385000Y-127135883D01*
X168065929Y-127135883D01*
X168086072Y-127885384D01*
X168334141Y-128484275D01*
X168626911Y-128613483D01*
X169780395Y-127460000D01*
X168626911Y-126306517D01*
X168334141Y-126435725D01*
X168065929Y-127135883D01*
X162385000Y-127135883D01*
X162385000Y-126126911D01*
X168806517Y-126126911D01*
X169960000Y-127280395D01*
X171113483Y-126126911D01*
X170984275Y-125834141D01*
X170284117Y-125565929D01*
X169534616Y-125586072D01*
X168935725Y-125834141D01*
X168806517Y-126126911D01*
X162385000Y-126126911D01*
X162385000Y-125631844D01*
X162451441Y-125589090D01*
X162497969Y-125520994D01*
X162640302Y-125663327D01*
X162873691Y-125760000D01*
X163464250Y-125760000D01*
X163623000Y-125601250D01*
X163623000Y-124627000D01*
X163877000Y-124627000D01*
X163877000Y-125601250D01*
X164035750Y-125760000D01*
X164626309Y-125760000D01*
X164859698Y-125663327D01*
X165038327Y-125484699D01*
X165135000Y-125251310D01*
X165135000Y-124785750D01*
X164976250Y-124627000D01*
X163877000Y-124627000D01*
X163623000Y-124627000D01*
X163603000Y-124627000D01*
X163603000Y-124373000D01*
X163623000Y-124373000D01*
X163623000Y-123726250D01*
X163723000Y-123626250D01*
X163723000Y-123398750D01*
X163877000Y-123398750D01*
X163877000Y-124373000D01*
X164976250Y-124373000D01*
X165135000Y-124214250D01*
X165135000Y-123748690D01*
X165065975Y-123582050D01*
X165138327Y-123509699D01*
X165235000Y-123276310D01*
X165235000Y-122785750D01*
X165076250Y-122627000D01*
X163977000Y-122627000D01*
X163977000Y-123298750D01*
X163877000Y-123398750D01*
X163723000Y-123398750D01*
X163723000Y-122627000D01*
X163703000Y-122627000D01*
X163703000Y-122373000D01*
X163723000Y-122373000D01*
X163723000Y-122353000D01*
X163977000Y-122353000D01*
X163977000Y-122373000D01*
X165076250Y-122373000D01*
X165235000Y-122214250D01*
X165235000Y-121723690D01*
X165138327Y-121490301D01*
X165136958Y-121488932D01*
X165196431Y-121401890D01*
X165247440Y-121150000D01*
X165247440Y-119850000D01*
X165203162Y-119614683D01*
X165064090Y-119398559D01*
X164851890Y-119253569D01*
X164785000Y-119240023D01*
X164785000Y-118635750D01*
X165215000Y-118635750D01*
X165215000Y-119226309D01*
X165311673Y-119459698D01*
X165490301Y-119638327D01*
X165723690Y-119735000D01*
X166214250Y-119735000D01*
X166373000Y-119576250D01*
X166373000Y-118477000D01*
X166627000Y-118477000D01*
X166627000Y-119576250D01*
X166785750Y-119735000D01*
X167276310Y-119735000D01*
X167509699Y-119638327D01*
X167688327Y-119459698D01*
X167785000Y-119226309D01*
X167785000Y-118635750D01*
X167626250Y-118477000D01*
X166627000Y-118477000D01*
X166373000Y-118477000D01*
X165373750Y-118477000D01*
X165215000Y-118635750D01*
X164785000Y-118635750D01*
X164785000Y-118200000D01*
X164713827Y-117842191D01*
X164697440Y-117817666D01*
X164697440Y-117550000D01*
X164653162Y-117314683D01*
X164532391Y-117127000D01*
X165424974Y-117127000D01*
X165311673Y-117240302D01*
X165215000Y-117473691D01*
X165215000Y-118064250D01*
X165373750Y-118223000D01*
X166373000Y-118223000D01*
X166373000Y-118203000D01*
X166627000Y-118203000D01*
X166627000Y-118223000D01*
X167626250Y-118223000D01*
X167785000Y-118064250D01*
X167785000Y-117473691D01*
X167688327Y-117240302D01*
X167558683Y-117110658D01*
X167591035Y-117088553D01*
X167618315Y-117046159D01*
X167627000Y-117000000D01*
X167627000Y-116826683D01*
X167746431Y-116651890D01*
X167797440Y-116400000D01*
X167797440Y-114900000D01*
X167753162Y-114664683D01*
X167644243Y-114495417D01*
X167735000Y-114276310D01*
X167735000Y-113785750D01*
X167576250Y-113627000D01*
X166477000Y-113627000D01*
X166477000Y-113647000D01*
X166223000Y-113647000D01*
X166223000Y-113627000D01*
X166203000Y-113627000D01*
X166203000Y-113373000D01*
X166223000Y-113373000D01*
X166223000Y-112373750D01*
X166123000Y-112273750D01*
X166123000Y-111627000D01*
X166377000Y-111627000D01*
X166377000Y-112601250D01*
X166477000Y-112701250D01*
X166477000Y-113373000D01*
X167576250Y-113373000D01*
X167735000Y-113214250D01*
X167735000Y-112723690D01*
X167638327Y-112490301D01*
X167565975Y-112417950D01*
X167635000Y-112251310D01*
X167635000Y-111785750D01*
X167476250Y-111627000D01*
X166377000Y-111627000D01*
X166123000Y-111627000D01*
X166103000Y-111627000D01*
X166103000Y-111373000D01*
X166123000Y-111373000D01*
X166123000Y-110398750D01*
X166377000Y-110398750D01*
X166377000Y-111373000D01*
X167476250Y-111373000D01*
X167635000Y-111214250D01*
X167635000Y-110748690D01*
X167538327Y-110515301D01*
X167359698Y-110336673D01*
X167126309Y-110240000D01*
X166535750Y-110240000D01*
X166377000Y-110398750D01*
X166123000Y-110398750D01*
X165964250Y-110240000D01*
X165373691Y-110240000D01*
X165140302Y-110336673D01*
X164999064Y-110477910D01*
X164964090Y-110423559D01*
X164751890Y-110278569D01*
X164627000Y-110253278D01*
X164627000Y-110000000D01*
X164616994Y-109950590D01*
X164588553Y-109908965D01*
X164546159Y-109881685D01*
X164500000Y-109873000D01*
X163329517Y-109873000D01*
X163446431Y-109701890D01*
X163497440Y-109450000D01*
X163497440Y-109436087D01*
X163498603Y-109434346D01*
X163585000Y-109000000D01*
X163585000Y-108147440D01*
X165000000Y-108147440D01*
X165235317Y-108103162D01*
X165451441Y-107964090D01*
X165596431Y-107751890D01*
X165647440Y-107500000D01*
X165647440Y-107135000D01*
X167029868Y-107135000D01*
X171365000Y-111470132D01*
X171365000Y-117985025D01*
X171253569Y-118148110D01*
X171202560Y-118400000D01*
X171202560Y-119900000D01*
X171246838Y-120135317D01*
X171385910Y-120351441D01*
X171598110Y-120496431D01*
X171611197Y-120499081D01*
X171398559Y-120635910D01*
X171253569Y-120848110D01*
X171202560Y-121100000D01*
X171202560Y-122600000D01*
X171246838Y-122835317D01*
X171365000Y-123018946D01*
X171365000Y-126338253D01*
X171293089Y-126306517D01*
X170139605Y-127460000D01*
X171293089Y-128613483D01*
X171365000Y-128581747D01*
X171365000Y-128823516D01*
X171115154Y-129072927D01*
X170865794Y-129673453D01*
X170865226Y-130323694D01*
X170891788Y-130387980D01*
X170836310Y-130365000D01*
X170245750Y-130365000D01*
X170087000Y-130523750D01*
X170087000Y-130651227D01*
X169833000Y-130658053D01*
X169833000Y-130523750D01*
X169674250Y-130365000D01*
X169083690Y-130365000D01*
X168850301Y-130461673D01*
X168671673Y-130640302D01*
X168575000Y-130873691D01*
X168575000Y-131210962D01*
X168513177Y-131272785D01*
X168575000Y-131334608D01*
X168575000Y-131409427D01*
X168334141Y-131515725D01*
X168065929Y-132215883D01*
X168086072Y-132965384D01*
X168334141Y-133564275D01*
X168575000Y-133670573D01*
X168575000Y-133745392D01*
X168513177Y-133807215D01*
X168575000Y-133869038D01*
X168575000Y-134290000D01*
X140925000Y-134290000D01*
X140925000Y-133869038D01*
X140986823Y-133807215D01*
X140925000Y-133745392D01*
X140925000Y-133670573D01*
X141165859Y-133564275D01*
X141434071Y-132864117D01*
X141413928Y-132114616D01*
X141165859Y-131515725D01*
X140925000Y-131409427D01*
X140925000Y-131334608D01*
X140986823Y-131272785D01*
X140925000Y-131210962D01*
X140925000Y-130873691D01*
X140828327Y-130640302D01*
X140649699Y-130461673D01*
X140416310Y-130365000D01*
X139825750Y-130365000D01*
X139667000Y-130523750D01*
X139667000Y-130651227D01*
X139413000Y-130658053D01*
X139413000Y-130523750D01*
X139254250Y-130365000D01*
X138663690Y-130365000D01*
X138608798Y-130387737D01*
X138634206Y-130326547D01*
X138634774Y-129676306D01*
X138628901Y-129662091D01*
X148205000Y-129662091D01*
X148205000Y-130337909D01*
X148329457Y-130963596D01*
X148683880Y-131494029D01*
X149214313Y-131848452D01*
X149840000Y-131972909D01*
X150465687Y-131848452D01*
X150996120Y-131494029D01*
X151110000Y-131323595D01*
X151223880Y-131494029D01*
X151754313Y-131848452D01*
X152380000Y-131972909D01*
X153005687Y-131848452D01*
X153536120Y-131494029D01*
X153663219Y-131303812D01*
X153853683Y-131545922D01*
X154411645Y-131859144D01*
X154539566Y-131890124D01*
X154793000Y-131770777D01*
X154793000Y-130127000D01*
X154773000Y-130127000D01*
X154773000Y-129873000D01*
X154793000Y-129873000D01*
X154793000Y-128229223D01*
X154539566Y-128109876D01*
X154411645Y-128140856D01*
X153853683Y-128454078D01*
X153663219Y-128696188D01*
X153536120Y-128505971D01*
X153005687Y-128151548D01*
X152380000Y-128027091D01*
X151754313Y-128151548D01*
X151223880Y-128505971D01*
X151110000Y-128676405D01*
X150996120Y-128505971D01*
X150465687Y-128151548D01*
X149840000Y-128027091D01*
X149214313Y-128151548D01*
X148683880Y-128505971D01*
X148329457Y-129036404D01*
X148205000Y-129662091D01*
X138628901Y-129662091D01*
X138435000Y-129192816D01*
X138435000Y-128902946D01*
X138515725Y-129085859D01*
X139215883Y-129354071D01*
X139965384Y-129333928D01*
X140564275Y-129085859D01*
X140693483Y-128793089D01*
X139540000Y-127639605D01*
X139525858Y-127653748D01*
X139346252Y-127474142D01*
X139360395Y-127460000D01*
X139719605Y-127460000D01*
X140873089Y-128613483D01*
X141165859Y-128484275D01*
X141434071Y-127784117D01*
X141413928Y-127034616D01*
X141165859Y-126435725D01*
X140873089Y-126306517D01*
X139719605Y-127460000D01*
X139360395Y-127460000D01*
X139346252Y-127445858D01*
X139525858Y-127266252D01*
X139540000Y-127280395D01*
X140693483Y-126126911D01*
X140564275Y-125834141D01*
X139864117Y-125565929D01*
X139114616Y-125586072D01*
X138515725Y-125834141D01*
X138435000Y-126017054D01*
X138435000Y-124785750D01*
X147865000Y-124785750D01*
X147865000Y-125251310D01*
X147961673Y-125484699D01*
X148140302Y-125663327D01*
X148373691Y-125760000D01*
X148964250Y-125760000D01*
X149123000Y-125601250D01*
X149123000Y-124627000D01*
X148023750Y-124627000D01*
X147865000Y-124785750D01*
X138435000Y-124785750D01*
X138435000Y-124000000D01*
X138325767Y-123450849D01*
X138274251Y-123373750D01*
X138014698Y-122985301D01*
X137815147Y-122785750D01*
X147765000Y-122785750D01*
X147765000Y-123276310D01*
X147861673Y-123509699D01*
X147934025Y-123582050D01*
X147865000Y-123748690D01*
X147865000Y-124214250D01*
X148023750Y-124373000D01*
X149123000Y-124373000D01*
X149123000Y-123398750D01*
X149023000Y-123298750D01*
X149023000Y-122627000D01*
X147923750Y-122627000D01*
X147765000Y-122785750D01*
X137815147Y-122785750D01*
X134514698Y-119485302D01*
X134384878Y-119398559D01*
X134049151Y-119174233D01*
X133855685Y-119135750D01*
X137215000Y-119135750D01*
X137215000Y-119726309D01*
X137311673Y-119959698D01*
X137490301Y-120138327D01*
X137723690Y-120235000D01*
X138214250Y-120235000D01*
X138373000Y-120076250D01*
X138373000Y-118977000D01*
X138627000Y-118977000D01*
X138627000Y-120076250D01*
X138785750Y-120235000D01*
X139276310Y-120235000D01*
X139509699Y-120138327D01*
X139688327Y-119959698D01*
X139785000Y-119726309D01*
X139785000Y-119135750D01*
X139626250Y-118977000D01*
X138627000Y-118977000D01*
X138373000Y-118977000D01*
X137373750Y-118977000D01*
X137215000Y-119135750D01*
X133855685Y-119135750D01*
X133500000Y-119065000D01*
X126095000Y-119065000D01*
X126095000Y-118506854D01*
X126194733Y-118266670D01*
X126195265Y-117656009D01*
X125962068Y-117091629D01*
X125530643Y-116659449D01*
X124966670Y-116425267D01*
X124356009Y-116424735D01*
X123791629Y-116657932D01*
X123389677Y-117059182D01*
X122990643Y-116659449D01*
X122426670Y-116425267D01*
X121816009Y-116424735D01*
X121251629Y-116657932D01*
X120849677Y-117059182D01*
X120450643Y-116659449D01*
X119886670Y-116425267D01*
X119276009Y-116424735D01*
X118711629Y-116657932D01*
X118279449Y-117089357D01*
X118045267Y-117653330D01*
X118044735Y-118263991D01*
X118145000Y-118506651D01*
X118145000Y-119065000D01*
X115565784Y-119065000D01*
X115800551Y-118830643D01*
X116034733Y-118266670D01*
X116035265Y-117656009D01*
X115802068Y-117091629D01*
X115370643Y-116659449D01*
X114806670Y-116425267D01*
X114196009Y-116424735D01*
X113631629Y-116657932D01*
X113199449Y-117089357D01*
X112965267Y-117653330D01*
X112964735Y-118263991D01*
X113197932Y-118828371D01*
X113434148Y-119065000D01*
X110500000Y-119065000D01*
X109950849Y-119174233D01*
X109485301Y-119485302D01*
X105985303Y-122985301D01*
X105985302Y-122985302D01*
X105674233Y-123450849D01*
X105565000Y-124000000D01*
X105565000Y-126017054D01*
X105484275Y-125834141D01*
X104784117Y-125565929D01*
X104034616Y-125586072D01*
X103435725Y-125834141D01*
X103306517Y-126126911D01*
X104460000Y-127280395D01*
X104474142Y-127266252D01*
X104653748Y-127445858D01*
X104639605Y-127460000D01*
X104653748Y-127474142D01*
X104474142Y-127653748D01*
X104460000Y-127639605D01*
X103306517Y-128793089D01*
X103435725Y-129085859D01*
X104135883Y-129354071D01*
X104885384Y-129333928D01*
X105484275Y-129085859D01*
X105565000Y-128902946D01*
X105565000Y-129193711D01*
X105365794Y-129673453D01*
X105365226Y-130323694D01*
X105391788Y-130387980D01*
X105336310Y-130365000D01*
X104745750Y-130365000D01*
X104587000Y-130523750D01*
X104587000Y-130651227D01*
X104333000Y-130658053D01*
X104333000Y-130523750D01*
X104174250Y-130365000D01*
X103583690Y-130365000D01*
X103350301Y-130461673D01*
X103171673Y-130640302D01*
X103075000Y-130873691D01*
X103075000Y-131210962D01*
X103013177Y-131272785D01*
X103075000Y-131334608D01*
X103075000Y-131409427D01*
X102834141Y-131515725D01*
X102565929Y-132215883D01*
X102586072Y-132965384D01*
X102834141Y-133564275D01*
X103075000Y-133670573D01*
X103075000Y-133745392D01*
X103013177Y-133807215D01*
X103075000Y-133869038D01*
X103075000Y-134290000D01*
X90710000Y-134290000D01*
X90710000Y-132452340D01*
X92727265Y-132452340D01*
X93045501Y-132906203D01*
X94306434Y-133432936D01*
X95672956Y-133437035D01*
X96937027Y-132917878D01*
X96954499Y-132906203D01*
X97272735Y-132452340D01*
X95000000Y-130179605D01*
X92727265Y-132452340D01*
X90710000Y-132452340D01*
X90710000Y-130672956D01*
X91562965Y-130672956D01*
X92082122Y-131937027D01*
X92093797Y-131954499D01*
X92547660Y-132272735D01*
X94820395Y-130000000D01*
X95179605Y-130000000D01*
X97452340Y-132272735D01*
X97906203Y-131954499D01*
X98432936Y-130693566D01*
X98437035Y-129327044D01*
X97917878Y-128062973D01*
X97906203Y-128045501D01*
X97452340Y-127727265D01*
X95179605Y-130000000D01*
X94820395Y-130000000D01*
X92547660Y-127727265D01*
X92093797Y-128045501D01*
X91567064Y-129306434D01*
X91562965Y-130672956D01*
X90710000Y-130672956D01*
X90710000Y-127547660D01*
X92727265Y-127547660D01*
X95000000Y-129820395D01*
X97272735Y-127547660D01*
X96984009Y-127135883D01*
X102565929Y-127135883D01*
X102586072Y-127885384D01*
X102834141Y-128484275D01*
X103126911Y-128613483D01*
X104280395Y-127460000D01*
X103126911Y-126306517D01*
X102834141Y-126435725D01*
X102565929Y-127135883D01*
X96984009Y-127135883D01*
X96954499Y-127093797D01*
X95693566Y-126567064D01*
X94327044Y-126562965D01*
X93062973Y-127082122D01*
X93045501Y-127093797D01*
X92727265Y-127547660D01*
X90710000Y-127547660D01*
X90710000Y-108925000D01*
X91130962Y-108925000D01*
X91192785Y-108986823D01*
X91254608Y-108925000D01*
X91329427Y-108925000D01*
X91435725Y-109165859D01*
X92135883Y-109434071D01*
X92885384Y-109413928D01*
X93484275Y-109165859D01*
X93590573Y-108925000D01*
X93665392Y-108925000D01*
X93727215Y-108986823D01*
X93789038Y-108925000D01*
X94126309Y-108925000D01*
X94359698Y-108828327D01*
X94538327Y-108649699D01*
X94635000Y-108416310D01*
X94635000Y-107825750D01*
X94476250Y-107667000D01*
X94348773Y-107667000D01*
X94341947Y-107413000D01*
X94476250Y-107413000D01*
X94635000Y-107254250D01*
X94635000Y-106663690D01*
X94612263Y-106608798D01*
X94673453Y-106634206D01*
X95323694Y-106634774D01*
X95807184Y-106435000D01*
X96097054Y-106435000D01*
X95914141Y-106515725D01*
X95645929Y-107215883D01*
X95666072Y-107965384D01*
X95914141Y-108564275D01*
X96206911Y-108693483D01*
X96873000Y-108027395D01*
X96873000Y-108386606D01*
X96386517Y-108873089D01*
X96515725Y-109165859D01*
X97215883Y-109434071D01*
X97965384Y-109413928D01*
X98564275Y-109165859D01*
X98581425Y-109127000D01*
X107000000Y-109127000D01*
X107049410Y-109116994D01*
X107089803Y-109089803D01*
X107557292Y-108622314D01*
X128557291Y-108622314D01*
X128735379Y-108956666D01*
X129580426Y-109291673D01*
X130489350Y-109277794D01*
X131264621Y-108956666D01*
X131442709Y-108622314D01*
X130000000Y-107179605D01*
X128557291Y-108622314D01*
X107557292Y-108622314D01*
X109599180Y-106580426D01*
X127708327Y-106580426D01*
X127722206Y-107489350D01*
X128043334Y-108264621D01*
X128377686Y-108442709D01*
X129820395Y-107000000D01*
X130179605Y-107000000D01*
X131622314Y-108442709D01*
X131956666Y-108264621D01*
X132151288Y-107773691D01*
X143215000Y-107773691D01*
X143215000Y-108364250D01*
X143373750Y-108523000D01*
X144373000Y-108523000D01*
X144373000Y-107423750D01*
X144627000Y-107423750D01*
X144627000Y-108523000D01*
X145626250Y-108523000D01*
X145785000Y-108364250D01*
X145785000Y-107773691D01*
X145688327Y-107540302D01*
X145509699Y-107361673D01*
X145276310Y-107265000D01*
X144785750Y-107265000D01*
X144627000Y-107423750D01*
X144373000Y-107423750D01*
X144214250Y-107265000D01*
X143723690Y-107265000D01*
X143490301Y-107361673D01*
X143311673Y-107540302D01*
X143215000Y-107773691D01*
X132151288Y-107773691D01*
X132291673Y-107419574D01*
X132281811Y-106773691D01*
X137215000Y-106773691D01*
X137215000Y-107364250D01*
X137373750Y-107523000D01*
X138373000Y-107523000D01*
X138373000Y-106423750D01*
X138627000Y-106423750D01*
X138627000Y-107523000D01*
X139626250Y-107523000D01*
X139785000Y-107364250D01*
X139785000Y-106773691D01*
X139688327Y-106540302D01*
X139509699Y-106361673D01*
X139276310Y-106265000D01*
X138785750Y-106265000D01*
X138627000Y-106423750D01*
X138373000Y-106423750D01*
X138214250Y-106265000D01*
X137723690Y-106265000D01*
X137490301Y-106361673D01*
X137311673Y-106540302D01*
X137215000Y-106773691D01*
X132281811Y-106773691D01*
X132277794Y-106510650D01*
X131956666Y-105735379D01*
X131622314Y-105557291D01*
X130179605Y-107000000D01*
X129820395Y-107000000D01*
X128377686Y-105557291D01*
X128043334Y-105735379D01*
X127708327Y-106580426D01*
X109599180Y-106580426D01*
X110801920Y-105377686D01*
X128557291Y-105377686D01*
X130000000Y-106820395D01*
X131442709Y-105377686D01*
X131264621Y-105043334D01*
X130419574Y-104708327D01*
X129510650Y-104722206D01*
X128735379Y-105043334D01*
X128557291Y-105377686D01*
X110801920Y-105377686D01*
X112052606Y-104127000D01*
X127000000Y-104127000D01*
X127049410Y-104116994D01*
X127089803Y-104089803D01*
X132052606Y-99127000D01*
X172873000Y-99127000D01*
X172873000Y-104000000D01*
G36*
X135565000Y-124594397D02*
X135565000Y-126017054D01*
X135484275Y-125834141D01*
X134784117Y-125565929D01*
X134034616Y-125586072D01*
X133435725Y-125834141D01*
X133306517Y-126126911D01*
X134460000Y-127280395D01*
X134474142Y-127266252D01*
X134653748Y-127445858D01*
X134639605Y-127460000D01*
X134653748Y-127474142D01*
X134474142Y-127653748D01*
X134460000Y-127639605D01*
X133306517Y-128793089D01*
X133435725Y-129085859D01*
X134135883Y-129354071D01*
X134885384Y-129333928D01*
X135484275Y-129085859D01*
X135565000Y-128902946D01*
X135565000Y-129193711D01*
X135365794Y-129673453D01*
X135365226Y-130323694D01*
X135391788Y-130387980D01*
X135336310Y-130365000D01*
X134745750Y-130365000D01*
X134587000Y-130523750D01*
X134587000Y-130651227D01*
X134333000Y-130658053D01*
X134333000Y-130523750D01*
X134174250Y-130365000D01*
X133583690Y-130365000D01*
X133350301Y-130461673D01*
X133171673Y-130640302D01*
X133075000Y-130873691D01*
X133075000Y-131210962D01*
X133013177Y-131272785D01*
X133075000Y-131334608D01*
X133075000Y-131409427D01*
X132834141Y-131515725D01*
X132565929Y-132215883D01*
X132586072Y-132965384D01*
X132834141Y-133564275D01*
X133075000Y-133670573D01*
X133075000Y-133745392D01*
X133013177Y-133807215D01*
X133075000Y-133869038D01*
X133075000Y-134290000D01*
X125925000Y-134290000D01*
X125925000Y-133869038D01*
X125986823Y-133807215D01*
X125925000Y-133745392D01*
X125925000Y-133670573D01*
X126165859Y-133564275D01*
X126434071Y-132864117D01*
X126413928Y-132114616D01*
X126165859Y-131515725D01*
X125925000Y-131409427D01*
X125925000Y-131334608D01*
X125986823Y-131272785D01*
X125925000Y-131210962D01*
X125925000Y-130873691D01*
X125828327Y-130640302D01*
X125649699Y-130461673D01*
X125416310Y-130365000D01*
X124825750Y-130365000D01*
X124667000Y-130523750D01*
X124667000Y-130651227D01*
X124413000Y-130658053D01*
X124413000Y-130523750D01*
X124254250Y-130365000D01*
X123663690Y-130365000D01*
X123608798Y-130387737D01*
X123634206Y-130326547D01*
X123634774Y-129676306D01*
X123435000Y-129192816D01*
X123435000Y-128902946D01*
X123515725Y-129085859D01*
X124215883Y-129354071D01*
X124965384Y-129333928D01*
X125564275Y-129085859D01*
X125693483Y-128793089D01*
X124540000Y-127639605D01*
X124525858Y-127653748D01*
X124346252Y-127474142D01*
X124360395Y-127460000D01*
X124719605Y-127460000D01*
X125873089Y-128613483D01*
X126165859Y-128484275D01*
X126434071Y-127784117D01*
X126416650Y-127135883D01*
X132565929Y-127135883D01*
X132586072Y-127885384D01*
X132834141Y-128484275D01*
X133126911Y-128613483D01*
X134280395Y-127460000D01*
X133126911Y-126306517D01*
X132834141Y-126435725D01*
X132565929Y-127135883D01*
X126416650Y-127135883D01*
X126413928Y-127034616D01*
X126165859Y-126435725D01*
X125873089Y-126306517D01*
X124719605Y-127460000D01*
X124360395Y-127460000D01*
X124346252Y-127445858D01*
X124525858Y-127266252D01*
X124540000Y-127280395D01*
X125693483Y-126126911D01*
X125564275Y-125834141D01*
X124864117Y-125565929D01*
X124114616Y-125586072D01*
X123515725Y-125834141D01*
X123435000Y-126017054D01*
X123435000Y-123985574D01*
X123789357Y-124340551D01*
X124353330Y-124574733D01*
X124963991Y-124575265D01*
X125528371Y-124342068D01*
X125960551Y-123910643D01*
X126194733Y-123346670D01*
X126195265Y-122736009D01*
X126095000Y-122493349D01*
X126095000Y-121935000D01*
X132905604Y-121935000D01*
X135565000Y-124594397D01*
X135565000Y-124594397D01*
G37*
X135565000Y-124594397D02*
X135565000Y-126017054D01*
X135484275Y-125834141D01*
X134784117Y-125565929D01*
X134034616Y-125586072D01*
X133435725Y-125834141D01*
X133306517Y-126126911D01*
X134460000Y-127280395D01*
X134474142Y-127266252D01*
X134653748Y-127445858D01*
X134639605Y-127460000D01*
X134653748Y-127474142D01*
X134474142Y-127653748D01*
X134460000Y-127639605D01*
X133306517Y-128793089D01*
X133435725Y-129085859D01*
X134135883Y-129354071D01*
X134885384Y-129333928D01*
X135484275Y-129085859D01*
X135565000Y-128902946D01*
X135565000Y-129193711D01*
X135365794Y-129673453D01*
X135365226Y-130323694D01*
X135391788Y-130387980D01*
X135336310Y-130365000D01*
X134745750Y-130365000D01*
X134587000Y-130523750D01*
X134587000Y-130651227D01*
X134333000Y-130658053D01*
X134333000Y-130523750D01*
X134174250Y-130365000D01*
X133583690Y-130365000D01*
X133350301Y-130461673D01*
X133171673Y-130640302D01*
X133075000Y-130873691D01*
X133075000Y-131210962D01*
X133013177Y-131272785D01*
X133075000Y-131334608D01*
X133075000Y-131409427D01*
X132834141Y-131515725D01*
X132565929Y-132215883D01*
X132586072Y-132965384D01*
X132834141Y-133564275D01*
X133075000Y-133670573D01*
X133075000Y-133745392D01*
X133013177Y-133807215D01*
X133075000Y-133869038D01*
X133075000Y-134290000D01*
X125925000Y-134290000D01*
X125925000Y-133869038D01*
X125986823Y-133807215D01*
X125925000Y-133745392D01*
X125925000Y-133670573D01*
X126165859Y-133564275D01*
X126434071Y-132864117D01*
X126413928Y-132114616D01*
X126165859Y-131515725D01*
X125925000Y-131409427D01*
X125925000Y-131334608D01*
X125986823Y-131272785D01*
X125925000Y-131210962D01*
X125925000Y-130873691D01*
X125828327Y-130640302D01*
X125649699Y-130461673D01*
X125416310Y-130365000D01*
X124825750Y-130365000D01*
X124667000Y-130523750D01*
X124667000Y-130651227D01*
X124413000Y-130658053D01*
X124413000Y-130523750D01*
X124254250Y-130365000D01*
X123663690Y-130365000D01*
X123608798Y-130387737D01*
X123634206Y-130326547D01*
X123634774Y-129676306D01*
X123435000Y-129192816D01*
X123435000Y-128902946D01*
X123515725Y-129085859D01*
X124215883Y-129354071D01*
X124965384Y-129333928D01*
X125564275Y-129085859D01*
X125693483Y-128793089D01*
X124540000Y-127639605D01*
X124525858Y-127653748D01*
X124346252Y-127474142D01*
X124360395Y-127460000D01*
X124719605Y-127460000D01*
X125873089Y-128613483D01*
X126165859Y-128484275D01*
X126434071Y-127784117D01*
X126416650Y-127135883D01*
X132565929Y-127135883D01*
X132586072Y-127885384D01*
X132834141Y-128484275D01*
X133126911Y-128613483D01*
X134280395Y-127460000D01*
X133126911Y-126306517D01*
X132834141Y-126435725D01*
X132565929Y-127135883D01*
X126416650Y-127135883D01*
X126413928Y-127034616D01*
X126165859Y-126435725D01*
X125873089Y-126306517D01*
X124719605Y-127460000D01*
X124360395Y-127460000D01*
X124346252Y-127445858D01*
X124525858Y-127266252D01*
X124540000Y-127280395D01*
X125693483Y-126126911D01*
X125564275Y-125834141D01*
X124864117Y-125565929D01*
X124114616Y-125586072D01*
X123515725Y-125834141D01*
X123435000Y-126017054D01*
X123435000Y-123985574D01*
X123789357Y-124340551D01*
X124353330Y-124574733D01*
X124963991Y-124575265D01*
X125528371Y-124342068D01*
X125960551Y-123910643D01*
X126194733Y-123346670D01*
X126195265Y-122736009D01*
X126095000Y-122493349D01*
X126095000Y-121935000D01*
X132905604Y-121935000D01*
X135565000Y-124594397D01*
G36*
X175167000Y-132459110D02*
X175167000Y-132620890D01*
X175054143Y-132733748D01*
X175040000Y-132719605D01*
X175025858Y-132733748D01*
X174913000Y-132620890D01*
X174913000Y-132459110D01*
X175025858Y-132346253D01*
X175040000Y-132360395D01*
X175054143Y-132346253D01*
X175167000Y-132459110D01*
X175167000Y-132459110D01*
G37*
X175167000Y-132459110D02*
X175167000Y-132620890D01*
X175054143Y-132733748D01*
X175040000Y-132719605D01*
X175025858Y-132733748D01*
X174913000Y-132620890D01*
X174913000Y-132459110D01*
X175025858Y-132346253D01*
X175040000Y-132360395D01*
X175054143Y-132346253D01*
X175167000Y-132459110D01*
G36*
X104587000Y-132459110D02*
X104587000Y-132620890D01*
X104474143Y-132733748D01*
X104460000Y-132719605D01*
X104445858Y-132733748D01*
X104333000Y-132620890D01*
X104333000Y-132459110D01*
X104445858Y-132346253D01*
X104460000Y-132360395D01*
X104474143Y-132346253D01*
X104587000Y-132459110D01*
X104587000Y-132459110D01*
G37*
X104587000Y-132459110D02*
X104587000Y-132620890D01*
X104474143Y-132733748D01*
X104460000Y-132719605D01*
X104445858Y-132733748D01*
X104333000Y-132620890D01*
X104333000Y-132459110D01*
X104445858Y-132346253D01*
X104460000Y-132360395D01*
X104474143Y-132346253D01*
X104587000Y-132459110D01*
G36*
X109667000Y-132459110D02*
X109667000Y-132620890D01*
X109554143Y-132733748D01*
X109540000Y-132719605D01*
X109525858Y-132733748D01*
X109413000Y-132620890D01*
X109413000Y-132459110D01*
X109525858Y-132346253D01*
X109540000Y-132360395D01*
X109554143Y-132346253D01*
X109667000Y-132459110D01*
X109667000Y-132459110D01*
G37*
X109667000Y-132459110D02*
X109667000Y-132620890D01*
X109554143Y-132733748D01*
X109540000Y-132719605D01*
X109525858Y-132733748D01*
X109413000Y-132620890D01*
X109413000Y-132459110D01*
X109525858Y-132346253D01*
X109540000Y-132360395D01*
X109554143Y-132346253D01*
X109667000Y-132459110D01*
G36*
X119587000Y-132459110D02*
X119587000Y-132620890D01*
X119474143Y-132733748D01*
X119460000Y-132719605D01*
X119445858Y-132733748D01*
X119333000Y-132620890D01*
X119333000Y-132459110D01*
X119445858Y-132346253D01*
X119460000Y-132360395D01*
X119474143Y-132346253D01*
X119587000Y-132459110D01*
X119587000Y-132459110D01*
G37*
X119587000Y-132459110D02*
X119587000Y-132620890D01*
X119474143Y-132733748D01*
X119460000Y-132719605D01*
X119445858Y-132733748D01*
X119333000Y-132620890D01*
X119333000Y-132459110D01*
X119445858Y-132346253D01*
X119460000Y-132360395D01*
X119474143Y-132346253D01*
X119587000Y-132459110D01*
G36*
X124667000Y-132459110D02*
X124667000Y-132620890D01*
X124554143Y-132733748D01*
X124540000Y-132719605D01*
X124525858Y-132733748D01*
X124413000Y-132620890D01*
X124413000Y-132459110D01*
X124525858Y-132346253D01*
X124540000Y-132360395D01*
X124554143Y-132346253D01*
X124667000Y-132459110D01*
X124667000Y-132459110D01*
G37*
X124667000Y-132459110D02*
X124667000Y-132620890D01*
X124554143Y-132733748D01*
X124540000Y-132719605D01*
X124525858Y-132733748D01*
X124413000Y-132620890D01*
X124413000Y-132459110D01*
X124525858Y-132346253D01*
X124540000Y-132360395D01*
X124554143Y-132346253D01*
X124667000Y-132459110D01*
G36*
X134587000Y-132459110D02*
X134587000Y-132620890D01*
X134474143Y-132733748D01*
X134460000Y-132719605D01*
X134445858Y-132733748D01*
X134333000Y-132620890D01*
X134333000Y-132459110D01*
X134445858Y-132346253D01*
X134460000Y-132360395D01*
X134474143Y-132346253D01*
X134587000Y-132459110D01*
X134587000Y-132459110D01*
G37*
X134587000Y-132459110D02*
X134587000Y-132620890D01*
X134474143Y-132733748D01*
X134460000Y-132719605D01*
X134445858Y-132733748D01*
X134333000Y-132620890D01*
X134333000Y-132459110D01*
X134445858Y-132346253D01*
X134460000Y-132360395D01*
X134474143Y-132346253D01*
X134587000Y-132459110D01*
G36*
X170087000Y-132459110D02*
X170087000Y-132620890D01*
X169974143Y-132733748D01*
X169960000Y-132719605D01*
X169945858Y-132733748D01*
X169833000Y-132620890D01*
X169833000Y-132459110D01*
X169945858Y-132346253D01*
X169960000Y-132360395D01*
X169974143Y-132346253D01*
X170087000Y-132459110D01*
X170087000Y-132459110D01*
G37*
X170087000Y-132459110D02*
X170087000Y-132620890D01*
X169974143Y-132733748D01*
X169960000Y-132719605D01*
X169945858Y-132733748D01*
X169833000Y-132620890D01*
X169833000Y-132459110D01*
X169945858Y-132346253D01*
X169960000Y-132360395D01*
X169974143Y-132346253D01*
X170087000Y-132459110D01*
G36*
X139667000Y-132459110D02*
X139667000Y-132620890D01*
X139554143Y-132733748D01*
X139540000Y-132719605D01*
X139525858Y-132733748D01*
X139413000Y-132620890D01*
X139413000Y-132459110D01*
X139525858Y-132346253D01*
X139540000Y-132360395D01*
X139554143Y-132346253D01*
X139667000Y-132459110D01*
X139667000Y-132459110D01*
G37*
X139667000Y-132459110D02*
X139667000Y-132620890D01*
X139554143Y-132733748D01*
X139540000Y-132719605D01*
X139525858Y-132733748D01*
X139413000Y-132620890D01*
X139413000Y-132459110D01*
X139525858Y-132346253D01*
X139540000Y-132360395D01*
X139554143Y-132346253D01*
X139667000Y-132459110D01*
G36*
X187733748Y-107525858D02*
X187719605Y-107540000D01*
X187733748Y-107554143D01*
X187620890Y-107667000D01*
X187459110Y-107667000D01*
X187346253Y-107554143D01*
X187360395Y-107540000D01*
X187346253Y-107525858D01*
X187459110Y-107413000D01*
X187620890Y-107413000D01*
X187733748Y-107525858D01*
X187733748Y-107525858D01*
G37*
X187733748Y-107525858D02*
X187719605Y-107540000D01*
X187733748Y-107554143D01*
X187620890Y-107667000D01*
X187459110Y-107667000D01*
X187346253Y-107554143D01*
X187360395Y-107540000D01*
X187346253Y-107525858D01*
X187459110Y-107413000D01*
X187620890Y-107413000D01*
X187733748Y-107525858D01*
G36*
X92653748Y-107525858D02*
X92639605Y-107540000D01*
X92653748Y-107554143D01*
X92540890Y-107667000D01*
X92379110Y-107667000D01*
X92266253Y-107554143D01*
X92280395Y-107540000D01*
X92266253Y-107525858D01*
X92379110Y-107413000D01*
X92540890Y-107413000D01*
X92653748Y-107525858D01*
X92653748Y-107525858D01*
G37*
X92653748Y-107525858D02*
X92639605Y-107540000D01*
X92653748Y-107554143D01*
X92540890Y-107667000D01*
X92379110Y-107667000D01*
X92266253Y-107554143D01*
X92280395Y-107540000D01*
X92266253Y-107525858D01*
X92379110Y-107413000D01*
X92540890Y-107413000D01*
X92653748Y-107525858D01*
G36*
X189290000Y-101075000D02*
X188869038Y-101075000D01*
X188807215Y-101013177D01*
X188745392Y-101075000D01*
X188670573Y-101075000D01*
X188564275Y-100834141D01*
X187864117Y-100565929D01*
X187114616Y-100586072D01*
X186515725Y-100834141D01*
X186409427Y-101075000D01*
X186334608Y-101075000D01*
X186272785Y-101013177D01*
X186210962Y-101075000D01*
X185873691Y-101075000D01*
X185640302Y-101171673D01*
X185461673Y-101350301D01*
X185365000Y-101583690D01*
X185365000Y-102174250D01*
X185523750Y-102333000D01*
X185651227Y-102333000D01*
X185658053Y-102587000D01*
X185523750Y-102587000D01*
X185365000Y-102745750D01*
X185365000Y-103336310D01*
X185387737Y-103391202D01*
X185326547Y-103365794D01*
X184676306Y-103365226D01*
X184192816Y-103565000D01*
X183902946Y-103565000D01*
X184085859Y-103484275D01*
X184354071Y-102784117D01*
X184333928Y-102034616D01*
X184085859Y-101435725D01*
X183793089Y-101306517D01*
X182639606Y-102460000D01*
X182460000Y-102280394D01*
X183613483Y-101126911D01*
X183484275Y-100834141D01*
X182784117Y-100565929D01*
X182034616Y-100586072D01*
X181435725Y-100834141D01*
X181306518Y-101126910D01*
X181192785Y-101013177D01*
X181192784Y-101013178D01*
X180127000Y-99947394D01*
X180127000Y-92452340D01*
X182727265Y-92452340D01*
X183045501Y-92906203D01*
X184306434Y-93432936D01*
X185672956Y-93437035D01*
X186937027Y-92917878D01*
X186954499Y-92906203D01*
X187272735Y-92452340D01*
X185000000Y-90179605D01*
X182727265Y-92452340D01*
X180127000Y-92452340D01*
X180127000Y-91000000D01*
X180116994Y-90950590D01*
X180088553Y-90908965D01*
X180046159Y-90881685D01*
X180000000Y-90873000D01*
X146283327Y-90873000D01*
X146280273Y-90672956D01*
X181562965Y-90672956D01*
X182082122Y-91937027D01*
X182093797Y-91954499D01*
X182547660Y-92272735D01*
X184820395Y-90000000D01*
X185179605Y-90000000D01*
X187452340Y-92272735D01*
X187906203Y-91954499D01*
X188432936Y-90693566D01*
X188437035Y-89327044D01*
X187917878Y-88062973D01*
X187906203Y-88045501D01*
X187452340Y-87727265D01*
X185179605Y-90000000D01*
X184820395Y-90000000D01*
X182547660Y-87727265D01*
X182093797Y-88045501D01*
X181567064Y-89306434D01*
X181562965Y-90672956D01*
X146280273Y-90672956D01*
X146277794Y-90510650D01*
X145956666Y-89735379D01*
X145801125Y-89652532D01*
X176027073Y-89652532D01*
X176125736Y-89919387D01*
X176735461Y-90145908D01*
X177385460Y-90121856D01*
X177874264Y-89919387D01*
X177972927Y-89652532D01*
X177000000Y-88679605D01*
X176027073Y-89652532D01*
X145801125Y-89652532D01*
X145622314Y-89557291D01*
X144306605Y-90873000D01*
X143693395Y-90873000D01*
X142377686Y-89557291D01*
X142043334Y-89735379D01*
X141708327Y-90580426D01*
X141712795Y-90873000D01*
X129000000Y-90873000D01*
X128950590Y-90883006D01*
X128910197Y-90910197D01*
X123947394Y-95873000D01*
X117127000Y-95873000D01*
X117127000Y-95021026D01*
X117288327Y-94859698D01*
X117385000Y-94626309D01*
X117385000Y-93785750D01*
X117226250Y-93627000D01*
X115127000Y-93627000D01*
X115127000Y-93647000D01*
X114873000Y-93647000D01*
X114873000Y-93627000D01*
X112773750Y-93627000D01*
X112615000Y-93785750D01*
X112615000Y-94626309D01*
X112711673Y-94859698D01*
X112873000Y-95021026D01*
X112873000Y-95873000D01*
X108000000Y-95873000D01*
X107950590Y-95883006D01*
X107910197Y-95910197D01*
X102947394Y-100873000D01*
X98581425Y-100873000D01*
X98564275Y-100834141D01*
X97864117Y-100565929D01*
X97114616Y-100586072D01*
X96515725Y-100834141D01*
X96386517Y-101126911D01*
X96873000Y-101613394D01*
X96873000Y-101972605D01*
X96206911Y-101306517D01*
X95914141Y-101435725D01*
X95645929Y-102135883D01*
X95666072Y-102885384D01*
X95914141Y-103484275D01*
X96097054Y-103565000D01*
X95806289Y-103565000D01*
X95326547Y-103365794D01*
X94676306Y-103365226D01*
X94612020Y-103391788D01*
X94635000Y-103336310D01*
X94635000Y-102745750D01*
X94476250Y-102587000D01*
X94348773Y-102587000D01*
X94341947Y-102333000D01*
X94476250Y-102333000D01*
X94635000Y-102174250D01*
X94635000Y-101583690D01*
X94538327Y-101350301D01*
X94359698Y-101171673D01*
X94126309Y-101075000D01*
X93789038Y-101075000D01*
X93727215Y-101013177D01*
X93665392Y-101075000D01*
X93590573Y-101075000D01*
X93484275Y-100834141D01*
X92784117Y-100565929D01*
X92034616Y-100586072D01*
X91435725Y-100834141D01*
X91329427Y-101075000D01*
X91254608Y-101075000D01*
X91192785Y-101013177D01*
X91130962Y-101075000D01*
X90710000Y-101075000D01*
X90710000Y-92452340D01*
X92727265Y-92452340D01*
X93045501Y-92906203D01*
X94306434Y-93432936D01*
X95672956Y-93437035D01*
X96937027Y-92917878D01*
X96954499Y-92906203D01*
X97272735Y-92452340D01*
X97194086Y-92373691D01*
X112615000Y-92373691D01*
X112615000Y-93214250D01*
X112773750Y-93373000D01*
X114873000Y-93373000D01*
X114873000Y-92023750D01*
X115127000Y-92023750D01*
X115127000Y-93373000D01*
X117226250Y-93373000D01*
X117385000Y-93214250D01*
X117385000Y-92373691D01*
X117288327Y-92140302D01*
X117109699Y-91961673D01*
X116876310Y-91865000D01*
X115285750Y-91865000D01*
X115127000Y-92023750D01*
X114873000Y-92023750D01*
X114714250Y-91865000D01*
X113123690Y-91865000D01*
X112890301Y-91961673D01*
X112711673Y-92140302D01*
X112615000Y-92373691D01*
X97194086Y-92373691D01*
X95000000Y-90179605D01*
X92727265Y-92452340D01*
X90710000Y-92452340D01*
X90710000Y-90672956D01*
X91562965Y-90672956D01*
X92082122Y-91937027D01*
X92093797Y-91954499D01*
X92547660Y-92272735D01*
X94820395Y-90000000D01*
X95179605Y-90000000D01*
X97452340Y-92272735D01*
X97906203Y-91954499D01*
X98432936Y-90693566D01*
X98435848Y-89722532D01*
X138432073Y-89722532D01*
X138530736Y-89989387D01*
X139140461Y-90215908D01*
X139790460Y-90191856D01*
X140279264Y-89989387D01*
X140377927Y-89722532D01*
X139405000Y-88749605D01*
X138432073Y-89722532D01*
X98435848Y-89722532D01*
X98437035Y-89327044D01*
X98017469Y-88305461D01*
X137759092Y-88305461D01*
X137783144Y-88955460D01*
X137985613Y-89444264D01*
X138252468Y-89542927D01*
X139225395Y-88570000D01*
X139584605Y-88570000D01*
X140557532Y-89542927D01*
X140824387Y-89444264D01*
X140849121Y-89377686D01*
X142557291Y-89377686D01*
X144000000Y-90820395D01*
X145442709Y-89377686D01*
X145264621Y-89043334D01*
X144419574Y-88708327D01*
X143510650Y-88722206D01*
X142735379Y-89043334D01*
X142557291Y-89377686D01*
X140849121Y-89377686D01*
X141050908Y-88834539D01*
X141028741Y-88235461D01*
X175354092Y-88235461D01*
X175378144Y-88885460D01*
X175580613Y-89374264D01*
X175847468Y-89472927D01*
X176820395Y-88500000D01*
X177179605Y-88500000D01*
X178152532Y-89472927D01*
X178419387Y-89374264D01*
X178645908Y-88764539D01*
X178621856Y-88114540D01*
X178419387Y-87625736D01*
X178208214Y-87547660D01*
X182727265Y-87547660D01*
X185000000Y-89820395D01*
X187272735Y-87547660D01*
X186954499Y-87093797D01*
X185693566Y-86567064D01*
X184327044Y-86562965D01*
X183062973Y-87082122D01*
X183045501Y-87093797D01*
X182727265Y-87547660D01*
X178208214Y-87547660D01*
X178152532Y-87527073D01*
X177179605Y-88500000D01*
X176820395Y-88500000D01*
X175847468Y-87527073D01*
X175580613Y-87625736D01*
X175354092Y-88235461D01*
X141028741Y-88235461D01*
X141026856Y-88184540D01*
X140824387Y-87695736D01*
X140557532Y-87597073D01*
X139584605Y-88570000D01*
X139225395Y-88570000D01*
X138252468Y-87597073D01*
X137985613Y-87695736D01*
X137759092Y-88305461D01*
X98017469Y-88305461D01*
X97917878Y-88062973D01*
X97906203Y-88045501D01*
X97452340Y-87727265D01*
X95179605Y-90000000D01*
X94820395Y-90000000D01*
X92547660Y-87727265D01*
X92093797Y-88045501D01*
X91567064Y-89306434D01*
X91562965Y-90672956D01*
X90710000Y-90672956D01*
X90710000Y-87547660D01*
X92727265Y-87547660D01*
X95000000Y-89820395D01*
X97272735Y-87547660D01*
X97181449Y-87417468D01*
X138432073Y-87417468D01*
X139405000Y-88390395D01*
X140377927Y-87417468D01*
X140352047Y-87347468D01*
X176027073Y-87347468D01*
X177000000Y-88320395D01*
X177972927Y-87347468D01*
X177874264Y-87080613D01*
X177264539Y-86854092D01*
X176614540Y-86878144D01*
X176125736Y-87080613D01*
X176027073Y-87347468D01*
X140352047Y-87347468D01*
X140279264Y-87150613D01*
X139669539Y-86924092D01*
X139019540Y-86948144D01*
X138530736Y-87150613D01*
X138432073Y-87417468D01*
X97181449Y-87417468D01*
X96954499Y-87093797D01*
X95693566Y-86567064D01*
X94327044Y-86562965D01*
X93062973Y-87082122D01*
X93045501Y-87093797D01*
X92727265Y-87547660D01*
X90710000Y-87547660D01*
X90710000Y-85710000D01*
X189290000Y-85710000D01*
X189290000Y-101075000D01*
X189290000Y-101075000D01*
G37*
X189290000Y-101075000D02*
X188869038Y-101075000D01*
X188807215Y-101013177D01*
X188745392Y-101075000D01*
X188670573Y-101075000D01*
X188564275Y-100834141D01*
X187864117Y-100565929D01*
X187114616Y-100586072D01*
X186515725Y-100834141D01*
X186409427Y-101075000D01*
X186334608Y-101075000D01*
X186272785Y-101013177D01*
X186210962Y-101075000D01*
X185873691Y-101075000D01*
X185640302Y-101171673D01*
X185461673Y-101350301D01*
X185365000Y-101583690D01*
X185365000Y-102174250D01*
X185523750Y-102333000D01*
X185651227Y-102333000D01*
X185658053Y-102587000D01*
X185523750Y-102587000D01*
X185365000Y-102745750D01*
X185365000Y-103336310D01*
X185387737Y-103391202D01*
X185326547Y-103365794D01*
X184676306Y-103365226D01*
X184192816Y-103565000D01*
X183902946Y-103565000D01*
X184085859Y-103484275D01*
X184354071Y-102784117D01*
X184333928Y-102034616D01*
X184085859Y-101435725D01*
X183793089Y-101306517D01*
X182639606Y-102460000D01*
X182460000Y-102280394D01*
X183613483Y-101126911D01*
X183484275Y-100834141D01*
X182784117Y-100565929D01*
X182034616Y-100586072D01*
X181435725Y-100834141D01*
X181306518Y-101126910D01*
X181192785Y-101013177D01*
X181192784Y-101013178D01*
X180127000Y-99947394D01*
X180127000Y-92452340D01*
X182727265Y-92452340D01*
X183045501Y-92906203D01*
X184306434Y-93432936D01*
X185672956Y-93437035D01*
X186937027Y-92917878D01*
X186954499Y-92906203D01*
X187272735Y-92452340D01*
X185000000Y-90179605D01*
X182727265Y-92452340D01*
X180127000Y-92452340D01*
X180127000Y-91000000D01*
X180116994Y-90950590D01*
X180088553Y-90908965D01*
X180046159Y-90881685D01*
X180000000Y-90873000D01*
X146283327Y-90873000D01*
X146280273Y-90672956D01*
X181562965Y-90672956D01*
X182082122Y-91937027D01*
X182093797Y-91954499D01*
X182547660Y-92272735D01*
X184820395Y-90000000D01*
X185179605Y-90000000D01*
X187452340Y-92272735D01*
X187906203Y-91954499D01*
X188432936Y-90693566D01*
X188437035Y-89327044D01*
X187917878Y-88062973D01*
X187906203Y-88045501D01*
X187452340Y-87727265D01*
X185179605Y-90000000D01*
X184820395Y-90000000D01*
X182547660Y-87727265D01*
X182093797Y-88045501D01*
X181567064Y-89306434D01*
X181562965Y-90672956D01*
X146280273Y-90672956D01*
X146277794Y-90510650D01*
X145956666Y-89735379D01*
X145801125Y-89652532D01*
X176027073Y-89652532D01*
X176125736Y-89919387D01*
X176735461Y-90145908D01*
X177385460Y-90121856D01*
X177874264Y-89919387D01*
X177972927Y-89652532D01*
X177000000Y-88679605D01*
X176027073Y-89652532D01*
X145801125Y-89652532D01*
X145622314Y-89557291D01*
X144306605Y-90873000D01*
X143693395Y-90873000D01*
X142377686Y-89557291D01*
X142043334Y-89735379D01*
X141708327Y-90580426D01*
X141712795Y-90873000D01*
X129000000Y-90873000D01*
X128950590Y-90883006D01*
X128910197Y-90910197D01*
X123947394Y-95873000D01*
X117127000Y-95873000D01*
X117127000Y-95021026D01*
X117288327Y-94859698D01*
X117385000Y-94626309D01*
X117385000Y-93785750D01*
X117226250Y-93627000D01*
X115127000Y-93627000D01*
X115127000Y-93647000D01*
X114873000Y-93647000D01*
X114873000Y-93627000D01*
X112773750Y-93627000D01*
X112615000Y-93785750D01*
X112615000Y-94626309D01*
X112711673Y-94859698D01*
X112873000Y-95021026D01*
X112873000Y-95873000D01*
X108000000Y-95873000D01*
X107950590Y-95883006D01*
X107910197Y-95910197D01*
X102947394Y-100873000D01*
X98581425Y-100873000D01*
X98564275Y-100834141D01*
X97864117Y-100565929D01*
X97114616Y-100586072D01*
X96515725Y-100834141D01*
X96386517Y-101126911D01*
X96873000Y-101613394D01*
X96873000Y-101972605D01*
X96206911Y-101306517D01*
X95914141Y-101435725D01*
X95645929Y-102135883D01*
X95666072Y-102885384D01*
X95914141Y-103484275D01*
X96097054Y-103565000D01*
X95806289Y-103565000D01*
X95326547Y-103365794D01*
X94676306Y-103365226D01*
X94612020Y-103391788D01*
X94635000Y-103336310D01*
X94635000Y-102745750D01*
X94476250Y-102587000D01*
X94348773Y-102587000D01*
X94341947Y-102333000D01*
X94476250Y-102333000D01*
X94635000Y-102174250D01*
X94635000Y-101583690D01*
X94538327Y-101350301D01*
X94359698Y-101171673D01*
X94126309Y-101075000D01*
X93789038Y-101075000D01*
X93727215Y-101013177D01*
X93665392Y-101075000D01*
X93590573Y-101075000D01*
X93484275Y-100834141D01*
X92784117Y-100565929D01*
X92034616Y-100586072D01*
X91435725Y-100834141D01*
X91329427Y-101075000D01*
X91254608Y-101075000D01*
X91192785Y-101013177D01*
X91130962Y-101075000D01*
X90710000Y-101075000D01*
X90710000Y-92452340D01*
X92727265Y-92452340D01*
X93045501Y-92906203D01*
X94306434Y-93432936D01*
X95672956Y-93437035D01*
X96937027Y-92917878D01*
X96954499Y-92906203D01*
X97272735Y-92452340D01*
X97194086Y-92373691D01*
X112615000Y-92373691D01*
X112615000Y-93214250D01*
X112773750Y-93373000D01*
X114873000Y-93373000D01*
X114873000Y-92023750D01*
X115127000Y-92023750D01*
X115127000Y-93373000D01*
X117226250Y-93373000D01*
X117385000Y-93214250D01*
X117385000Y-92373691D01*
X117288327Y-92140302D01*
X117109699Y-91961673D01*
X116876310Y-91865000D01*
X115285750Y-91865000D01*
X115127000Y-92023750D01*
X114873000Y-92023750D01*
X114714250Y-91865000D01*
X113123690Y-91865000D01*
X112890301Y-91961673D01*
X112711673Y-92140302D01*
X112615000Y-92373691D01*
X97194086Y-92373691D01*
X95000000Y-90179605D01*
X92727265Y-92452340D01*
X90710000Y-92452340D01*
X90710000Y-90672956D01*
X91562965Y-90672956D01*
X92082122Y-91937027D01*
X92093797Y-91954499D01*
X92547660Y-92272735D01*
X94820395Y-90000000D01*
X95179605Y-90000000D01*
X97452340Y-92272735D01*
X97906203Y-91954499D01*
X98432936Y-90693566D01*
X98435848Y-89722532D01*
X138432073Y-89722532D01*
X138530736Y-89989387D01*
X139140461Y-90215908D01*
X139790460Y-90191856D01*
X140279264Y-89989387D01*
X140377927Y-89722532D01*
X139405000Y-88749605D01*
X138432073Y-89722532D01*
X98435848Y-89722532D01*
X98437035Y-89327044D01*
X98017469Y-88305461D01*
X137759092Y-88305461D01*
X137783144Y-88955460D01*
X137985613Y-89444264D01*
X138252468Y-89542927D01*
X139225395Y-88570000D01*
X139584605Y-88570000D01*
X140557532Y-89542927D01*
X140824387Y-89444264D01*
X140849121Y-89377686D01*
X142557291Y-89377686D01*
X144000000Y-90820395D01*
X145442709Y-89377686D01*
X145264621Y-89043334D01*
X144419574Y-88708327D01*
X143510650Y-88722206D01*
X142735379Y-89043334D01*
X142557291Y-89377686D01*
X140849121Y-89377686D01*
X141050908Y-88834539D01*
X141028741Y-88235461D01*
X175354092Y-88235461D01*
X175378144Y-88885460D01*
X175580613Y-89374264D01*
X175847468Y-89472927D01*
X176820395Y-88500000D01*
X177179605Y-88500000D01*
X178152532Y-89472927D01*
X178419387Y-89374264D01*
X178645908Y-88764539D01*
X178621856Y-88114540D01*
X178419387Y-87625736D01*
X178208214Y-87547660D01*
X182727265Y-87547660D01*
X185000000Y-89820395D01*
X187272735Y-87547660D01*
X186954499Y-87093797D01*
X185693566Y-86567064D01*
X184327044Y-86562965D01*
X183062973Y-87082122D01*
X183045501Y-87093797D01*
X182727265Y-87547660D01*
X178208214Y-87547660D01*
X178152532Y-87527073D01*
X177179605Y-88500000D01*
X176820395Y-88500000D01*
X175847468Y-87527073D01*
X175580613Y-87625736D01*
X175354092Y-88235461D01*
X141028741Y-88235461D01*
X141026856Y-88184540D01*
X140824387Y-87695736D01*
X140557532Y-87597073D01*
X139584605Y-88570000D01*
X139225395Y-88570000D01*
X138252468Y-87597073D01*
X137985613Y-87695736D01*
X137759092Y-88305461D01*
X98017469Y-88305461D01*
X97917878Y-88062973D01*
X97906203Y-88045501D01*
X97452340Y-87727265D01*
X95179605Y-90000000D01*
X94820395Y-90000000D01*
X92547660Y-87727265D01*
X92093797Y-88045501D01*
X91567064Y-89306434D01*
X91562965Y-90672956D01*
X90710000Y-90672956D01*
X90710000Y-87547660D01*
X92727265Y-87547660D01*
X95000000Y-89820395D01*
X97272735Y-87547660D01*
X97181449Y-87417468D01*
X138432073Y-87417468D01*
X139405000Y-88390395D01*
X140377927Y-87417468D01*
X140352047Y-87347468D01*
X176027073Y-87347468D01*
X177000000Y-88320395D01*
X177972927Y-87347468D01*
X177874264Y-87080613D01*
X177264539Y-86854092D01*
X176614540Y-86878144D01*
X176125736Y-87080613D01*
X176027073Y-87347468D01*
X140352047Y-87347468D01*
X140279264Y-87150613D01*
X139669539Y-86924092D01*
X139019540Y-86948144D01*
X138530736Y-87150613D01*
X138432073Y-87417468D01*
X97181449Y-87417468D01*
X96954499Y-87093797D01*
X95693566Y-86567064D01*
X94327044Y-86562965D01*
X93062973Y-87082122D01*
X93045501Y-87093797D01*
X92727265Y-87547660D01*
X90710000Y-87547660D01*
X90710000Y-85710000D01*
X189290000Y-85710000D01*
X189290000Y-101075000D01*
G36*
X187733748Y-102445858D02*
X187719605Y-102460000D01*
X187733748Y-102474143D01*
X187620890Y-102587000D01*
X187459110Y-102587000D01*
X187346253Y-102474143D01*
X187360395Y-102460000D01*
X187346253Y-102445858D01*
X187459110Y-102333000D01*
X187620890Y-102333000D01*
X187733748Y-102445858D01*
X187733748Y-102445858D01*
G37*
X187733748Y-102445858D02*
X187719605Y-102460000D01*
X187733748Y-102474143D01*
X187620890Y-102587000D01*
X187459110Y-102587000D01*
X187346253Y-102474143D01*
X187360395Y-102460000D01*
X187346253Y-102445858D01*
X187459110Y-102333000D01*
X187620890Y-102333000D01*
X187733748Y-102445858D01*
G36*
X92653748Y-102445858D02*
X92639605Y-102460000D01*
X92653748Y-102474143D01*
X92540890Y-102587000D01*
X92379110Y-102587000D01*
X92266253Y-102474143D01*
X92280395Y-102460000D01*
X92266253Y-102445858D01*
X92379110Y-102333000D01*
X92540890Y-102333000D01*
X92653748Y-102445858D01*
X92653748Y-102445858D01*
G37*
X92653748Y-102445858D02*
X92639605Y-102460000D01*
X92653748Y-102474143D01*
X92540890Y-102587000D01*
X92379110Y-102587000D01*
X92266253Y-102474143D01*
X92280395Y-102460000D01*
X92266253Y-102445858D01*
X92379110Y-102333000D01*
X92540890Y-102333000D01*
X92653748Y-102445858D01*
M02*
