G04 #@! TF.GenerationSoftware,KiCad,Pcbnew,(5.0.2)-1*
G04 #@! TF.CreationDate,2019-03-14T16:57:05+01:00*
G04 #@! TF.ProjectId,Themis,5468656d-6973-42e6-9b69-6361645f7063,rev?*
G04 #@! TF.SameCoordinates,Original*
G04 #@! TF.FileFunction,Soldermask,Top*
G04 #@! TF.FilePolarity,Negative*
%FSLAX46Y46*%
G04 Gerber Fmt 4.6, Leading zero omitted, Abs format (unit mm)*
G04 Created by KiCad (PCBNEW (5.0.2)-1) date 14/03/2019 16:57:05*
%MOMM*%
%LPD*%
G01*
G04 APERTURE LIST*
%ADD10C,0.150000*%
%ADD11C,0.100000*%
G04 APERTURE END LIST*
D10*
X90000000Y-135000000D02*
X90000000Y-85000000D01*
X190000000Y-135000000D02*
X90000000Y-135000000D01*
X190000000Y-85000000D02*
X190000000Y-135000000D01*
X90000000Y-85000000D02*
X190000000Y-85000000D01*
D11*
G36*
X190000000Y-135500000D02*
X90000000Y-135500000D01*
X90000000Y-106801776D01*
X95000000Y-106801776D01*
X95000000Y-126875000D01*
X95002402Y-126899386D01*
X95009515Y-126922835D01*
X95021066Y-126944446D01*
X95036612Y-126963388D01*
X95055554Y-126978934D01*
X95077165Y-126990485D01*
X95100614Y-126997598D01*
X95125000Y-127000000D01*
X95295476Y-127000000D01*
X95681870Y-127076859D01*
X95875068Y-127115288D01*
X96421033Y-127341434D01*
X96909077Y-127667535D01*
X96912392Y-127669750D01*
X97330250Y-128087608D01*
X97330252Y-128087611D01*
X97658566Y-128578967D01*
X97884712Y-129124932D01*
X97923141Y-129318130D01*
X98000000Y-129704524D01*
X98000000Y-130295474D01*
X97989032Y-130350613D01*
X97986630Y-130374999D01*
X97989032Y-130399386D01*
X97996145Y-130422835D01*
X98007696Y-130444446D01*
X98023241Y-130463388D01*
X98042183Y-130478933D01*
X98063794Y-130490485D01*
X98087243Y-130497598D01*
X98111630Y-130500000D01*
X131555000Y-130500000D01*
X131579386Y-130497598D01*
X131602835Y-130490485D01*
X131624446Y-130478934D01*
X131643388Y-130463388D01*
X131658934Y-130444446D01*
X131670485Y-130422835D01*
X131677598Y-130399386D01*
X131680000Y-130375000D01*
X131680000Y-130141049D01*
X131697363Y-129964763D01*
X131697363Y-129964759D01*
X131765981Y-129738558D01*
X131765983Y-129738554D01*
X131765983Y-129738553D01*
X131877408Y-129530090D01*
X132027367Y-129347366D01*
X132210091Y-129197408D01*
X132418554Y-129085983D01*
X132418557Y-129085982D01*
X132418559Y-129085981D01*
X132644760Y-129017363D01*
X132880000Y-128994194D01*
X133115241Y-129017363D01*
X133341442Y-129085981D01*
X133341444Y-129085982D01*
X133341447Y-129085983D01*
X133549910Y-129197408D01*
X133732634Y-129347366D01*
X133882592Y-129530090D01*
X133994018Y-129738554D01*
X134030382Y-129858431D01*
X134039760Y-129881071D01*
X134053374Y-129901445D01*
X134070701Y-129918772D01*
X134091075Y-129932386D01*
X134113714Y-129941764D01*
X134137748Y-129946544D01*
X134162252Y-129946544D01*
X134186285Y-129941764D01*
X134208925Y-129932386D01*
X134229299Y-129918772D01*
X134246626Y-129901445D01*
X134260240Y-129881071D01*
X134269618Y-129858431D01*
X134305982Y-129738554D01*
X134417408Y-129530090D01*
X134567367Y-129347366D01*
X134750091Y-129197408D01*
X134958554Y-129085983D01*
X134958557Y-129085982D01*
X134958559Y-129085981D01*
X135184760Y-129017363D01*
X135420000Y-128994194D01*
X135655241Y-129017363D01*
X135881442Y-129085981D01*
X135881444Y-129085982D01*
X135881447Y-129085983D01*
X136089910Y-129197408D01*
X136272634Y-129347366D01*
X136422592Y-129530090D01*
X136534018Y-129738554D01*
X136570382Y-129858431D01*
X136579760Y-129881071D01*
X136593374Y-129901445D01*
X136610701Y-129918772D01*
X136631075Y-129932386D01*
X136653714Y-129941764D01*
X136677748Y-129946544D01*
X136702252Y-129946544D01*
X136726285Y-129941764D01*
X136748925Y-129932386D01*
X136769299Y-129918772D01*
X136786626Y-129901445D01*
X136800240Y-129881071D01*
X136809618Y-129858431D01*
X136845982Y-129738554D01*
X136957408Y-129530090D01*
X137107367Y-129347366D01*
X137290091Y-129197408D01*
X137498554Y-129085983D01*
X137498557Y-129085982D01*
X137498559Y-129085981D01*
X137724760Y-129017363D01*
X137960000Y-128994194D01*
X138195241Y-129017363D01*
X138421442Y-129085981D01*
X138421444Y-129085982D01*
X138421447Y-129085983D01*
X138629910Y-129197408D01*
X138812634Y-129347366D01*
X138962592Y-129530090D01*
X139074018Y-129738554D01*
X139110382Y-129858431D01*
X139119760Y-129881071D01*
X139133374Y-129901445D01*
X139150701Y-129918772D01*
X139171075Y-129932386D01*
X139193714Y-129941764D01*
X139217748Y-129946544D01*
X139242252Y-129946544D01*
X139266285Y-129941764D01*
X139288925Y-129932386D01*
X139309299Y-129918772D01*
X139326626Y-129901445D01*
X139340240Y-129881071D01*
X139349618Y-129858431D01*
X139385982Y-129738554D01*
X139497408Y-129530090D01*
X139647367Y-129347366D01*
X139830091Y-129197408D01*
X140038554Y-129085983D01*
X140038557Y-129085982D01*
X140038559Y-129085981D01*
X140264760Y-129017363D01*
X140500000Y-128994194D01*
X140735241Y-129017363D01*
X140961442Y-129085981D01*
X140961444Y-129085982D01*
X140961447Y-129085983D01*
X141169910Y-129197408D01*
X141352634Y-129347366D01*
X141502592Y-129530090D01*
X141604760Y-129721234D01*
X141618374Y-129741609D01*
X141635701Y-129758936D01*
X141656075Y-129772550D01*
X141678714Y-129781927D01*
X141702748Y-129786708D01*
X141727252Y-129786708D01*
X141751285Y-129781928D01*
X141773924Y-129772550D01*
X141794299Y-129758936D01*
X141811626Y-129741609D01*
X141825240Y-129721235D01*
X141834617Y-129698596D01*
X141839398Y-129674562D01*
X141840000Y-129662310D01*
X141840000Y-129000000D01*
X144240000Y-129000000D01*
X144240000Y-130375000D01*
X144242402Y-130399386D01*
X144249515Y-130422835D01*
X144261066Y-130444446D01*
X144276612Y-130463388D01*
X144295554Y-130478934D01*
X144317165Y-130490485D01*
X144340614Y-130497598D01*
X144365000Y-130500000D01*
X152875000Y-130500000D01*
X152899386Y-130497598D01*
X152922835Y-130490485D01*
X152944446Y-130478934D01*
X152963388Y-130463388D01*
X152978934Y-130444446D01*
X152990485Y-130422835D01*
X152997598Y-130399386D01*
X153000000Y-130375000D01*
X153000000Y-121500000D01*
X153463388Y-121036612D01*
X153478934Y-121017670D01*
X153490485Y-120996059D01*
X153497598Y-120972610D01*
X153500000Y-120948224D01*
X153500000Y-120051776D01*
X153497598Y-120027390D01*
X153490485Y-120003941D01*
X153478934Y-119982330D01*
X153463388Y-119963388D01*
X153000000Y-119500000D01*
X153000000Y-109625000D01*
X155000000Y-109625000D01*
X155000000Y-130375000D01*
X155002402Y-130399386D01*
X155009515Y-130422835D01*
X155021066Y-130444446D01*
X155036612Y-130463388D01*
X155055554Y-130478934D01*
X155077165Y-130490485D01*
X155100614Y-130497598D01*
X155125000Y-130500000D01*
X165675510Y-130500000D01*
X165699896Y-130497598D01*
X165723345Y-130490485D01*
X165744956Y-130478934D01*
X165763898Y-130463388D01*
X165779444Y-130444446D01*
X165790995Y-130422835D01*
X165798108Y-130399386D01*
X165799172Y-130388588D01*
X165846605Y-130150124D01*
X165937026Y-129931828D01*
X166068297Y-129735367D01*
X166235367Y-129568297D01*
X166431828Y-129437026D01*
X166650124Y-129346605D01*
X166881859Y-129300510D01*
X167118141Y-129300510D01*
X167349876Y-129346605D01*
X167568172Y-129437026D01*
X167764633Y-129568297D01*
X167931703Y-129735367D01*
X168062974Y-129931828D01*
X168153395Y-130150124D01*
X168200828Y-130388588D01*
X168201892Y-130399386D01*
X168209005Y-130422835D01*
X168220556Y-130444446D01*
X168236102Y-130463388D01*
X168255044Y-130478934D01*
X168276655Y-130490485D01*
X168300104Y-130497598D01*
X168324490Y-130500000D01*
X181888370Y-130500000D01*
X181912756Y-130497598D01*
X181936205Y-130490485D01*
X181957816Y-130478934D01*
X181976758Y-130463388D01*
X181992304Y-130444446D01*
X182003855Y-130422835D01*
X182010968Y-130399386D01*
X182013370Y-130375000D01*
X182010968Y-130350613D01*
X182000000Y-130295474D01*
X182000000Y-129704524D01*
X182076859Y-129318130D01*
X182115288Y-129124932D01*
X182341434Y-128578967D01*
X182669748Y-128087611D01*
X182669750Y-128087608D01*
X183087608Y-127669750D01*
X183090923Y-127667535D01*
X183578967Y-127341434D01*
X184124932Y-127115288D01*
X184318130Y-127076859D01*
X184704524Y-127000000D01*
X184875000Y-127000000D01*
X184899386Y-126997598D01*
X184922835Y-126990485D01*
X184944446Y-126978934D01*
X184963388Y-126963388D01*
X184978934Y-126944446D01*
X184990485Y-126922835D01*
X184997598Y-126899386D01*
X185000000Y-126875000D01*
X185000000Y-106801776D01*
X184997598Y-106777390D01*
X184990485Y-106753941D01*
X184978934Y-106732330D01*
X184963388Y-106713388D01*
X184944446Y-106697842D01*
X184922835Y-106686291D01*
X184899386Y-106679178D01*
X184875000Y-106676776D01*
X184850614Y-106679178D01*
X184827165Y-106686291D01*
X184805554Y-106697842D01*
X184786612Y-106713388D01*
X184406007Y-107093993D01*
X184390461Y-107112935D01*
X184378910Y-107134546D01*
X184371797Y-107157995D01*
X184369395Y-107182381D01*
X184371797Y-107206767D01*
X184409680Y-107397218D01*
X184409680Y-107682782D01*
X184353970Y-107962855D01*
X184244690Y-108226680D01*
X184086038Y-108464120D01*
X183884120Y-108666038D01*
X183646680Y-108824690D01*
X183382855Y-108933970D01*
X183102782Y-108989680D01*
X182817218Y-108989680D01*
X182626767Y-108951797D01*
X182602381Y-108949395D01*
X182577995Y-108951797D01*
X182554546Y-108958910D01*
X182532935Y-108970461D01*
X182513993Y-108986007D01*
X182000000Y-109500000D01*
X155125000Y-109500000D01*
X155100614Y-109502402D01*
X155077165Y-109509515D01*
X155055554Y-109521066D01*
X155036612Y-109536612D01*
X155021066Y-109555554D01*
X155009515Y-109577165D01*
X155002402Y-109600614D01*
X155000000Y-109625000D01*
X153000000Y-109625000D01*
X152997598Y-109600614D01*
X152990485Y-109577165D01*
X152978934Y-109555554D01*
X152963388Y-109536612D01*
X152944446Y-109521066D01*
X152922835Y-109509515D01*
X152899386Y-109502402D01*
X152875000Y-109500000D01*
X98000000Y-109500000D01*
X97486007Y-108986007D01*
X97467065Y-108970461D01*
X97445454Y-108958910D01*
X97422005Y-108951797D01*
X97397619Y-108949395D01*
X97373233Y-108951797D01*
X97182782Y-108989680D01*
X96897218Y-108989680D01*
X96617145Y-108933970D01*
X96353320Y-108824690D01*
X96115880Y-108666038D01*
X95913962Y-108464120D01*
X95755310Y-108226680D01*
X95646030Y-107962855D01*
X95590320Y-107682782D01*
X95590320Y-107397218D01*
X95628203Y-107206767D01*
X95630605Y-107182381D01*
X95628203Y-107157995D01*
X95621090Y-107134546D01*
X95609539Y-107112935D01*
X95593993Y-107093993D01*
X95213388Y-106713388D01*
X95194446Y-106697842D01*
X95172835Y-106686291D01*
X95149386Y-106679178D01*
X95125000Y-106676776D01*
X95100614Y-106679178D01*
X95077165Y-106686291D01*
X95055554Y-106697842D01*
X95036612Y-106713388D01*
X95021066Y-106732330D01*
X95009515Y-106753941D01*
X95002402Y-106777390D01*
X95000000Y-106801776D01*
X90000000Y-106801776D01*
X90000000Y-93125000D01*
X95000000Y-93125000D01*
X95000000Y-103825266D01*
X95002402Y-103849652D01*
X95009515Y-103873101D01*
X95021066Y-103894712D01*
X95036612Y-103913654D01*
X95055554Y-103929200D01*
X95060077Y-103931617D01*
X95264633Y-104068297D01*
X95418853Y-104222517D01*
X95437795Y-104238063D01*
X95459406Y-104249614D01*
X95482855Y-104256727D01*
X95507241Y-104259129D01*
X95531627Y-104256727D01*
X95555076Y-104249614D01*
X95585328Y-104231737D01*
X96133240Y-103793406D01*
X96150782Y-103776297D01*
X96164649Y-103756094D01*
X96174308Y-103733574D01*
X96179388Y-103709602D01*
X96179694Y-103685099D01*
X96175214Y-103661008D01*
X96166120Y-103638254D01*
X96152761Y-103617711D01*
X96135652Y-103600169D01*
X96124599Y-103591864D01*
X96115880Y-103586038D01*
X95913962Y-103384120D01*
X95755310Y-103146680D01*
X95646030Y-102882855D01*
X95590320Y-102602782D01*
X95590320Y-102317218D01*
X95646030Y-102037145D01*
X95755310Y-101773320D01*
X95913962Y-101535880D01*
X96115880Y-101333962D01*
X96353320Y-101175310D01*
X96617145Y-101066030D01*
X96897218Y-101010320D01*
X97182782Y-101010320D01*
X97462855Y-101066030D01*
X97726680Y-101175310D01*
X97964120Y-101333962D01*
X98166038Y-101535880D01*
X98324689Y-101773318D01*
X98344072Y-101820112D01*
X98355624Y-101841723D01*
X98371169Y-101860665D01*
X98390111Y-101876210D01*
X98411722Y-101887761D01*
X98435172Y-101894874D01*
X98459558Y-101897276D01*
X98483944Y-101894874D01*
X98507393Y-101887761D01*
X98537644Y-101869885D01*
X98990386Y-101507691D01*
X98990387Y-101507691D01*
X99000000Y-101500000D01*
X152875000Y-101500000D01*
X152899386Y-101497598D01*
X152922835Y-101490485D01*
X152944446Y-101478934D01*
X152963388Y-101463388D01*
X152978934Y-101444446D01*
X152990485Y-101422835D01*
X152997598Y-101399386D01*
X153000000Y-101375000D01*
X153000000Y-90625000D01*
X155000000Y-90625000D01*
X155000000Y-101375000D01*
X155002402Y-101399386D01*
X155009515Y-101422835D01*
X155021066Y-101444446D01*
X155036612Y-101463388D01*
X155055554Y-101478934D01*
X155077165Y-101490485D01*
X155100614Y-101497598D01*
X155125000Y-101500000D01*
X181818066Y-101500000D01*
X181842452Y-101497598D01*
X181865901Y-101490485D01*
X181887512Y-101478934D01*
X181906454Y-101463388D01*
X182035880Y-101333962D01*
X182273320Y-101175310D01*
X182537145Y-101066030D01*
X182817218Y-101010320D01*
X183102782Y-101010320D01*
X183382855Y-101066030D01*
X183646680Y-101175310D01*
X183884120Y-101333962D01*
X184086038Y-101535880D01*
X184244690Y-101773320D01*
X184353970Y-102037145D01*
X184409680Y-102317218D01*
X184409680Y-102602782D01*
X184353970Y-102882855D01*
X184244690Y-103146680D01*
X184086038Y-103384120D01*
X184073467Y-103396691D01*
X184057921Y-103415633D01*
X184046370Y-103437244D01*
X184039257Y-103460693D01*
X184036855Y-103485079D01*
X184039257Y-103509465D01*
X184046370Y-103532914D01*
X184057921Y-103554525D01*
X184073467Y-103573467D01*
X184563444Y-104063444D01*
X184582386Y-104078990D01*
X184603997Y-104090541D01*
X184627446Y-104097654D01*
X184651832Y-104100056D01*
X184676218Y-104097654D01*
X184699667Y-104090541D01*
X184721278Y-104078990D01*
X184729664Y-104072108D01*
X184735369Y-104068296D01*
X184735370Y-104068295D01*
X184931828Y-103937026D01*
X184931829Y-103937026D01*
X184939916Y-103931622D01*
X184944437Y-103929206D01*
X184963381Y-103913662D01*
X184978928Y-103894721D01*
X184990481Y-103873111D01*
X184997596Y-103849663D01*
X185000000Y-103825266D01*
X185000000Y-93125000D01*
X184997598Y-93100614D01*
X184990485Y-93077165D01*
X184978934Y-93055554D01*
X184963388Y-93036612D01*
X184944446Y-93021066D01*
X184922835Y-93009515D01*
X184899386Y-93002402D01*
X184875000Y-93000000D01*
X184704524Y-93000000D01*
X184318130Y-92923141D01*
X184124932Y-92884712D01*
X183578967Y-92658566D01*
X183087611Y-92330252D01*
X183087608Y-92330250D01*
X182669750Y-91912392D01*
X182593063Y-91797622D01*
X182341434Y-91421033D01*
X182115288Y-90875068D01*
X182060696Y-90600613D01*
X182053583Y-90577165D01*
X182042032Y-90555554D01*
X182026486Y-90536612D01*
X182007544Y-90521066D01*
X181985933Y-90509515D01*
X181962484Y-90502402D01*
X181938098Y-90500000D01*
X155125000Y-90500000D01*
X155100614Y-90502402D01*
X155077165Y-90509515D01*
X155055554Y-90521066D01*
X155036612Y-90536612D01*
X155021066Y-90555554D01*
X155009515Y-90577165D01*
X155002402Y-90600614D01*
X155000000Y-90625000D01*
X153000000Y-90625000D01*
X152997598Y-90600614D01*
X152990485Y-90577165D01*
X152978934Y-90555554D01*
X152963388Y-90536612D01*
X152944446Y-90521066D01*
X152922835Y-90509515D01*
X152899386Y-90502402D01*
X152875000Y-90500000D01*
X98061902Y-90500000D01*
X98037516Y-90502402D01*
X98014067Y-90509515D01*
X97992456Y-90521066D01*
X97973514Y-90536612D01*
X97957968Y-90555554D01*
X97946417Y-90577165D01*
X97939304Y-90600613D01*
X97884712Y-90875068D01*
X97658566Y-91421033D01*
X97406937Y-91797622D01*
X97330250Y-91912392D01*
X96912392Y-92330250D01*
X96912389Y-92330252D01*
X96421033Y-92658566D01*
X95875068Y-92884712D01*
X95681870Y-92923141D01*
X95295476Y-93000000D01*
X95125000Y-93000000D01*
X95100614Y-93002402D01*
X95077165Y-93009515D01*
X95055554Y-93021066D01*
X95036612Y-93036612D01*
X95021066Y-93055554D01*
X95009515Y-93077165D01*
X95002402Y-93100614D01*
X95000000Y-93125000D01*
X90000000Y-93125000D01*
X90000000Y-85500000D01*
X190000000Y-85500000D01*
X190000000Y-135500000D01*
X190000000Y-135500000D01*
G37*
G36*
X136500000Y-121000000D02*
X131500000Y-121000000D01*
X131500000Y-116000000D01*
X136500000Y-116000000D01*
X136500000Y-121000000D01*
X136500000Y-121000000D01*
G37*
G36*
X149500000Y-116500000D02*
X144500000Y-116500000D01*
X144500000Y-111500000D01*
X149500000Y-111500000D01*
X149500000Y-116500000D01*
X149500000Y-116500000D01*
G37*
G36*
X127039622Y-110221094D02*
X127039624Y-110221095D01*
X127039625Y-110221095D01*
X127163993Y-110272610D01*
X127376304Y-110360552D01*
X127679309Y-110563013D01*
X127936987Y-110820691D01*
X128139448Y-111123696D01*
X128278906Y-111460378D01*
X128350000Y-111817789D01*
X128350000Y-112182211D01*
X128278906Y-112539622D01*
X128139448Y-112876304D01*
X127936987Y-113179309D01*
X127679309Y-113436987D01*
X127376304Y-113639448D01*
X127163993Y-113727390D01*
X127039625Y-113778905D01*
X127039624Y-113778905D01*
X127039622Y-113778906D01*
X126682211Y-113850000D01*
X126317789Y-113850000D01*
X125960378Y-113778906D01*
X125960376Y-113778905D01*
X125960375Y-113778905D01*
X125836007Y-113727390D01*
X125623696Y-113639448D01*
X125320691Y-113436987D01*
X125063013Y-113179309D01*
X124860552Y-112876304D01*
X124721094Y-112539622D01*
X124650000Y-112182211D01*
X124650000Y-111817789D01*
X124721094Y-111460378D01*
X124860552Y-111123696D01*
X125063013Y-110820691D01*
X125320691Y-110563013D01*
X125623696Y-110360552D01*
X125836007Y-110272610D01*
X125960375Y-110221095D01*
X125960376Y-110221095D01*
X125960378Y-110221094D01*
X126317789Y-110150000D01*
X126682211Y-110150000D01*
X127039622Y-110221094D01*
X127039622Y-110221094D01*
G37*
G36*
X169962855Y-126566030D02*
X170226680Y-126675310D01*
X170464120Y-126833962D01*
X170666038Y-127035880D01*
X170824690Y-127273320D01*
X170933970Y-127537145D01*
X170989680Y-127817218D01*
X170989680Y-128102782D01*
X170933970Y-128382855D01*
X170824690Y-128646680D01*
X170666038Y-128884120D01*
X170464120Y-129086038D01*
X170226680Y-129244690D01*
X169962855Y-129353970D01*
X169682782Y-129409680D01*
X169397218Y-129409680D01*
X169117145Y-129353970D01*
X168853320Y-129244690D01*
X168615880Y-129086038D01*
X168413962Y-128884120D01*
X168255310Y-128646680D01*
X168146030Y-128382855D01*
X168090320Y-128102782D01*
X168090320Y-127817218D01*
X168146030Y-127537145D01*
X168255310Y-127273320D01*
X168413962Y-127035880D01*
X168615880Y-126833962D01*
X168853320Y-126675310D01*
X169117145Y-126566030D01*
X169397218Y-126510320D01*
X169682782Y-126510320D01*
X169962855Y-126566030D01*
X169962855Y-126566030D01*
G37*
G36*
X164882855Y-126566030D02*
X165146680Y-126675310D01*
X165384120Y-126833962D01*
X165586038Y-127035880D01*
X165744690Y-127273320D01*
X165853970Y-127537145D01*
X165909680Y-127817218D01*
X165909680Y-128102782D01*
X165853970Y-128382855D01*
X165744690Y-128646680D01*
X165586038Y-128884120D01*
X165384120Y-129086038D01*
X165146680Y-129244690D01*
X164882855Y-129353970D01*
X164602782Y-129409680D01*
X164317218Y-129409680D01*
X164037145Y-129353970D01*
X163773320Y-129244690D01*
X163535880Y-129086038D01*
X163333962Y-128884120D01*
X163175310Y-128646680D01*
X163066030Y-128382855D01*
X163010320Y-128102782D01*
X163010320Y-127817218D01*
X163066030Y-127537145D01*
X163175310Y-127273320D01*
X163333962Y-127035880D01*
X163535880Y-126833962D01*
X163773320Y-126675310D01*
X164037145Y-126566030D01*
X164317218Y-126510320D01*
X164602782Y-126510320D01*
X164882855Y-126566030D01*
X164882855Y-126566030D01*
G37*
G36*
X164500000Y-116500000D02*
X159500000Y-116500000D01*
X159500000Y-111500000D01*
X164500000Y-111500000D01*
X164500000Y-116500000D01*
X164500000Y-116500000D01*
G37*
G36*
X113950000Y-100200000D02*
X110050000Y-100200000D01*
X110050000Y-97800000D01*
X113950000Y-97800000D01*
X113950000Y-100200000D01*
X113950000Y-100200000D01*
G37*
G36*
X141039622Y-94221094D02*
X141039624Y-94221095D01*
X141039625Y-94221095D01*
X141163993Y-94272610D01*
X141376304Y-94360552D01*
X141679309Y-94563013D01*
X141936987Y-94820691D01*
X142139448Y-95123696D01*
X142278906Y-95460378D01*
X142350000Y-95817789D01*
X142350000Y-96182211D01*
X142278906Y-96539622D01*
X142139448Y-96876304D01*
X141936987Y-97179309D01*
X141679309Y-97436987D01*
X141376304Y-97639448D01*
X141163993Y-97727390D01*
X141039625Y-97778905D01*
X141039624Y-97778905D01*
X141039622Y-97778906D01*
X140682211Y-97850000D01*
X140317789Y-97850000D01*
X139960378Y-97778906D01*
X139960376Y-97778905D01*
X139960375Y-97778905D01*
X139836007Y-97727390D01*
X139623696Y-97639448D01*
X139320691Y-97436987D01*
X139063013Y-97179309D01*
X138860552Y-96876304D01*
X138721094Y-96539622D01*
X138650000Y-96182211D01*
X138650000Y-95817789D01*
X138721094Y-95460378D01*
X138860552Y-95123696D01*
X139063013Y-94820691D01*
X139320691Y-94563013D01*
X139623696Y-94360552D01*
X139836007Y-94272610D01*
X139960375Y-94221095D01*
X139960376Y-94221095D01*
X139960378Y-94221094D01*
X140317789Y-94150000D01*
X140682211Y-94150000D01*
X141039622Y-94221094D01*
X141039622Y-94221094D01*
G37*
G36*
X136488378Y-91646859D02*
X136852354Y-91797622D01*
X137179929Y-92016501D01*
X137458499Y-92295071D01*
X137677378Y-92622646D01*
X137828141Y-92986622D01*
X137905000Y-93373016D01*
X137905000Y-93766984D01*
X137828141Y-94153378D01*
X137677378Y-94517354D01*
X137458499Y-94844929D01*
X137179929Y-95123499D01*
X136852354Y-95342378D01*
X136488378Y-95493141D01*
X136101984Y-95570000D01*
X135708016Y-95570000D01*
X135321622Y-95493141D01*
X134957646Y-95342378D01*
X134630071Y-95123499D01*
X134351501Y-94844929D01*
X134132622Y-94517354D01*
X133981859Y-94153378D01*
X133905000Y-93766984D01*
X133905000Y-93373016D01*
X133981859Y-92986622D01*
X134132622Y-92622646D01*
X134351501Y-92295071D01*
X134630071Y-92016501D01*
X134957646Y-91797622D01*
X135321622Y-91646859D01*
X135708016Y-91570000D01*
X136101984Y-91570000D01*
X136488378Y-91646859D01*
X136488378Y-91646859D01*
G37*
G36*
X177583378Y-96576859D02*
X177947354Y-96727622D01*
X178274929Y-96946501D01*
X178553499Y-97225071D01*
X178772378Y-97552646D01*
X178923141Y-97916622D01*
X179000000Y-98303016D01*
X179000000Y-98696984D01*
X178923141Y-99083378D01*
X178772378Y-99447354D01*
X178553499Y-99774929D01*
X178274929Y-100053499D01*
X177947354Y-100272378D01*
X177583378Y-100423141D01*
X177196984Y-100500000D01*
X176803016Y-100500000D01*
X176416622Y-100423141D01*
X176052646Y-100272378D01*
X175725071Y-100053499D01*
X175446501Y-99774929D01*
X175227622Y-99447354D01*
X175076859Y-99083378D01*
X175000000Y-98696984D01*
X175000000Y-98303016D01*
X175076859Y-97916622D01*
X175227622Y-97552646D01*
X175446501Y-97225071D01*
X175725071Y-96946501D01*
X176052646Y-96727622D01*
X176416622Y-96576859D01*
X176803016Y-96500000D01*
X177196984Y-96500000D01*
X177583378Y-96576859D01*
X177583378Y-96576859D01*
G37*
M02*
