M48
;DRILL file {KiCad (5.0.2)-1} date 14/03/2019 16:57:16
;FORMAT={-:-/ absolute / inch / decimal}
FMAT,2
INCH,TZ
T1C0.0157
T2C0.0394
T3C0.0472
T4C0.0512
T5C0.1181
T6C0.1260
%
G90
G05
T1
X3.5827Y-3.6811
X3.5827Y-3.7598
X3.5827Y-3.8386
X3.5827Y-3.9173
X3.5827Y-4.4094
X3.5827Y-4.4882
X3.5827Y-4.5669
X3.5827Y-4.6457
X3.5827Y-4.7244
X3.5827Y-4.8031
X3.5827Y-4.8819
X3.5827Y-4.9606
X3.6614Y-3.6811
X3.6614Y-3.7598
X3.6614Y-3.8386
X3.6614Y-3.9173
X3.6614Y-4.4094
X3.6614Y-4.4882
X3.6614Y-4.5669
X3.6614Y-4.6457
X3.6614Y-4.7244
X3.6614Y-4.8031
X3.6614Y-4.8819
X3.6614Y-4.9606
X3.7402Y-3.6811
X3.7402Y-3.7598
X3.7402Y-3.8386
X3.7402Y-3.9173
X3.7402Y-4.4094
X3.7402Y-4.4882
X3.7402Y-4.5669
X3.7402Y-4.6457
X3.7402Y-4.7244
X3.7402Y-4.8031
X3.7402Y-4.8819
X3.7402Y-4.9606
X3.8189Y-3.6811
X3.8189Y-3.7598
X3.8189Y-3.8386
X3.8189Y-3.9173
X3.8189Y-4.4094
X3.8189Y-4.4882
X3.8189Y-4.5669
X3.8189Y-4.6457
X3.8189Y-4.7244
X3.8189Y-4.8031
X3.8189Y-4.8819
X3.8189Y-4.9606
X3.8976Y-3.6024
X3.8976Y-3.6811
X3.8976Y-3.7598
X3.8976Y-3.8386
X3.8976Y-3.9173
X3.8976Y-3.9764
X3.8976Y-4.2913
X3.8976Y-4.4094
X3.8976Y-4.4882
X3.8976Y-4.5669
X3.8976Y-4.6457
X3.8976Y-4.7244
X3.8976Y-4.8031
X3.8976Y-4.8819
X3.8976Y-4.9606
X3.8976Y-5.0394
X3.937Y-3.4449
X3.937Y-3.5236
X3.937Y-3.9764
X3.937Y-4.2913
X3.937Y-5.1181
X3.937Y-5.1969
X3.9764Y-3.6024
X3.9764Y-3.6811
X3.9764Y-3.7598
X3.9764Y-3.8386
X3.9764Y-3.9173
X3.9764Y-3.9764
X3.9764Y-4.2913
X3.9764Y-4.4094
X3.9764Y-4.4882
X3.9764Y-4.5669
X3.9764Y-4.6457
X3.9764Y-4.7244
X3.9764Y-4.8031
X3.9764Y-4.8819
X3.9764Y-4.9606
X3.9764Y-5.0394
X4.0157Y-3.4449
X4.0157Y-3.5236
X4.0157Y-3.9764
X4.0157Y-4.2913
X4.0157Y-5.1181
X4.0157Y-5.1969
X4.0551Y-3.6024
X4.0551Y-3.6811
X4.0551Y-3.7598
X4.0551Y-3.8386
X4.0551Y-3.9173
X4.0551Y-3.9764
X4.0551Y-4.2913
X4.0551Y-4.4094
X4.0551Y-4.4882
X4.0551Y-4.5669
X4.0551Y-4.6457
X4.0551Y-4.7244
X4.0551Y-4.8031
X4.0551Y-4.8819
X4.0551Y-4.9606
X4.0551Y-5.0394
X4.0945Y-3.4449
X4.0945Y-3.5236
X4.0945Y-3.9764
X4.0945Y-4.2913
X4.0945Y-5.1181
X4.0945Y-5.1969
X4.1339Y-3.6024
X4.1339Y-3.6811
X4.1339Y-3.7598
X4.1339Y-3.8386
X4.1339Y-3.9173
X4.1339Y-3.9764
X4.1339Y-4.2913
X4.1339Y-4.4094
X4.1339Y-4.4882
X4.1339Y-4.5669
X4.1339Y-4.6457
X4.1339Y-4.7244
X4.1339Y-4.8031
X4.1339Y-4.8819
X4.1339Y-4.9606
X4.1339Y-5.0394
X4.1732Y-3.4449
X4.1732Y-3.5236
X4.1732Y-3.9764
X4.1732Y-4.2913
X4.1732Y-5.1181
X4.1732Y-5.1969
X4.2126Y-3.6024
X4.2126Y-3.6811
X4.2126Y-3.7598
X4.2126Y-3.8386
X4.2126Y-3.9173
X4.2126Y-3.9764
X4.2126Y-4.2913
X4.2126Y-4.4094
X4.2126Y-4.4882
X4.2126Y-4.5669
X4.2126Y-4.6457
X4.2126Y-4.7244
X4.2126Y-4.8031
X4.2126Y-4.8819
X4.2126Y-4.9606
X4.2126Y-5.0394
X4.252Y-3.4449
X4.252Y-3.5236
X4.252Y-3.9764
X4.252Y-4.2913
X4.252Y-5.1181
X4.252Y-5.1969
X4.2913Y-3.6024
X4.2913Y-3.6811
X4.2913Y-3.7598
X4.2913Y-3.8386
X4.2913Y-3.9173
X4.2913Y-3.9764
X4.2913Y-4.2913
X4.2913Y-4.4094
X4.2913Y-4.4882
X4.2913Y-4.5669
X4.2913Y-4.6457
X4.2913Y-4.7244
X4.2913Y-4.8031
X4.2913Y-4.8819
X4.2913Y-4.9606
X4.2913Y-5.0394
X4.3307Y-3.4449
X4.3307Y-3.5236
X4.3307Y-4.2913
X4.3307Y-5.1181
X4.3307Y-5.1969
X4.3701Y-3.6024
X4.3701Y-3.6811
X4.3701Y-3.7598
X4.3701Y-3.8386
X4.3701Y-3.9173
X4.3701Y-4.2913
X4.3701Y-4.4094
X4.3701Y-4.4882
X4.3701Y-4.5669
X4.3701Y-4.6457
X4.3701Y-4.7244
X4.3701Y-4.8031
X4.3701Y-4.8819
X4.3701Y-4.9606
X4.3701Y-5.0394
X4.4094Y-3.4449
X4.4094Y-3.5236
X4.4094Y-4.2913
X4.4094Y-5.1181
X4.4094Y-5.1969
X4.4488Y-3.6024
X4.4488Y-3.6811
X4.4488Y-3.7598
X4.4488Y-3.8386
X4.4488Y-3.9173
X4.4488Y-4.2913
X4.4488Y-4.4094
X4.4488Y-4.4882
X4.4488Y-4.5669
X4.4488Y-4.6457
X4.4488Y-4.7244
X4.4488Y-4.8031
X4.4488Y-4.8819
X4.4488Y-4.9606
X4.4488Y-5.0394
X4.4882Y-3.4449
X4.4882Y-3.5236
X4.4882Y-4.2913
X4.4882Y-5.1181
X4.4882Y-5.1969
X4.5276Y-3.6024
X4.5276Y-3.6811
X4.5276Y-3.7598
X4.5276Y-3.8386
X4.5276Y-3.9173
X4.5276Y-3.9764
X4.5276Y-4.2913
X4.5276Y-4.4094
X4.5276Y-4.4882
X4.5276Y-4.5669
X4.5276Y-4.6457
X4.5276Y-4.7244
X4.5276Y-4.8031
X4.5276Y-4.8819
X4.5276Y-4.9606
X4.5276Y-5.0394
X4.5669Y-3.4449
X4.5669Y-3.5236
X4.5669Y-3.9764
X4.5669Y-4.2913
X4.5669Y-5.1181
X4.5669Y-5.1969
X4.6063Y-3.6024
X4.6063Y-3.6811
X4.6063Y-3.7598
X4.6063Y-3.8386
X4.6063Y-3.9173
X4.6063Y-3.9764
X4.6063Y-4.2913
X4.6063Y-4.4094
X4.6063Y-4.4882
X4.6063Y-4.5669
X4.6063Y-4.6457
X4.6063Y-4.7244
X4.6063Y-4.8031
X4.6063Y-4.8819
X4.6063Y-4.9606
X4.6063Y-5.0394
X4.6457Y-3.4449
X4.6457Y-3.5236
X4.6457Y-3.9764
X4.6457Y-4.2913
X4.6457Y-5.1181
X4.6457Y-5.1969
X4.685Y-3.6024
X4.685Y-3.6811
X4.685Y-3.7598
X4.685Y-3.8386
X4.685Y-3.9173
X4.685Y-3.9764
X4.685Y-4.2913
X4.685Y-4.4094
X4.685Y-4.4882
X4.685Y-4.5669
X4.685Y-4.6457
X4.685Y-4.7244
X4.685Y-4.8031
X4.685Y-4.8819
X4.685Y-4.9606
X4.685Y-5.0394
X4.7244Y-3.4449
X4.7244Y-3.5236
X4.7244Y-3.9764
X4.7244Y-4.2913
X4.7244Y-5.1181
X4.7244Y-5.1969
X4.7638Y-3.6024
X4.7638Y-3.6811
X4.7638Y-3.7598
X4.7638Y-3.8386
X4.7638Y-3.9173
X4.7638Y-3.9764
X4.7638Y-4.2913
X4.7638Y-4.4094
X4.7638Y-4.4882
X4.7638Y-4.5669
X4.7638Y-4.6457
X4.7638Y-4.7244
X4.7638Y-4.8031
X4.7638Y-4.8819
X4.7638Y-4.9606
X4.7638Y-5.0394
X4.8031Y-3.4449
X4.8031Y-3.5236
X4.8031Y-3.9764
X4.8031Y-4.2913
X4.8031Y-5.1181
X4.8031Y-5.1969
X4.8425Y-3.6024
X4.8425Y-3.6811
X4.8425Y-3.7598
X4.8425Y-3.8386
X4.8425Y-3.9173
X4.8425Y-3.9764
X4.8425Y-4.2913
X4.8425Y-4.4094
X4.8425Y-4.4882
X4.8425Y-4.5669
X4.8425Y-4.6457
X4.8425Y-4.7244
X4.8425Y-4.8031
X4.8425Y-4.8819
X4.8425Y-4.9606
X4.8425Y-5.0394
X4.8819Y-3.4449
X4.8819Y-3.5236
X4.8819Y-3.9764
X4.8819Y-4.2913
X4.8819Y-5.1181
X4.8819Y-5.1969
X4.9213Y-3.6024
X4.9213Y-3.6811
X4.9213Y-3.7598
X4.9213Y-3.8386
X4.9213Y-3.9173
X4.9213Y-3.9764
X4.9213Y-4.6457
X4.9213Y-4.7244
X4.9213Y-4.8031
X4.9213Y-4.8819
X4.9213Y-4.9606
X4.9213Y-5.0394
X4.9606Y-3.4449
X4.9606Y-3.5236
X4.9606Y-3.9764
X4.9606Y-5.1181
X4.9606Y-5.1969
X5.Y-3.6024
X5.Y-3.6811
X5.Y-3.7598
X5.Y-3.8386
X5.Y-3.9173
X5.Y-3.9764
X5.Y-4.5669
X5.Y-4.6063
X5.Y-4.6457
X5.Y-4.685
X5.Y-4.7244
X5.Y-4.7638
X5.Y-4.8031
X5.Y-4.8819
X5.Y-4.9606
X5.Y-5.0394
X5.0394Y-3.4449
X5.0394Y-3.5236
X5.0394Y-3.9764
X5.0394Y-4.2913
X5.0394Y-4.8031
X5.0394Y-5.1181
X5.0394Y-5.1969
X5.0787Y-3.6024
X5.0787Y-3.6811
X5.0787Y-3.7598
X5.0787Y-3.8386
X5.0787Y-3.9173
X5.0787Y-3.9764
X5.0787Y-4.2913
X5.0787Y-4.8031
X5.0787Y-4.8819
X5.0787Y-4.9606
X5.0787Y-5.0394
X5.1181Y-3.4449
X5.1181Y-3.5236
X5.1181Y-3.9764
X5.1181Y-4.2913
X5.1181Y-4.8031
X5.1181Y-5.1181
X5.1181Y-5.1969
X5.1575Y-3.6024
X5.1575Y-3.6811
X5.1575Y-3.7598
X5.1575Y-3.8386
X5.1575Y-3.9173
X5.1575Y-3.9764
X5.1575Y-4.2913
X5.1575Y-4.8031
X5.1575Y-4.8819
X5.1575Y-4.9606
X5.1575Y-5.0394
X5.1969Y-3.4449
X5.1969Y-3.5236
X5.1969Y-3.9764
X5.1969Y-4.2913
X5.1969Y-4.8031
X5.2362Y-3.9764
X5.2362Y-4.2913
X5.2362Y-4.8031
X5.2362Y-4.8819
X5.2362Y-4.9606
X5.2756Y-3.4449
X5.2756Y-3.5236
X5.2756Y-3.9764
X5.2756Y-4.2913
X5.2756Y-4.8031
X5.315Y-3.9764
X5.315Y-4.2913
X5.315Y-4.8031
X5.315Y-4.8819
X5.315Y-4.9606
X5.3543Y-3.4449
X5.3543Y-3.5236
X5.3543Y-3.9764
X5.3543Y-4.2913
X5.3543Y-4.8031
X5.3937Y-4.2913
X5.3937Y-3.9764
X5.3937Y-4.8031
X5.3937Y-4.8819
X5.4331Y-3.4449
X5.4331Y-3.5236
X5.4331Y-3.9764
X5.4331Y-4.8031
X5.4331Y-4.2913
X5.4724Y-3.9764
X5.4724Y-4.8031
X5.4724Y-4.2913
X5.5118Y-3.4449
X5.5118Y-3.5236
X5.5118Y-3.9764
X5.5512Y-3.9764
X5.5512Y-4.2913
X5.5906Y-3.4449
X5.5906Y-3.5236
X5.5906Y-3.9764
X5.5906Y-4.2913
X5.5906Y-4.6063
X5.5906Y-4.9606
X5.6299Y-3.9764
X5.6299Y-4.2913
X5.6299Y-4.3701
X5.6299Y-4.6063
X5.6299Y-4.9606
X5.6693Y-3.4449
X5.6693Y-3.5236
X5.6693Y-3.9764
X5.6693Y-4.2913
X5.6693Y-4.3701
X5.6693Y-4.4094
X5.6693Y-4.4488
X5.6693Y-4.4882
X5.6693Y-4.5276
X5.6693Y-4.5669
X5.6693Y-4.6063
X5.6693Y-4.9606
X5.7087Y-3.9764
X5.7087Y-4.2913
X5.7087Y-4.3701
X5.7087Y-4.6063
X5.7087Y-4.9606
X5.748Y-3.4449
X5.748Y-3.5236
X5.748Y-3.6024
X5.748Y-3.6811
X5.748Y-3.7598
X5.748Y-3.8386
X5.748Y-3.9173
X5.748Y-3.9764
X5.748Y-4.2913
X5.748Y-4.3701
X5.748Y-4.6063
X5.748Y-4.9606
X5.748Y-5.1969
X5.7874Y-3.9764
X5.7874Y-4.2913
X5.7874Y-4.3701
X5.7874Y-4.6063
X5.8071Y-5.1969
X5.8268Y-3.4449
X5.8268Y-3.5236
X5.8268Y-3.6024
X5.8268Y-3.6811
X5.8268Y-3.7598
X5.8268Y-3.8386
X5.8268Y-3.9173
X5.8268Y-3.9764
X5.8268Y-4.2913
X5.8268Y-4.3701
X5.8268Y-4.6063
X5.8661Y-3.9764
X5.8661Y-4.2913
X5.8661Y-4.3701
X5.8661Y-5.1969
X5.9055Y-3.4449
X5.9055Y-3.5236
X5.9055Y-3.6024
X5.9055Y-3.6811
X5.9055Y-3.7598
X5.9055Y-3.8386
X5.9055Y-3.9173
X5.9055Y-3.9764
X5.9055Y-4.2913
X5.9055Y-4.3701
X5.9252Y-5.1969
X5.9449Y-3.9764
X5.9449Y-4.2913
X5.9449Y-4.3701
X5.9488Y-4.7441
X5.9843Y-3.4449
X5.9843Y-3.5236
X5.9843Y-3.6024
X5.9843Y-3.6811
X5.9843Y-3.7598
X5.9843Y-3.8386
X5.9843Y-3.9173
X5.9843Y-3.9764
X5.9843Y-4.2913
X5.9843Y-4.3701
X5.9843Y-4.7441
X5.9843Y-5.1969
X6.0157Y-4.7441
X6.0236Y-3.9764
X6.0236Y-4.2913
X6.0236Y-4.3701
X6.0433Y-5.1969
X6.063Y-3.4449
X6.063Y-3.5236
X6.063Y-3.6024
X6.063Y-3.6811
X6.063Y-3.7598
X6.063Y-3.8386
X6.063Y-3.9173
X6.063Y-3.9764
X6.063Y-4.2913
X6.063Y-4.3701
X6.063Y-4.5866
X6.1024Y-3.9764
X6.1024Y-4.2913
X6.1024Y-4.3701
X6.1024Y-4.5866
X6.1417Y-3.4449
X6.1417Y-3.5236
X6.1417Y-3.6024
X6.1417Y-3.6811
X6.1417Y-3.7598
X6.1417Y-3.8386
X6.1417Y-3.9173
X6.1417Y-3.9764
X6.1417Y-4.2913
X6.1417Y-4.3701
X6.1417Y-4.5866
X6.1811Y-3.9764
X6.1811Y-4.2913
X6.1811Y-4.3701
X6.1811Y-4.5866
X6.2008Y-5.1969
X6.2205Y-3.4449
X6.2205Y-3.5236
X6.2205Y-3.6024
X6.2205Y-3.6811
X6.2205Y-3.7598
X6.2205Y-3.8386
X6.2205Y-3.9173
X6.2205Y-3.9764
X6.2205Y-4.2913
X6.2205Y-4.3701
X6.2598Y-3.9764
X6.2598Y-4.2913
X6.2598Y-4.3701
X6.2992Y-3.4449
X6.2992Y-3.5236
X6.2992Y-3.6024
X6.2992Y-3.6811
X6.2992Y-3.7598
X6.2992Y-3.8386
X6.2992Y-3.9173
X6.2992Y-3.9764
X6.2992Y-4.2913
X6.2992Y-4.3701
X6.3386Y-3.9764
X6.3386Y-4.2913
X6.3386Y-4.3701
X6.378Y-3.4449
X6.378Y-3.5236
X6.378Y-3.6024
X6.378Y-3.6811
X6.378Y-3.7598
X6.378Y-3.8386
X6.378Y-3.9173
X6.378Y-3.9764
X6.378Y-4.2913
X6.378Y-4.3701
X6.4173Y-3.9764
X6.4173Y-4.2913
X6.4173Y-4.3701
X6.4567Y-3.4449
X6.4567Y-3.5236
X6.4567Y-3.6024
X6.4567Y-3.6811
X6.4567Y-3.7598
X6.4567Y-3.8386
X6.4567Y-3.9173
X6.4567Y-3.9764
X6.4567Y-4.2913
X6.4567Y-4.3701
X6.4961Y-3.9764
X6.4961Y-4.2913
X6.4961Y-4.4094
X6.4961Y-4.6063
X6.4961Y-4.6457
X6.4961Y-4.685
X6.4961Y-4.7244
X6.4961Y-4.7638
X6.4961Y-4.8031
X6.4961Y-4.8425
X6.4961Y-4.8819
X6.4961Y-4.9213
X6.4961Y-4.9606
X6.5354Y-3.4449
X6.5354Y-3.5236
X6.5354Y-3.6024
X6.5354Y-3.6811
X6.5354Y-3.7598
X6.5354Y-3.8386
X6.5354Y-3.9173
X6.5354Y-3.9764
X6.5354Y-4.2913
X6.5551Y-4.4488
X6.5748Y-3.9764
X6.5748Y-4.2913
X6.6142Y-3.4449
X6.6142Y-3.5236
X6.6142Y-3.6024
X6.6142Y-3.6811
X6.6142Y-3.7598
X6.6142Y-3.8386
X6.6142Y-3.9173
X6.6142Y-3.9764
X6.6142Y-4.2913
X6.6142Y-4.4882
X6.6535Y-3.9764
X6.6535Y-4.2913
X6.6535Y-4.5276
X6.6535Y-4.5669
X6.6535Y-4.7244
X6.6535Y-4.8819
X6.6535Y-4.9213
X6.6535Y-4.9606
X6.6929Y-3.4449
X6.6929Y-3.5236
X6.6929Y-3.6024
X6.6929Y-3.6811
X6.6929Y-3.7598
X6.6929Y-3.8386
X6.6929Y-3.9173
X6.6929Y-3.9764
X6.6929Y-4.2913
X6.6929Y-4.5669
X6.6929Y-4.7244
X6.6929Y-4.8819
X6.7323Y-3.9764
X6.7323Y-4.2913
X6.7323Y-4.7244
X6.7323Y-4.8819
X6.7717Y-3.4449
X6.7717Y-3.5236
X6.7717Y-3.6024
X6.7717Y-3.6811
X6.7717Y-3.7598
X6.7717Y-3.8386
X6.7717Y-3.9173
X6.7717Y-3.9764
X6.7717Y-4.2913
X6.7717Y-4.5669
X6.7717Y-4.7244
X6.7717Y-4.8819
X6.7717Y-4.9803
X6.7717Y-5.0984
X6.7717Y-5.1772
X6.7717Y-5.2559
X6.811Y-3.9764
X6.811Y-4.2913
X6.811Y-4.5669
X6.811Y-4.7244
X6.811Y-4.8819
X6.8504Y-3.4449
X6.8504Y-3.5236
X6.8504Y-3.6024
X6.8504Y-3.6811
X6.8504Y-3.7598
X6.8504Y-3.8386
X6.8504Y-3.9173
X6.8504Y-3.9764
X6.8504Y-4.2913
X6.8504Y-4.5669
X6.8504Y-4.6063
X6.8504Y-4.6457
X6.8504Y-4.685
X6.8504Y-4.7244
X6.8504Y-4.7638
X6.8504Y-4.8031
X6.8504Y-4.8425
X6.8504Y-4.8819
X6.8504Y-4.9803
X6.8504Y-5.0984
X6.8504Y-5.1772
X6.8504Y-5.2559
X6.8898Y-3.9764
X6.8898Y-4.2913
X6.9291Y-3.4449
X6.9291Y-3.5236
X6.9291Y-3.6024
X6.9291Y-3.6811
X6.9291Y-3.7598
X6.9291Y-3.9764
X6.9291Y-4.2913
X6.9291Y-4.3504
X6.9291Y-4.4291
X6.9291Y-4.5079
X6.9291Y-4.5866
X6.9291Y-4.6654
X6.9291Y-4.7441
X6.9291Y-4.8228
X6.9291Y-4.9016
X6.9291Y-4.9803
X6.9291Y-5.0984
X6.9291Y-5.1772
X6.9291Y-5.2559
X6.9685Y-3.9764
X6.9685Y-4.2913
X7.0079Y-3.4449
X7.0079Y-3.5236
X7.0079Y-3.6024
X7.0079Y-3.6811
X7.0079Y-3.7598
X7.0079Y-3.9764
X7.0079Y-4.2913
X7.0079Y-4.3504
X7.0079Y-4.4291
X7.0079Y-4.5079
X7.0079Y-4.5866
X7.0079Y-4.6654
X7.0079Y-4.7441
X7.0079Y-4.8228
X7.0079Y-4.9016
X7.0079Y-4.9803
X7.0079Y-5.0984
X7.0079Y-5.1772
X7.0079Y-5.2559
X7.0472Y-3.9764
X7.0472Y-4.2913
X7.0866Y-3.4449
X7.0866Y-3.5236
X7.0866Y-3.6024
X7.0866Y-3.6811
X7.0866Y-3.7598
X7.0866Y-3.8386
X7.0866Y-3.9173
X7.0866Y-3.9764
X7.0866Y-4.2913
X7.0866Y-4.3504
X7.0866Y-4.4291
X7.0866Y-4.5079
X7.0866Y-4.5866
X7.0866Y-4.6654
X7.0866Y-4.7441
X7.0866Y-4.8228
X7.0866Y-4.9016
X7.0866Y-4.9803
X7.0866Y-5.0984
X7.0866Y-5.1772
X7.0866Y-5.2559
X7.126Y-3.9764
X7.126Y-4.2913
X7.1654Y-3.6811
X7.1654Y-3.7598
X7.1654Y-3.8386
X7.1654Y-3.9173
X7.1654Y-4.3504
X7.1654Y-4.4291
X7.1654Y-4.5079
X7.1654Y-4.5866
X7.1654Y-4.6654
X7.1654Y-4.7441
X7.1654Y-4.8228
X7.1654Y-4.9016
X7.1654Y-4.9803
X7.1654Y-5.2559
X7.2441Y-3.6811
X7.2441Y-3.7598
X7.2441Y-3.8386
X7.2441Y-3.9173
X7.2441Y-4.3504
X7.2441Y-4.4291
X7.2441Y-4.5079
X7.2441Y-4.5866
X7.2441Y-4.6654
X7.2441Y-4.7441
X7.2441Y-4.8228
X7.2441Y-4.9016
X7.2441Y-4.9803
X7.3228Y-3.6811
X7.3228Y-3.7598
X7.3228Y-3.8386
X7.3228Y-3.9173
X7.3228Y-4.3504
X7.3228Y-4.4291
X7.3228Y-4.5079
X7.3228Y-4.5866
X7.3228Y-4.6654
X7.3228Y-4.7441
X7.3228Y-4.8228
X7.3228Y-4.9016
X7.3228Y-4.9803
X7.4016Y-3.6811
X7.4016Y-3.7598
X7.4016Y-3.8386
X7.4016Y-3.9173
X7.4016Y-4.3504
X7.4016Y-4.4291
X7.4016Y-4.5079
X7.4016Y-4.5866
X7.4016Y-4.6654
X7.4016Y-4.7441
X7.4016Y-4.8228
X7.4016Y-4.9016
X7.4016Y-4.9803
T2
X6.378Y-4.4882
X6.9685Y-3.878
X5.2756Y-4.6654
X5.3506Y-3.6839
X5.7874Y-4.4882
T3
X5.2315Y-5.1378
X5.3315Y-5.1378
X5.4315Y-5.1378
X5.5315Y-5.1378
X5.6315Y-5.1378
T4
X7.2031Y-4.0339
X7.2031Y-4.2339
X7.3031Y-4.1339
X7.4031Y-4.0339
X7.4031Y-4.2339
X3.6205Y-4.0339
X3.6205Y-4.2339
X3.7205Y-4.1339
X3.8205Y-4.0339
X3.8205Y-4.2339
X6.4748Y-5.0378
X6.4748Y-5.2378
X6.5748Y-5.1378
X6.6748Y-5.0378
X6.6748Y-5.2378
T5
X4.9803Y-4.4094
T6
X6.6535Y-4.1339
X3.7402Y-5.1181
X3.7402Y-3.5433
X7.2835Y-5.1181
X7.2835Y-3.5433
X5.5315Y-3.7795
T0
M30
